<svg xmlns="http://www.w3.org/2000/svg" width="93" height="159" viewBox="0 0 93 159"><defs><style>.cls-1{fill:#f7931e;}.cls-1,.cls-2,.cls-3,.cls-6{stroke:#44210b;}.cls-1,.cls-2,.cls-3,.cls-5,.cls-6{stroke-miterlimit:10;}.cls-1,.cls-2,.cls-3,.cls-5{stroke-width:3px;}.cls-2{fill:#39b54a;}.cls-3{fill:none;}.cls-4{fill:#fff;}.cls-5{stroke:#000;}.cls-6{fill:#d65fbf;}</style></defs><g id="characters"><path class="cls-1" d="M91,103.14c-1.89,34.53-26.25,55.14-47.27,54S.16,131.56,2,98.26C3.88,63.73,28.57,37,49.58,38.16S92.9,68.61,91,103.14Z"/><path class="cls-2" d="M62,43.43c-4.38-3.3-27.33-1.21-29.24.42-5.1,3.31-6.62,6.2-10.09-2.69C20.83,36.44,21,26.05,24.29,20.1A16.78,16.78,0,0,1,33,12.94C32.7,26.16,41.61,31.77,42,25.38c20.08-33.93,8,4,17.41,2.21,5-.94,13.56-17.93,12.63-3.07C70.29,52.55,72.75,40.4,62,43.43Z"/><line class="cls-3" x1="26.6" y1="47.12" x2="90.75" y2="107.9"/><line class="cls-3" x1="41.18" y1="43.17" x2="90.43" y2="88.79"/><line class="cls-3" x1="14.19" y1="62.12" x2="85.66" y2="126.02"/><line class="cls-3" x1="5.86" y1="77.34" x2="75.94" y2="141.85"/><line class="cls-3" x1="2.13" y1="95.54" x2="61.67" y2="153.34"/><line class="cls-3" x1="3.09" y1="115.36" x2="50.58" y2="156.82"/><line class="cls-3" x1="60.99" y1="41.51" x2="3.09" y2="115.36"/><line class="cls-3" x1="74.06" y1="51.77" x2="11.03" y2="132.15"/><line class="cls-3" x1="85.36" y1="69.43" x2="21.12" y2="147.02"/><line class="cls-3" x1="91.38" y1="96.34" x2="39.02" y2="156.18"/><line class="cls-3" x1="41.18" y1="43.17" x2="3.11" y2="90.14"/><path class="cls-4" d="M53.14,82.45c6.43,0,6.44-10,0-10s-6.45,10,0,10Z"/><circle cx="54.82" cy="79.34" r="7.83"/><circle cx="34.97" cy="80.98" r="7.83"/><path class="cls-4" d="M33.28,84.08c6.43,0,6.44-10,0-10s-6.45,10,0,10Z"/><path class="cls-5" d="M36.11,95.94v.18c0,6.66,4.88,12.07,10.89,12.07s10.89-5.41,10.89-12.07v-.18Z"/><circle class="cls-6" cx="23.69" cy="90.67" r="9.36"/><circle class="cls-6" cx="69.97" cy="90.67" r="10.04"/><path class="cls-4" d="M52.13,82.72c6.43,0,6.44-10,0-10s-6.45,10,0,10Z"/></g></svg>