<svg xmlns="http://www.w3.org/2000/svg" width="100" height="189" viewBox="0 0 100 189"><defs><style>.cls-1{fill:#421542;stroke-width:3px;}.cls-1,.cls-2{stroke:#44210b;}.cls-1,.cls-2,.cls-4,.cls-5{stroke-miterlimit:10;}.cls-2{fill:#009245;}.cls-2,.cls-4,.cls-5{stroke-width:2px;}.cls-3{fill:#fff;}.cls-4,.cls-5{stroke:#000;}.cls-5{fill:none;}</style></defs><g id="characters"><path class="cls-1" d="M95.05,94.17C105.37,128,75.9,203.07,38.84,182.62-26.83,146.38,17.18,125.47,18.75,95S-2.8,20.45,25.61,16.28,84.73,60.33,95.05,94.17Z"/><path class="cls-2" d="M43.54,17.32C25.15,4.8,6.37,8.14,10.38,36S19.48,8.77,26,33.47s-3-15.28,20.35-1.19S61.92,29.83,43.54,17.32Z"/><path class="cls-2" d="M18,11.26c.73-.19,1.38-.59,2.09-.82C16.36,2.08,21.69,1.64,8.43,3a4.07,4.07,0,0,0,.83,1.83C17.73,1,16.41,6.52,18,11.26Z"/><circle cx="27.52" cy="64.5" r="8.91"/><path class="cls-3" d="M25.48,67.45c6.44,0,6.45-10,0-10s-6.44,10,0,10Z"/><circle cx="56.36" cy="53.76" r="9.64"/><path class="cls-3" d="M54.15,56.54c6.44,0,6.45-10,0-10s-6.44,10,0,10Z"/><path class="cls-4" d="M38.51,77.42a18.1,18.1,0,0,1,.31-1.84c.87-3.73,2.85-6.38,5.59-7.45s6-.48,9.15,1.67c.51.34,1,.73,1.49,1.13l1.4-.55c-3.88-3.51-8.52-5-12.5-3.4s-6.39,5.78-6.85,11Z"/><line class="cls-5" x1="24.66" y1="50.43" x2="35.48" y2="54.7"/><line class="cls-5" x1="46.64" y1="42.54" x2="41.34" y2="51.7"/></g></svg>