<svg xmlns="http://www.w3.org/2000/svg" width="115" height="184" viewBox="0 0 115 184"><defs><style>.cls-1{fill:#007114;stroke:#44210b;}.cls-1,.cls-5,.cls-6{stroke-miterlimit:10;stroke-width:2px;}.cls-2{fill:#92a53f;}.cls-3{fill:#726014;}.cls-4{fill:#fff;}.cls-5,.cls-6{stroke:#000;}.cls-6{fill:none;}</style></defs><g id="characters"><path class="cls-1" d="M104.59,96.62c18.23,22.79,5.72,79.23-36.93,84.64s-83.43-45.3-57-80.3,3.24-72.33,41.87-81.69S86.36,73.82,104.59,96.62Z"/><path class="cls-2" d="M99.13,113c14.27,14.56-2.28,56.12-40.33,54S3.46,127.22,23.63,104.18s5.93-76.92,32.19-72.83S84.86,98.4,99.13,113Z"/><circle class="cls-3" cx="63.36" cy="124.75" r="30.44"/><circle cx="40.53" cy="57.16" r="10.3"/><path class="cls-4" d="M38.17,59.79c6.44,0,6.45-10,0-10s-6.44,10,0,10Z"/><circle cx="70.97" cy="54.47" r="10.3"/><path class="cls-4" d="M68.61,57.1c6.44,0,6.45-10,0-10s-6.44,10,0,10Z"/><path class="cls-5" d="M46.76,80.88a21.87,21.87,0,0,1,1.2-2c2.69-3.92,6.18-6.07,9.83-6.07s7.13,2.15,9.82,6.07a21.87,21.87,0,0,1,1.2,2h1.88c-2.9-5.81-7.6-9.6-12.9-9.6s-10,3.79-12.91,9.6Z"/><line class="cls-6" x1="37.56" y1="36.3" x2="52.45" y2="44.89"/><line class="cls-6" x1="66.48" y1="31.18" x2="55.76" y2="44.63"/></g></svg>