<svg xmlns="http://www.w3.org/2000/svg" xmlns:xlink="http://www.w3.org/1999/xlink" width="1920" height="1080" viewBox="0 0 1920 1080"><defs><style>.cls-1{fill:#d65fbf;}.cls-2{fill:url(#New_Gradient_Swatch);}.cls-3,.cls-8{fill:#fff;}.cls-3,.cls-5,.cls-6{stroke:#42210b;}.cls-11,.cls-12,.cls-13,.cls-14,.cls-15,.cls-16,.cls-17,.cls-18,.cls-19,.cls-20,.cls-3,.cls-4,.cls-5,.cls-6{stroke-miterlimit:10;}.cls-3,.cls-5{stroke-width:6px;}.cls-12,.cls-4{stroke:#000;}.cls-11,.cls-4{stroke-width:2px;}.cls-5{fill:#fcfcfc;}.cls-6{fill:#00b428;}.cls-12,.cls-6{stroke-width:3px;}.cls-7{fill:#42210b;}.cls-9{fill:#006837;}.cls-10{fill:#44210b;}.cls-11{fill:#ed1c24;}.cls-11,.cls-13,.cls-14,.cls-15,.cls-16,.cls-17,.cls-18,.cls-19,.cls-20{stroke:#44210b;}.cls-13{fill:url(#hfuivhgv7eg);}.cls-14{fill:url(#hfuivhgv7eg-2);}.cls-15{fill:url(#hfuivhgv7eg-3);}.cls-16{fill:url(#hfuivhgv7eg-4);}.cls-17{fill:url(#hfuivhgv7eg-5);}.cls-18{fill:url(#hfuivhgv7eg-6);}.cls-19{fill:url(#hfuivhgv7eg-7);}.cls-20{fill:url(#hfuivhgv7eg-8);}</style><linearGradient id="New_Gradient_Swatch" y1="546" x2="1920" y2="546" gradientUnits="userSpaceOnUse"><stop offset="0" stop-color="#eec9db"/><stop offset="0.01" stop-color="#eec3d9" stop-opacity="0.98"/><stop offset="0.35" stop-color="#e538b3" stop-opacity="0.57"/><stop offset="0.5" stop-color="#e100a3" stop-opacity="0.4"/><stop offset="0.7" stop-color="#df42ab" stop-opacity="0.66"/><stop offset="0.9" stop-color="#de7eb3" stop-opacity="0.91"/><stop offset="1" stop-color="#dd96b6"/></linearGradient><linearGradient id="hfuivhgv7eg" x1="317.87" y1="192.95" x2="456.45" y2="192.95" gradientUnits="userSpaceOnUse"><stop offset="0" stop-color="#eec9db"/><stop offset="0.25" stop-color="#f455ff"/><stop offset="0.31" stop-color="#ec5aff" stop-opacity="0.95"/><stop offset="0.5" stop-color="#d46aff" stop-opacity="0.8"/><stop offset="0.56" stop-color="#dc53ff" stop-opacity="0.86"/><stop offset="0.72" stop-color="#f015ff"/><stop offset="0.81" stop-color="#e942e5"/><stop offset="0.94" stop-color="#e07ec3"/><stop offset="1" stop-color="#dd96b6"/></linearGradient><linearGradient id="hfuivhgv7eg-2" x1="456.83" y1="208.9" x2="579.46" y2="208.9" xlink:href="#hfuivhgv7eg"/><linearGradient id="hfuivhgv7eg-3" x1="585.92" y1="222.57" x2="771.95" y2="222.57" xlink:href="#hfuivhgv7eg"/><linearGradient id="hfuivhgv7eg-4" x1="778.4" y1="208.9" x2="901.04" y2="208.9" xlink:href="#hfuivhgv7eg"/><linearGradient id="hfuivhgv7eg-5" x1="1019.49" y1="207" x2="1142.12" y2="207" xlink:href="#hfuivhgv7eg"/><linearGradient id="hfuivhgv7eg-6" x1="1148.58" y1="207.57" x2="1271.21" y2="207.57" xlink:href="#hfuivhgv7eg"/><linearGradient id="hfuivhgv7eg-7" x1="1277.66" y1="208.9" x2="1400.29" y2="208.9" xlink:href="#hfuivhgv7eg"/><linearGradient id="hfuivhgv7eg-8" x1="1406.37" y1="207" x2="1497.11" y2="207" xlink:href="#hfuivhgv7eg"/></defs><g id="characters"><rect class="cls-1" x="6" y="8" width="1916" height="1078"/><rect class="cls-2" y="6" width="1920" height="1080"/><path class="cls-3" d="M474.19,877.76a36.69,36.69,0,0,0-9.33-6.77,76.14,76.14,0,0,0,12.62-25.07c11.72-41-40.63-60-90.76-60-21.42,0-41.09,4.92-56.62,13.13-9.35-8.25-20.9-13.13-33.42-13.13-19.89,0-37.37,12.33-47.4,30.93a61,61,0,0,0-36.78-11.89c-30.72,0-55.63,21.3-55.63,47.58,0,12,5.26,23.06,13.9,31.44a40.61,40.61,0,0,0-8.07,13.15c-9.84,26.35,9.77,58,43.81,70.73C233.65,978,261.76,973,277,957.18,290,973.72,315.9,985,345.73,985c35.54,0,65.48-16,74.66-37.85,15.67,8.19,36.51,4.83,50.87-9.53C488.6,920.28,489.91,893.48,474.19,877.76Z"/><circle class="cls-1" cx="368.46" cy="877.43" r="19.76"/><circle class="cls-1" cx="261.55" cy="876.11" r="19.76"/><path class="cls-4" d="M275.71,859.56a31.24,31.24,0,0,1,1.67-2.74c3.71-5.42,8.54-8.41,13.58-8.41s9.86,3,13.58,8.41a28.91,28.91,0,0,1,1.66,2.74h2.6c-4-8-10.5-13.27-17.84-13.27s-13.83,5.23-17.84,13.27Z"/><path class="cls-4" d="M323.5,859.56a28.91,28.91,0,0,1,1.66-2.74c3.72-5.42,8.54-8.41,13.58-8.41s9.87,3,13.58,8.41a31.24,31.24,0,0,1,1.67,2.74h2.59c-4-8-10.5-13.27-17.84-13.27s-13.83,5.23-17.84,13.27Z"/><path class="cls-4" d="M330.37,876.15a28,28,0,0,1-1.63,2.7c-3.65,5.32-8.38,8.25-13.33,8.25s-9.68-2.93-13.33-8.25a28,28,0,0,1-1.63-2.7H297.9c3.93,7.89,10.31,13,17.51,13s13.57-5.14,17.5-13Z"/><path class="cls-5" d="M547.09,686.26c-.84-12.37-24.08-20.87-51.91-19-15.06,1-28.38,4.87-37.3,10.15,11.5-10.73,19.46-24.68,20.57-40.86,2.45-35.47-44.06-64.38-79.59-64.38S323.25,601,323.25,636.57c0,17.62,9.85,33.59,24.11,45.22-11.11.17-27.32,8.78-41.74,23.2-19.73,19.73-28.61,42.82-19.84,51.59,7,6.95,22.92,2.79,39.07-9.07a76.58,76.58,0,0,0,27.94,50,58.7,58.7,0,0,0-1.09,11.33c0,19.24,8.95,34.84,20,34.84,10.06,0,18.38-12.93,19.78-29.77a79.32,79.32,0,0,0,9.43.57c1.39,0,2.77,0,4.15-.11,1.52,16.61,9.78,29.31,19.74,29.31,11,0,20-15.6,20-34.84a60,60,0,0,0-.51-7.81,76.72,76.72,0,0,0,28.37-90.24,102.59,102.59,0,0,0,25.57,1.33C526,710.18,547.93,698.63,547.09,686.26Z"/><circle class="cls-1" cx="428.82" cy="631.59" r="8.63"/><circle class="cls-1" cx="377.05" cy="631.59" r="8.63"/><circle cx="420.19" cy="622.96" r="8.96"/><circle cx="383.02" cy="622.96" r="8.96"/><path class="cls-6" d="M396,543.59c3.53,4.06,5.85,11.2,2.66,14s-10.68.12-14.21-3.95-6.9-10.67-3.71-13.44S392.43,539.52,396,543.59Z"/><path class="cls-6" d="M415.22,555.42c-4.07,3.53-11.2,4.27-14,1.08s-.11-9.09,3.95-12.62,12.26-6.9,15-3.72S419.29,551.89,415.22,555.42Z"/><path class="cls-7" d="M398.76,556.93v13.23a1.5,1.5,0,0,0,3,0V556.93a1.5,1.5,0,0,0-3,0Z"/><path class="cls-7" d="M400.89,554.77a4.48,4.48,0,0,0,4.21-1c.54-.42,1-.91,1.6-1.28a10.71,10.71,0,0,1,1.77-.86,18.69,18.69,0,0,0,6.79-4.72,1.55,1.55,0,0,0,0-2.13,1.52,1.52,0,0,0-2.12,0,15.78,15.78,0,0,1-5.54,4,12.94,12.94,0,0,0-3.43,1.9c-.7.57-1.53,1.52-2.48,1.17a1.5,1.5,0,0,0-1.84,1,1.52,1.52,0,0,0,1,1.85Z"/><path class="cls-7" d="M407.08,550.71a11.33,11.33,0,0,1,0-2.79l-.06.4q.07-.5.18-1a1.5,1.5,0,0,0-1-1.84,1.5,1.5,0,0,0-1.85,1,12.71,12.71,0,0,0-.27,4.17,1.66,1.66,0,0,0,.44,1.06,1.56,1.56,0,0,0,1.06.44,1.54,1.54,0,0,0,1.06-.44,1.44,1.44,0,0,0,.44-1.06Z"/><path class="cls-7" d="M412.17,550.22a8.42,8.42,0,0,0,2.5.17,10.76,10.76,0,0,0,1.4-.23,10.55,10.55,0,0,0,1.33-.48,1.47,1.47,0,0,0,.68-.9,1.49,1.49,0,0,0-.15-1.15,1.47,1.47,0,0,0-.89-.69l-.4-.06a1.48,1.48,0,0,0-.76.21l-.07,0,.36-.16a6.54,6.54,0,0,1-1.68.46l.4-.06a6.93,6.93,0,0,1-1.82,0l.4,0-.5-.09a1.64,1.64,0,0,0-1.15.15,1.55,1.55,0,0,0-.69.9,1.53,1.53,0,0,0,1,1.85Z"/><path class="cls-7" d="M399.23,556c-1.15-2.52-3.47-4.2-5.62-5.83l-.33-.26s-.48-.37-.26-.19l-.76-.61a15.27,15.27,0,0,1-1.39-1.28,7.92,7.92,0,0,1-.61-.69c.16.2,0,0-.08-.12s-.2-.28-.29-.43a6.72,6.72,0,0,1-.4-.75c0-.1,0-.08,0,0a2.34,2.34,0,0,1-.09-.24c-.06-.17-.11-.35-.16-.52a1.5,1.5,0,1,0-2.89.8c.75,2.81,2.94,4.7,5.16,6.4,1.94,1.49,4.08,2.93,5.1,5.19a1.52,1.52,0,0,0,2.06.54,1.55,1.55,0,0,0,.53-2.06Z"/><path class="cls-7" d="M394.69,551v-5.65a1.5,1.5,0,0,0-3,0V551a1.5,1.5,0,0,0,3,0Z"/><path class="cls-7" d="M397.06,553.5c-2.07-.65-4.12-.07-6.22-.13l-.54,0c-.14,0-.15,0,0,0l-.27-.05c-.19,0-.39-.09-.58-.15l-.25-.08s-.28-.11-.13,0-.17-.1-.17-.1l-.22-.12-.21-.14c.11.08.11.1,0,0l-.17-.17c-.2-.18.05.1,0,0s-.27-.54-.17-.26a1.5,1.5,0,1,0-2.89.8A5.52,5.52,0,0,0,390,556.3a13.75,13.75,0,0,0,2.94,0,16.9,16.9,0,0,1,1.74-.09,4.64,4.64,0,0,1,1.55.24,1.53,1.53,0,0,0,1.85-1,1.55,1.55,0,0,0-1.05-1.85Z"/><path class="cls-7" d="M387.37,544.57a6.25,6.25,0,0,1-.72.17l-.18,0c.41-.08.19,0,.08,0s-.24,0-.37,0a5.94,5.94,0,0,1-.73,0h-.18c-.2,0,.32,0,.12,0l-.4-.08a5.75,5.75,0,0,1-.71-.2l-.17-.07a1,1,0,1,0,.1.05,3.36,3.36,0,0,0-.33-.16,5.64,5.64,0,0,1-.67-.4l-.15-.11c-.16-.11.23.19.09.07l-.32-.27a1.51,1.51,0,0,0-2.12,0,1.53,1.53,0,0,0,0,2.12,7.79,7.79,0,0,0,7.45,1.76,1.5,1.5,0,1,0-.79-2.89Z"/><path class="cls-7" d="M390.09,545.32a9.27,9.27,0,0,0-.27-3.63,1.55,1.55,0,0,0-.69-.9,1.59,1.59,0,0,0-1.15-.15,1.53,1.53,0,0,0-1.05,1.85,9.46,9.46,0,0,1,.21,1.06l-.05-.4a8.3,8.3,0,0,1,0,2.17,1.52,1.52,0,0,0,.44,1.07,1.51,1.51,0,0,0,1.06.43,1.49,1.49,0,0,0,1.06-.43l.24-.31a1.51,1.51,0,0,0,.2-.76Z"/><path class="cls-7" d="M404.62,554.34l.11,0-.4,0a7.87,7.87,0,0,1,1.94,0l-.4-.06a9,9,0,0,1,.93.19,1.61,1.61,0,0,0,1.16-.15,1.51,1.51,0,0,0,.54-2.06,1.59,1.59,0,0,0-.9-.69,9.18,9.18,0,0,0-1.88-.28,9.34,9.34,0,0,0-1.9.12,1.49,1.49,0,0,0-.89.69,1.52,1.52,0,0,0-.15,1.16,1.47,1.47,0,0,0,.69.89l.35.16a1.55,1.55,0,0,0,.8,0Z"/><path class="cls-7" d="M367.31,744.53c4.74-9.54,14.42-15.11,24.34-18,10.81-3.11,23.11-3.08,32.36,4.08a26.11,26.11,0,0,1,9.31,13.8,1.5,1.5,0,0,0,2.89-.8c-2.89-10.79-12.18-18.86-23-21.22a44.27,44.27,0,0,0-19.73.55,54.21,54.21,0,0,0-16,6.48A34,34,0,0,0,364.72,743c-.86,1.72,1.73,3.24,2.59,1.51Z"/><path class="cls-7" d="M411.86,795.94c2.67-4.09,9-5.32,13.5-5.46s10.57,1.18,12.41,5.82c.7,1.77,3.61,1,2.89-.8-2.31-5.84-9-8.1-14.85-8s-13.16,1.79-16.54,7c-1.06,1.62,1.54,3.12,2.59,1.51Z"/><path class="cls-7" d="M327.33,746.12a62.49,62.49,0,0,1,1.09-12.52,1.54,1.54,0,0,0-1-1.85,1.52,1.52,0,0,0-1.85,1,66.15,66.15,0,0,0-1.2,13.32,1.5,1.5,0,0,0,3,0Z"/><path class="cls-7" d="M470.33,707.48l-4.76-2.69a1.5,1.5,0,0,0-1.51,2.59l4.75,2.69a1.5,1.5,0,0,0,1.52-2.59Z"/><path class="cls-7" d="M347.38,683.83l5.42,2.72a1.5,1.5,0,0,0,1.52-2.59l-5.42-2.72a1.5,1.5,0,0,0-1.52,2.59Z"/><path d="M413.58,635.24a19.81,19.81,0,0,1-1,1.73c-2.34,3.4-5.36,5.27-8.53,5.27s-6.19-1.87-8.53-5.27a19.81,19.81,0,0,1-1-1.73h-1.63c2.51,5,6.59,8.34,11.2,8.34s8.69-3.29,11.2-8.34Z"/><path class="cls-8" d="M420.35,628.52c6.43,0,6.45-10,0-10s-6.45,10,0,10Z"/><path class="cls-8" d="M382.39,628.52c6.44,0,6.45-10,0-10s-6.44,10,0,10Z"/><path class="cls-9" d="M471.68,669.81c7.91,7.91,19.85,10.56,30.47,11.22,18.58,1.33,37.17-2,53.48-10.36"/><path class="cls-10" d="M470.89,670.61c7.76,7.66,18.82,10.52,29.4,11.41a108.14,108.14,0,0,0,36.5-3,96.74,96.74,0,0,0,19.41-7.4c1.29-.66.15-2.6-1.14-1.95a96.58,96.58,0,0,1-34.41,10,108.75,108.75,0,0,1-17.59.3,70.1,70.1,0,0,1-15.37-2.46A35.5,35.5,0,0,1,472.48,669c-1-1-2.63.57-1.59,1.59Z"/><polygon class="cls-11" points="534.98 633.81 513.84 597.17 492.68 633.79 471.51 670.42 556.11 670.45 534.98 633.81"/><path d="M490,666.34a1.5,1.5,0,0,0,0-3,1.5,1.5,0,0,0,0,3Z"/><path d="M501.3,651.2a1.5,1.5,0,0,0,0-3,1.5,1.5,0,0,0,0,3Z"/><path d="M507.4,624.54a1.5,1.5,0,0,0,0-3,1.5,1.5,0,0,0,0,3Z"/><path d="M518.47,624.09a1.5,1.5,0,0,0,0-3,1.5,1.5,0,0,0,0,3Z"/><path d="M512.83,608.89h-.23a1.06,1.06,0,0,0-.58.13,1.14,1.14,0,0,0-.48.31,1,1,0,0,0-.31.48,1.15,1.15,0,0,0-.13.58l0,.4a1.59,1.59,0,0,0,.39.66l.3.23a1.48,1.48,0,0,0,.76.21h.23a1.72,1.72,0,0,0,1.06-.44,1.24,1.24,0,0,0,.31-.48,1.27,1.27,0,0,0,.13-.58l-.06-.4a1.57,1.57,0,0,0-.38-.66l-.31-.24a1.5,1.5,0,0,0-.75-.2Z"/><path d="M534.52,662.27a1.5,1.5,0,0,0,0-3,1.5,1.5,0,0,0,0,3Z"/><path d="M532.93,653.69a1.5,1.5,0,0,0,0-3,1.5,1.5,0,0,0,0,3Z"/><path d="M511.7,664.08a1.5,1.5,0,0,0,0-3,1.5,1.5,0,0,0,0,3Z"/><path d="M488.2,651a1.5,1.5,0,0,0,0-3,1.5,1.5,0,0,0,0,3Z"/><path d="M494.07,656.85a1.5,1.5,0,0,0,0-3,1.5,1.5,0,0,0,0,3Z"/><path d="M498.82,659.79a1.5,1.5,0,0,0,0-3,1.5,1.5,0,0,0,0,3Z"/><path d="M503.34,664.08a1.5,1.5,0,0,0,0-3,1.5,1.5,0,0,0,0,3Z"/><path d="M488.12,659.42v-.23a1.15,1.15,0,0,0-.13-.58,1.08,1.08,0,0,0-.31-.48,1.14,1.14,0,0,0-.48-.31,1.17,1.17,0,0,0-.58-.13l-.4,0a1.44,1.44,0,0,0-.66.39l-.24.3a1.57,1.57,0,0,0-.2.76v.23a1,1,0,0,0,.13.57,1.34,1.34,0,0,0,.79.8,1.27,1.27,0,0,0,.58.13l.4-.06a1.57,1.57,0,0,0,.66-.38l.23-.31a1.42,1.42,0,0,0,.21-.75Z"/><path d="M481,667.69a1.5,1.5,0,0,0,0-3,1.5,1.5,0,0,0,0,3Z"/><path d="M480.07,658.82h-.46a1,1,0,0,0-.57.13,1.11,1.11,0,0,0-.49.31,1.17,1.17,0,0,0-.31.48,1.27,1.27,0,0,0-.13.58l.06.4a1.57,1.57,0,0,0,.38.66l.31.23a1.42,1.42,0,0,0,.75.21h.46a1.72,1.72,0,0,0,1.06-.44,1.24,1.24,0,0,0,.31-.48,1.27,1.27,0,0,0,.13-.58l-.06-.4a1.57,1.57,0,0,0-.38-.66l-.31-.24a1.5,1.5,0,0,0-.75-.2Z"/><path d="M546.26,661.59a1.5,1.5,0,0,0,0-3,1.5,1.5,0,0,0,0,3Z"/><path d="M549.2,668.37a1.5,1.5,0,0,0,0-3,1.5,1.5,0,0,0,0,3Z"/><path d="M524.8,668.82a1.5,1.5,0,0,0,0-3,1.5,1.5,0,0,0,0,3Z"/><path d="M536.77,667.24a1.5,1.5,0,0,0,0-3,1.5,1.5,0,0,0,0,3Z"/><path d="M537,655.49a1.5,1.5,0,0,0,0-3,1.5,1.5,0,0,0,0,3Z"/><path d="M517.12,617.09a1.5,1.5,0,0,0,0-3,1.5,1.5,0,0,0,0,3Z"/><path d="M514.86,603.76a1.5,1.5,0,0,0,0-3,1.5,1.5,0,0,0,0,3Z"/><path d="M508.08,617.31a1.5,1.5,0,0,0,0-3,1.5,1.5,0,0,0,0,3Z"/><path d="M511.24,608.05a1.5,1.5,0,0,0,0-3,1.5,1.5,0,0,0,0,3Z"/><path d="M512.15,621.15a1.5,1.5,0,0,0,0-3,1.5,1.5,0,0,0,0,3Z"/><path d="M498.82,631.54a1.5,1.5,0,0,0,0-3,1.5,1.5,0,0,0,0,3Z"/><path d="M493.17,641.49a1.5,1.5,0,0,0,0-3,1.5,1.5,0,0,0,0,3Z"/><path d="M496.79,646.23a1.5,1.5,0,0,0,0-3,1.5,1.5,0,0,0,0,3Z"/><path d="M500.4,636.29a1.5,1.5,0,0,0,0-3,1.5,1.5,0,0,0,0,3Z"/><path d="M518.47,659.56a1.5,1.5,0,0,0,0-3,1.5,1.5,0,0,0,0,3Z"/><path d="M523.9,653.62h-.23a1.27,1.27,0,0,0-.58.13,1.24,1.24,0,0,0-.48.31,1.72,1.72,0,0,0-.44,1.06l.05.4a1.47,1.47,0,0,0,.39.66l.3.24a1.57,1.57,0,0,0,.76.2h.23a1,1,0,0,0,.57-.13,1.34,1.34,0,0,0,.8-.79,1.27,1.27,0,0,0,.13-.58l-.06-.4a1.57,1.57,0,0,0-.38-.66l-.31-.23a1.42,1.42,0,0,0-.75-.21Z"/><path d="M514.86,654.36a1.5,1.5,0,0,0,0-3,1.5,1.5,0,0,0,0,3Z"/><path d="M534.29,646.46a1.5,1.5,0,0,0,0-3,1.5,1.5,0,0,0,0,3Z"/><path d="M530.82,637.05v-.23a1.17,1.17,0,0,0-.13-.58,1.14,1.14,0,0,0-.31-.48,1.24,1.24,0,0,0-.48-.31,1.15,1.15,0,0,0-.58-.13l-.4.06a1.57,1.57,0,0,0-.66.38l-.24.31a1.5,1.5,0,0,0-.2.75v.23a1.06,1.06,0,0,0,.13.58,1.14,1.14,0,0,0,.31.48,1.08,1.08,0,0,0,.48.31,1.15,1.15,0,0,0,.58.13l.4-.06a1.47,1.47,0,0,0,.66-.38l.23-.3a1.48,1.48,0,0,0,.21-.76Z"/><path d="M523.44,625.44a1.5,1.5,0,0,0,0-3,1.5,1.5,0,0,0,0,3Z"/><path d="M523.67,631.77a1.5,1.5,0,0,0,0-3,1.5,1.5,0,0,0,0,3Z"/><path class="cls-12" d="M504.81,647.52v.13c0,5,3.63,9,8.12,9s8.13-4,8.13-9v-.13Z"/><circle class="cls-1" cx="531.35" cy="647.19" r="7.3"/><circle class="cls-1" cx="495.51" cy="648.51" r="7.3"/><circle cx="503.15" cy="637.56" r="7.63"/><path class="cls-8" d="M501.4,640.81c6.44,0,6.45-10,0-10s-6.44,10,0,10Z"/><circle cx="523.72" cy="636.9" r="7.63"/><path class="cls-8" d="M522,640.14c6.43,0,6.44-10,0-10s-6.45,10,0,10Z"/><path class="cls-13" d="M381.66,163.72h74.79v58.47H440.51v112H363.05q-20.88,0-33.41-14.43A44.05,44.05,0,0,1,317.87,289V96.9q0-20.5,14.43-33.41a44.05,44.05,0,0,1,30.75-11.77h32.28a44.09,44.09,0,0,1,30.75,11.77q14.43,12.9,14.43,33.41v61.5H381.66V110.56h-5.32V275.72h5.32Z"/><path class="cls-14" d="M579.46,289q0,20.88-14.42,33.41a44.09,44.09,0,0,1-30.76,11.77H502q-20.88,0-33.41-14.43A44.05,44.05,0,0,1,456.83,289V193A44.09,44.09,0,0,1,468.6,162.2q12.52-14.43,33.41-14.43h18.6v-5.31H456.83V83.61h77.45A44.09,44.09,0,0,1,565,95.38q14.41,12.9,14.42,33.79Zm-58.85-82.77H515.3v69.48h5.31Z"/><path class="cls-15" d="M644.38,334.19H585.92v-210a44.09,44.09,0,0,1,11.77-30.75q12.52-14.43,33.41-14.43H663a47,47,0,0,1,27,8.54,40.81,40.81,0,0,1,16.71,23.35h20.12a44.1,44.1,0,0,1,30.75,11.77Q772,135.63,772,156.12v210H713.48V169.41h-5.31V334.19H649.7V137.52h-5.32Z"/><path class="cls-16" d="M889.27,98A45.53,45.53,0,0,1,901,129.17v95.67A45.51,45.51,0,0,1,889.27,256q-12.91,14.43-33.42,14.42h-19v5.32H901v58.47H823.58a44.05,44.05,0,0,1-30.75-11.77Q778.4,309.9,778.4,289V129.17q0-20.88,14.43-33.79a44.05,44.05,0,0,1,30.75-11.77h32.27Q876.36,83.61,889.27,98Zm-47.08,44.43h-5.32v69.1h5.32Z"/><path class="cls-17" d="M1064.67,334.19a44.05,44.05,0,0,1-30.75-11.77q-14.43-12.53-14.43-33.41V125a44.09,44.09,0,0,1,11.77-30.75q12.52-14.43,33.41-14.43h32.27a44.14,44.14,0,0,1,30.76,11.77q14.41,12.53,14.42,33.41V289a44.05,44.05,0,0,1-11.77,30.75q-12.9,14.43-33.41,14.43ZM1078,275.72h5.31V138.28H1078Z"/><path class="cls-18" d="M1244.25,318.24a79,79,0,0,1-50.49,17.47h-45.18V79.43h58.47V272.3q5.31-4.56,5.31-14.05V79.43h58.85V258.25Q1271.21,296.61,1244.25,318.24Z"/><path class="cls-19" d="M1388.52,98a45.48,45.48,0,0,1,11.77,31.14v95.67A45.46,45.46,0,0,1,1388.52,256q-12.9,14.43-33.41,14.42h-19v5.32h64.16v58.47h-77.45a44.05,44.05,0,0,1-30.75-11.77q-14.43-12.53-14.43-33.41V129.17q0-20.88,14.43-33.79a44.05,44.05,0,0,1,30.75-11.77h32.27Q1375.62,83.61,1388.52,98Zm-47.07,44.43h-5.32v69.1h5.32Z"/><path class="cls-20" d="M1464.84,334.19h-58.47V125a44.09,44.09,0,0,1,11.77-30.75q12.52-14.43,33.41-14.43h45.56v58.47h-32.27Z"/></g></svg>