<svg xmlns="http://www.w3.org/2000/svg" width="121" height="163" viewBox="0 0 121 163"><defs><style>.cls-1{fill:#db6e0b;}.cls-1,.cls-3{stroke:#44210b;stroke-width:2px;}.cls-1,.cls-3,.cls-6{stroke-miterlimit:10;}.cls-2{fill:#44210b;}.cls-3{fill:none;}.cls-4{fill:#d65fbf;}.cls-5{fill:#fff;}.cls-6{stroke:#000;stroke-width:3px;}</style></defs><g id="characters"><ellipse class="cls-1" cx="60.5" cy="93.11" rx="58.39" ry="59.88"/><path class="cls-2" d="M54.19,33.06c0-2-.31-3.9.25-5.83a23.08,23.08,0,0,1,2.39-4.63A2.63,2.63,0,0,1,60,21.08a3.88,3.88,0,0,1,.49.11c.06,0,0,0-.08,0,.14.32-.19.85,0,1.16a.72.72,0,0,1,0,.19c.38-.23.41-.29.09-.17a4.47,4.47,0,0,0-1.21,0,14.59,14.59,0,0,1-2.88,0c-.44-.1-.55-.54-.76-1.07A14.66,14.66,0,0,1,55,15.78c0-1.71.44-2.68,2.14-3.29C59,11.82,61.05,12,63,12a1.5,1.5,0,0,0,0-3c-3.82,0-9.86-.12-10.88,4.7a18.47,18.47,0,0,0,0,5.89c.23,1.81.82,4.49,2.59,5.44a4.27,4.27,0,0,0,2.15.35c1.24,0,2.51.09,3.74,0,2.08-.21,2.77-1.71,2.83-3.62a3.29,3.29,0,0,0-3.28-3.65,5.42,5.42,0,0,0-4.9,1.53,19.09,19.09,0,0,0-1.7,2.81,14.68,14.68,0,0,0-1.64,2.92,14,14,0,0,0-.8,3.61c-.09,1.37.08,2.74.1,4.1a1.5,1.5,0,0,0,3,0Z"/><path class="cls-3" d="M59.65,33.36C53,81.76,52.71,105,65.29,152.57"/><path class="cls-3" d="M72.47,34.87C82,77,84.48,104.7,82.94,147.72"/><path class="cls-3" d="M51.4,33.21C39.83,82.05,38,98.75,38.52,148.56"/><path class="cls-3" d="M37,38.52C24.15,76.87,19.84,95.59,18.58,135.78"/><path class="cls-3" d="M80.51,36.64C97.46,80,110.24,89,102.32,135.23"/><path class="cls-3" d="M28.58,43.27c-11.45,27.2-17,46.16-21.45,75.23"/><circle class="cls-4" cx="83.71" cy="91.61" r="8.23"/><circle class="cls-4" cx="27.56" cy="91.61" r="8.23"/><circle cx="36.92" cy="80.01" r="8.61"/><path class="cls-5" d="M35,83c6.44,0,6.45-10,0-10s-6.44,10,0,10Z"/><circle cx="72.1" cy="79.26" r="8.61"/><path class="cls-5" d="M70.14,82.28c6.43,0,6.44-10,0-10s-6.45,10,0,10Z"/><path class="cls-6" d="M43.65,89.74v.19c0,7.34,5.36,13.28,12,13.28s12-5.94,12-13.28v-.19Z"/></g></svg>