<svg xmlns="http://www.w3.org/2000/svg" width="75" height="203" viewBox="0 0 75 203"><defs><style>.cls-1{fill:#db6e0b;}.cls-1,.cls-2{stroke:#44210b;}.cls-1,.cls-2,.cls-3,.cls-4,.cls-6{stroke-miterlimit:10;}.cls-2{fill:#009245;}.cls-3,.cls-4,.cls-6{stroke:#000;}.cls-3,.cls-4{stroke-width:2px;}.cls-4,.cls-6{fill:none;}.cls-5{fill:#fff;}</style></defs><g id="characters"><path class="cls-1" d="M69,131.23c-11,40.11-13.35,70.85-29.55,70.08-9.56-.46-16.58-31.8-28.68-70.45q-1.29-4.11-2.29-8.15c-4-15.93-8.26-32.81,1.87-48,13.5-18.56,43.88-19.41,56.37-.08a37.26,37.26,0,0,1,3.45,7.12C74.81,94.62,74.16,112.23,69,131.23Z"/><path class="cls-2" d="M31.79,68.23c-4.6.58-7.13-3.64-11.35-3.64,5.91-14.35,1.69-32.07-12-40.71-1-1.15-2-2.4-3.09-3.78s-2.23-2.89-3.42-4.55c2.88-2.72,5.76-5.45,8.68-8.14,2.72,3.22,5.08,6.05,7.12,8.61s3.77,4.85,5.22,7C32.26,34.21,33.1,48.55,32,62.43,31.93,64.25,31.87,66.18,31.79,68.23Z"/><path class="cls-2" d="M50,68a12.51,12.51,0,0,0-11,0c3.37-11,2.53-22.78,6.48-33.86.62-2.75,1.26-5.46,1.94-8.16A237.51,237.51,0,0,1,54.75,1.82l10.1,3.62c-2.5,8.32-4.61,15.92-6.51,23.36-.63,2.49-1.25,4.95-1.84,7.42-2.3,7.27-2.3,15.71-4.81,23.34C51.15,62.31,50.58,65.1,50,68Z"/><path class="cls-2" d="M43.38,67.2c-2.68,1.61-5.21.76-7.75.76,1.69-13.5.85-27-.11-40.54q-.23-4-.65-8.08c2.92-.41,5.8-1,8.73-1.38-.05,2.69-.07,5.38-.08,8.08s0,5.4,0,8.13c-.31,8.48,1.38,16.91.45,24.95Q43.78,63.19,43.38,67.2Z"/><path class="cls-2" d="M35.85,69.29a66.45,66.45,0,0,1-8.66-2.17c5.91-13.5,4.22-27.85.95-41a50.36,50.36,0,0,0-2.84-7.66c3.39-.65,6.83-.9,10.25-1.34q.42,4.35.63,8.65c.3,11.83,2,22.8.52,35C36.46,63.59,36.17,66.43,35.85,69.29Z"/><path class="cls-2" d="M55.66,69.3c-15.81-3-4.84-24.12-8.45-35.5.06-2.87.14-5.73.29-8.59s.37-5.73.68-8.61c2.79.37,5.56.82,8.33,1.32-.35,3.4-.62,6.51-.82,9.44s-.36,5.66-.45,8.3c.65,7.83-1,16.27.24,24.07C55.55,62.71,55.62,65.86,55.66,69.3Z"/><path class="cls-3" d="M28.6,121.13a23.6,23.6,0,0,1,1.24-2.22c2.79-4.39,6.4-6.8,10.17-6.8s7.38,2.41,10.16,6.8a23.65,23.65,0,0,1,1.25,2.22h1.94c-3-6.51-7.86-10.74-13.35-10.74s-10.35,4.23-13.35,10.74Z"/><line class="cls-4" x1="26.06" y1="80.1" x2="35.92" y2="92.96"/><line class="cls-4" x1="52.08" y1="80.19" x2="41.98" y2="92.87"/><circle cx="53.78" cy="100.45" r="9.7"/><path class="cls-5" d="M51.56,103.22c6.43,0,6.45-10,0-10s-6.45,10,0,10Z"/><circle cx="25.08" cy="100.45" r="9.7"/><path class="cls-5" d="M22.87,103.22c6.43,0,6.44-10,0-10s-6.45,10,0,10Z"/><path class="cls-6" d="M14.92,143.84c9.08,3.1,9,4.27,17.84-.24"/><path class="cls-6" d="M61.39,161.5c-8.49,1.05-10.68,1.06-19.21-.25"/><path class="cls-6" d="M56.07,180.82c-8.91,5.41-7,5.51-16.91.69"/><path class="cls-6" d="M23.61,171.38c7.69,1.56,8.3,3.07,15.12-1"/><path class="cls-6" d="M8.57,119.42c5.44,2,7.54,2,13.12,0"/><path class="cls-6" d="M5.67,86.26c5.27.39,4.13.4,11.39,0"/><path class="cls-6" d="M69.23,78.49c-5.43,2.06-8.28,2.28-14.1,1.12"/><path class="cls-6" d="M72.47,113.41c-6.27,3.58-11.52,4-18.55,3.07"/><path class="cls-6" d="M68.34,132.92c-7.15-3.26-4.93-.86-10.43-.32"/></g></svg>