<svg xmlns="http://www.w3.org/2000/svg" width="200.99" height="265.61" viewBox="0 0 200.99 265.61"><defs><style>.cls-1{fill:#ffcabf;}.cls-1,.cls-2,.cls-3{stroke:#44210b;}.cls-1,.cls-2,.cls-3,.cls-4{stroke-miterlimit:10;}.cls-1,.cls-2{stroke-width:3px;}.cls-2,.cls-3{fill:none;}.cls-3{stroke-width:6px;}.cls-4{fill:#42210b;stroke:#42210b;stroke-width:2px;}.cls-5{fill:#d65fbf;}</style></defs><g id="characters"><path class="cls-1" d="M135.34,81c-.53-23.47-16-29.42-35.52-33.19l-1.29.27C84.68,51,65.4,58.53,65.63,81.75c.53,53.77-1,114.64,2.32,167.71,1.45,22.92,21.16,9.38,30.14,12.31s4.51,0,11.21,1.87c15-2.83,30.94,8.83,29.1-14.56C134.16,195,136.57,135.35,135.34,81Z"/><path class="cls-2" d="M99.8,47.82h0C103.74,47,99.8,47.82,99.8,47.82Z"/><path class="cls-1" d="M53.74,49c-4.81,0-8.86,9.18-10.49,22.13-2-11.86-5.94-20-10.5-20-4.28,0-8,7.3-9.87,18C20.83,58.47,17,51.26,12.75,51.29c-6.35,0-11.39,16-11.25,35.58s5.4,35.46,11.75,35.42c4.29,0,8-7.3,9.88-18.05C25.18,115,29,122.18,33.25,122.14c4.81,0,8.86-9.17,10.49-22.12,1.94,11.85,5.94,20,10.5,20,6.35,0,11.39-16,11.25-35.58S60.09,49,53.74,49Z"/><path class="cls-1" d="M187.73,48.06c-4.8,0-8.86,9.17-10.48,22.12-1.95-11.85-5.94-20-10.5-20-4.29,0-8,7.3-9.87,18-2.06-10.72-5.84-17.94-10.13-17.91-6.35,0-11.39,16-11.25,35.58s5.4,35.47,11.75,35.42c4.29,0,8-7.3,9.87-18,2.06,10.72,5.84,17.94,10.13,17.91,4.81,0,8.86-9.18,10.49-22.12,1.94,11.85,5.94,20,10.49,20,6.36,0,11.39-16,11.25-35.58S194.09,48,187.73,48.06Z"/><path class="cls-1" d="M76.87,13c10.65,13,13.92,18.64,18,35.1"/><path class="cls-1" d="M118.46,8.72C102,22.2,104.46,28.26,101.34,48"/><circle class="cls-1" cx="73.45" cy="8.36" r="5.5"/><circle class="cls-1" cx="124.44" cy="7" r="5.5"/><path class="cls-3" d="M86.59,78.82c.89,4.94,17.58,2.35-1.33,14.27"/><path class="cls-3" d="M111.47,77.34c-13.16,11.27-12.88,5.18-.77,16.58"/><path class="cls-4" d="M106,99.47a14.38,14.38,0,0,1-.92,1.34c-2,2.63-4.55,4-7.09,3.86s-4.9-1.79-6.62-4.63a12.94,12.94,0,0,1-.76-1.43l-1.31-.07c1.79,4.17,4.92,7,8.63,7.2s7.13-2.25,9.38-6.19Z"/><circle class="cls-5" cx="116.54" cy="100.21" r="6.1"/><circle class="cls-5" cx="79.52" cy="100.42" r="6.1"/></g></svg>