<svg xmlns="http://www.w3.org/2000/svg" width="104" height="100" viewBox="0 0 104 100"><defs><style>.cls-1{fill:red;}.cls-2{fill:#ff7bac;}</style></defs><g id="characters"><path class="cls-1" d="M52,98.55s36.16-23.91,45.89-41.1l2.16-3.85A27.52,27.52,0,0,0,52,27.06,27.52,27.52,0,0,0,3.92,53.6l2.16,3.85C15.81,74.64,52,98.55,52,98.55Z"/><path d="M60.47,52.05a17.91,17.91,0,0,1-1,1.64c-2.23,3.25-5.12,5-8.15,5s-5.91-1.79-8.14-5a17.91,17.91,0,0,1-1-1.64H40.63c2.4,4.82,6.29,8,10.69,8s8.3-3.13,10.7-8Z"/><circle class="cls-2" cx="25.86" cy="54.21" r="9.34"/><circle class="cls-2" cx="76.86" cy="54.21" r="9.34"/><path d="M58.08,46.55a18.25,18.25,0,0,1,1-1.66c2.25-3.27,5.15-5.06,8.19-5.06s6,1.79,8.19,5.06a18.25,18.25,0,0,1,1,1.66H78c-2.41-4.85-6.33-8-10.75-8s-8.34,3.15-10.75,8Z"/><path d="M27.08,46.55a18.25,18.25,0,0,1,1-1.66c2.25-3.27,5.15-5.06,8.19-5.06s5.95,1.79,8.19,5.06a18.25,18.25,0,0,1,1,1.66H47c-2.41-4.85-6.33-8-10.75-8s-8.34,3.15-10.75,8Z"/></g></svg>