<svg xmlns="http://www.w3.org/2000/svg" width="362" height="146.68" viewBox="0 0 362 146.68"><defs><style>.cls-1{fill:#93278f;stroke:#44210b;stroke-miterlimit:10;stroke-width:4px;}.cls-2{fill:#d65fbf;}</style></defs><g id="characters"><rect class="cls-1" x="2" y="24" width="358" height="99" rx="21.39"/><path class="cls-2" d="M24.05,47.67l-2-.08-2.76-.16c-.37-.73-.74-1.44-1.11-2.14-.25-.48-.49-.95-.74-1.41,3.66-.08,7.32-.14,11-.2l11-.24q.89,6.77,1.8,13.53l1.75,13.54,5.68.93c1.87.32,3.77.63,5.67.92q-.36-7-.73-14t-.7-14L61,44.21l8.12-.13q2.31,14,4.57,28Q75.86,85.54,78.08,99l3,.72,4,1c-.15.62-.31,1.22-.46,1.82s-.26,1.12-.41,1.69H55.89c.24-3.74.51-7.47.78-11.2s.51-7.45.79-11.16q-4,.19-8,.44l-6,.32c.27,3.52.57,7,.87,10.56q.42,5.52.88,11l-14.81-1.86c-3.5-.45-7-.9-10.52-1.33q1-13.32,2.08-26.66T24.05,47.67Zm2.82,10.19a20.28,20.28,0,0,0,3.46,4.67c1.35-.4,2.64-.82,3.85-1.24a9.78,9.78,0,0,0,2.93-1.54,3.64,3.64,0,0,0,1.25-2,1.81,1.81,0,0,0,0-.4,2.41,2.41,0,0,0-.46-1.45,3,3,0,0,0-1.66-1,3.27,3.27,0,0,0-1-.16,3.08,3.08,0,0,0-1,.16A4.06,4.06,0,0,0,32.68,56a14.16,14.16,0,0,0-1.29,1.71A8.82,8.82,0,0,0,31,56.23a2.5,2.5,0,0,0-.76-1.11,2.38,2.38,0,0,0-1.3-.44h-.13a2.5,2.5,0,0,0-1.25.32,1.77,1.77,0,0,0-.92,1.65A3.7,3.7,0,0,0,26.87,57.86Zm.78,13.58A15.5,15.5,0,0,0,30.28,75a15.91,15.91,0,0,0,5.22-2.13,2.7,2.7,0,0,0,1-1.53v-.29A1.91,1.91,0,0,0,36.14,70a2.21,2.21,0,0,0-1.24-.81,2.56,2.56,0,0,0-.79-.12,2.8,2.8,0,0,0-.78.12A2.89,2.89,0,0,0,32.1,70a10.69,10.69,0,0,0-1,1.33,6.23,6.23,0,0,0-.27-1.13,1.94,1.94,0,0,0-.6-.85,2.05,2.05,0,0,0-1-.32h-.14a1.7,1.7,0,0,0-.87.24,1.33,1.33,0,0,0-.74,1.25A2.92,2.92,0,0,0,27.65,71.44Zm.79,10.07a11.13,11.13,0,0,0,1.89,2.62,12.31,12.31,0,0,0,3.83-1.54,1.85,1.85,0,0,0,.69-1.12v-.24a1.5,1.5,0,0,0-.23-.81,1.66,1.66,0,0,0-.92-.56,1.81,1.81,0,0,0-.56-.08,1.75,1.75,0,0,0-.55.08,2,2,0,0,0-.9.6,7.87,7.87,0,0,0-.72,1,6.15,6.15,0,0,0-.23-.81,1.17,1.17,0,0,0-.41-.6,1.21,1.21,0,0,0-.74-.24h-.14a1.38,1.38,0,0,0-.64.16.93.93,0,0,0-.51.88A2,2,0,0,0,28.44,81.51Zm.23,10.79a9.77,9.77,0,0,0,1.47,2.06,9.3,9.3,0,0,0,3-1.21,1.35,1.35,0,0,0,.51-.89.58.58,0,0,0,.05-.2,1,1,0,0,0-.23-.6,1.2,1.2,0,0,0-.7-.45,1.44,1.44,0,0,0-.46-.08,1.34,1.34,0,0,0-.41.08,1.49,1.49,0,0,0-.72.47,4.45,4.45,0,0,0-.53.78q-.09-.36-.18-.66a.85.85,0,0,0-.33-.47.81.81,0,0,0-.55-.2,1.07,1.07,0,0,0-.6.16.74.74,0,0,0-.41.73A1.59,1.59,0,0,0,28.67,92.3Z"/><path class="cls-2" d="M106,44.37a27,27,0,0,1,14.51,4.05,30.85,30.85,0,0,1,10.4,41,30,30,0,0,1-10.4,10.86,27.95,27.95,0,0,1-29,0A30.16,30.16,0,0,1,81.06,89.4a31.09,31.09,0,0,1,0-30.15A30.15,30.15,0,0,1,91.48,48.42,26.88,26.88,0,0,1,106,44.37ZM83.89,73.69a13.36,13.36,0,0,0,2.45,3,13.16,13.16,0,0,0,4.38-2,1.93,1.93,0,0,0,.74-1.33v-.24a1.66,1.66,0,0,0-.32-1A2,2,0,0,0,90,71.48a2.26,2.26,0,0,0-.6-.08,1.92,1.92,0,0,0-.69.12,2.53,2.53,0,0,0-1,.78,10.35,10.35,0,0,0-.81,1.19,7.88,7.88,0,0,0-.32-1,1.89,1.89,0,0,0-.51-.72,1.59,1.59,0,0,0-.88-.24,1.83,1.83,0,0,0-.92.24,1.07,1.07,0,0,0-.55,1A2.51,2.51,0,0,0,83.89,73.69ZM85.23,63a24.74,24.74,0,0,0,5.4,2.94c1.07-.86,2.05-1.71,2.93-2.56a9.22,9.22,0,0,0,1.91-2.52,3.42,3.42,0,0,0,.28-1.33,4.27,4.27,0,0,0-.25-1.19,2.28,2.28,0,0,0-1.18-1.22,3.23,3.23,0,0,0-1.57-.41c-.12,0-.4,0-.83.08a2.74,2.74,0,0,0-1.38.73,3.12,3.12,0,0,0-.93,1.61,14.18,14.18,0,0,0-.32,2A8.42,8.42,0,0,0,88.21,60,3.43,3.43,0,0,0,87,59.23a2.6,2.6,0,0,0-.5,0,3.26,3.26,0,0,0-1,.2,2.13,2.13,0,0,0-1,.77,1.55,1.55,0,0,0-.27.88A3,3,0,0,0,85.23,63Zm1,23.48a13.33,13.33,0,0,0,3,1.65,9.9,9.9,0,0,0,2.68-2.82,1.54,1.54,0,0,0,0-1.41,1.46,1.46,0,0,0-.67-.68,1.91,1.91,0,0,0-.83-.2,4.44,4.44,0,0,0-.5,0,1.68,1.68,0,0,0-.79.36,2,2,0,0,0-.51.91,6.75,6.75,0,0,0-.18,1.15,4.28,4.28,0,0,0-.6-.67,1.49,1.49,0,0,0-.69-.38,1,1,0,0,0-.32,0,1.64,1.64,0,0,0-.54.1,1.15,1.15,0,0,0-.53.42,1,1,0,0,0-.13.49A1.69,1.69,0,0,0,86.2,86.46Zm10.43,6.61A10.49,10.49,0,0,0,99,94.36a7.67,7.67,0,0,0,2.08-2.22,1.27,1.27,0,0,0,.13-.56,1.85,1.85,0,0,0-.11-.53,1,1,0,0,0-.53-.52,1.52,1.52,0,0,0-.69-.16l-.35,0a1,1,0,0,0-.62.3,1.39,1.39,0,0,0-.37.71,7.73,7.73,0,0,0-.14.9c-.15-.18-.32-.36-.48-.52a1.27,1.27,0,0,0-.54-.32.5.5,0,0,0-.23,0,1.1,1.1,0,0,0-.43.1.78.78,0,0,0-.4.34.75.75,0,0,0-.14.4A1.24,1.24,0,0,0,96.63,93.07ZM105,62.94a8.7,8.7,0,0,0-4.63,2.19,6.88,6.88,0,0,0-1.92,4.74v.6a20.94,20.94,0,0,0,1.29,6.73A24.33,24.33,0,0,0,103.41,84q4.11,5.16,8.81,5.16a8.27,8.27,0,0,0,6.9-3.52,13,13,0,0,0,2.79-6.15,17.38,17.38,0,0,0,.18-2.49,18.74,18.74,0,0,0-.92-5.42,12.51,12.51,0,0,0-3.55-5.5,13.31,13.31,0,0,0-6.14-3.06,19.42,19.42,0,0,0-3.64-.36A15.93,15.93,0,0,0,105,62.94Z"/><path class="cls-2" d="M152.64,104.39l-15.32-2c.34-.72.69-1.45,1.06-2.17.15-.35.32-.71.51-1.09l3-.16q1.48-.08,3-.12-1.06-10.8-2.17-21.59-1.38-14.18-2.81-28.4,6.6-.65,13.19-1.25l18.69-1.85c-.13.83-.25,1.65-.37,2.45a5,5,0,0,0-.14.65l-3,.48-4.05.61-5.54,41.89,6.83-15q3.45-7.5,6.87-15l3.42,6.69q5.58,10.76,11.11,21.55-1.33-9.1-2.72-18.21t-2.67-18.17c-.74,0-1.47,0-2.17,0s-1.46,0-2.17,0v-.12c.06-.72.11-1.45.14-2.17q7.65-1.14,15.31-2.3l17-2.5q-1.24,13-2.54,26t-2.49,26c.89.32,1.77.66,2.63,1s1.78.66,2.68,1c-.07,1-.13,2-.19,2.94q-7.29.21-14.58.36l-14.48.41-3.05-10.56-2.44-8.33q-.88,6.15-1.8,12.28c-.46,3.09-.93,6.16-1.39,9.23ZM157,56.77a3.93,3.93,0,0,0,.23-1.21,1.74,1.74,0,0,0-.92-1.61,2.5,2.5,0,0,0-1.25-.32l-.46,0a2,2,0,0,0-1,.42,2.43,2.43,0,0,0-.76,1.11,8.82,8.82,0,0,0-.39,1.47,15.94,15.94,0,0,0-1.3-1.73,3.71,3.71,0,0,0-1.61-1.13,3.13,3.13,0,0,0-1-.16,5.25,5.25,0,0,0-1.29.22,2.67,2.67,0,0,0-1.38,1,2.42,2.42,0,0,0-.47,1.45,5.79,5.79,0,0,0,.12.83,3.31,3.31,0,0,0,1.18,1.55,9.25,9.25,0,0,0,2.93,1.57c1.21.43,2.49.83,3.85,1.21A19.57,19.57,0,0,0,157,56.77ZM155.91,69.7a2.85,2.85,0,0,0,.19-.92,1.33,1.33,0,0,0-.74-1.25,1.84,1.84,0,0,0-.93-.24l-.36,0a1.45,1.45,0,0,0-.74.3,1.79,1.79,0,0,0-.6.85,5.4,5.4,0,0,0-.28,1.12,12.41,12.41,0,0,0-1-1.33,2.92,2.92,0,0,0-1.22-.84,2.56,2.56,0,0,0-.79-.12,3.85,3.85,0,0,0-1,.16,2,2,0,0,0-1.06.76,2,2,0,0,0-.32,1.13,5.37,5.37,0,0,0,.07.61,2.3,2.3,0,0,0,.9,1.2,15.93,15.93,0,0,0,5.21,2.14A15.24,15.24,0,0,0,155.91,69.7Zm-1,9.63a1.82,1.82,0,0,0,.13-.64,1,1,0,0,0-.55-.93,1.12,1.12,0,0,0-.6-.16h-.3a1,1,0,0,0-.58.24,1.25,1.25,0,0,0-.41.61,7.32,7.32,0,0,0-.23.8c-.25-.35-.49-.67-.74-1a1.88,1.88,0,0,0-.88-.61,2.09,2.09,0,0,0-.55-.08,3,3,0,0,0-.72.12,1.3,1.3,0,0,0-1,1.33c0,.08,0,.24.05.48a1.64,1.64,0,0,0,.64.89A11.62,11.62,0,0,0,153,82,10.7,10.7,0,0,0,154.9,79.33Zm-.1,7.9a1.7,1.7,0,0,0,.1-.49.73.73,0,0,0-.42-.72,1,1,0,0,0-.6-.14,1,1,0,0,0-.55.18,1,1,0,0,0-.35.46,2.74,2.74,0,0,0-.16.67,5.57,5.57,0,0,0-.58-.79,1.48,1.48,0,0,0-.67-.46,1.21,1.21,0,0,0-.46-.08,2,2,0,0,0-.53.1,1.32,1.32,0,0,0-.62.42.93.93,0,0,0-.19.57,3.64,3.64,0,0,0,0,.42,1.3,1.3,0,0,0,.51.7,9.23,9.23,0,0,0,2.95,1.21A8.58,8.58,0,0,0,154.8,87.23Z"/><path class="cls-2" d="M268,51.9l3.83,52.21-31.51.16c0-1.08.08-2.14.14-3.19s.11-2.13.14-3.18l4.34-.08,2.86-.08,6-44-15.64,11a7.57,7.57,0,0,1-.23.85c-.06.32-.12.63-.18.92l-.88.08-1,.08q2.11-5.6,4.29-11.16t4.29-11.19L285.32,47q.93,10.16,1.8,20.31c-.21-.06-.45-.11-.69-.16l-1.66-.33.32-2.09Zm-12.27,6a20.15,20.15,0,0,0,3.65,4.55c1.35-.43,2.63-.88,3.83-1.35A9.69,9.69,0,0,0,266,59.51a3.09,3.09,0,0,0,1.08-1.57c.05-.4.07-.66.07-.76a2.39,2.39,0,0,0-.51-1.53,2.69,2.69,0,0,0-1.38-.95,5.24,5.24,0,0,0-1.15-.18,3.26,3.26,0,0,0-1.16.2,3.91,3.91,0,0,0-1.54,1.17,12.08,12.08,0,0,0-1.23,1.77,9.44,9.44,0,0,0-.46-1.45,2.53,2.53,0,0,0-.78-1.09,2.34,2.34,0,0,0-1.34-.4,2.79,2.79,0,0,0-1.38.36,1.69,1.69,0,0,0-.83,1.53A4.07,4.07,0,0,0,255.7,57.94Zm1.39,13.54a15.43,15.43,0,0,0,2.76,3.5A15.41,15.41,0,0,0,265,72.69a2.29,2.29,0,0,0,.83-1.19c0-.31,0-.52,0-.63a1.8,1.8,0,0,0-.37-1.13,2.19,2.19,0,0,0-1.08-.7,4.41,4.41,0,0,0-.9-.14,2.35,2.35,0,0,0-2,1,8.66,8.66,0,0,0-.92,1.35,8.34,8.34,0,0,0-.35-1.13,1.77,1.77,0,0,0-.62-.81,1.79,1.79,0,0,0-1-.32,2,2,0,0,0-1.06.28,1.33,1.33,0,0,0-.6,1.17A3.12,3.12,0,0,0,257.09,71.48Zm1.2,10.07a10,10,0,0,0,2,2.54,12,12,0,0,0,3.73-1.66,1.92,1.92,0,0,0,.6-.88c0-.22.05-.35.05-.41a1.49,1.49,0,0,0-.28-.88,1.6,1.6,0,0,0-.78-.51,3.45,3.45,0,0,0-.65-.1,2.8,2.8,0,0,0-.64.08,2.18,2.18,0,0,0-.88.67,8.73,8.73,0,0,0-.69,1,6.25,6.25,0,0,0-.23-.83,1.17,1.17,0,0,0-.46-.58,1.24,1.24,0,0,0-.74-.25,1.31,1.31,0,0,0-.74.21,1,1,0,0,0-.46.88A2.08,2.08,0,0,0,258.29,81.55ZM259,92.3a8,8,0,0,0,1.57,2,9.27,9.27,0,0,0,2.9-1.33,1.24,1.24,0,0,0,.49-.69c0-.18,0-.29,0-.32a1,1,0,0,0-.23-.64,1.2,1.2,0,0,0-.58-.41,2.15,2.15,0,0,0-.48-.08,1.45,1.45,0,0,0-1.2.59,6.88,6.88,0,0,0-.51.74,6.45,6.45,0,0,0-.21-.62,1,1,0,0,0-.34-.47,1.28,1.28,0,0,0-.6-.16,1.22,1.22,0,0,0-.6.16.68.68,0,0,0-.37.65A1.48,1.48,0,0,0,259,92.3Z"/><path class="cls-2" d="M317.48,44.37A27,27,0,0,1,332,48.42a30.82,30.82,0,0,1,10.4,41A30,30,0,0,1,332,100.26a27.93,27.93,0,0,1-29,0A30.18,30.18,0,0,1,292.59,89.4a31.09,31.09,0,0,1,0-30.15A30.18,30.18,0,0,1,303,48.42,26.87,26.87,0,0,1,317.48,44.37ZM295.43,73.69a13.27,13.27,0,0,0,2.44,3,13,13,0,0,0,4.38-2,1.89,1.89,0,0,0,.74-1.33v-.24a1.66,1.66,0,0,0-.32-1,2,2,0,0,0-1.11-.64,2.16,2.16,0,0,0-.6-.08,2,2,0,0,0-.69.12,2.53,2.53,0,0,0-1,.78,10.35,10.35,0,0,0-.81,1.19,7.88,7.88,0,0,0-.32-1,1.89,1.89,0,0,0-.51-.72,1.53,1.53,0,0,0-.87-.24,1.84,1.84,0,0,0-.93.24,1.09,1.09,0,0,0-.55,1A2.33,2.33,0,0,0,295.43,73.69ZM296.76,63a25,25,0,0,0,5.4,2.94c1.08-.86,2-1.71,2.93-2.56A9.07,9.07,0,0,0,307,60.84a3.59,3.59,0,0,0,.27-1.33,3.94,3.94,0,0,0-.25-1.19,2.24,2.24,0,0,0-1.18-1.22,3.2,3.2,0,0,0-1.57-.41c-.12,0-.4,0-.83.08a2.74,2.74,0,0,0-1.38.73,3.1,3.1,0,0,0-.92,1.61,12.91,12.91,0,0,0-.33,2,8.42,8.42,0,0,0-1.08-1.2,3.39,3.39,0,0,0-1.22-.73,2.78,2.78,0,0,0-.51,0,3.15,3.15,0,0,0-1,.2,2,2,0,0,0-1,.77,1.49,1.49,0,0,0-.28.88A3.09,3.09,0,0,0,296.76,63Zm1,23.48a13.42,13.42,0,0,0,3,1.65,9.85,9.85,0,0,0,2.67-2.82,1.71,1.71,0,0,0,.19-.76,2.08,2.08,0,0,0-.16-.65,1.46,1.46,0,0,0-.67-.68A2,2,0,0,0,302,83a4.56,4.56,0,0,0-.51,0,1.61,1.61,0,0,0-.78.36,1.82,1.82,0,0,0-.51.91,6.73,6.73,0,0,0-.19,1.15,4.28,4.28,0,0,0-.6-.67,1.4,1.4,0,0,0-.69-.38,1,1,0,0,0-.32,0,1.58,1.58,0,0,0-.53.1,1.11,1.11,0,0,0-.53.42,1,1,0,0,0-.14.49A1.69,1.69,0,0,0,297.73,86.46Zm10.43,6.61a10.73,10.73,0,0,0,2.35,1.29,7.4,7.4,0,0,0,2.08-2.22,1.29,1.29,0,0,0,.14-.56,1.61,1.61,0,0,0-.12-.53,1,1,0,0,0-.53-.52,1.49,1.49,0,0,0-.69-.16l-.35,0a1,1,0,0,0-.62.3,1.47,1.47,0,0,0-.37.71,7.73,7.73,0,0,0-.14.9,5.91,5.91,0,0,0-.48-.52,1.3,1.3,0,0,0-.53-.32.53.53,0,0,0-.23,0,1.14,1.14,0,0,0-.44.1.72.72,0,0,0-.39.34.67.67,0,0,0-.14.4A1.22,1.22,0,0,0,308.16,93.07Zm8.4-30.13a8.73,8.73,0,0,0-4.64,2.19A7,7,0,0,0,310,69.87v.6a21,21,0,0,0,1.3,6.73A24.3,24.3,0,0,0,314.94,84q4.11,5.16,8.81,5.16a8.27,8.27,0,0,0,6.9-3.52,13,13,0,0,0,2.79-6.15,17.4,17.4,0,0,0,.19-2.49,18.78,18.78,0,0,0-.93-5.42,12.42,12.42,0,0,0-3.55-5.5A13.28,13.28,0,0,0,323,63.06a19.61,19.61,0,0,0-3.65-.36A15.89,15.89,0,0,0,316.56,62.94Z"/></g></svg>