<svg xmlns="http://www.w3.org/2000/svg" width="122" height="149" viewBox="0 0 122 149"><defs><style>.cls-1{fill:#ff152f;}.cls-1,.cls-2,.cls-4{stroke:#44210b;}.cls-1,.cls-2,.cls-3,.cls-4{stroke-miterlimit:10;}.cls-1,.cls-2,.cls-3{stroke-width:3px;}.cls-2{fill:#009245;}.cls-3{stroke:#000;}.cls-4{fill:#d65fbf;}.cls-5{fill:#44210b;}.cls-6{fill:#fff;}</style></defs><g id="characters"><path class="cls-1" d="M71.59,141.25C59,143.42,56.66,143.81,48,133.52,36.7,120.23,31.63,110.44,23.09,96.09c-6.27-10.53-13.3-21.73-13.58-34C9.13,45.4,21.93,36.73,38.73,35.39c13-1,36-1.62,48.5.6,16.21,2.87,25.73,7.6,25.25,25.95-.35,13.48-12.06,46.32-18.67,56.4C84.8,132.06,87.9,138.44,71.59,141.25Z"/><path class="cls-2" d="M82.85,5.58C79.92,1.23,68.13,11.11,65.2,15.66c-1.83,2.82-4.84,7.57-5.7,11.66-1.44-3.91-6.77-7.57-9.26-9.73C46.6,14.44,38.12,7,33.86,11.65s3.76,12.66,7,16.72,12.47,10,17.55,4.32a5.71,5.71,0,0,0,1.07-1.63,4.44,4.44,0,0,0,1.59,2.41c4.83,3.71,15.76-5.51,18.29-9S85.4,9.39,82.85,5.58Z"/><ellipse cx="48.8" cy="58.02" rx="8.09" ry="8.03"/><path d="M64.63,58c.32-.57.65-1.13,1-1.66,2.26-3.27,5.2-5.08,8.27-5.08s6,1.81,8.28,5.08c.36.53.7,1.09,1,1.66h1.58c-2.44-4.86-6.4-8-10.87-8s-8.43,3.16-10.87,8Z"/><path class="cls-3" d="M48.55,70.56v.2c0,7.37,5.43,13.35,12.14,13.35s12.13-6,12.13-13.35v-.2Z"/><ellipse class="cls-4" cx="32.63" cy="77.08" rx="11.12" ry="11.04"/><ellipse class="cls-4" cx="89.25" cy="77.08" rx="11.12" ry="11.04"/><path class="cls-5" d="M46.44,99.63a1.5,1.5,0,0,0,0-3,1.5,1.5,0,0,0,0,3Z"/><path class="cls-5" d="M61.93,114a1.5,1.5,0,0,0,0-3,1.5,1.5,0,0,0,0,3Z"/><path class="cls-5" d="M69.15,97.58a1.5,1.5,0,0,0,0-3,1.5,1.5,0,0,0,0,3Z"/><path class="cls-5" d="M79.48,105.78a1.5,1.5,0,0,0,0-3,1.5,1.5,0,0,0,0,3Z"/><path class="cls-5" d="M88.77,99.63a1.5,1.5,0,0,0,0-3,1.5,1.5,0,0,0,0,3Z"/><path class="cls-5" d="M84.64,123.19a1.5,1.5,0,0,0,0-3,1.5,1.5,0,0,0,0,3Z"/><path class="cls-5" d="M44.37,113a1.5,1.5,0,0,0,0-3,1.5,1.5,0,0,0,0,3Z"/><path class="cls-5" d="M63,128.32a1.5,1.5,0,0,0,0-3,1.5,1.5,0,0,0,0,3Z"/><path class="cls-5" d="M70.19,130.36a1.5,1.5,0,0,0,0-3,1.5,1.5,0,0,0,0,3Z"/><path class="cls-5" d="M71.22,117.05a1.5,1.5,0,0,0,0-3,1.5,1.5,0,0,0,0,3Z"/><path class="cls-5" d="M77.41,45.33a1.5,1.5,0,0,0,0-3,1.5,1.5,0,0,0,0,3Z"/><path class="cls-5" d="M90.84,45.33a1.5,1.5,0,0,0,0-3,1.5,1.5,0,0,0,0,3Z"/><path class="cls-5" d="M90.84,58.65a1.5,1.5,0,0,0,0-3,1.5,1.5,0,0,0,0,3Z"/><path class="cls-5" d="M103.23,56.6a1.5,1.5,0,0,0,0-3,1.5,1.5,0,0,0,0,3Z"/><path class="cls-5" d="M103.23,65.82a1.5,1.5,0,0,0,0-3,1.5,1.5,0,0,0,0,3Z"/><path class="cls-5" d="M66.06,45.33a1.5,1.5,0,0,0,0-3,1.5,1.5,0,0,0,0,3Z"/><path class="cls-5" d="M53.67,45.33a1.5,1.5,0,0,0,0-3,1.5,1.5,0,0,0,0,3Z"/><path class="cls-5" d="M45.41,43.28a1.5,1.5,0,0,0,0-3,1.5,1.5,0,0,0,0,3Z"/><path class="cls-5" d="M25.79,48.4a1.5,1.5,0,0,0,0-3,1.5,1.5,0,0,0,0,3Z"/><path class="cls-5" d="M29.92,51.48a1.5,1.5,0,0,0,0-3,1.5,1.5,0,0,0,0,3Z"/><path class="cls-5" d="M13.4,61.72a1.5,1.5,0,0,0,0-3,1.5,1.5,0,0,0,0,3Z"/><path class="cls-5" d="M27.85,61.72a1.5,1.5,0,0,0,0-3,1.5,1.5,0,0,0,0,3Z"/><path class="cls-5" d="M21.66,55.57a1.5,1.5,0,0,0,0-3,1.5,1.5,0,0,0,0,3Z"/><path class="cls-5" d="M17.53,69.92a1.5,1.5,0,0,0,0-3,1.5,1.5,0,0,0,0,3Z"/><path class="cls-5" d="M39.21,47.38a1.5,1.5,0,0,0,0-3,1.5,1.5,0,0,0,0,3Z"/><path class="cls-5" d="M35.08,98.6a1.5,1.5,0,0,0,0-3,1.5,1.5,0,0,0,0,3Z"/><path class="cls-5" d="M37.15,105.78a1.5,1.5,0,0,0,0-3,1.5,1.5,0,0,0,0,3Z"/><path class="cls-5" d="M57.8,92.46a1.5,1.5,0,0,0,0-3,1.5,1.5,0,0,0,0,3Z"/><path class="cls-5" d="M57.8,103.73a1.5,1.5,0,0,0,0-3,1.5,1.5,0,0,0,0,3Z"/><path class="cls-5" d="M49.54,124.22a1.5,1.5,0,0,0,0-3,1.5,1.5,0,0,0,0,3Z"/><path class="cls-5" d="M88.77,109.87a1.5,1.5,0,0,0,0-3,1.5,1.5,0,0,0,0,3Z"/><path class="cls-5" d="M80.51,93.48a1.5,1.5,0,0,0,0-3,1.5,1.5,0,0,0,0,3Z"/><path class="cls-5" d="M60.89,137.54a1.5,1.5,0,0,0,0-3,1.5,1.5,0,0,0,0,3Z"/><path class="cls-5" d="M82.58,129.34a1.5,1.5,0,0,0,0-3,1.5,1.5,0,0,0,0,3Z"/><path class="cls-5" d="M99.1,95.53a1.5,1.5,0,0,0,0-3,1.5,1.5,0,0,0,0,3Z"/><path class="cls-6" d="M47.47,59.67a1.5,1.5,0,0,0,0-3,1.5,1.5,0,0,0,0,3Z"/><path class="cls-6" d="M44.93,61.64c6.44,0,6.45-10,0-10s-6.44,10,0,10Z"/></g></svg>