<svg xmlns="http://www.w3.org/2000/svg" width="97" height="177" viewBox="0 0 97 177"><defs><style>.cls-1,.cls-2{fill:#bc8800;}.cls-1{stroke:#44210b;}.cls-1,.cls-3,.cls-5,.cls-6{stroke-miterlimit:10;}.cls-1,.cls-5,.cls-6{stroke-width:2px;}.cls-3{fill:#9b721f;stroke:#826525;}.cls-4{fill:#fff;}.cls-5,.cls-6{stroke:#000;}.cls-6{fill:none;}</style></defs><g id="characters"><path class="cls-1" d="M89.41,126.89C81.1,160.2,27.4,192.7,6,163.6c-15.43-21,22.82-57,17-85.17C17.76,52.55,18.54-.75,52.64,2.22,102.53,6.57,97.73,93.58,89.41,126.89Z"/><path class="cls-2" d="M41.55,87.34a1.5,1.5,0,0,0,0-3,1.5,1.5,0,0,0,0,3Z"/><path class="cls-3" d="M41.2,79.36c-3-.31-1.47,3.7-5.07.41s.73-9.66,4.64-10.52,11.08.45,11,4.89S44.19,79.68,41.2,79.36Z"/><path class="cls-3" d="M41.2,121.5c-3-.32-1.47,3.7-5.07.4s.73-9.65,4.64-10.52,11.08.46,11,4.9S44.19,121.82,41.2,121.5Z"/><path class="cls-3" d="M51.87,47.21c-1.81,3.12,5.78,8,9.32,9s12.87-5.46,10.91-9-7.35,1.63-10.2,1.31S53.68,44.08,51.87,47.21Z"/><path class="cls-3" d="M44.84,23.33c3.28,1.24,2.95,6.06.26,8.06S28,33.5,28.49,29.19s6.21-1.54,8.67-2.59S41.56,22.1,44.84,23.33Z"/><ellipse class="cls-3" cx="62.58" cy="117.22" rx="5.77" ry="3.59"/><ellipse class="cls-3" cx="28.87" cy="168.41" rx="5.77" ry="3.59"/><ellipse class="cls-3" cx="47.13" cy="98.81" rx="2.5" ry="5.15"/><ellipse class="cls-3" cx="76.47" cy="63.85" rx="2.5" ry="5.15"/><path class="cls-3" d="M83.46,88.07c2-1.73,5.76-4.51,2.77-7.13s-7.82-.19-11.73,1.52S76,95.05,79.2,95.28,81.44,89.81,83.46,88.07Z"/><path class="cls-3" d="M40.38,59.36c2-1.73,5.77-4.51,2.78-7.14S35.34,52,31.43,53.74s1.52,12.6,4.7,12.83S38.37,61.09,40.38,59.36Z"/><path class="cls-3" d="M22.56,150.36c3.78,1.19,17-9.49,16.89-14.11s-8.4-8.63-12.33-8.12-8.19,6.21-8.55,9.84S18.78,149.18,22.56,150.36Z"/><path class="cls-3" d="M45.71,148.38c.48,4.16,8,3,11,2.9s9.24.91,10.56-3.26S60.4,141.3,57,141.34,45.22,144.22,45.71,148.38Z"/><circle cx="40.54" cy="42.89" r="6.14"/><path class="cls-4" d="M39.14,46.48c6.43,0,6.44-10,0-10s-6.45,10,0,10Z"/><circle cx="65.12" cy="42.36" r="6.14"/><path class="cls-4" d="M63.72,45.94c6.43,0,6.44-10,0-10s-6.45,10,0,10Z"/><path class="cls-5" d="M47.89,53.31a8,8,0,0,1,.52-.85,5.24,5.24,0,0,1,4.22-2.62,5.24,5.24,0,0,1,4.22,2.62,8,8,0,0,1,.52.85h.81c-1.25-2.5-3.27-4.13-5.55-4.13s-4.3,1.63-5.55,4.13Z"/><line class="cls-6" x1="63.51" y1="28.46" x2="57.11" y2="36.49"/><line class="cls-6" x1="41.69" y1="28.4" x2="47.94" y2="36.55"/></g></svg>