<svg xmlns="http://www.w3.org/2000/svg" xmlns:xlink="http://www.w3.org/1999/xlink" width="1920" height="1080" viewBox="0 0 1920 1080"><defs><style>.cls-1{fill:#d65fbf;}.cls-2{fill:url(#New_Gradient_Swatch);}.cls-3,.cls-8{fill:#fff;}.cls-3,.cls-5,.cls-6{stroke:#42210b;}.cls-11,.cls-12,.cls-13,.cls-14,.cls-15,.cls-16,.cls-17,.cls-18,.cls-19,.cls-20,.cls-21,.cls-22,.cls-23,.cls-24,.cls-25,.cls-3,.cls-4,.cls-5,.cls-6{stroke-miterlimit:10;}.cls-3,.cls-5{stroke-width:6px;}.cls-12,.cls-4{stroke:#000;}.cls-11,.cls-4{stroke-width:2px;}.cls-5{fill:#fcfcfc;}.cls-6{fill:#00b428;}.cls-12,.cls-6{stroke-width:3px;}.cls-7{fill:#42210b;}.cls-9{fill:#006837;}.cls-10{fill:#44210b;}.cls-11{fill:#ed1c24;}.cls-11,.cls-13,.cls-14,.cls-15,.cls-16,.cls-17,.cls-18,.cls-19,.cls-20,.cls-21,.cls-22,.cls-23,.cls-24,.cls-25{stroke:#44210b;}.cls-13{fill:url(#hfuivhgv7eg);}.cls-14{fill:url(#hfuivhgv7eg-2);}.cls-15{fill:url(#hfuivhgv7eg-3);}.cls-16{fill:url(#hfuivhgv7eg-4);}.cls-17{fill:url(#hfuivhgv7eg-5);}.cls-18{fill:url(#hfuivhgv7eg-6);}.cls-19{fill:url(#hfuivhgv7eg-7);}.cls-20{fill:url(#hfuivhgv7eg-8);}.cls-21{fill:url(#hfuivhgv7eg-9);}.cls-22{fill:url(#hfuivhgv7eg-10);}.cls-23{fill:url(#hfuivhgv7eg-11);}.cls-24{fill:url(#hfuivhgv7eg-12);}.cls-25{fill:url(#hfuivhgv7eg-13);}</style><linearGradient id="New_Gradient_Swatch" x1="-1" y1="547" x2="1919" y2="547" gradientUnits="userSpaceOnUse"><stop offset="0" stop-color="#eec9db"/><stop offset="0.01" stop-color="#eec3d9" stop-opacity="0.98"/><stop offset="0.35" stop-color="#e538b3" stop-opacity="0.57"/><stop offset="0.5" stop-color="#e100a3" stop-opacity="0.4"/><stop offset="0.7" stop-color="#df42ab" stop-opacity="0.66"/><stop offset="0.9" stop-color="#de7eb3" stop-opacity="0.91"/><stop offset="1" stop-color="#dd96b6"/></linearGradient><linearGradient id="hfuivhgv7eg" x1="197.44" y1="195.62" x2="290.94" y2="195.62" gradientUnits="userSpaceOnUse"><stop offset="0" stop-color="#eec9db"/><stop offset="0.25" stop-color="#f455ff"/><stop offset="0.31" stop-color="#ec5aff" stop-opacity="0.95"/><stop offset="0.5" stop-color="#d46aff" stop-opacity="0.8"/><stop offset="0.56" stop-color="#dc53ff" stop-opacity="0.86"/><stop offset="0.72" stop-color="#f015ff"/><stop offset="0.81" stop-color="#e942e5"/><stop offset="0.94" stop-color="#e07ec3"/><stop offset="1" stop-color="#dd96b6"/></linearGradient><linearGradient id="hfuivhgv7eg-2" x1="296.59" y1="209.6" x2="404.07" y2="209.6" xlink:href="#hfuivhgv7eg"/><linearGradient id="hfuivhgv7eg-3" x1="409.73" y1="208.43" x2="517.21" y2="208.43" xlink:href="#hfuivhgv7eg"/><linearGradient id="hfuivhgv7eg-4" x1="522.86" y1="209.6" x2="630.34" y2="209.6" xlink:href="#hfuivhgv7eg"/><linearGradient id="hfuivhgv7eg-5" x1="636" y1="195.62" x2="687.24" y2="195.62" xlink:href="#hfuivhgv7eg"/><linearGradient id="hfuivhgv7eg-6" x1="791.39" y1="209.6" x2="898.87" y2="209.6" xlink:href="#hfuivhgv7eg"/><linearGradient id="hfuivhgv7eg-7" x1="904.52" y1="207.94" x2="1012" y2="207.94" xlink:href="#hfuivhgv7eg"/><linearGradient id="hfuivhgv7eg-8" x1="1017.66" y1="221.58" x2="1180.71" y2="221.58" xlink:href="#hfuivhgv7eg"/><linearGradient id="hfuivhgv7eg-9" x1="1186.36" y1="223.58" x2="1293.84" y2="223.58" xlink:href="#hfuivhgv7eg"/><linearGradient id="hfuivhgv7eg-10" x1="1299.49" y1="195.62" x2="1350.74" y2="195.62" xlink:href="#hfuivhgv7eg"/><linearGradient id="hfuivhgv7eg-11" x1="1356.73" y1="209.6" x2="1464.2" y2="209.6" xlink:href="#hfuivhgv7eg"/><linearGradient id="hfuivhgv7eg-12" x1="1469.86" y1="195.62" x2="1577.34" y2="195.62" xlink:href="#hfuivhgv7eg"/><linearGradient id="hfuivhgv7eg-13" x1="1582.99" y1="209.6" x2="1690.47" y2="209.6" xlink:href="#hfuivhgv7eg"/></defs><g id="characters"><rect class="cls-1" x="6" y="1" width="1916" height="1078"/><rect class="cls-2" x="-1" y="7" width="1920" height="1080"/><path class="cls-3" d="M1673.65,851.76a36.51,36.51,0,0,0-9.33-6.77A76.17,76.17,0,0,0,1677,819.92c11.71-41-40.64-60-90.77-60-21.42,0-41.09,4.92-56.61,13.13-9.35-8.25-20.91-13.13-33.42-13.13-19.9,0-37.37,12.33-47.4,30.93A61.07,61.07,0,0,0,1412,778.93c-30.73,0-55.63,21.3-55.63,47.58,0,12,5.25,23.06,13.89,31.44a40.41,40.41,0,0,0-8.06,13.15c-9.85,26.35,9.77,58,43.8,70.73,27.15,10.14,55.25,5.15,70.52-10.65,13,16.54,38.87,27.82,68.7,27.82,35.54,0,65.48-16,74.67-37.85,15.67,8.19,36.51,4.83,50.87-9.53C1688.07,894.28,1689.38,867.48,1673.65,851.76Z"/><circle class="cls-1" cx="1567.92" cy="851.43" r="19.76"/><circle class="cls-1" cx="1461.01" cy="850.11" r="19.76"/><path class="cls-4" d="M1475.18,833.56a28.91,28.91,0,0,1,1.66-2.74c3.72-5.42,8.54-8.41,13.58-8.41s9.87,3,13.58,8.41a31.24,31.24,0,0,1,1.67,2.74h2.59c-4-8-10.5-13.27-17.84-13.27s-13.83,5.23-17.84,13.27Z"/><path class="cls-4" d="M1523,833.56a31.16,31.16,0,0,1,1.66-2.74c3.72-5.42,8.54-8.41,13.59-8.41s9.86,3,13.58,8.41a28.91,28.91,0,0,1,1.66,2.74H1556c-4-8-10.5-13.27-17.83-13.27s-13.84,5.23-17.84,13.27Z"/><path class="cls-4" d="M1529.83,850.15a28,28,0,0,1-1.63,2.7c-3.65,5.32-8.38,8.25-13.33,8.25s-9.68-2.93-13.33-8.25c-.58-.86-1.12-1.76-1.63-2.7h-2.54c3.93,7.89,10.3,13,17.5,13s13.58-5.14,17.51-13Z"/><path class="cls-5" d="M1746.55,660.26c-.83-12.37-24.07-20.87-51.9-19-15.07,1-28.39,4.87-37.3,10.15,11.49-10.73,19.45-24.68,20.57-40.86,2.44-35.47-44.06-64.38-79.6-64.38s-75.61,28.82-75.61,64.38c0,17.62,9.85,33.59,24.11,45.22-11.1.17-27.32,8.78-41.74,23.2-19.72,19.73-28.61,42.82-19.84,51.59,7,6.95,22.93,2.79,39.08-9.07a76.57,76.57,0,0,0,27.93,50,58.72,58.72,0,0,0-1.08,11.33c0,19.24,8.95,34.84,20,34.84,10,0,18.37-12.93,19.78-29.77a79.16,79.16,0,0,0,9.42.57c1.39,0,2.78,0,4.15-.11,1.52,16.61,9.78,29.31,19.74,29.31,11,0,20-15.6,20-34.84a60,60,0,0,0-.51-7.81,76.72,76.72,0,0,0,28.37-90.24,102.65,102.65,0,0,0,25.58,1.33C1725.51,684.18,1747.39,672.63,1746.55,660.26Z"/><circle class="cls-1" cx="1628.28" cy="605.59" r="8.63"/><circle class="cls-1" cx="1576.51" cy="605.59" r="8.63"/><circle cx="1619.65" cy="596.96" r="8.96"/><circle cx="1582.49" cy="596.96" r="8.96"/><path class="cls-6" d="M1595.42,517.59c3.53,4.06,5.85,11.2,2.66,14s-10.67.12-14.2-3.95-6.9-10.67-3.72-13.44S1591.89,513.52,1595.42,517.59Z"/><path class="cls-6" d="M1614.68,529.42c-4.06,3.53-11.2,4.27-14,1.08s-.12-9.09,4-12.62,12.25-6.9,15-3.72S1618.75,525.89,1614.68,529.42Z"/><path class="cls-7" d="M1598.22,530.93v13.23a1.5,1.5,0,0,0,3,0V530.93a1.5,1.5,0,0,0-3,0Z"/><path class="cls-7" d="M1600.36,528.77a4.48,4.48,0,0,0,4.21-1c.54-.42,1-.91,1.59-1.28a10.81,10.81,0,0,1,1.78-.86,18.66,18.66,0,0,0,6.78-4.72,1.54,1.54,0,0,0,0-2.13,1.52,1.52,0,0,0-2.12,0,15.75,15.75,0,0,1-5.53,4,13,13,0,0,0-3.44,1.9c-.69.57-1.52,1.52-2.48,1.17a1.5,1.5,0,0,0-1.84,1,1.54,1.54,0,0,0,1,1.85Z"/><path class="cls-7" d="M1606.55,524.71a11.84,11.84,0,0,1,0-2.79l0,.4a8.58,8.58,0,0,1,.18-1,1.59,1.59,0,0,0-.15-1.15,1.51,1.51,0,0,0-2.06-.54,1.47,1.47,0,0,0-.68.9,12.71,12.71,0,0,0-.27,4.17,1.56,1.56,0,0,0,.44,1.06,1.54,1.54,0,0,0,1.06.44,1.56,1.56,0,0,0,1.06-.44,1.47,1.47,0,0,0,.44-1.06Z"/><path class="cls-7" d="M1611.64,524.22a8.37,8.37,0,0,0,2.5.17,7.6,7.6,0,0,0,2.72-.71,1.5,1.5,0,0,0-.36-2.74l-.4-.06a1.48,1.48,0,0,0-.76.21l-.06,0,.36-.16a6.62,6.62,0,0,1-1.69.46l.4-.06a6.86,6.86,0,0,1-1.81,0l.4,0a4,4,0,0,1-.5-.09,1.67,1.67,0,0,0-1.16.15,1.55,1.55,0,0,0-.69.9,1.53,1.53,0,0,0,1.05,1.85Z"/><path class="cls-7" d="M1598.7,530c-1.16-2.52-3.47-4.2-5.62-5.83l-.34-.26-.25-.19-.76-.61a15.39,15.39,0,0,1-1.4-1.28c-.21-.22-.42-.45-.61-.69.16.2,0,0-.08-.12s-.2-.28-.29-.43-.27-.49-.39-.75c0-.1,0-.08,0,0l-.09-.24c-.06-.17-.11-.35-.16-.52a1.5,1.5,0,1,0-2.89.8c.75,2.81,2.94,4.7,5.16,6.4,1.94,1.49,4.08,2.93,5.11,5.19a1.5,1.5,0,0,0,2.05.54,1.55,1.55,0,0,0,.54-2.06Z"/><path class="cls-7" d="M1594.15,525v-5.65a1.5,1.5,0,1,0-3,0V525a1.5,1.5,0,0,0,3,0Z"/><path class="cls-7" d="M1596.52,527.5c-2.07-.65-4.12-.07-6.22-.13l-.53,0c-.15,0-.15,0,0,0l-.26-.05a5.66,5.66,0,0,1-.59-.15l-.25-.08s-.28-.11-.12,0-.18-.1-.18-.1l-.22-.12-.21-.14c.12.08.12.1,0,0l-.18-.17c-.2-.18,0,.1,0,0s-.27-.54-.16-.26a1.54,1.54,0,0,0-1.85-1.05,1.51,1.51,0,0,0-1,1.85,5.51,5.51,0,0,0,4.82,3.31,13.67,13.67,0,0,0,2.93,0,16.9,16.9,0,0,1,1.74-.09,4.6,4.6,0,0,1,1.55.24,1.5,1.5,0,1,0,.8-2.9Z"/><path class="cls-7" d="M1586.83,518.57a5.65,5.65,0,0,1-.71.17l-.18,0c.41-.08.18,0,.07,0l-.36,0a6.11,6.11,0,0,1-.74,0h-.18c-.2,0,.32,0,.13,0l-.41-.08a5.75,5.75,0,0,1-.71-.2l-.17-.07a1,1,0,1,0,.1.05,3.36,3.36,0,0,0-.33-.16,6.58,6.58,0,0,1-.67-.4l-.15-.11c-.15-.11.23.19.09.07l-.31-.27a1.5,1.5,0,0,0-2.12,2.12,7.78,7.78,0,0,0,7.45,1.76,1.5,1.5,0,1,0-.8-2.89Z"/><path class="cls-7" d="M1589.56,519.32a9.67,9.67,0,0,0-.27-3.63,1.59,1.59,0,0,0-.69-.9,1.62,1.62,0,0,0-1.16-.15,1.53,1.53,0,0,0-1,1.85,7.67,7.67,0,0,1,.22,1.06l-.06-.4a8.3,8.3,0,0,1,0,2.17,1.49,1.49,0,0,0,1.5,1.5,1.51,1.51,0,0,0,1.06-.43l.23-.31a1.43,1.43,0,0,0,.21-.76Z"/><path class="cls-7" d="M1604.08,528.34l.12,0-.4,0a7.87,7.87,0,0,1,1.94,0l-.4-.06c.31.05.62.11.93.19a1.59,1.59,0,0,0,1.15-.15,1.55,1.55,0,0,0,.69-.9,1.52,1.52,0,0,0-.15-1.16,1.56,1.56,0,0,0-.9-.69,9,9,0,0,0-3.77-.16,1.49,1.49,0,0,0-.9.69,1.52,1.52,0,0,0-.15,1.16,1.5,1.5,0,0,0,.69.89l.36.16a1.51,1.51,0,0,0,.79,0Z"/><path class="cls-7" d="M1566.77,718.53c4.75-9.54,14.42-15.11,24.34-18,10.82-3.11,23.11-3.08,32.37,4.08a26.14,26.14,0,0,1,9.3,13.8,1.5,1.5,0,0,0,2.89-.8c-2.89-10.79-12.18-18.86-23-21.22A44.27,44.27,0,0,0,1593,697a54,54,0,0,0-16,6.48A34.07,34.07,0,0,0,1564.18,717c-.85,1.72,1.73,3.24,2.59,1.51Z"/><path class="cls-7" d="M1611.32,769.94c2.68-4.09,9-5.32,13.5-5.46s10.58,1.18,12.42,5.82c.7,1.77,3.6,1,2.89-.8-2.31-5.84-9-8.1-14.86-8s-13.15,1.79-16.54,7c-1.06,1.62,1.54,3.12,2.59,1.51Z"/><path class="cls-7" d="M1526.79,720.12a61.77,61.77,0,0,1,1.1-12.52,1.55,1.55,0,0,0-1.05-1.85,1.53,1.53,0,0,0-1.85,1,66.89,66.89,0,0,0-1.2,13.32c0,1.93,3,1.93,3,0Z"/><path class="cls-7" d="M1669.79,681.48l-4.76-2.69a1.51,1.51,0,0,0-2,.54,1.53,1.53,0,0,0,.54,2l4.76,2.69a1.5,1.5,0,1,0,1.51-2.59Z"/><path class="cls-7" d="M1546.85,657.83l5.41,2.72a1.5,1.5,0,1,0,1.52-2.59l-5.42-2.72a1.5,1.5,0,1,0-1.51,2.59Z"/><path d="M1613.05,609.24a19.89,19.89,0,0,1-1,1.73c-2.33,3.4-5.36,5.27-8.53,5.27s-6.19-1.87-8.53-5.27a19.81,19.81,0,0,1-1-1.73h-1.63c2.52,5,6.6,8.34,11.2,8.34s8.69-3.29,11.2-8.34Z"/><path class="cls-8" d="M1619.81,602.52c6.44,0,6.45-10,0-10s-6.44,10,0,10Z"/><path class="cls-8" d="M1581.86,602.52c6.43,0,6.44-10,0-10s-6.45,10,0,10Z"/><path class="cls-9" d="M1671.15,643.81c7.9,7.91,19.85,10.56,30.46,11.22,18.59,1.33,37.17-2,53.48-10.36"/><path class="cls-10" d="M1670.35,644.61c7.77,7.66,18.82,10.52,29.4,11.41a108.2,108.2,0,0,0,36.51-3,96.88,96.88,0,0,0,19.4-7.4c1.29-.66.16-2.6-1.13-1.95a96.69,96.69,0,0,1-34.42,10,108.75,108.75,0,0,1-17.59.3,70.1,70.1,0,0,1-15.37-2.46,35.55,35.55,0,0,1-15.21-8.49,1.12,1.12,0,0,0-1.59,1.59Z"/><polygon class="cls-11" points="1734.44 607.81 1713.3 571.17 1692.14 607.79 1670.97 644.42 1755.57 644.45 1734.44 607.81"/><path d="M1689.47,640.34a1.5,1.5,0,0,0,0-3,1.5,1.5,0,0,0,0,3Z"/><path d="M1700.77,625.2a1.5,1.5,0,0,0,0-3,1.5,1.5,0,0,0,0,3Z"/><path d="M1706.87,598.54a1.5,1.5,0,0,0,0-3,1.5,1.5,0,0,0,0,3Z"/><path d="M1717.94,598.09a1.5,1.5,0,0,0,0-3,1.5,1.5,0,0,0,0,3Z"/><path d="M1712.29,582.89h-.23a1,1,0,0,0-.57.13,1.34,1.34,0,0,0-.8.79,1.27,1.27,0,0,0-.13.58l.06.4a1.57,1.57,0,0,0,.38.66l.31.23a1.42,1.42,0,0,0,.75.21h.23a1.15,1.15,0,0,0,.58-.13,1.36,1.36,0,0,0,.79-.79,1.15,1.15,0,0,0,.13-.58l0-.4a1.59,1.59,0,0,0-.39-.66l-.3-.24a1.57,1.57,0,0,0-.76-.2Z"/><path d="M1734,636.27a1.5,1.5,0,0,0,0-3,1.5,1.5,0,0,0,0,3Z"/><path d="M1732.4,627.69a1.5,1.5,0,0,0,0-3,1.5,1.5,0,0,0,0,3Z"/><path d="M1711.16,638.08a1.5,1.5,0,0,0,0-3,1.5,1.5,0,0,0,0,3Z"/><path d="M1687.66,625a1.5,1.5,0,0,0,0-3,1.5,1.5,0,0,0,0,3Z"/><path d="M1693.54,630.85a1.5,1.5,0,0,0,0-3,1.5,1.5,0,0,0,0,3Z"/><path d="M1698.28,633.79a1.5,1.5,0,0,0,0-3,1.5,1.5,0,0,0,0,3Z"/><path d="M1702.8,638.08a1.5,1.5,0,0,0,0-3,1.5,1.5,0,0,0,0,3Z"/><path d="M1687.58,633.42v-.23a1.06,1.06,0,0,0-.13-.58,1.08,1.08,0,0,0-.31-.48,1,1,0,0,0-.48-.31,1.15,1.15,0,0,0-.58-.13l-.4,0a1.49,1.49,0,0,0-.66.39l-.23.3a1.48,1.48,0,0,0-.21.76v.23a1.14,1.14,0,0,0,.13.57,1.11,1.11,0,0,0,.31.49,1.24,1.24,0,0,0,.48.31,1.29,1.29,0,0,0,.58.13l.4-.06a1.51,1.51,0,0,0,.66-.38l.24-.31a1.5,1.5,0,0,0,.2-.75Z"/><path d="M1680.43,641.69a1.5,1.5,0,0,0,0-3,1.5,1.5,0,0,0,0,3Z"/><path d="M1679.53,632.82h-.45a1.06,1.06,0,0,0-.58.13,1,1,0,0,0-.48.31,1.08,1.08,0,0,0-.31.48,1.06,1.06,0,0,0-.13.58l.05.4a1.49,1.49,0,0,0,.39.66l.3.23a1.45,1.45,0,0,0,.76.21h.45a1.15,1.15,0,0,0,.58-.13,1.36,1.36,0,0,0,.79-.79,1.15,1.15,0,0,0,.13-.58l0-.4a1.59,1.59,0,0,0-.39-.66l-.3-.24a1.57,1.57,0,0,0-.76-.2Z"/><path d="M1745.73,635.59a1.5,1.5,0,0,0,0-3,1.5,1.5,0,0,0,0,3Z"/><path d="M1748.66,642.37a1.5,1.5,0,0,0,0-3,1.5,1.5,0,0,0,0,3Z"/><path d="M1724.26,642.82a1.5,1.5,0,0,0,0-3,1.5,1.5,0,0,0,0,3Z"/><path d="M1736.24,641.24a1.5,1.5,0,0,0,0-3,1.5,1.5,0,0,0,0,3Z"/><path d="M1736.46,629.49a1.5,1.5,0,0,0,0-3,1.5,1.5,0,0,0,0,3Z"/><path d="M1716.58,591.09a1.5,1.5,0,0,0,0-3,1.5,1.5,0,0,0,0,3Z"/><path d="M1714.32,577.76a1.5,1.5,0,0,0,0-3,1.5,1.5,0,0,0,0,3Z"/><path d="M1707.55,591.31a1.5,1.5,0,0,0,0-3,1.5,1.5,0,0,0,0,3Z"/><path d="M1710.71,582.05a1.5,1.5,0,0,0,0-3,1.5,1.5,0,0,0,0,3Z"/><path d="M1711.61,595.15a1.5,1.5,0,0,0,0-3,1.5,1.5,0,0,0,0,3Z"/><path d="M1698.28,605.54a1.5,1.5,0,0,0,0-3,1.5,1.5,0,0,0,0,3Z"/><path d="M1692.63,615.49a1.5,1.5,0,0,0,0-3,1.5,1.5,0,0,0,0,3Z"/><path d="M1696.25,620.23a1.5,1.5,0,0,0,0-3,1.5,1.5,0,0,0,0,3Z"/><path d="M1699.86,610.29a1.5,1.5,0,0,0,0-3,1.5,1.5,0,0,0,0,3Z"/><path d="M1717.94,633.56a1.5,1.5,0,0,0,0-3,1.5,1.5,0,0,0,0,3Z"/><path d="M1723.36,627.62h-.23a1.25,1.25,0,0,0-.57.13,1.32,1.32,0,0,0-.8.8,1.22,1.22,0,0,0-.13.57l.06.4a1.45,1.45,0,0,0,.38.66l.31.24a1.5,1.5,0,0,0,.75.2h.23a1.06,1.06,0,0,0,.58-.13,1.14,1.14,0,0,0,.48-.31,1,1,0,0,0,.31-.48,1.15,1.15,0,0,0,.13-.58l0-.4a1.49,1.49,0,0,0-.39-.66l-.3-.23a1.48,1.48,0,0,0-.76-.21Z"/><path d="M1714.32,628.36a1.5,1.5,0,0,0,0-3,1.5,1.5,0,0,0,0,3Z"/><path d="M1733.75,620.46a1.5,1.5,0,0,0,0-3,1.5,1.5,0,0,0,0,3Z"/><path d="M1730.28,611.05v-.23a1.08,1.08,0,0,0-.13-.58,1.14,1.14,0,0,0-.31-.48,1.11,1.11,0,0,0-.48-.31,1.15,1.15,0,0,0-.58-.13l-.4.06a1.57,1.57,0,0,0-.66.38l-.23.31a1.42,1.42,0,0,0-.21.75v.23a1.15,1.15,0,0,0,.13.58,1.24,1.24,0,0,0,.31.48,1.14,1.14,0,0,0,.48.31,1.17,1.17,0,0,0,.58.13l.4-.06a1.37,1.37,0,0,0,.66-.38l.24-.3a1.57,1.57,0,0,0,.2-.76Z"/><path d="M1722.91,599.44a1.5,1.5,0,0,0,0-3,1.5,1.5,0,0,0,0,3Z"/><path d="M1723.13,605.77a1.5,1.5,0,0,0,0-3,1.5,1.5,0,0,0,0,3Z"/><path class="cls-12" d="M1704.27,621.52v.13c0,5,3.64,9,8.13,9s8.12-4,8.12-9v-.13Z"/><circle class="cls-1" cx="1730.82" cy="621.19" r="7.3"/><circle class="cls-1" cx="1694.98" cy="622.51" r="7.3"/><circle cx="1702.61" cy="611.56" r="7.63"/><path class="cls-8" d="M1700.87,614.81c6.43,0,6.44-10,0-10s-6.45,10,0,10Z"/><circle cx="1723.18" cy="610.9" r="7.63"/><path class="cls-8" d="M1721.44,614.14c6.43,0,6.44-10,0-10s-6.45,10,0,10Z"/><path class="cls-13" d="M290.94,319.41h-93.5V71.84h51.24V268.16h42.26Z"/><path class="cls-14" d="M393.76,112.44a39.86,39.86,0,0,1,10.31,27.28v83.86a39.85,39.85,0,0,1-10.31,27.28q-11.33,12.64-29.29,12.65H347.84v4.65h56.23v51.25H336.19a38.62,38.62,0,0,1-26.95-10.32q-12.64-11-12.65-29.28V139.72q0-18.3,12.65-29.61a38.62,38.62,0,0,1,26.95-10.32h28.28Q382.44,99.79,393.76,112.44ZM352.5,151.37h-4.66v60.56h4.66Z"/><path class="cls-15" d="M493.58,305.43a69.23,69.23,0,0,1-44.26,15.31H409.73V96.13H461v169q4.65-4,4.66-12.31V96.13h51.58V252.86Q517.21,286.47,493.58,305.43Z"/><path class="cls-16" d="M620,112.44a39.83,39.83,0,0,1,10.32,27.28v83.86A39.81,39.81,0,0,1,620,250.86q-11.31,12.64-29.28,12.65H574.11v4.65h56.23v51.25H562.46a38.6,38.6,0,0,1-27-10.32q-12.66-11-12.65-29.28V139.72q0-18.3,12.65-29.61a38.6,38.6,0,0,1,27-10.32h28.28Q608.71,99.79,620,112.44Zm-41.26,38.93h-4.65v60.56h4.65Z"/><path class="cls-17" d="M687.24,319.41H636V71.84h51.24Z"/><path class="cls-18" d="M888.55,112.44a39.83,39.83,0,0,1,10.32,27.28v67.55H847.29v-55.9h-4.66V268.16h4.66V211.93h51.58v67.88q0,18.3-12.65,29.28a38.62,38.62,0,0,1-27,10.32H831q-18.3,0-29.28-12.65a38.62,38.62,0,0,1-10.32-26.95V139.72q0-18.3,12.64-29.61a38.64,38.64,0,0,1,27-10.32h28.28Q877.24,99.79,888.55,112.44Z"/><path class="cls-19" d="M944.12,319.41a38.62,38.62,0,0,1-27-10.32q-12.64-11-12.65-29.28V136.06a38.63,38.63,0,0,1,10.32-26.95q11-12.64,29.28-12.65h28.29a38.7,38.7,0,0,1,27,10.32q12.64,11,12.64,29.28V279.81a38.65,38.65,0,0,1-10.31,26.95q-11.33,12.66-29.28,12.65Zm11.65-51.25h4.66V147.71h-4.66Z"/><path class="cls-20" d="M1068.9,319.41h-51.24v-184a38.65,38.65,0,0,1,10.31-27q11-12.63,29.29-12.64h28a41.15,41.15,0,0,1,23.62,7.48,35.79,35.79,0,0,1,14.64,20.47h17.64a38.67,38.67,0,0,1,27,10.31q12.64,11.33,12.65,29.29v184h-51.25V175h-4.66V319.41h-51.24V147h-4.66Z"/><path class="cls-21" d="M1281.19,110.11q12.64,11.31,12.65,29.61V279.81a38.62,38.62,0,0,1-10.32,26.95q-11.31,12.66-29.28,12.65H1237.6v27.95h-51.24V139.72A40.9,40.9,0,0,1,1197,111.94q10.63-12.15,29-12.15h28.28A38.63,38.63,0,0,1,1281.19,110.11Zm-38.93,41.26h-4.66V268.16h4.66Z"/><path class="cls-22" d="M1350.74,319.41h-51.25V71.84h51.25Z"/><path class="cls-23" d="M1453.89,112.44a39.86,39.86,0,0,1,10.31,27.28v83.86a39.85,39.85,0,0,1-10.31,27.28q-11.33,12.64-29.28,12.65H1408v4.65h56.23v51.25h-67.88a38.62,38.62,0,0,1-27-10.32q-12.64-11-12.64-29.28V139.72q0-18.3,12.64-29.61a38.62,38.62,0,0,1,27-10.32h28.29Q1442.58,99.79,1453.89,112.44Zm-41.26,38.93H1408v60.56h4.66Z"/><path class="cls-24" d="M1480.18,306.76a38.62,38.62,0,0,1-10.32-26.95v-208h51.24v28h56.24v51.58H1521.1V268.16h4.66V156h51.58V279.81q0,18.3-12.65,29.28a38.62,38.62,0,0,1-27,10.32h-28.28Q1491.15,319.41,1480.18,306.76Z"/><path class="cls-25" d="M1680.16,112.44a39.86,39.86,0,0,1,10.31,27.28v83.86a39.85,39.85,0,0,1-10.31,27.28q-11.33,12.64-29.29,12.65h-16.63v4.65h56.23v51.25h-67.88a38.62,38.62,0,0,1-26.95-10.32q-12.66-11-12.65-29.28V139.72q0-18.3,12.65-29.61a38.62,38.62,0,0,1,26.95-10.32h28.28Q1668.84,99.79,1680.16,112.44Zm-41.26,38.93h-4.66v60.56h4.66Z"/></g></svg>