<svg xmlns="http://www.w3.org/2000/svg" xmlns:xlink="http://www.w3.org/1999/xlink" width="812.33" height="932.25" viewBox="0 0 812.33 932.25"><defs><style>.cls-1,.cls-12,.cls-13,.cls-2,.cls-3,.cls-4,.cls-5,.cls-6,.cls-7,.cls-8,.cls-9{stroke:#44210b;stroke-miterlimit:10;}.cls-1,.cls-2,.cls-3{stroke-width:3px;}.cls-1{fill:url(#Grey);}.cls-2{fill:url(#Grey-2);}.cls-10,.cls-3,.cls-4,.cls-8{fill:#fff;}.cls-4{stroke-width:0.75px;}.cls-5{fill:#d65fbf;}.cls-5,.cls-9{stroke-width:0.25px;}.cls-11,.cls-6,.cls-7{fill:#44210b;}.cls-6{stroke-width:2px;}.cls-12{fill:#39b54a;}</style><linearGradient id="Grey" x1="1.5" y1="785.68" x2="810.83" y2="785.68" gradientUnits="userSpaceOnUse"><stop offset="0" stop-color="#b5c4d4"/><stop offset="0.5" stop-color="#85a4bd"/><stop offset="0.6" stop-color="#7ea0ba"/><stop offset="1" stop-color="#6791ad"/></linearGradient><linearGradient id="Grey-2" y1="319.11" x2="810.83" y2="319.11" xlink:href="#Grey"/></defs><g id="arkade"><rect class="cls-1" x="1.5" y="640.61" width="809.33" height="290.14"/><rect class="cls-2" x="1.5" y="1.5" width="809.33" height="635.23"/><circle class="cls-3" cx="127.96" cy="505.03" r="79.4"/><circle class="cls-3" cx="678.78" cy="98.37" r="79.4"/><circle class="cls-3" cx="405.87" cy="98.37" r="79.4"/><circle class="cls-3" cx="410.58" cy="299.53" r="79.4"/><circle class="cls-3" cx="132.96" cy="301.88" r="79.4"/><circle class="cls-3" cx="405.87" cy="500.68" r="79.4"/><circle class="cls-3" cx="132.96" cy="101.9" r="79.4"/><circle class="cls-3" cx="673.78" cy="293.88" r="79.4"/><circle class="cls-3" cx="673.78" cy="500.39" r="79.4"/><path class="cls-4" d="M305.85,860.19A22.82,22.82,0,0,0,300,856a47.6,47.6,0,0,0,7.88-15.65c7.31-25.58-25.36-37.45-56.64-37.45-13.37,0-25.64,3.06-35.33,8.18a31.43,31.43,0,0,0-20.86-8.18c-12.41,0-23.32,7.69-29.58,19.29a38.15,38.15,0,0,0-22.95-7.42c-19.17,0-34.71,13.29-34.71,29.69a27.31,27.31,0,0,0,8.67,19.63,25.09,25.09,0,0,0-5,8.2c-6.15,16.44,6.09,36.21,27.33,44.14,16.94,6.33,34.48,3.21,44-6.65,8.1,10.32,24.25,17.36,42.87,17.36,22.18,0,40.86-10,46.59-23.62,9.78,5.11,22.79,3,31.75-5.94C314.85,886.73,315.67,870,305.85,860.19Z"/><circle class="cls-5" cx="239.87" cy="859.99" r="12.33"/><path class="cls-6" d="M182,848.84a19.55,19.55,0,0,1,1-1.72c2.32-3.38,5.33-5.24,8.48-5.24s6.16,1.86,8.48,5.24a19.55,19.55,0,0,1,1,1.72h1.62c-2.5-5-6.55-8.29-11.13-8.29s-8.63,3.27-11.13,8.29Z"/><path class="cls-6" d="M211.82,848.84a15.73,15.73,0,0,1,1-1.49,10.18,10.18,0,0,1,17,0,15.73,15.73,0,0,1,1,1.49h1.62c-2.5-4.35-6.55-7.18-11.13-7.18s-8.63,2.83-11.13,7.18Z"/><path class="cls-7" d="M216.11,859.39q-.48.89-1,1.68c-2.28,3.32-5.23,5.15-8.32,5.15s-6-1.83-8.32-5.15q-.54-.8-1-1.68h-1.58c2.45,4.92,6.43,8.13,10.92,8.13s8.47-3.21,10.92-8.13Z"/><circle class="cls-5" cx="173.16" cy="859.16" r="12.33"/><path class="cls-8" d="M352.45,740.69c-.53-7.72-15-13-32.39-11.85-9.41.64-17.72,3-23.28,6.34,7.17-6.7,12.14-15.4,12.84-25.5,1.52-22.13-27.5-40.17-49.67-40.17s-47.19,18-47.19,40.17c0,11,6.15,21,15.05,28.22-6.93.1-17.05,5.48-26.05,14.48-12.31,12.31-17.85,26.72-12.38,32.19,4.34,4.34,14.3,1.74,24.38-5.66a47.82,47.82,0,0,0,17.44,31.17,36.47,36.47,0,0,0-.68,7.07c0,12,5.58,21.75,12.47,21.75,6.28,0,11.47-8.08,12.35-18.59a47.49,47.49,0,0,0,5.88.36c.87,0,1.73,0,2.59-.07.95,10.37,6.1,18.3,12.32,18.3,6.89,0,12.47-9.74,12.47-21.75a36.77,36.77,0,0,0-.32-4.87A47.9,47.9,0,0,0,306,756a63.52,63.52,0,0,0,16,.83C339.31,755.62,353,748.41,352.45,740.69Z"/><circle class="cls-5" cx="278.64" cy="706.57" r="5.38"/><circle class="cls-5" cx="246.34" cy="706.57" r="5.38"/><circle class="cls-9" cx="273.26" cy="701.19" r="5.59"/><circle class="cls-9" cx="250.06" cy="701.19" r="5.59"/><path class="cls-10" d="M260.56,661.31c0,1.5.26,5.43.26,6.93"/><path class="cls-11" d="M260.18,661.31c0,2.31.26,4.62.26,6.93a.38.38,0,0,0,.75,0c0-2.31-.25-4.62-.26-6.93a.38.38,0,0,0-.75,0Z"/><path class="cls-11" d="M239.77,776.77c4-7.94,13.51-12,22-12.67a20.83,20.83,0,0,1,13.06,3,17.11,17.11,0,0,1,7.16,9.72.37.37,0,0,0,.72-.2A18.41,18.41,0,0,0,269,763.84c-7.29-1.66-15.6.34-21.91,4.2a20.8,20.8,0,0,0-7.92,8.35c-.22.43.43.81.64.38Z"/><path class="cls-10" d="M267.25,808.66c1.13-1.81,3.49-2.87,5.89-3.42a14.71,14.71,0,0,1,7-.07c2.27.61,4.32,2.05,5,3.94"/><path class="cls-11" d="M267.57,808.85c1.77-2.68,5.73-3.55,8.73-3.68s7.18.82,8.47,4c.18.44.9.25.72-.2-1.37-3.44-5.47-4.67-8.87-4.6s-7.71,1.05-9.69,4.06c-.27.41.38.78.64.38Z"/><path class="cls-10" d="M214.37,778a38.93,38.93,0,0,1,.72-8.06"/><path class="cls-11" d="M214.75,778a39.35,39.35,0,0,1,.7-8c.09-.47-.63-.67-.72-.2A39.9,39.9,0,0,0,214,778a.38.38,0,0,0,.75,0Z"/><path class="cls-10" d="M304.07,754.74l-3-1.68"/><path class="cls-11" d="M304.26,754.41l-3-1.67c-.42-.24-.8.41-.38.64l3,1.68a.38.38,0,0,0,.38-.65Z"/><path class="cls-10" d="M228.3,738.37l3.38,1.69"/><path class="cls-11" d="M228.11,738.69l3.38,1.7a.38.38,0,0,0,.38-.65l-3.39-1.7a.38.38,0,0,0-.51.14.37.37,0,0,0,.14.51Z"/><path class="cls-9" d="M268,707.75a9.66,9.66,0,0,1-.65,1.08c-1.46,2.12-3.35,3.29-5.32,3.29s-3.87-1.17-5.32-3.29a9.66,9.66,0,0,1-.65-1.08h-1c1.57,3.15,4.11,5.2,7,5.2s5.42-2.05,7-5.2Z"/><ellipse class="cls-12" cx="264.96" cy="657.45" rx="5.5" ry="3.85" transform="translate(-344.46 295.44) rotate(-37.34)"/><ellipse class="cls-12" cx="255.05" cy="657.45" rx="3.85" ry="5.5" transform="translate(-430.23 491.08) rotate(-55.15)"/><path class="cls-11" d="M272.52,704.76a4.5,4.5,0,1,0-4.5-4.5,4.55,4.55,0,0,0,4.5,4.5Z"/><path class="cls-11" d="M250.6,704.76a4.5,4.5,0,1,0-4.5-4.5,4.55,4.55,0,0,0,4.5,4.5Z"/><path class="cls-13" d="M431.69,704.25q2.13,6.22,4.27,12.46,1.6,4.69,3.23,9.38-.49-4.67-1-9.33l-1.32-12.44,6.17,1.07,4.1.69c0,.42-.07.82-.11,1.22l-1.14.06-.76,0q-.47,6.27-.91,12.54l-.89,12.22-6,.7-.39-.44a1.71,1.71,0,0,1-.21-.26l.69-.36c.25-.12.49-.24.72-.37q-2.19-3.95-4.35-7.91L428,712.93l1.05,6.46q1,6,2,12l.33,0,.21,0,.43,0,.21,0,.43.06h.09a.44.44,0,0,0,.16,0h0l0,0q0,.35-.06.72l-.08.69-6.6-.54-4.76-.39q.27-7.17.53-14.35.21-5.44.4-10.87a3.41,3.41,0,0,0-.48.09q-.54.07-1.08.18c-.12-.26-.24-.51-.35-.76l-.35-.77Q425.89,704.94,431.69,704.25Zm-8.86,8.16a9.8,9.8,0,0,0,1.52,2.19c.57-.21,1.11-.43,1.61-.66a4.31,4.31,0,0,0,1.2-.79,1.71,1.71,0,0,0,.48-1V712a1.3,1.3,0,0,0-.21-.75,1.34,1.34,0,0,0-.71-.47,1.26,1.26,0,0,0-.37-.05,1.31,1.31,0,0,0-.47.09,1.54,1.54,0,0,0-.65.55,9,9,0,0,0-.51.87,4.3,4.3,0,0,0-.19-.71,1.17,1.17,0,0,0-.35-.51.8.8,0,0,0-.54-.2,1,1,0,0,0-.58.18.84.84,0,0,0-.35.73A1.94,1.94,0,0,0,422.83,712.41Zm.6,6.52a7.07,7.07,0,0,0,1.18,1.66,6.66,6.66,0,0,0,2.14-1.1,1.32,1.32,0,0,0,.35-.75v-.14a1,1,0,0,0-.15-.54,1,1,0,0,0-.54-.37,1.27,1.27,0,0,0-.26,0,1.08,1.08,0,0,0-.38.08,1.23,1.23,0,0,0-.5.44c-.13.2-.26.41-.39.64a4.26,4.26,0,0,0-.15-.54.81.81,0,0,0-.26-.38.73.73,0,0,0-.41-.15.67.67,0,0,0-.44.13.65.65,0,0,0-.27.58A1.5,1.5,0,0,0,423.43,718.93Zm.52,4.82a5.38,5.38,0,0,0,.87,1.22,4.24,4.24,0,0,0,1.55-.82.83.83,0,0,0,.27-.54v-.11a.57.57,0,0,0-.12-.37.68.68,0,0,0-.38-.27l-.22,0a.66.66,0,0,0-.63.36c-.09.14-.19.3-.28.47a2.6,2.6,0,0,0-.1-.4.67.67,0,0,0-.21-.28.49.49,0,0,0-.31-.11.51.51,0,0,0-.31.11.49.49,0,0,0-.19.41A1.22,1.22,0,0,0,424,723.75Zm.33,5.16a1,1,0,0,0,1.87.33,1,1,0,0,0,.22-.42v-.06a.56.56,0,0,0-.1-.33.48.48,0,0,0-.31-.19.43.43,0,0,0-.19,0,.45.45,0,0,0-.18,0,.7.7,0,0,0-.27.25l-.23.37a2.13,2.13,0,0,0-.09-.3.48.48,0,0,0-.14-.23.37.37,0,0,0-.23-.07.48.48,0,0,0-.26.07.37.37,0,0,0-.15.31A.74.74,0,0,0,424.28,728.91Z"/><path class="cls-13" d="M458.29,704.07a10.23,10.23,0,0,1,6.08,1.95,13.78,13.78,0,0,1,4.37,5.2,17,17,0,0,1,0,14.48,13.85,13.85,0,0,1-4.37,5.22,10.48,10.48,0,0,1-12.15,0,13.94,13.94,0,0,1-4.37-5.22,16.89,16.89,0,0,1,0-14.48,13.87,13.87,0,0,1,4.37-5.2A10.24,10.24,0,0,1,458.29,704.07ZM449,718.16a6.64,6.64,0,0,0,1,1.43,5.28,5.28,0,0,0,1.84-1,1,1,0,0,0,.31-.64v-.11a.77.77,0,0,0-.6-.78,1.38,1.38,0,0,0-.26,0,.72.72,0,0,0-.29.06,1.18,1.18,0,0,0-.43.38,3.18,3.18,0,0,0-.34.57,2.77,2.77,0,0,0-.14-.46.86.86,0,0,0-.21-.35.57.57,0,0,0-.37-.12.64.64,0,0,0-.38.12.52.52,0,0,0-.24.48A1.46,1.46,0,0,0,449,718.16Zm.56-5.15a9.71,9.71,0,0,0,2.27,1.41q.67-.61,1.23-1.23a4.44,4.44,0,0,0,.8-1.21,1.78,1.78,0,0,0,.11-.63,2,2,0,0,0-.1-.57,1,1,0,0,0-.5-.59,1.18,1.18,0,0,0-.65-.2l-.35,0a1.08,1.08,0,0,0-.58.35,1.57,1.57,0,0,0-.39.77,7.41,7.41,0,0,0-.13,1,4.7,4.7,0,0,0-.46-.58,1.37,1.37,0,0,0-.51-.35l-.21,0a1.06,1.06,0,0,0-.42.1.91.91,0,0,0-.42.37.85.85,0,0,0-.11.42A1.58,1.58,0,0,0,449.6,713Zm.41,11.28a5.58,5.58,0,0,0,1.28.79,4.71,4.71,0,0,0,1.12-1.35,1,1,0,0,0,.08-.37,1.19,1.19,0,0,0-.07-.31.68.68,0,0,0-.28-.33.76.76,0,0,0-.35-.09,1,1,0,0,0-.21,0,.59.59,0,0,0-.33.17.93.93,0,0,0-.22.43,4.76,4.76,0,0,0-.07.56,2.09,2.09,0,0,0-.25-.32.64.64,0,0,0-.29-.19l-.14,0a.68.68,0,0,0-.22.05.42.42,0,0,0-.22.2.53.53,0,0,0-.06.24A.84.84,0,0,0,450,724.29Zm4.37,3.17a4,4,0,0,0,1,.62,3.51,3.51,0,0,0,.87-1.06.66.66,0,0,0,.06-.27,1.05,1.05,0,0,0-.05-.26.48.48,0,0,0-.22-.25.59.59,0,0,0-.29-.07h-.15a.4.4,0,0,0-.26.14.63.63,0,0,0-.15.34,2.79,2.79,0,0,0-.06.43l-.21-.25a.51.51,0,0,0-.22-.15l-.09,0a.49.49,0,0,0-.19.05.31.31,0,0,0-.16.16.39.39,0,0,0-.06.2A.59.59,0,0,0,454.38,727.46ZM457.9,713a3.51,3.51,0,0,0-1.94,1,3.55,3.55,0,0,0-.8,2.28v.29a11.39,11.39,0,0,0,.54,3.23,12.24,12.24,0,0,0,1.53,3.29c1.14,1.65,2.38,2.48,3.69,2.48a3.74,3.74,0,0,0,.81-.1,4.14,4.14,0,0,0,2.08-1.6A6.64,6.64,0,0,0,465,721a8.06,8.06,0,0,0,.08-1.2,10.19,10.19,0,0,0-.39-2.6,6,6,0,0,0-1.49-2.64,5.27,5.27,0,0,0-2.57-1.47,6.93,6.93,0,0,0-1.53-.18A5.69,5.69,0,0,0,457.9,713Z"/><path class="cls-13" d="M486,703.78c.19,1.48.38,3,.58,4.43.25,2,.51,3.94.75,5.9.35-1.33.69-2.66,1-4,.42-1.68.85-3.36,1.27-5.05l6.08.17,6.11.2c0,.46.05.93.08,1.41-.37.15-.75.31-1.12.48l-1.11.49,1.05,12.47q.54,6.24,1.06,12.48c-2.37-.4-4.75-.8-7.14-1.22l-6.42-1.08c0-.35,0-.7-.06-1v-.08l.91,0,.91,0q.57-4.35,1.12-8.73t1.14-8.72q-2.31,5.19-4.66,10.35l-1.43,3.21q-1.42-3.6-2.88-7.2L480.39,711q.42,3.69.85,7.37l1.47,12.75,1.7.29c.42.08.85.15,1.28.21a2.88,2.88,0,0,0,.05.33l.16,1.16-7.84-.87-5.53-.62q.6-6.81,1.18-13.62c.31-3.46.61-6.91.91-10.37l-1.26-.08-1.27-.07c-.08-.17-.15-.34-.22-.51-.15-.34-.3-.69-.44-1l6.42-1Zm-10.72,8.28a9.61,9.61,0,0,0,1.45,2.25c.57-.2,1.1-.4,1.61-.6a4,4,0,0,0,1.23-.74,1.85,1.85,0,0,0,.53-1,1.64,1.64,0,0,0,0-.23,1.19,1.19,0,0,0-.2-.66,1.27,1.27,0,0,0-.68-.5,1.44,1.44,0,0,0-.4-.06,1.33,1.33,0,0,0-.45.08,1.54,1.54,0,0,0-.67.53,6.89,6.89,0,0,0-.55.82,3.85,3.85,0,0,0-.16-.69,1.32,1.32,0,0,0-.32-.54,1,1,0,0,0-.54-.22h-.06a1,1,0,0,0-.52.16.87.87,0,0,0-.39.79A1.91,1.91,0,0,0,475.26,712.06Zm.33,6.52a7.16,7.16,0,0,0,1.1,1.72,6.39,6.39,0,0,0,2.19-1,1.33,1.33,0,0,0,.4-.74v-.13a1,1,0,0,0-.13-.54,1.1,1.1,0,0,0-.53-.39.87.87,0,0,0-.32-.06.81.81,0,0,0-.31.06,1.27,1.27,0,0,0-.53.42,6.66,6.66,0,0,0-.42.62,5,5,0,0,0-.12-.53.82.82,0,0,0-.25-.41.74.74,0,0,0-.41-.16h-.05a.65.65,0,0,0-.39.12.69.69,0,0,0-.29.62A1.64,1.64,0,0,0,475.59,718.58Zm.33,4.84a5,5,0,0,0,.81,1.26,4.75,4.75,0,0,0,1.58-.74.91.91,0,0,0,.29-.54v-.12a.79.79,0,0,0-.09-.38.69.69,0,0,0-.39-.27.62.62,0,0,0-.23,0,.59.59,0,0,0-.23,0,.75.75,0,0,0-.38.29,3,3,0,0,0-.3.46c0-.13-.06-.26-.1-.39a.59.59,0,0,0-.17-.29.51.51,0,0,0-.31-.11h-.06a.54.54,0,0,0-.27.07.48.48,0,0,0-.21.43A1.05,1.05,0,0,0,475.92,723.42Zm.09,5.18a4.19,4.19,0,0,0,.64,1,3.68,3.68,0,0,0,1.24-.58.65.65,0,0,0,.21-.43.37.37,0,0,0,0-.09.45.45,0,0,0-.1-.29.47.47,0,0,0-.29-.22.63.63,0,0,0-.19,0l-.17,0a.83.83,0,0,0-.28.25c-.09.11-.17.23-.25.35,0-.11,0-.22-.07-.31a.41.41,0,0,0-.14-.23.36.36,0,0,0-.23-.08.36.36,0,0,0-.25.06.37.37,0,0,0-.18.35A1.11,1.11,0,0,0,476,728.6Z"/><path class="cls-13" d="M495.23,777.32q2.13,6.23,4.28,12.46,1.61,4.69,3.23,9.38c-.34-3.11-.66-6.22-1-9.32q-.64-6.24-1.31-12.44c2.05.34,4.11.7,6.17,1.06l4.1.7c0,.41-.08.82-.11,1.22l-1.15,0-.75,0q-.46,6.27-.91,12.54l-.89,12.23-6,.69c-.13-.15-.25-.3-.38-.44a2.62,2.62,0,0,1-.22-.25l.7-.37.72-.37q-2.19-3.94-4.36-7.91L491.54,786l1,6.46,2,12,.33,0,.21,0,.42,0,.22,0,.42.05h.1a.39.39,0,0,0,.15,0h0s0,0,0,0c0,.24,0,.47-.06.72l-.07.7-6.6-.55-4.76-.38q.27-7.19.52-14.36c.14-3.62.28-7.25.41-10.87a3.39,3.39,0,0,0-.48.1c-.37,0-.73.1-1.09.17-.12-.26-.23-.51-.35-.75l-.35-.78Q489.43,778,495.23,777.32Zm-8.86,8.16a9.56,9.56,0,0,0,1.53,2.19c.57-.21,1.1-.43,1.61-.66a4.1,4.1,0,0,0,1.2-.79,1.75,1.75,0,0,0,.48-1v-.13a1.33,1.33,0,0,0-.21-.76,1.26,1.26,0,0,0-.72-.46,1.24,1.24,0,0,0-.37-.06,1.09,1.09,0,0,0-.46.1,1.39,1.39,0,0,0-.66.55,6.47,6.47,0,0,0-.5.86,5.58,5.58,0,0,0-.19-.71,1.26,1.26,0,0,0-.35-.51.83.83,0,0,0-.54-.19,1,1,0,0,0-.59.17.85.85,0,0,0-.34.74A2.2,2.2,0,0,0,486.37,785.48ZM487,792a7.75,7.75,0,0,0,1.18,1.67,6.72,6.72,0,0,0,2.15-1.11,1.36,1.36,0,0,0,.35-.75v-.14a.89.89,0,0,0-.7-.9.77.77,0,0,0-.25,0,1.07,1.07,0,0,0-.39.07,1.27,1.27,0,0,0-.49.44,6.59,6.59,0,0,0-.4.65,2.66,2.66,0,0,0-.14-.54A.86.86,0,0,0,488,791a.76.76,0,0,0-.42-.15.73.73,0,0,0-.43.13.67.67,0,0,0-.28.58A1.84,1.84,0,0,0,487,792Zm.53,4.82a5.38,5.38,0,0,0,.87,1.22,4.34,4.34,0,0,0,1.54-.81.82.82,0,0,0,.27-.54v-.12a.6.6,0,0,0-.11-.37.67.67,0,0,0-.39-.27l-.21,0a.84.84,0,0,0-.27,0,.91.91,0,0,0-.36.32c-.1.15-.19.31-.28.47a2.22,2.22,0,0,0-.11-.39.5.5,0,0,0-.2-.28.5.5,0,0,0-.81.4A1.17,1.17,0,0,0,487.5,796.82Zm.32,5.17a3.53,3.53,0,0,0,.66.94,3.38,3.38,0,0,0,1.22-.61.9.9,0,0,0,.21-.43v-.06a.68.68,0,0,0-.09-.33.53.53,0,0,0-.31-.19.48.48,0,0,0-.2,0,.38.38,0,0,0-.17,0,.7.7,0,0,0-.27.25c-.08.12-.16.24-.23.37l-.09-.3a.4.4,0,0,0-.15-.22.36.36,0,0,0-.23-.08.46.46,0,0,0-.25.08.36.36,0,0,0-.15.31A1.12,1.12,0,0,0,487.82,802Z"/><path class="cls-13" d="M521.84,777.15a10.22,10.22,0,0,1,6.08,1.94,13.75,13.75,0,0,1,4.36,5.2,16.92,16.92,0,0,1,0,14.49,13.78,13.78,0,0,1-4.36,5.21,10.48,10.48,0,0,1-12.15,0,14,14,0,0,1-4.37-5.21,16.82,16.82,0,0,1,0-14.49,14,14,0,0,1,4.37-5.2A10.23,10.23,0,0,1,521.84,777.15Zm-9.25,14.08a6.55,6.55,0,0,0,1,1.43,5.19,5.19,0,0,0,1.84-1,1,1,0,0,0,.31-.63v-.12a.82.82,0,0,0-.13-.46.83.83,0,0,0-.47-.31.77.77,0,0,0-.25,0,.72.72,0,0,0-.29.06,1.09,1.09,0,0,0-.44.37,5.3,5.3,0,0,0-.33.57c0-.16-.09-.32-.14-.46a.93.93,0,0,0-.21-.35.61.61,0,0,0-.37-.12.69.69,0,0,0-.39.12.54.54,0,0,0-.23.48A1.46,1.46,0,0,0,512.59,791.23Zm.56-5.15a10.18,10.18,0,0,0,2.26,1.42q.68-.63,1.23-1.23a4.15,4.15,0,0,0,.8-1.21,1.85,1.85,0,0,0,.12-.64,2.22,2.22,0,0,0-.11-.57,1,1,0,0,0-.49-.59,1.23,1.23,0,0,0-.66-.19l-.35,0a1.18,1.18,0,0,0-.58.35,1.59,1.59,0,0,0-.38.78,7.22,7.22,0,0,0-.14,1,3.87,3.87,0,0,0-.45-.58,1.41,1.41,0,0,0-.52-.35l-.21,0a1.27,1.27,0,0,0-.41.1.92.92,0,0,0-.42.37.79.79,0,0,0-.12.42A1.51,1.51,0,0,0,513.15,786.08Zm.41,11.28a5.48,5.48,0,0,0,1.27.8A4.7,4.7,0,0,0,516,796.8a.85.85,0,0,0,.08-.37.93.93,0,0,0-.07-.31.6.6,0,0,0-.28-.32.63.63,0,0,0-.34-.1l-.22,0a.65.65,0,0,0-.33.17,1,1,0,0,0-.21.44,4.54,4.54,0,0,0-.08.55,2,2,0,0,0-.25-.32.54.54,0,0,0-.29-.18.27.27,0,0,0-.13,0,.7.7,0,0,0-.23,0,.54.54,0,0,0-.22.21.49.49,0,0,0-.06.23A.86.86,0,0,0,513.56,797.36Zm4.37,3.18a4.39,4.39,0,0,0,1,.61,3.41,3.41,0,0,0,.88-1.06.86.86,0,0,0,.05-.27.68.68,0,0,0-.05-.25.41.41,0,0,0-.22-.25.57.57,0,0,0-.29-.08h-.14a.42.42,0,0,0-.26.14.77.77,0,0,0-.16.34c0,.14,0,.28-.06.44a1.69,1.69,0,0,0-.2-.25.61.61,0,0,0-.22-.16l-.1,0a.49.49,0,0,0-.18,0,.37.37,0,0,0-.17.16.39.39,0,0,0-.06.2A.66.66,0,0,0,517.93,800.54Zm3.52-14.48a3.52,3.52,0,0,0-2,1.06,3.56,3.56,0,0,0-.8,2.27v.29a11.34,11.34,0,0,0,.54,3.23,12.24,12.24,0,0,0,1.53,3.29q1.72,2.47,3.7,2.48a3.21,3.21,0,0,0,.81-.1,4.08,4.08,0,0,0,2.08-1.6,6.6,6.6,0,0,0,1.17-3,9.51,9.51,0,0,0,.08-1.19,10.26,10.26,0,0,0-.39-2.61,6.14,6.14,0,0,0-1.49-2.64,5.32,5.32,0,0,0-2.57-1.47,7.54,7.54,0,0,0-1.53-.17A6.39,6.39,0,0,0,521.45,786.06Z"/><path class="cls-13" d="M549.52,776.85c.2,1.49.39,3,.58,4.43q.39,3,.76,5.91c.35-1.33.69-2.67,1-4,.43-1.68.85-3.36,1.28-5l6.07.18,6.12.19c0,.46,0,.93.08,1.41l-1.13.49-1.1.48,1,12.48q.54,6.23,1.06,12.48l-7.14-1.22-6.42-1.09c0-.34,0-.69-.06-1v-.08c.3,0,.6,0,.91,0s.6,0,.91,0c.37-2.9.75-5.81,1.12-8.72s.77-5.81,1.14-8.73q-2.32,5.19-4.66,10.35l-1.43,3.21q-1.44-3.59-2.89-7.19l-2.86-7.2c.28,2.46.57,4.92.85,7.37l1.47,12.75,1.71.29c.42.08.85.15,1.27.21a1.61,1.61,0,0,0,.06.33l.15,1.16-7.83-.87-5.53-.62q.58-6.81,1.18-13.62.47-5.18.91-10.37l-1.26-.07-1.28-.08c-.08-.17-.15-.34-.21-.5q-.24-.52-.45-1.05l6.43-.95C544.1,777.67,546.81,777.27,549.52,776.85Zm-10.72,8.29a10.23,10.23,0,0,0,1.46,2.24c.56-.19,1.1-.39,1.61-.6a4,4,0,0,0,1.23-.74,1.77,1.77,0,0,0,.52-1,2,2,0,0,0,0-.23,1.14,1.14,0,0,0-.19-.66,1.28,1.28,0,0,0-.68-.51,2,2,0,0,0-.41,0,1.31,1.31,0,0,0-.44.07,1.59,1.59,0,0,0-.68.54,7.27,7.27,0,0,0-.54.82,4.79,4.79,0,0,0-.16-.7,1.44,1.44,0,0,0-.32-.54.91.91,0,0,0-.55-.21h0a1,1,0,0,0-.53.15.89.89,0,0,0-.38.79A2.29,2.29,0,0,0,538.8,785.14Zm.33,6.51a7.27,7.27,0,0,0,1.11,1.73,6.24,6.24,0,0,0,2.18-1,1.36,1.36,0,0,0,.41-.73v-.14a1.06,1.06,0,0,0-.14-.54,1.08,1.08,0,0,0-.52-.39.88.88,0,0,0-.33-.06.89.89,0,0,0-.31.06,1.31,1.31,0,0,0-.52.42c-.14.19-.28.39-.43.63a3.12,3.12,0,0,0-.11-.53.88.88,0,0,0-.25-.42.86.86,0,0,0-.41-.16h-.06a.69.69,0,0,0-.39.12.7.7,0,0,0-.29.62A1.64,1.64,0,0,0,539.13,791.65Zm.33,4.84a5.46,5.46,0,0,0,.81,1.26,4.71,4.71,0,0,0,1.59-.74.91.91,0,0,0,.29-.54v-.11a.73.73,0,0,0-.1-.39.7.7,0,0,0-.38-.27.67.67,0,0,0-.24,0,.66.66,0,0,0-.23,0,.79.79,0,0,0-.37.29,3.64,3.64,0,0,0-.3.46c0-.13-.06-.25-.1-.38a.62.62,0,0,0-.17-.29.48.48,0,0,0-.31-.12h-.06a.56.56,0,0,0-.27.08.45.45,0,0,0-.22.42A1,1,0,0,0,539.46,796.49Zm.1,5.19a4.37,4.37,0,0,0,.64,1,3.36,3.36,0,0,0,1.23-.58.67.67,0,0,0,.22-.42.44.44,0,0,0,0-.1.46.46,0,0,0-.1-.29.49.49,0,0,0-.29-.21.43.43,0,0,0-.19,0,.45.45,0,0,0-.18,0,.88.88,0,0,0-.28.24q-.12.16-.24.36c0-.12,0-.22-.08-.32a.37.37,0,0,0-.13-.22A.46.46,0,0,0,540,801a.39.39,0,0,0-.26.07.36.36,0,0,0-.17.34A.75.75,0,0,0,539.56,801.68Z"/><path class="cls-13" d="M606,837.23q2.13,6.24,4.27,12.46,1.61,4.71,3.23,9.39-.5-4.67-1-9.33l-1.32-12.44,6.17,1.07,4.1.69c0,.42-.07.82-.11,1.22l-1.14.06-.76,0q-.47,6.27-.91,12.54l-.89,12.22-6,.7-.39-.44a1.71,1.71,0,0,1-.21-.26l.69-.36c.25-.12.49-.24.72-.37q-2.19-3.95-4.35-7.92l-5.81-10.56,1.05,6.46q1,6,2,12l.33,0,.21,0,.43,0,.21,0,.43.06H607l.16,0h0s0,0,0,0c0,.23,0,.47-.05.72l-.08.69-6.6-.54-4.76-.39q.27-7.17.53-14.35c.14-3.63.27-7.25.4-10.88l-.48.1-1.09.18c-.11-.26-.23-.51-.34-.76l-.35-.77Zm-8.86,8.17a9.18,9.18,0,0,0,1.52,2.19c.57-.21,1.11-.43,1.61-.66a4.11,4.11,0,0,0,1.2-.8,1.75,1.75,0,0,0,.48-1V845a1.28,1.28,0,0,0-.21-.75,1.32,1.32,0,0,0-.72-.47,1.18,1.18,0,0,0-.36-.06,1.32,1.32,0,0,0-.47.1,1.5,1.5,0,0,0-.66.55,8.83,8.83,0,0,0-.5.86,4.45,4.45,0,0,0-.19-.7,1.11,1.11,0,0,0-.35-.51.82.82,0,0,0-.54-.2,1,1,0,0,0-.58.18.84.84,0,0,0-.35.73A2,2,0,0,0,597.13,845.4Zm.6,6.52a7.07,7.07,0,0,0,1.18,1.66,6.66,6.66,0,0,0,2.14-1.1,1.32,1.32,0,0,0,.35-.75v-.14a1,1,0,0,0-.15-.54,1,1,0,0,0-.54-.37,1.38,1.38,0,0,0-.26,0,1,1,0,0,0-.38.08,1.28,1.28,0,0,0-.5.43c-.13.21-.26.42-.39.65a4.26,4.26,0,0,0-.15-.54.84.84,0,0,0-.26-.39.73.73,0,0,0-.42-.14.66.66,0,0,0-.43.13.65.65,0,0,0-.27.58A1.5,1.5,0,0,0,597.73,851.92Zm.52,4.82a5.38,5.38,0,0,0,.87,1.22,4.24,4.24,0,0,0,1.55-.82.9.9,0,0,0,.27-.54v-.12a.56.56,0,0,0-.12-.36.67.67,0,0,0-.39-.27.75.75,0,0,0-.21,0,.66.66,0,0,0-.63.36c-.09.14-.19.3-.28.47a2.6,2.6,0,0,0-.1-.4A.67.67,0,0,0,599,856a.44.44,0,0,0-.31-.11.45.45,0,0,0-.31.11.47.47,0,0,0-.19.41A1.22,1.22,0,0,0,598.25,856.74Zm.33,5.16a3.58,3.58,0,0,0,.65,1,3.38,3.38,0,0,0,1.22-.62,1,1,0,0,0,.22-.42v-.06a.64.64,0,0,0-.1-.33.48.48,0,0,0-.31-.19.43.43,0,0,0-.19,0,.42.42,0,0,0-.18,0,.7.7,0,0,0-.27.25c-.08.11-.15.24-.23.36l-.09-.3a.49.49,0,0,0-.14-.22.4.4,0,0,0-.23-.08.47.47,0,0,0-.26.08.37.37,0,0,0-.15.31A.74.74,0,0,0,598.58,861.9Z"/><path class="cls-13" d="M632.59,837.06a10.23,10.23,0,0,1,6.08,2,13.78,13.78,0,0,1,4.37,5.2,17,17,0,0,1,0,14.48,13.74,13.74,0,0,1-4.37,5.21,10.44,10.44,0,0,1-12.15,0,13.83,13.83,0,0,1-4.37-5.21,16.89,16.89,0,0,1,0-14.48,13.87,13.87,0,0,1,4.37-5.2A10.24,10.24,0,0,1,632.59,837.06Zm-9.25,14.09a6.64,6.64,0,0,0,1,1.43,5.14,5.14,0,0,0,1.83-1,.93.93,0,0,0,.31-.64v-.11a.75.75,0,0,0-.6-.78,1.18,1.18,0,0,0-.25,0,.72.72,0,0,0-.29.06,1,1,0,0,0-.43.38,3.18,3.18,0,0,0-.34.57c0-.17-.09-.32-.14-.47a.89.89,0,0,0-.21-.34.59.59,0,0,0-.37-.12.64.64,0,0,0-.38.12.52.52,0,0,0-.24.48A1.46,1.46,0,0,0,623.34,851.15Zm.56-5.15a9.71,9.71,0,0,0,2.27,1.41,15.66,15.66,0,0,0,1.22-1.23,4.27,4.27,0,0,0,.81-1.21,2.09,2.09,0,0,0,.11-.63,2.13,2.13,0,0,0-.1-.58,1.08,1.08,0,0,0-.5-.59,1.26,1.26,0,0,0-.65-.19l-.35,0a1.08,1.08,0,0,0-.58.35,1.45,1.45,0,0,0-.39.77,9.44,9.44,0,0,0-.14,1,3.87,3.87,0,0,0-.45-.58,1.27,1.27,0,0,0-.51-.35l-.22,0a1.05,1.05,0,0,0-.41.1.86.86,0,0,0-.42.37.76.76,0,0,0-.11.42A1.58,1.58,0,0,0,623.9,846Zm.41,11.28a5.58,5.58,0,0,0,1.28.79,4.71,4.71,0,0,0,1.12-1.35,1,1,0,0,0,.07-.37,1.1,1.1,0,0,0-.06-.31.68.68,0,0,0-.28-.33.81.81,0,0,0-.35-.1l-.21,0a.61.61,0,0,0-.33.18.88.88,0,0,0-.22.43,4.86,4.86,0,0,0-.07.55,1.94,1.94,0,0,0-.26-.31.59.59,0,0,0-.29-.19l-.13,0a.63.63,0,0,0-.22.05.48.48,0,0,0-.23.2.69.69,0,0,0,0,.24A.84.84,0,0,0,624.31,857.28Zm4.37,3.17a4.25,4.25,0,0,0,1,.62,3.51,3.51,0,0,0,.87-1.06.66.66,0,0,0,.06-.27,1.05,1.05,0,0,0-.05-.26.52.52,0,0,0-.22-.25.64.64,0,0,0-.3-.08h-.14a.47.47,0,0,0-.26.15.72.72,0,0,0-.16.34c0,.13,0,.28-.05.43l-.21-.25a.51.51,0,0,0-.22-.15.16.16,0,0,0-.1,0,.35.35,0,0,0-.18.05.28.28,0,0,0-.16.16.39.39,0,0,0-.06.2A.59.59,0,0,0,628.68,860.45ZM632.2,846a3.51,3.51,0,0,0-1.94,1,3.61,3.61,0,0,0-.81,2.28v.29a11.44,11.44,0,0,0,.55,3.23,12.68,12.68,0,0,0,1.52,3.29q1.72,2.48,3.7,2.47a3.72,3.72,0,0,0,.81-.09,4.14,4.14,0,0,0,2.08-1.6,6.64,6.64,0,0,0,1.17-2.95,9.67,9.67,0,0,0,.08-1.2,10.19,10.19,0,0,0-.39-2.6,6,6,0,0,0-1.49-2.64,5.27,5.27,0,0,0-2.57-1.47,6.93,6.93,0,0,0-1.53-.18A5.69,5.69,0,0,0,632.2,846Z"/><path class="cls-13" d="M660.27,836.77c.2,1.48.39,3,.59,4.43l.75,5.9c.35-1.33.69-2.66,1-4,.42-1.68.85-3.36,1.27-5.05l6.08.17,6.11.19c0,.47,0,.94.08,1.42-.38.15-.75.31-1.12.48l-1.11.48,1,12.48q.54,6.24,1.06,12.48c-2.37-.4-4.75-.8-7.14-1.22l-6.42-1.08c0-.35,0-.7-.06-1v-.08l.91,0,.91,0c.37-2.9.75-5.81,1.12-8.73s.77-5.81,1.14-8.72q-2.31,5.19-4.66,10.35l-1.43,3.21-2.88-7.2L654.68,844q.44,3.69.85,7.37.74,6.38,1.48,12.75l1.7.29,1.27.21.06.33.16,1.16-7.84-.87-5.53-.62q.6-6.81,1.18-13.62c.31-3.46.61-6.91.91-10.37l-1.26-.08-1.28-.08-.21-.5c-.15-.35-.3-.69-.44-1,2.14-.33,4.28-.64,6.42-1Zm-10.71,8.28A9.61,9.61,0,0,0,651,847.3c.57-.2,1.1-.4,1.61-.6a4.22,4.22,0,0,0,1.23-.74,1.76,1.76,0,0,0,.52-1,.86.86,0,0,0,0-.23,1.18,1.18,0,0,0-.19-.66,1.27,1.27,0,0,0-.68-.5,1.44,1.44,0,0,0-.4-.06,1.33,1.33,0,0,0-.45.08,1.62,1.62,0,0,0-.68.53,8.31,8.31,0,0,0-.54.82,5,5,0,0,0-.16-.69,1.32,1.32,0,0,0-.32-.54,1,1,0,0,0-.54-.22h-.06a.91.91,0,0,0-.52.16.87.87,0,0,0-.39.79A1.91,1.91,0,0,0,649.56,845.05Zm.33,6.52a6.86,6.86,0,0,0,1.1,1.72,6.24,6.24,0,0,0,2.18-1,1.29,1.29,0,0,0,.41-.74v-.13a1,1,0,0,0-.13-.54,1,1,0,0,0-.53-.39.88.88,0,0,0-.33-.06.89.89,0,0,0-.31.06,1.38,1.38,0,0,0-.52.41q-.21.29-.42.63a4.54,4.54,0,0,0-.12-.53.82.82,0,0,0-.25-.41.74.74,0,0,0-.41-.16h-.06a.64.64,0,0,0-.38.12.67.67,0,0,0-.29.62A1.64,1.64,0,0,0,649.89,851.57Zm.32,4.84a5.42,5.42,0,0,0,.82,1.26,4.75,4.75,0,0,0,1.58-.74.91.91,0,0,0,.29-.54v-.12a.79.79,0,0,0-.09-.38.76.76,0,0,0-.39-.28l-.23,0a.85.85,0,0,0-.23,0,.88.88,0,0,0-.38.29,3.76,3.76,0,0,0-.3.47c0-.13-.06-.26-.1-.39a.59.59,0,0,0-.17-.29.45.45,0,0,0-.31-.11h-.06a.54.54,0,0,0-.27.07.48.48,0,0,0-.21.43A1.39,1.39,0,0,0,650.21,856.41Zm.1,5.18a4.19,4.19,0,0,0,.64,1,3.68,3.68,0,0,0,1.24-.58.65.65,0,0,0,.21-.43.51.51,0,0,0,0-.09.45.45,0,0,0-.1-.29A.47.47,0,0,0,652,861a.63.63,0,0,0-.19,0l-.17,0a.83.83,0,0,0-.28.25,3.12,3.12,0,0,0-.25.35c0-.11,0-.22-.07-.32a.49.49,0,0,0-.14-.22.4.4,0,0,0-.48,0,.37.37,0,0,0-.18.35A1.11,1.11,0,0,0,650.31,861.59Z"/></g></svg>