<svg xmlns="http://www.w3.org/2000/svg" width="80" height="181" viewBox="0 0 80 181"><defs><style>.cls-1{fill:#009245;}.cls-1,.cls-2{stroke:#44210b;stroke-width:2px;}.cls-1,.cls-2,.cls-5{stroke-miterlimit:10;}.cls-2{fill:none;}.cls-3{fill:#d65fbf;}.cls-4{fill:#fff;}.cls-5{stroke:#000;stroke-width:3px;}</style></defs><g id="characters"><path class="cls-1" d="M71.62,106c13.55,22.78,5.78,77.39-35,72.62C5.46,175-2.28,128.71,8.74,107,19,86.87,13.7,40.89,36,40.67S59.27,85.23,71.62,106Z"/><path class="cls-2" d="M32.58,41c4.6-18.93,2.79-23,21.08-32.76"/><path class="cls-1" d="M24.67,14.71c10.12,7.17,4.92,18.07,7.79,23.2C36.05,44.3,11.46,37,9.11,28,6.55,18.2-1.82-.77,4.66,2.43,9.9,5,14.25,7.33,24.67,14.71Z"/><circle class="cls-3" cx="62.31" cy="133.4" r="8.91"/><circle class="cls-3" cx="16.95" cy="135.02" r="8.91"/><circle cx="26.27" cy="120.84" r="9.32"/><path class="cls-4" d="M24.14,123.7c6.43,0,6.44-10,0-10s-6.45,10,0,10Z"/><circle cx="51.38" cy="120.84" r="9.32"/><path class="cls-4" d="M49.25,123.7c6.43,0,6.44-10,0-10s-6.45,10,0,10Z"/><path class="cls-5" d="M30,133.8V134c0,5.71,4.17,10.33,9.32,10.33s9.31-4.62,9.31-10.33v-.15Z"/></g></svg>