<svg xmlns="http://www.w3.org/2000/svg" width="123" height="142" viewBox="0 0 123 142"><defs><style>.cls-1{fill:#bc1b1b;}.cls-1,.cls-2{stroke:#44210b;stroke-width:3px;}.cls-1,.cls-2,.cls-4,.cls-5{stroke-miterlimit:10;}.cls-2{fill:#009245;}.cls-3{fill:#fff;}.cls-4,.cls-5{stroke:#000;stroke-width:2px;}.cls-5{fill:none;}</style></defs><g id="characters"><path class="cls-1" d="M90.09,27.87a20.7,20.7,0,0,0-11.92,4.36,30.14,30.14,0,0,0-14.36-3A30.88,30.88,0,0,0,46.92,34.1c-4.64-4-9.72-6.23-14.43-6.23-15.91,0-34.71,25.44-28.81,55.62,6.07,31,12.9,55.62,28.81,55.62,5.77,0,10.22-3.52,13.88-9.38A22.09,22.09,0,0,0,62.66,137a21.72,21.72,0,0,0,14.41-5.22c3.56,4.66,7.8,7.33,13,7.33,15.91,0,21.73-26.58,28.81-55.62C126.18,53.6,106,27.87,90.09,27.87Z"/><path class="cls-2" d="M70.07,30.24c-3.93-1-7.87-.31-11.81-.95C61.4,12.66,63,15.21,72.29,3.51c3.31,2.66,7.18,4.54,10.59,7.07C76,19.77,73.4,17.71,70.07,30.24Z"/><ellipse cx="46.63" cy="68.72" rx="11.62" ry="11.32"/><path class="cls-3" d="M44,71.11c6.43,0,6.44-10,0-10s-6.45,10,0,10Z"/><ellipse cx="83.02" cy="68.72" rx="11.62" ry="11.32"/><path class="cls-3" d="M80.36,71.11c6.44,0,6.45-10,0-10s-6.44,10,0,10Z"/><path class="cls-4" d="M49,92.84a28.16,28.16,0,0,1,1.61-2.59c3.6-5.12,8.28-7.93,13.16-7.93s9.56,2.81,13.16,7.93a28.16,28.16,0,0,1,1.61,2.59h2.51c-3.88-7.59-10.17-12.53-17.28-12.53S50.38,85.25,46.5,92.84Z"/><line class="cls-5" x1="49.83" y1="43.01" x2="61.64" y2="58.01"/><line class="cls-5" x1="79.97" y1="43.12" x2="67.87" y2="57.91"/></g></svg>