<svg xmlns="http://www.w3.org/2000/svg" xmlns:xlink="http://www.w3.org/1999/xlink" width="1920" height="1080" viewBox="0 0 1920 1080"><defs><style>.cls-1{fill:url(#New_Gradient_Swatch);}.cls-12,.cls-2{stroke:#44210b;}.cls-12,.cls-13,.cls-2,.cls-5,.cls-6,.cls-7,.cls-8{stroke-miterlimit:10;}.cls-2{stroke-width:5px;fill:url(#Pink);}.cls-3{fill:#d65fbf;}.cls-4,.cls-5{fill:#fff;}.cls-5,.cls-7,.cls-8{stroke:#42210b;}.cls-5,.cls-7{stroke-width:6px;}.cls-13,.cls-6{stroke:#000;}.cls-12,.cls-6{stroke-width:2px;}.cls-7{fill:#fcfcfc;}.cls-8{fill:#00b428;}.cls-13,.cls-8{stroke-width:3px;}.cls-9{fill:#42210b;}.cls-10{fill:#006837;}.cls-11{fill:#44210b;}.cls-12{fill:#ed1c24;}.cls-14{fill:url(#linear-gradient);}.cls-15{fill:url(#linear-gradient-2);}.cls-16{fill:url(#linear-gradient-3);}.cls-17{fill:url(#linear-gradient-4);}.cls-18{fill:url(#linear-gradient-5);}.cls-19{fill:url(#linear-gradient-6);}.cls-20{fill:url(#linear-gradient-7);}.cls-21{fill:url(#linear-gradient-8);}.cls-22{fill:url(#linear-gradient-9);}.cls-23{fill:url(#linear-gradient-10);}.cls-24{fill:url(#linear-gradient-11);}</style><linearGradient id="New_Gradient_Swatch" y1="540" x2="1920" y2="540" gradientUnits="userSpaceOnUse"><stop offset="0" stop-color="#eec9db"/><stop offset="0.01" stop-color="#eec3d9" stop-opacity="0.98"/><stop offset="0.35" stop-color="#e538b3" stop-opacity="0.57"/><stop offset="0.5" stop-color="#e100a3" stop-opacity="0.4"/><stop offset="0.7" stop-color="#df42ab" stop-opacity="0.66"/><stop offset="0.9" stop-color="#de7eb3" stop-opacity="0.91"/><stop offset="1" stop-color="#dd96b6"/></linearGradient><linearGradient id="Pink" x1="486" y1="709.17" x2="1542.5" y2="709.17" gradientUnits="userSpaceOnUse"><stop offset="0" stop-color="#eec9db"/><stop offset="0.5" stop-color="#e3a8c4"/><stop offset="1" stop-color="#dd96b6"/></linearGradient><linearGradient id="linear-gradient" x1="257.41" y1="366.96" x2="460.89" y2="366.96" gradientUnits="userSpaceOnUse"><stop offset="0" stop-color="#eec9db"/><stop offset="0.25" stop-color="#f455ff"/><stop offset="0.31" stop-color="#ec5aff" stop-opacity="0.95"/><stop offset="0.5" stop-color="#d46aff" stop-opacity="0.8"/><stop offset="0.56" stop-color="#dc53ff" stop-opacity="0.86"/><stop offset="0.72" stop-color="#f015ff"/><stop offset="0.81" stop-color="#e942e5"/><stop offset="0.94" stop-color="#e07ec3"/><stop offset="1" stop-color="#dd96b6"/></linearGradient><linearGradient id="linear-gradient-2" x1="362.15" y1="274.14" x2="604.4" y2="274.14" xlink:href="#linear-gradient"/><linearGradient id="linear-gradient-3" x1="550.3" y1="224.21" x2="717.2" y2="224.21" xlink:href="#linear-gradient"/><linearGradient id="linear-gradient-4" x1="672.01" y1="186.75" x2="821.69" y2="186.75" xlink:href="#linear-gradient"/><linearGradient id="linear-gradient-5" x1="787.13" y1="153.87" x2="926.26" y2="153.87" xlink:href="#linear-gradient"/><linearGradient id="linear-gradient-6" x1="1026.5" y1="148.94" x2="1144.52" y2="148.94" xlink:href="#linear-gradient"/><linearGradient id="linear-gradient-7" x1="1116.03" y1="177.12" x2="1239.72" y2="177.12" xlink:href="#linear-gradient"/><linearGradient id="linear-gradient-8" x1="1196.78" y1="201.96" x2="1348.79" y2="201.96" xlink:href="#linear-gradient"/><linearGradient id="linear-gradient-9" x1="1302.56" y1="247.09" x2="1468.35" y2="247.09" xlink:href="#linear-gradient"/><linearGradient id="linear-gradient-10" x1="1403.61" y1="290.64" x2="1594.83" y2="290.64" xlink:href="#linear-gradient"/><linearGradient id="linear-gradient-11" x1="1483.49" y1="374.55" x2="1684.34" y2="374.55" xlink:href="#linear-gradient"/></defs><g id="background_start" data-name="background start"><rect class="cls-1" width="1920" height="1080"/></g><g id="ekstra_ui_elementer" data-name="ekstra ui elementer"><rect class="cls-2" x="486" y="489.85" width="1056.5" height="438.65" rx="69.13"/><path class="cls-3" d="M592.3,588.34l-3.25,9.17c-.43,1.25-.86,2.49-1.3,3.72-1.11-1.12-2.19-2.14-3.26-3.07a11.86,11.86,0,0,0-3-2,4.43,4.43,0,0,0-1.44-.27,2.69,2.69,0,0,0-1,.16,3.46,3.46,0,0,0-1.6,1.25,2.44,2.44,0,0,0-.53,1.51,1.71,1.71,0,0,0,0,.31,3.19,3.19,0,0,0,1.43,2,16.06,16.06,0,0,0,3,1.58c1.23.51,2.52,1,3.88,1.51l1.93.72a17.92,17.92,0,0,1,4.22,2.14,6.68,6.68,0,0,1,2.54,3.71,12.85,12.85,0,0,1,.42,3.37,20.48,20.48,0,0,1-.22,2.82,15.41,15.41,0,0,1-2.46,6.34,10.89,10.89,0,0,1-4.71,3.8,14.5,14.5,0,0,1-5.47,1.12c-.33,0-.67,0-1,0a20.56,20.56,0,0,1-6.14-1.51,45.14,45.14,0,0,1-4.79-2.27c-1.21-.65-2.1-1.13-2.66-1.45s-1-.59-1.37-.82l.72-4.16c.4-2.4.81-4.8,1.21-7.21l1,.22,1.65.36a9.65,9.65,0,0,0-.33,1.77c0,.4,0,.62,0,.63a4.37,4.37,0,0,0,.66,2.27,7.57,7.57,0,0,0,2.26,2.11,6.53,6.53,0,0,0,2.87,1.06h.28a3.15,3.15,0,0,0,2-.69,4,4,0,0,0,1.41-3,4.38,4.38,0,0,0-.28-1.52,6.72,6.72,0,0,0-2.1-2.7,26.13,26.13,0,0,0-2.78-2c-1-.61-1.92-1.27-2.89-2a13.9,13.9,0,0,1-2.55-2.41,9.93,9.93,0,0,1-2.07-6,12.56,12.56,0,0,1,.77-4.16,17.3,17.3,0,0,1,3.18-5.08,14.16,14.16,0,0,1,4.05-3.31,5.89,5.89,0,0,1,2.57-.67,4.12,4.12,0,0,1,.86.09,13.82,13.82,0,0,1,3.17,1.15c2.25,1,4.66,2.13,7.23,3.29l1.57-1.74.56-.61,1.18.31Zm-22.6,14.25a10.81,10.81,0,0,0,2.48,1.52,9,9,0,0,0,2.18-2.63,2.2,2.2,0,0,0,.14-.74,2.12,2.12,0,0,0,0-.44,1.51,1.51,0,0,0-.58-.8,1.56,1.56,0,0,0-.75-.2H573a1.5,1.5,0,0,0-.82.42,1.54,1.54,0,0,0-.43.84,8.73,8.73,0,0,0-.15,1.06c-.17-.22-.33-.42-.5-.61a1.4,1.4,0,0,0-.55-.38,1,1,0,0,0-.25,0,1.09,1.09,0,0,0-.39.08.85.85,0,0,0-.49.42.79.79,0,0,0-.14.47A1.61,1.61,0,0,0,569.7,602.59Zm2.7-9.14a13.47,13.47,0,0,0,3.23,2,20.7,20.7,0,0,0,1.75-1.76,6.49,6.49,0,0,0,1.15-1.71,2.8,2.8,0,0,0,.17-.91,2.2,2.2,0,0,0-.09-.64,1.76,1.76,0,0,0-.77-1,1.8,1.8,0,0,0-.94-.28l-.25,0a1.79,1.79,0,0,0-1.07.53,2.26,2.26,0,0,0-.56,1.1,11.77,11.77,0,0,0-.19,1.38,6.47,6.47,0,0,0-.65-.8,1.88,1.88,0,0,0-.73-.5,1.26,1.26,0,0,0-.33,0,1.13,1.13,0,0,0-.5.11,1.68,1.68,0,0,0-.66.55,1.17,1.17,0,0,0-.17.61A2.17,2.17,0,0,0,572.4,593.45Zm4.2,14.35a8,8,0,0,0,1.82,1.14A6.72,6.72,0,0,0,580,607a1.47,1.47,0,0,0,.11-.52,1.26,1.26,0,0,0,0-.33,1.11,1.11,0,0,0-.45-.61.91.91,0,0,0-.49-.14.51.51,0,0,0-.17,0,.94.94,0,0,0-.61.28,1.44,1.44,0,0,0-.3.62,6.37,6.37,0,0,0-.11.78,3.94,3.94,0,0,0-.36-.45,1.07,1.07,0,0,0-.41-.29l-.14,0a.8.8,0,0,0-.33.08.72.72,0,0,0-.36.31.67.67,0,0,0-.08.33A1.23,1.23,0,0,0,576.6,607.8Zm6.24,4.53a6.35,6.35,0,0,0,1.38.88,5,5,0,0,0,1.27-1.51,1.74,1.74,0,0,0,0-.39,1.41,1.41,0,0,0,0-.28.65.65,0,0,0-.33-.44.9.9,0,0,0-.44-.11h-.08a.74.74,0,0,0-.47.22,1.18,1.18,0,0,0-.24.49,2.88,2.88,0,0,0-.07.59,2.45,2.45,0,0,0-.29-.35.72.72,0,0,0-.31-.2l-.14,0a.59.59,0,0,0-.22,0,.57.57,0,0,0-.28.25.46.46,0,0,0-.08.25A.93.93,0,0,0,582.84,612.33Z"/><path class="cls-3" d="M612.87,587.32a14.67,14.67,0,0,1,8.68,2.78,19.64,19.64,0,0,1,6.22,7.42,24.16,24.16,0,0,1,0,20.66,19.63,19.63,0,0,1-6.22,7.44,15,15,0,0,1-17.34,0,19.74,19.74,0,0,1-6.23-7.44,24,24,0,0,1,0-20.66,19.75,19.75,0,0,1,6.23-7.42A14.63,14.63,0,0,1,612.87,587.32Zm-13.2,20.1a9.5,9.5,0,0,0,1.47,2,7.56,7.56,0,0,0,2.62-1.38,1.42,1.42,0,0,0,.44-.91V607a1.27,1.27,0,0,0-.19-.66,1.19,1.19,0,0,0-.67-.44,1.17,1.17,0,0,0-.35-.06,1,1,0,0,0-.42.09,1.56,1.56,0,0,0-.62.53,6.54,6.54,0,0,0-.48.82,5.16,5.16,0,0,0-.2-.66,1.31,1.31,0,0,0-.3-.5.85.85,0,0,0-.52-.16,1,1,0,0,0-.56.16.78.78,0,0,0-.33.69A2.08,2.08,0,0,0,599.67,607.42Zm.8-7.34a14.37,14.37,0,0,0,3.23,2c.65-.59,1.23-1.17,1.76-1.75a6.29,6.29,0,0,0,1.14-1.73,2.71,2.71,0,0,0,.17-.91,2.77,2.77,0,0,0-.16-.81,1.45,1.45,0,0,0-.7-.84,1.69,1.69,0,0,0-.94-.28l-.49.06a1.5,1.5,0,0,0-.83.49,2.2,2.2,0,0,0-.55,1.11,10,10,0,0,0-.2,1.4,5.46,5.46,0,0,0-.65-.82,1.88,1.88,0,0,0-.73-.5,1.39,1.39,0,0,0-.3,0,1.76,1.76,0,0,0-.6.14,1.32,1.32,0,0,0-.59.52,1.18,1.18,0,0,0-.16.61A2.24,2.24,0,0,0,600.47,600.08Zm.58,16.09a8.43,8.43,0,0,0,1.83,1.13,6.86,6.86,0,0,0,1.6-1.93,1.52,1.52,0,0,0,.11-.53,1.56,1.56,0,0,0-.1-.44,1,1,0,0,0-.4-.47,1.05,1.05,0,0,0-.5-.14l-.3,0a.91.91,0,0,0-.47.25,1.29,1.29,0,0,0-.3.62,4,4,0,0,0-.11.79c-.12-.17-.24-.32-.36-.46a.87.87,0,0,0-.42-.26.54.54,0,0,0-.19,0,.84.84,0,0,0-.32.07.72.72,0,0,0-.32.29.8.8,0,0,0-.08.33A1.28,1.28,0,0,0,601.05,616.17Zm6.24,4.52a6.16,6.16,0,0,0,1.41.89,5,5,0,0,0,1.24-1.52.91.91,0,0,0,.08-.39,1.18,1.18,0,0,0-.07-.36.61.61,0,0,0-.31-.35.79.79,0,0,0-.42-.12l-.2,0a.64.64,0,0,0-.38.21,1,1,0,0,0-.22.48c0,.19-.06.4-.08.62a3.51,3.51,0,0,0-.29-.36.8.8,0,0,0-.32-.22.26.26,0,0,0-.14,0,.6.6,0,0,0-.26.07.45.45,0,0,0-.23.24.48.48,0,0,0-.09.27A.88.88,0,0,0,607.29,620.69Zm5-20.64a5,5,0,0,0-2.77,1.5,5.1,5.1,0,0,0-1.14,3.25v.41a16,16,0,0,0,.77,4.61,17.5,17.5,0,0,0,2.18,4.69c1.64,2.36,3.39,3.53,5.27,3.53a5.09,5.09,0,0,0,1.16-.13,5.91,5.91,0,0,0,3-2.28,9.6,9.6,0,0,0,1.67-4.21,14,14,0,0,0,.11-1.71A14.6,14.6,0,0,0,622,606a8.63,8.63,0,0,0-2.12-3.77,7.63,7.63,0,0,0-3.67-2.1,9.93,9.93,0,0,0-2.18-.25A8.42,8.42,0,0,0,612.31,600.05Z"/><path class="cls-3" d="M649.49,587a36.35,36.35,0,0,1,4.36.77c5.89.89,8.84,1.41,8.84,1.58v1.79a1.18,1.18,0,0,1-.22.33c-1.75-.15-3.06-.22-3.92-.22a.84.84,0,0,1-.33-.11v.11q6.71,11,6.7,17.67v1.35q0,5.33-4.69,12.09-5.52,6-11.65,6a9,9,0,0,1-3-.47q-14.87-5-14.87-17.77v-.55q0-8.21,8.61-18.91a28.55,28.55,0,0,1,4.47.77,24.84,24.84,0,0,0-2.35,11.07,13.21,13.21,0,0,0,1.58,6.6c1.71,2.68,3.46,4,5.24,4a7.39,7.39,0,0,0,1.8-.45Q654,610.43,654,605q0-4.93-4.58-17.91A.1.1,0,0,0,649.49,587ZM634,610.92a9.77,9.77,0,0,0,2.71,1.13,8.6,8.6,0,0,0,1.74-2.95,2.47,2.47,0,0,0,.05-.44,1.74,1.74,0,0,0-.21-.8,1.35,1.35,0,0,0-.67-.64,1.74,1.74,0,0,0-.5-.08,2.07,2.07,0,0,0-.55.1,1.15,1.15,0,0,0-.64.48,1.91,1.91,0,0,0-.27.91V609q0,.36,0,.75a5.81,5.81,0,0,0-.58-.54,1.47,1.47,0,0,0-.61-.29h-.08a1.14,1.14,0,0,0-.57.17.85.85,0,0,0-.4.49,1,1,0,0,0-.06.33A1.52,1.52,0,0,0,634,610.92Zm1.24-9.41a14.36,14.36,0,0,0,3.51,1.49c.53-.7,1-1.37,1.45-2a5.61,5.61,0,0,0,.84-1.86,2.88,2.88,0,0,0,.06-.55,2.41,2.41,0,0,0-.27-1.09,1.58,1.58,0,0,0-.87-.79,1.81,1.81,0,0,0-.69-.14,2.67,2.67,0,0,0-.69.14,1.66,1.66,0,0,0-.82.64,2,2,0,0,0-.36,1.15v.47c0,.32,0,.64,0,1a6.4,6.4,0,0,0-.77-.72,1.69,1.69,0,0,0-.8-.36h-.14a1.32,1.32,0,0,0-.7.21,1.26,1.26,0,0,0-.51.62,1.17,1.17,0,0,0-.08.44A2,2,0,0,0,635.22,601.51Zm3.15,15.82a7.17,7.17,0,0,0,2,.82A6.63,6.63,0,0,0,641.6,616a1.69,1.69,0,0,0,0-.3,1.4,1.4,0,0,0-.15-.61,1,1,0,0,0-.49-.44,1,1,0,0,0-.36-.08,1.46,1.46,0,0,0-.41.08.93.93,0,0,0-.44.36,1.08,1.08,0,0,0-.2.64v.8a3.16,3.16,0,0,0-.44-.39,1.21,1.21,0,0,0-.44-.22.87.87,0,0,0-.45.12.83.83,0,0,0-.32.35.49.49,0,0,0-.06.25A1.15,1.15,0,0,0,638.37,617.33Zm6.84,3.47a6.67,6.67,0,0,0,1.52.64,5,5,0,0,0,1-1.69.78.78,0,0,0,0-.22,1.07,1.07,0,0,0-.12-.48.77.77,0,0,0-.37-.34,1,1,0,0,0-.31-.06,1,1,0,0,0-.32.06.69.69,0,0,0-.34.27.87.87,0,0,0-.14.5v.61a2.86,2.86,0,0,0-.33-.29.73.73,0,0,0-.36-.16h-.08a.57.57,0,0,0-.29.09.58.58,0,0,0-.24.27,1,1,0,0,0,0,.17A.93.93,0,0,0,645.21,620.8Z"/><path class="cls-3" d="M683.55,587.57q3,8.89,6.1,17.78,2.29,6.71,4.61,13.38-.72-6.65-1.41-13.3-.93-8.88-1.87-17.75l8.8,1.52,5.85,1c0,.59-.11,1.17-.16,1.74l-1.63.09-1.08,0q-.66,9-1.29,17.89l-1.27,17.44-8.59,1c-.18-.22-.37-.44-.55-.64a2.6,2.6,0,0,1-.3-.36c.33-.16.66-.34,1-.52s.69-.34,1-.53q-3.12-5.62-6.21-11.28L678.28,600l1.49,9.22,2.82,17.14.47.06.3,0,.61.06.3,0,.61.09H685a.78.78,0,0,0,.22,0h0s0,0,0,0c0,.33-.05.68-.08,1l-.11,1-9.42-.77-6.79-.56q.39-10.23.75-20.48.3-7.75.58-15.51a7,7,0,0,0-.69.14c-.52.07-1,.16-1.55.25-.16-.37-.33-.73-.49-1.08l-.5-1.1Q675.27,588.57,683.55,587.57Zm-12.64,11.65a13.63,13.63,0,0,0,2.18,3.12c.81-.3,1.58-.61,2.29-.94a5.84,5.84,0,0,0,1.71-1.13,2.39,2.39,0,0,0,.69-1.38v-.19a1.65,1.65,0,0,0-1.32-1.74,1.67,1.67,0,0,0-.52-.09,1.75,1.75,0,0,0-.67.14,2.08,2.08,0,0,0-.94.79,11,11,0,0,0-.71,1.23,7.69,7.69,0,0,0-.28-1,1.67,1.67,0,0,0-.5-.73,1.13,1.13,0,0,0-.77-.28,1.4,1.4,0,0,0-.83.25,1.21,1.21,0,0,0-.49,1A2.91,2.91,0,0,0,670.91,599.22Zm.86,9.3a11,11,0,0,0,1.68,2.38,9.67,9.67,0,0,0,3.06-1.58,2,2,0,0,0,.5-1.07v-.2a1.34,1.34,0,0,0-.22-.77,1.38,1.38,0,0,0-.77-.53,1.63,1.63,0,0,0-.36,0,1.5,1.5,0,0,0-.55.11,1.82,1.82,0,0,0-.71.62c-.19.29-.38.59-.56.93a7.32,7.32,0,0,0-.21-.78,1.17,1.17,0,0,0-.37-.55,1,1,0,0,0-.6-.21,1.12,1.12,0,0,0-.62.18,1,1,0,0,0-.38.83A2.34,2.34,0,0,0,671.77,608.52Zm.74,6.87a7.37,7.37,0,0,0,1.24,1.74A6.08,6.08,0,0,0,676,616a1.17,1.17,0,0,0,.39-.77V615a.86.86,0,0,0-.17-.53,1,1,0,0,0-.55-.39l-.3,0a1.74,1.74,0,0,0-.39,0,1.24,1.24,0,0,0-.51.46c-.14.21-.27.43-.4.67a4.14,4.14,0,0,0-.15-.56.82.82,0,0,0-.29-.4.67.67,0,0,0-.44-.17.64.64,0,0,0-.44.17.65.65,0,0,0-.28.58A1.91,1.91,0,0,0,672.51,615.39Zm.47,7.37a5.14,5.14,0,0,0,.94,1.36,5,5,0,0,0,1.74-.89,1.22,1.22,0,0,0,.3-.6v-.09a.9.9,0,0,0-.13-.47.73.73,0,0,0-.45-.27.66.66,0,0,0-.27-.06.61.61,0,0,0-.25.06,1,1,0,0,0-.39.36c-.11.16-.22.34-.33.52l-.12-.43a.71.71,0,0,0-.21-.31.47.47,0,0,0-.33-.11.59.59,0,0,0-.36.11.51.51,0,0,0-.22.44A1.18,1.18,0,0,0,673,622.76Z"/><path class="cls-3" d="M708.92,591.08l-2.65-.78-1.22-.38c-.12-.81-.24-1.62-.35-2.43q-.06-.33-.09-.66c2.16.31,4.62.65,7.4,1l2.65.33c2.32.28,4.67.58,7.07.91,1.65.22,3.23.49,4.73.8a16.37,16.37,0,0,1,4.07,1.38,13.16,13.16,0,0,1,5.41,5.24,16.9,16.9,0,0,1,2.18,6.93c.09.92.14,1.84.14,2.76a29.2,29.2,0,0,1-.53,5.5,15.41,15.41,0,0,1-1.11,3.65,17.76,17.76,0,0,1-2.36,3.72,30.46,30.46,0,0,1-4,4.09,21.51,21.51,0,0,1-5.39,3.36,23,23,0,0,1-6.25,1.45c-2.19.19-4.4.3-6.64.31q-.75-9.3-1.52-18.6Zm2.62,4.86a14.57,14.57,0,0,0,2.1,3.17c.83-.28,1.6-.57,2.32-.88a6.83,6.83,0,0,0,1.74-1.08,2.37,2.37,0,0,0,.71-1.38,1.27,1.27,0,0,0,0-.28,1.71,1.71,0,0,0-.27-1,2,2,0,0,0-1-.72,2,2,0,0,0-.58-.08,1.67,1.67,0,0,0-.63.11,2.32,2.32,0,0,0-.94.76,8,8,0,0,0-.77,1.2,7.69,7.69,0,0,0-.24-1,1.74,1.74,0,0,0-.48-.77,1.2,1.2,0,0,0-.78-.28h-.08a1.39,1.39,0,0,0-.74.23,1.23,1.23,0,0,0-.53,1.1A3.2,3.2,0,0,0,711.54,595.94Zm.61,9.3a10.34,10.34,0,0,0,1.6,2.43,9.67,9.67,0,0,0,3.09-1.49,1.72,1.72,0,0,0,.55-1,1.21,1.21,0,0,0,0-.25,1.25,1.25,0,0,0-.22-.72,1.3,1.3,0,0,0-.75-.55,1.61,1.61,0,0,0-.44-.06,1.41,1.41,0,0,0-.49.09,1.59,1.59,0,0,0-.72.58,6.75,6.75,0,0,0-.58.91c-.06-.28-.12-.54-.19-.78a1.2,1.2,0,0,0-.36-.55.88.88,0,0,0-.61-.22H713a1,1,0,0,0-.94,1A2,2,0,0,0,712.15,605.24Zm.55,6.9a6.86,6.86,0,0,0,1.16,1.76,6.1,6.1,0,0,0,2.26-1.07,1.37,1.37,0,0,0,.42-.78v-.16a1,1,0,0,0-.72-.94,1.11,1.11,0,0,0-.66,0,1.31,1.31,0,0,0-.53.44c-.15.2-.29.43-.44.66a4.58,4.58,0,0,0-.14-.53,1,1,0,0,0-.25-.43.66.66,0,0,0-.44-.17.92.92,0,0,0-.47.14.67.67,0,0,0-.27.58A1.62,1.62,0,0,0,712.7,612.14Zm.22,7.39a6.07,6.07,0,0,0,.94,1.39,5.23,5.23,0,0,0,1.74-.86,1.15,1.15,0,0,0,.33-.61v-.08a.74.74,0,0,0-.14-.44.64.64,0,0,0-.41-.33l-.22,0a1.06,1.06,0,0,0-.31,0,.91.91,0,0,0-.41.32q-.16.24-.33.54a1.78,1.78,0,0,0-.1-.44.81.81,0,0,0-.21-.33.51.51,0,0,0-.35-.11h-.09a.39.39,0,0,0-.25.08.57.57,0,0,0-.24.5A1.1,1.1,0,0,0,712.92,619.53Zm7.26-24.64-1,9.41q-.48,4.47-.94,8.91a26.28,26.28,0,0,0,5.49-3.61,11.64,11.64,0,0,0,2.13-2.67,6.29,6.29,0,0,0,.88-3.1,7.42,7.42,0,0,0-.9-3.24,13.31,13.31,0,0,0-1.89-2.75,11.76,11.76,0,0,0-1.93-1.77C721.4,595.63,720.79,595.24,720.18,594.89Z"/><path class="cls-3" d="M586.44,709.48c.28,2.11.55,4.22.83,6.32.37,2.81.72,5.62,1.07,8.42.5-1.9,1-3.8,1.47-5.72q.9-3.59,1.82-7.2l8.66.25,8.73.27c0,.67.07,1.34.11,2-.54.22-1.07.45-1.6.69l-1.58.69q.75,8.88,1.49,17.8t1.52,17.8l-10.18-1.74-9.17-1.54c0-.5,0-1-.08-1.49v-.11l1.3,0,1.29,0q.81-6.21,1.61-12.44c.55-4.15,1.09-8.29,1.62-12.45q-3.3,7.39-6.65,14.76l-2,4.59q-2-5.15-4.11-10.27l-4.09-10.27c.41,3.51.81,7,1.22,10.52q1.05,9.1,2.09,18.19c.81.12,1.62.26,2.43.41l1.83.3a2.31,2.31,0,0,0,.08.47l.22,1.66-11.18-1.24-7.89-.89q.86-9.71,1.68-19.43.66-7.39,1.3-14.79l-1.8-.11-1.82-.11q-.17-.36-.3-.72c-.22-.5-.43-1-.64-1.49,3.06-.46,6.11-.91,9.17-1.35Q580.64,710.37,586.44,709.48Zm-15.29,11.81a13.71,13.71,0,0,0,2.07,3.2c.81-.27,1.58-.56,2.3-.85a6.12,6.12,0,0,0,1.76-1,2.55,2.55,0,0,0,.74-1.38,1.84,1.84,0,0,0,0-.33,1.6,1.6,0,0,0-.28-.94,1.82,1.82,0,0,0-1-.72,2.52,2.52,0,0,0-.58-.08,1.72,1.72,0,0,0-.64.11,2.24,2.24,0,0,0-1,.76,9.91,9.91,0,0,0-.78,1.17,6,6,0,0,0-.23-1,1.84,1.84,0,0,0-.46-.78,1.34,1.34,0,0,0-.77-.3h-.08a1.39,1.39,0,0,0-.75.22,1.25,1.25,0,0,0-.55,1.13A3.06,3.06,0,0,0,571.15,721.29Zm.47,9.3a10.23,10.23,0,0,0,1.57,2.46,9.26,9.26,0,0,0,3.12-1.46,2,2,0,0,0,.58-1.05v-.2a1.6,1.6,0,0,0-.19-.77A1.54,1.54,0,0,0,576,729a1.22,1.22,0,0,0-.47-.08,1.14,1.14,0,0,0-.44.08,2,2,0,0,0-.75.59q-.3.4-.6.9a4.91,4.91,0,0,0-.17-.76,1.14,1.14,0,0,0-.36-.59,1.06,1.06,0,0,0-.58-.22h-.08a1,1,0,0,0-.55.16,1,1,0,0,0-.41.89A2.26,2.26,0,0,0,571.62,730.59Zm.47,6.9a7.06,7.06,0,0,0,1.16,1.8,7,7,0,0,0,2.26-1,1.3,1.3,0,0,0,.41-.78v-.16a1.12,1.12,0,0,0-.13-.55,1,1,0,0,0-.56-.39,1.11,1.11,0,0,0-.66,0,1.22,1.22,0,0,0-.54.41,6.4,6.4,0,0,0-.43.67,4.9,4.9,0,0,0-.13-.55.86.86,0,0,0-.25-.42.66.66,0,0,0-.44-.16h-.09a.72.72,0,0,0-.38.11.64.64,0,0,0-.31.6A1.35,1.35,0,0,0,572.09,737.49Zm.13,7.4a6.42,6.42,0,0,0,.92,1.41,5.25,5.25,0,0,0,1.76-.83,1,1,0,0,0,.31-.61.78.78,0,0,0,0-.14.71.71,0,0,0-.13-.41.69.69,0,0,0-.42-.3.66.66,0,0,0-.27-.06.61.61,0,0,0-.25.06,1.16,1.16,0,0,0-.4.34c-.12.16-.24.33-.35.51,0-.16-.07-.32-.11-.45a.6.6,0,0,0-.19-.32.61.61,0,0,0-.33-.13.65.65,0,0,0-.36.1.51.51,0,0,0-.25.5A1.56,1.56,0,0,0,572.22,744.89Z"/><path class="cls-3" d="M629.77,709.59a36.35,36.35,0,0,1,4.36.77c5.89.88,8.84,1.41,8.84,1.57v1.8a1.35,1.35,0,0,1-.22.33c-1.75-.15-3.06-.22-3.92-.22a.84.84,0,0,1-.33-.11v.11q6.71,10.95,6.7,17.66v1.36q0,5.32-4.69,12.09-5.52,6-11.65,6a9.27,9.27,0,0,1-3-.47Q611,745.46,611,732.75v-.56q0-8.19,8.61-18.9a27.22,27.22,0,0,1,4.47.77,24.84,24.84,0,0,0-2.35,11.07,13.15,13.15,0,0,0,1.58,6.59q2.57,4,5.24,4a7.41,7.41,0,0,0,1.8-.44q3.92-2.31,3.92-7.7,0-4.93-4.59-17.91A.1.1,0,0,0,629.77,709.59Zm-15.51,23.9a9.77,9.77,0,0,0,2.71,1.13,8.69,8.69,0,0,0,1.74-3,2.58,2.58,0,0,0,0-.44,1.74,1.74,0,0,0-.21-.8,1.35,1.35,0,0,0-.67-.64,1.74,1.74,0,0,0-.5-.08,2.07,2.07,0,0,0-.55.1,1.15,1.15,0,0,0-.64.48,1.91,1.91,0,0,0-.27.91v.33q0,.36,0,.75a4.13,4.13,0,0,0-.58-.54,1.47,1.47,0,0,0-.61-.29h-.08a1.12,1.12,0,0,0-.57.16.87.87,0,0,0-.4.5,1,1,0,0,0-.06.33A1.54,1.54,0,0,0,614.26,733.49Zm1.24-9.41a14.36,14.36,0,0,0,3.51,1.49c.53-.7,1-1.38,1.45-2a5.61,5.61,0,0,0,.84-1.86,3,3,0,0,0,.06-.56,2.44,2.44,0,0,0-.27-1.09,1.56,1.56,0,0,0-.87-.78,1.81,1.81,0,0,0-.69-.14,2.67,2.67,0,0,0-.69.14,1.69,1.69,0,0,0-.82.63,2.07,2.07,0,0,0-.36,1.16v.47c0,.31,0,.64,0,1a5.68,5.68,0,0,0-.77-.72,1.69,1.69,0,0,0-.8-.36H616a1.32,1.32,0,0,0-.7.21,1.22,1.22,0,0,0-.51.62,1.14,1.14,0,0,0-.08.44A2,2,0,0,0,615.5,724.08Zm3.15,15.81a7.15,7.15,0,0,0,2,.83,6.73,6.73,0,0,0,1.27-2.18,1.69,1.69,0,0,0,0-.3,1.37,1.37,0,0,0-.15-.61,1,1,0,0,0-.49-.44.84.84,0,0,0-.36-.08,1.22,1.22,0,0,0-.41.08.83.83,0,0,0-.44.36,1,1,0,0,0-.19.63v.8a5,5,0,0,0-.45-.38,1.07,1.07,0,0,0-.44-.22.87.87,0,0,0-.45.12.81.81,0,0,0-.32.34.54.54,0,0,0-.06.25A1.11,1.11,0,0,0,618.65,739.89Zm6.85,3.48A6.39,6.39,0,0,0,627,744a5.18,5.18,0,0,0,1-1.69,1.5,1.5,0,0,0,0-.22,1.07,1.07,0,0,0-.12-.48.79.79,0,0,0-.37-.35,1.24,1.24,0,0,0-.31,0,1.39,1.39,0,0,0-.32,0,.77.77,0,0,0-.34.28.85.85,0,0,0-.14.5v.6a4.28,4.28,0,0,0-.33-.29.82.82,0,0,0-.36-.15h-.08a.67.67,0,0,0-.29.08.61.61,0,0,0-.24.28,1,1,0,0,0,0,.17A.91.91,0,0,0,625.5,743.37Z"/><path class="cls-3" d="M673.83,710.91l-3.26,9.17c-.43,1.25-.86,2.49-1.3,3.72q-1.65-1.68-3.26-3.08a11.89,11.89,0,0,0-3-2,4.38,4.38,0,0,0-1.44-.27,2.73,2.73,0,0,0-1,.16,3.51,3.51,0,0,0-1.6,1.24,2.47,2.47,0,0,0-.53,1.52,1.69,1.69,0,0,0,0,.3,3.16,3.16,0,0,0,1.44,2,15.65,15.65,0,0,0,3,1.57c1.23.52,2.52,1,3.88,1.52l1.93.72a18.2,18.2,0,0,1,4.23,2.14,6.74,6.74,0,0,1,2.54,3.71,13.24,13.24,0,0,1,.41,3.37,18.79,18.79,0,0,1-.22,2.81,15.45,15.45,0,0,1-2.46,6.35,10.87,10.87,0,0,1-4.7,3.8,14.54,14.54,0,0,1-5.48,1.11l-1,0a21.26,21.26,0,0,1-6.14-1.51,45,45,0,0,1-4.79-2.28c-1.21-.64-2.1-1.12-2.66-1.44s-1-.6-1.37-.82l.72-4.17c.41-2.39.81-4.79,1.22-7.2l1,.22,1.66.36a8.91,8.91,0,0,0-.34,1.77c0,.4,0,.61,0,.63a4.34,4.34,0,0,0,.66,2.26,7.47,7.47,0,0,0,2.26,2.12,6.7,6.7,0,0,0,2.87,1.06h.28a3.15,3.15,0,0,0,2-.69,3.8,3.8,0,0,0,1.27-2,3.76,3.76,0,0,0,.14-1,4.34,4.34,0,0,0-.28-1.52,6.87,6.87,0,0,0-2.09-2.71,29.6,29.6,0,0,0-2.79-2c-1-.6-1.92-1.26-2.89-2a14.24,14.24,0,0,1-2.55-2.41,10,10,0,0,1-2.07-6,12.66,12.66,0,0,1,.77-4.17,17.78,17.78,0,0,1,3.18-5.08,14.22,14.22,0,0,1,4.06-3.31,6,6,0,0,1,2.56-.66,4.82,4.82,0,0,1,.86.08,14.17,14.17,0,0,1,3.17,1.16l7.23,3.29,1.58-1.74.55-.61,1.19.3A3.1,3.1,0,0,0,673.83,710.91Zm-22.61,14.24a10.35,10.35,0,0,0,2.48,1.52,8.87,8.87,0,0,0,2.18-2.62,2.05,2.05,0,0,0,.14-.74,2.3,2.3,0,0,0,0-.45,1.5,1.5,0,0,0-.58-.8,1.55,1.55,0,0,0-.75-.19h-.16a1.52,1.52,0,0,0-.83.41,1.64,1.64,0,0,0-.43.85c-.06.34-.11.69-.15,1.06-.17-.22-.33-.42-.5-.61a1.34,1.34,0,0,0-.55-.38,1,1,0,0,0-.25,0,1.09,1.09,0,0,0-.39.08.83.83,0,0,0-.49.41.92.92,0,0,0-.14.47A1.62,1.62,0,0,0,651.22,725.15Zm2.7-9.13a13.68,13.68,0,0,0,3.23,2,24.41,24.41,0,0,0,1.76-1.77,6.36,6.36,0,0,0,1.14-1.71,2.71,2.71,0,0,0,.17-.91,2.18,2.18,0,0,0-.09-.63,1.72,1.72,0,0,0-.77-1,1.69,1.69,0,0,0-.94-.28l-.25,0a1.78,1.78,0,0,0-1.07.52,2.24,2.24,0,0,0-.55,1.11,10,10,0,0,0-.2,1.38,6.59,6.59,0,0,0-.64-.8,2,2,0,0,0-.74-.5,1,1,0,0,0-.33-.06,1.24,1.24,0,0,0-.49.11,1.67,1.67,0,0,0-.67.56,1.12,1.12,0,0,0-.16.6A2.15,2.15,0,0,0,653.92,716Zm4.2,14.35a8,8,0,0,0,1.82,1.13,6.41,6.41,0,0,0,1.6-1.93,1.28,1.28,0,0,0,.11-.52,1.4,1.4,0,0,0,0-.34,1.11,1.11,0,0,0-.44-.6,1,1,0,0,0-.5-.14.51.51,0,0,0-.17,0,.93.93,0,0,0-.6.27,1.45,1.45,0,0,0-.31.62,6.54,6.54,0,0,0-.11.79,3.23,3.23,0,0,0-.36-.45,1,1,0,0,0-.41-.29l-.14,0a.8.8,0,0,0-.33.08.75.75,0,0,0-.36.3.88.88,0,0,0-.08.34A1.23,1.23,0,0,0,658.12,730.37Zm6.24,4.53a6.35,6.35,0,0,0,1.38.88,4.86,4.86,0,0,0,1.27-1.52,1.65,1.65,0,0,0,0-.38,2.64,2.64,0,0,0,0-.28.7.7,0,0,0-.34-.44.87.87,0,0,0-.44-.11h-.08a.77.77,0,0,0-.47.22,1.08,1.08,0,0,0-.23.48,2.4,2.4,0,0,0-.07.6,3.6,3.6,0,0,0-.29-.35.89.89,0,0,0-.32-.21l-.14,0a.59.59,0,0,0-.22.05.51.51,0,0,0-.27.25.38.38,0,0,0-.09.25A1,1,0,0,0,664.36,734.9Z"/><path class="cls-3" d="M682,715.38l-2.51-.74-2.79-.8c.2-.5.39-1,.58-1.49l.66-1.66c2.13.09,4.27.18,6.4.25l6.41.25q.9,6.54,1.85,13,1.57,11.24,3.14,22.5,1.21,0,2.46,0l2.43.05c0,.63.06,1.24.08,1.85,0,.81.08,1.62.14,2.43l-21.5-.08Zm1.6,4.75a13.47,13.47,0,0,0,2,3.09c.79-.27,1.53-.55,2.23-.84a5.57,5.57,0,0,0,1.69-1,2.41,2.41,0,0,0,.72-1.29v-.28a1.86,1.86,0,0,0-.25-.94,1.74,1.74,0,0,0-.94-.69,2.45,2.45,0,0,0-.58-.08,2.2,2.2,0,0,0-.58.08,2.38,2.38,0,0,0-.93.73,9,9,0,0,0-.73,1.12,5.73,5.73,0,0,0-.23-.95,1.79,1.79,0,0,0-.43-.73,1.11,1.11,0,0,0-.75-.28h-.08a1.15,1.15,0,0,0-.71.22,1.18,1.18,0,0,0-.53,1.08A2.68,2.68,0,0,0,683.57,720.13Zm.44,8.94a9.48,9.48,0,0,0,1.52,2.35,8.71,8.71,0,0,0,3-1.41,1.61,1.61,0,0,0,.55-1v-.25a1.52,1.52,0,0,0-.16-.69,1.62,1.62,0,0,0-.75-.52,1.56,1.56,0,0,0-.41-.06,1.6,1.6,0,0,0-.47.08,1.68,1.68,0,0,0-.69.57,7.74,7.74,0,0,0-.58.87,3.77,3.77,0,0,0-.17-.75,1.33,1.33,0,0,0-.33-.55.84.84,0,0,0-.58-.22h-.08a1.1,1.1,0,0,0-.53.14.93.93,0,0,0-.38.8A3.19,3.19,0,0,0,684,729.07Zm.41,6.66a7.8,7.8,0,0,0,1.14,1.68,6.43,6.43,0,0,0,2.18-1,1.34,1.34,0,0,0,.41-.75v-.17A.93.93,0,0,0,688,735a1,1,0,0,0-.52-.39,1,1,0,0,0-.33,0,.81.81,0,0,0-.31,0,1.13,1.13,0,0,0-.54.4c-.13.2-.28.41-.42.65,0-.2-.08-.39-.11-.55a.73.73,0,0,0-.25-.41.59.59,0,0,0-.42-.14l-.08,0a.66.66,0,0,0-.36.11.77.77,0,0,0-.3.66A2.6,2.6,0,0,0,684.42,735.73Zm.17,7.06a1.32,1.32,0,0,0,2.54.58,1.12,1.12,0,0,0,.33-.61v-.13a.66.66,0,0,0-.11-.36A.88.88,0,0,0,687,742a.86.86,0,0,0-.27-.05.79.79,0,0,0-.25.05.92.92,0,0,0-.4.32,4.45,4.45,0,0,0-.32.48,1.89,1.89,0,0,0-.1-.41.52.52,0,0,0-.52-.43.59.59,0,0,0-.35.1.49.49,0,0,0-.22.44A1.16,1.16,0,0,0,684.59,742.79Z"/><path class="cls-3" d="M729,714a.76.76,0,0,0,.8-.44,2.12,2.12,0,0,0,.11-.69,5.52,5.52,0,0,0-.06-.64,9.34,9.34,0,0,0-.25-1.21l1.77,0,1.3,0q.1,3.9.14,7.12v.78a27.88,27.88,0,0,1-.17,3.7c-.07.34-.17.52-.3.52h-.18a2.2,2.2,0,0,1-.68-.46,11.75,11.75,0,0,0-3.23-1.71,21.22,21.22,0,0,0-6.4-.91h-.17a15,15,0,0,0-6.32,1.24,6.7,6.7,0,0,0-3.31,3.78,8.51,8.51,0,0,0-.44,2.65,8,8,0,0,0,2.57,5.85,7.4,7.4,0,0,0,4,1.88,10.3,10.3,0,0,0,1.27.08,14.84,14.84,0,0,0,4-.65,53.49,53.49,0,0,0,5.07-1.72c1.29,2.85,2.56,5.7,3.84,8.56l2.81,6.23-1.63.69c-.53.24-1.07.47-1.6.69a32.4,32.4,0,0,0-2.35-2.78,2.79,2.79,0,0,0-1.84-1l-.2,0a3.74,3.74,0,0,0-1.65,1.58,16.91,16.91,0,0,1-1.16,1.42,7.48,7.48,0,0,1-1.6,1.31A10.75,10.75,0,0,1,718,751a18.43,18.43,0,0,1-4.77-.69,16.2,16.2,0,0,1-5.29-2.67,17.17,17.17,0,0,1-4.37-5,28.28,28.28,0,0,1-2.87-7.32,29.12,29.12,0,0,1-1-7.15v-.36a15.22,15.22,0,0,1,1.16-5.68,13.7,13.7,0,0,1,2.68-4,18.78,18.78,0,0,1,7.89-5,22.36,22.36,0,0,1,7.46-1.3,21.56,21.56,0,0,1,2.65.17,25.24,25.24,0,0,1,4.83,1.27A7.89,7.89,0,0,0,729,714Zm-26,14.24a11.2,11.2,0,0,0,2,2.07,8.94,8.94,0,0,0,2.76-2,2,2,0,0,0,.36-1.05s0-.15,0-.35a1.08,1.08,0,0,0-.36-.64,1.25,1.25,0,0,0-.85-.39h-.19a1.31,1.31,0,0,0-.69.17,1.83,1.83,0,0,0-.61.73,6.51,6.51,0,0,0-.39,1c-.11-.25-.22-.49-.34-.71a1.24,1.24,0,0,0-.46-.5.89.89,0,0,0-.47-.14l-.29,0a1,1,0,0,0-.45.29.9.9,0,0,0-.28.66A1.94,1.94,0,0,0,703,728.19Zm2.4,7.51a7.76,7.76,0,0,0,1.49,1.52,6.88,6.88,0,0,0,2-1.49,1.43,1.43,0,0,0,.24-.75s0-.13,0-.27a.78.78,0,0,0-.26-.47,1.06,1.06,0,0,0-.64-.28h-.16a1.05,1.05,0,0,0-.5.14,1.09,1.09,0,0,0-.43.51c-.1.23-.19.47-.29.73a4,4,0,0,0-.24-.51,1.22,1.22,0,0,0-.34-.37.53.53,0,0,0-.3-.09l-.25,0a.63.63,0,0,0-.33.19.64.64,0,0,0-.19.47A1.35,1.35,0,0,0,705.4,735.7Zm.44-15.54a13.53,13.53,0,0,0,2.65,2.7c.76-.42,1.46-.85,2.11-1.29a6,6,0,0,0,1.51-1.38,2.54,2.54,0,0,0,.44-1.36s0-.18,0-.45a1.45,1.45,0,0,0-.47-.87,1.78,1.78,0,0,0-1.1-.5l-.25,0a1.65,1.65,0,0,0-.91.28,2.11,2.11,0,0,0-.8.93,10.23,10.23,0,0,0-.53,1.31,7.93,7.93,0,0,0-.42-.93,1.8,1.8,0,0,0-.6-.65,1.08,1.08,0,0,0-.58-.16,2.61,2.61,0,0,0-.41,0,1.2,1.2,0,0,0-.61.37,1.13,1.13,0,0,0-.33.83A2.68,2.68,0,0,0,705.84,720.16Zm4.34,21.17a6.25,6.25,0,0,0,1.15,1.19,5.52,5.52,0,0,0,1.58-1.16,1.1,1.1,0,0,0,.19-.58s0-.11,0-.22a.62.62,0,0,0-.21-.36.74.74,0,0,0-.47-.22h-.11a.86.86,0,0,0-.41.08,1.06,1.06,0,0,0-.35.43,4.08,4.08,0,0,0-.21.56l-.2-.41a.65.65,0,0,0-.26-.28.78.78,0,0,0-.28-.05h-.15a.47.47,0,0,0-.26.15.48.48,0,0,0-.14.36A1,1,0,0,0,710.18,741.33Z"/><path class="cls-3" d="M578.53,838.44l.11.22v1.69c0,.26-.71.51-2.13.77L580,869.66h.11l4.5-24.62-.8.11h-.88c-.26,0-.49-.78-.69-2.35q.27-.1,14.1-2.34a.1.1,0,0,0,.11.11q-1.35,2.53-7.62,22.6-4.35,13-4.36,13.64a37,37,0,0,1,4,2,5,5,0,0,0,.33.91.1.1,0,0,0-.11.11q-3.09-.11-15.1-.22-.21-.17-10-36.49h-1.77c-.22,0-.48-.7-.8-2.12Zm-10.11,9.22a13.46,13.46,0,0,0,2.74,2.68q1.1-.66,2.07-1.35a5.71,5.71,0,0,0,1.46-1.44,2.43,2.43,0,0,0,.41-1.32v-.14a1.73,1.73,0,0,0-.52-1.19,1.52,1.52,0,0,0-.83-.47l-.44,0a1.85,1.85,0,0,0-1,.28,2.17,2.17,0,0,0-.78,1,11.67,11.67,0,0,0-.49,1.34c-.15-.33-.31-.64-.47-.92a1.83,1.83,0,0,0-.61-.65,1.3,1.3,0,0,0-.58-.14l-.25,0a1.35,1.35,0,0,0-.74.38,1.15,1.15,0,0,0-.33.83A2.48,2.48,0,0,0,568.42,847.66Zm2.54,9a10,10,0,0,0,2.07,2,9,9,0,0,0,2.74-2.12,1.9,1.9,0,0,0,.3-1v-.14a1.55,1.55,0,0,0-.39-.91,1.12,1.12,0,0,0-.63-.35h-.33a1.44,1.44,0,0,0-.78.22,1.6,1.6,0,0,0-.6.72,5.11,5.11,0,0,0-.36,1,6,6,0,0,0-.36-.72,1.42,1.42,0,0,0-.47-.5,1,1,0,0,0-.44-.11.5.5,0,0,0-.19,0,1.05,1.05,0,0,0-.58.3.86.86,0,0,0-.25.64A1.87,1.87,0,0,0,571,856.63Zm2,6.65a7.7,7.7,0,0,0,1.52,1.49,7.15,7.15,0,0,0,2-1.54,1.64,1.64,0,0,0,.22-.77v-.09a.94.94,0,0,0-.28-.63.82.82,0,0,0-.48-.26l-.26,0a1.16,1.16,0,0,0-.56.14,1.54,1.54,0,0,0-.41.54,5.26,5.26,0,0,0-.28.73,4,4,0,0,0-.24-.51,1,1,0,0,0-.36-.35.86.86,0,0,0-.36-.08h-.11a.85.85,0,0,0-.42.22.66.66,0,0,0-.16.44A1.5,1.5,0,0,0,573,863.28Zm1.79,7.18a6.27,6.27,0,0,0,1.16,1.13,4.79,4.79,0,0,0,1.55-1.18,1.1,1.1,0,0,0,.19-.58v-.06a.8.8,0,0,0-.22-.52.75.75,0,0,0-.37-.21h-.21a.71.71,0,0,0-.41.13,1,1,0,0,0-.35.4,3.25,3.25,0,0,0-.2.6,2.71,2.71,0,0,0-.2-.42.59.59,0,0,0-.27-.27.61.61,0,0,0-.28-.06h-.08a.59.59,0,0,0-.33.17.45.45,0,0,0-.14.36A1.13,1.13,0,0,0,574.74,870.46Z"/><path class="cls-3" d="M613.8,838.77a14.65,14.65,0,0,1,8.68,2.78,19.75,19.75,0,0,1,6.23,7.42,24.25,24.25,0,0,1,0,20.66,19.74,19.74,0,0,1-6.23,7.44,14.94,14.94,0,0,1-17.33,0,19.67,19.67,0,0,1-6.24-7.44,24.06,24.06,0,0,1,0-20.66,19.69,19.69,0,0,1,6.24-7.42A14.58,14.58,0,0,1,613.8,838.77Zm-13.19,20.1a9.07,9.07,0,0,0,1.46,2,7.46,7.46,0,0,0,2.62-1.38,1.38,1.38,0,0,0,.44-.91v-.17a1.18,1.18,0,0,0-.19-.66,1.2,1.2,0,0,0-.66-.44,1.23,1.23,0,0,0-.36-.06,1,1,0,0,0-.42.09,1.65,1.65,0,0,0-.62.54,6.92,6.92,0,0,0-.48.81,5.19,5.19,0,0,0-.19-.66,1.47,1.47,0,0,0-.31-.5.83.83,0,0,0-.52-.16,1,1,0,0,0-.55.16.78.78,0,0,0-.33.69A1.79,1.79,0,0,0,600.61,858.87Zm.8-7.34a14.14,14.14,0,0,0,3.23,2c.64-.59,1.22-1.17,1.75-1.75a6.29,6.29,0,0,0,1.14-1.73,2.71,2.71,0,0,0,.17-.91,3.06,3.06,0,0,0-.15-.81,1.47,1.47,0,0,0-.71-.84,1.66,1.66,0,0,0-.93-.28l-.5.06a1.54,1.54,0,0,0-.83.49,2.2,2.2,0,0,0-.55,1.11,10.06,10.06,0,0,0-.19,1.4,6.17,6.17,0,0,0-.65-.82,2,2,0,0,0-.73-.5,1.55,1.55,0,0,0-.31,0,1.71,1.71,0,0,0-.59.14,1.27,1.27,0,0,0-.59.52,1.19,1.19,0,0,0-.17.61A2.21,2.21,0,0,0,601.41,851.53Zm.58,16.09a8.34,8.34,0,0,0,1.82,1.13,6.69,6.69,0,0,0,1.6-1.93,1.52,1.52,0,0,0,.11-.53,1.32,1.32,0,0,0-.1-.44.94.94,0,0,0-.4-.47,1,1,0,0,0-.49-.14l-.31,0a.94.94,0,0,0-.47.25,1.38,1.38,0,0,0-.3.62,4.85,4.85,0,0,0-.11.79,3.33,3.33,0,0,0-.36-.46.89.89,0,0,0-.41-.26.6.6,0,0,0-.2,0,1,1,0,0,0-.31.07.66.66,0,0,0-.4.62A1.28,1.28,0,0,0,602,867.62Zm6.23,4.52a6.64,6.64,0,0,0,1.41.89,5,5,0,0,0,1.24-1.52.92.92,0,0,0,.09-.39,1.59,1.59,0,0,0-.07-.36.63.63,0,0,0-.32-.35.78.78,0,0,0-.41-.12l-.21,0a.62.62,0,0,0-.37.21.93.93,0,0,0-.22.48,5.43,5.43,0,0,0-.09.62,3.51,3.51,0,0,0-.29-.36.77.77,0,0,0-.31-.22.32.32,0,0,0-.14,0,.72.72,0,0,0-.26.07.63.63,0,0,0-.32.51A.86.86,0,0,0,608.22,872.14Zm5-20.64a5,5,0,0,0-2.78,1.5,5.1,5.1,0,0,0-1.14,3.25v.41a16.36,16.36,0,0,0,.77,4.61,17.81,17.81,0,0,0,2.18,4.69c1.64,2.36,3.4,3.53,5.27,3.53a5,5,0,0,0,1.16-.13,5.91,5.91,0,0,0,3-2.28,9.48,9.48,0,0,0,1.67-4.21,14,14,0,0,0,.11-1.71,14.55,14.55,0,0,0-.55-3.71,8.76,8.76,0,0,0-2.13-3.77,7.59,7.59,0,0,0-3.67-2.1,10.5,10.5,0,0,0-2.18-.25A8.25,8.25,0,0,0,613.25,851.5Z"/><path class="cls-3" d="M633.31,838.53c1.92,0,3.82,0,5.72,0h5.74c0,.46,0,.92.08,1.38-.88.13-1.76.26-2.62.41q2.67,14.82,5.33,29.67l8.39-4.41,8.36-4.39q1.28,9.08,2.57,18.19l-.83.08a2.89,2.89,0,0,1-.5.08c0-.25-.08-.5-.13-.74l-.34-1.6q-6,.55-12,1.13-8.34.76-16.7,1.57l-3.17-.49c.07-.65.14-1.29.19-1.94.41,0,.81,0,1.22,0h1.57q-.72-9.72-1.46-19.46T633.31,838.53Zm2.07,9.74a14.46,14.46,0,0,0,2.43,2.92c.79-.36,1.53-.74,2.21-1.13a6.45,6.45,0,0,0,1.63-1.24,2.65,2.65,0,0,0,.55-1.46v-.08a1.78,1.78,0,0,0-.38-1.14,2.08,2.08,0,0,0-1.08-.6l-.36,0a1.84,1.84,0,0,0-.83.19,2.13,2.13,0,0,0-.85.86,12.51,12.51,0,0,0-.64,1.27,6.49,6.49,0,0,0-.34-1,1.89,1.89,0,0,0-.54-.69,1.3,1.3,0,0,0-.75-.22l-.27,0a1.19,1.19,0,0,0-.58.3,1.17,1.17,0,0,0-.44,1A2.76,2.76,0,0,0,635.38,848.27Zm1.61,9.16a9.84,9.84,0,0,0,1.84,2.27,8.79,8.79,0,0,0,2.93-1.83,1.86,1.86,0,0,0,.43-1.1,1.43,1.43,0,0,0-.29-.94,1.6,1.6,0,0,0-.83-.47,1.27,1.27,0,0,0-.28,0,1.52,1.52,0,0,0-.63.14,1.85,1.85,0,0,0-.65.68,8.12,8.12,0,0,0-.48,1,6.12,6.12,0,0,0-.26-.76,1.16,1.16,0,0,0-.43-.51,1,1,0,0,0-.53-.17l-.23,0a.8.8,0,0,0-.46.23,1,1,0,0,0-.3.72A2.25,2.25,0,0,0,637,857.43Zm1.26,6.82a8.13,8.13,0,0,0,1.38,1.63,6.66,6.66,0,0,0,2.13-1.33,1.27,1.27,0,0,0,.3-.8v-.08a.88.88,0,0,0-.22-.61.9.9,0,0,0-.58-.33l-.19,0a1.08,1.08,0,0,0-.47.11,1.33,1.33,0,0,0-.5.5,7.32,7.32,0,0,0-.33.69,3,3,0,0,0-.2-.52,1.05,1.05,0,0,0-.32-.39.66.66,0,0,0-.36-.11h-.18a.55.55,0,0,0-.34.17.64.64,0,0,0-.25.55A1.36,1.36,0,0,0,638.25,864.25Zm1,7.31a5.78,5.78,0,0,0,1.05,1.27,4.54,4.54,0,0,0,1.66-1,1,1,0,0,0,.25-.63.88.88,0,0,0-.17-.53.68.68,0,0,0-.47-.24.45.45,0,0,0-.16,0,.74.74,0,0,0-.34.08.8.8,0,0,0-.38.37c-.09.18-.19.37-.28.57a1.43,1.43,0,0,0-.15-.44.93.93,0,0,0-.23-.31.86.86,0,0,0-.36-.07.61.61,0,0,0-.33.13.53.53,0,0,0-.2.41A1.14,1.14,0,0,0,639.3,871.56Z"/><path class="cls-3" d="M686.09,838.47a36.9,36.9,0,0,1,4.36.77c5.89.89,8.83,1.41,8.83,1.58v1.79a1,1,0,0,1-.22.33c-1.75-.15-3-.22-3.92-.22a1,1,0,0,1-.33-.11v.11q6.71,11,6.71,17.67v1.35q0,5.32-4.69,12.09-5.54,6-11.65,6a8.93,8.93,0,0,1-3-.47q-14.88-5-14.88-17.77v-.55q0-8.21,8.61-18.91a28.54,28.54,0,0,1,4.48.77A24.71,24.71,0,0,0,678,854a13.21,13.21,0,0,0,1.57,6.6c1.71,2.68,3.46,4,5.25,4a7.42,7.42,0,0,0,1.79-.45q3.92-2.31,3.92-7.7,0-4.93-4.58-17.91A.1.1,0,0,0,686.09,838.47Zm-15.51,23.9a9.83,9.83,0,0,0,2.7,1.13,8.6,8.6,0,0,0,1.74-3,1.85,1.85,0,0,0,.06-.44,1.74,1.74,0,0,0-.21-.8,1.41,1.41,0,0,0-.68-.64,1.67,1.67,0,0,0-.49-.08,2.13,2.13,0,0,0-.56.1,1.1,1.1,0,0,0-.63.48,1.81,1.81,0,0,0-.28.91v.33q0,.36,0,.75a4.89,4.89,0,0,0-.58-.54,1.37,1.37,0,0,0-.61-.29H671a1.2,1.2,0,0,0-.57.17.89.89,0,0,0-.4.49,1.26,1.26,0,0,0,0,.33A1.48,1.48,0,0,0,670.58,862.37Zm1.24-9.41a14.1,14.1,0,0,0,3.5,1.49c.54-.7,1-1.37,1.45-2a5.23,5.23,0,0,0,.84-1.86,2.88,2.88,0,0,0,.06-.55,2.53,2.53,0,0,0-.26-1.09,1.65,1.65,0,0,0-.87-.79,1.81,1.81,0,0,0-.69-.14,2.53,2.53,0,0,0-.69.14,1.68,1.68,0,0,0-.83.64,2.2,2.2,0,0,0-.36,1.15v.47c0,.32,0,.64,0,1a8.36,8.36,0,0,0-.77-.72,1.73,1.73,0,0,0-.8-.36h-.14a1.36,1.36,0,0,0-.71.21,1.26,1.26,0,0,0-.51.62,1.41,1.41,0,0,0-.08.44A2,2,0,0,0,671.82,853ZM675,868.78a7.31,7.31,0,0,0,2,.82,6.46,6.46,0,0,0,1.27-2.18,1.69,1.69,0,0,0,0-.3,1.4,1.4,0,0,0-.15-.61.9.9,0,0,0-.48-.44,1,1,0,0,0-.36-.08,1.59,1.59,0,0,0-.42.08,1,1,0,0,0-.44.36,1.07,1.07,0,0,0-.19.64v.8a4.94,4.94,0,0,0-.44-.39,1.39,1.39,0,0,0-.44-.22.84.84,0,0,0-.78.47.62.62,0,0,0,0,.25A1.13,1.13,0,0,0,675,868.78Zm6.85,3.47a6.09,6.09,0,0,0,1.52.64,5.39,5.39,0,0,0,1-1.68.91.91,0,0,0,0-.23,1,1,0,0,0-.13-.48.72.72,0,0,0-.37-.34.89.89,0,0,0-.3-.06,1,1,0,0,0-.32.06.71.71,0,0,0-.35.27.87.87,0,0,0-.13.5v.61a2.86,2.86,0,0,0-.33-.29.82.82,0,0,0-.36-.16H682a.57.57,0,0,0-.29.09.52.52,0,0,0-.23.27.51.51,0,0,0,0,.17A.91.91,0,0,0,681.81,872.25Z"/><path class="cls-3" d="M720.34,838.36c.28,2.12.55,4.22.83,6.32.37,2.82.73,5.62,1.08,8.42q.74-2.85,1.46-5.71c.61-2.4,1.21-4.8,1.82-7.21l8.67.25,8.72.28c0,.66.07,1.33.11,2-.53.22-1.07.45-1.6.69l-1.58.69,1.5,17.8q.76,8.9,1.51,17.81L732.68,878l-9.17-1.55c0-.49,0-1-.08-1.49v-.11l1.3,0c.42,0,.85,0,1.3,0q.79-6.21,1.6-12.45t1.63-12.45q-3.32,7.39-6.66,14.77l-2,4.58q-2-5.13-4.11-10.27l-4.09-10.27c.41,3.52.81,7,1.22,10.52l2.1,18.19,2.42.41,1.83.31a2.43,2.43,0,0,0,.08.47l.22,1.65q-5.58-.6-11.18-1.24l-7.89-.88q.86-9.72,1.68-19.44.66-7.39,1.3-14.79l-1.8-.11-1.82-.11q-.16-.36-.3-.72c-.22-.49-.43-1-.64-1.49,3.06-.46,6.11-.91,9.17-1.35Q714.54,839.24,720.34,838.36Zm-15.29,11.81a14,14,0,0,0,2.07,3.21c.81-.28,1.58-.57,2.3-.86a5.59,5.59,0,0,0,1.76-1,2.55,2.55,0,0,0,.74-1.38,1.84,1.84,0,0,0,0-.33,1.62,1.62,0,0,0-.28-.94,1.82,1.82,0,0,0-1-.72,2.52,2.52,0,0,0-.58-.08,2,2,0,0,0-.64.11,2.24,2.24,0,0,0-1,.76,9.91,9.91,0,0,0-.78,1.17,6,6,0,0,0-.23-1,1.8,1.8,0,0,0-.46-.77,1.26,1.26,0,0,0-.77-.31h-.08a1.48,1.48,0,0,0-.75.22,1.26,1.26,0,0,0-.55,1.14A3.06,3.06,0,0,0,705.05,850.17Zm.47,9.3a10.55,10.55,0,0,0,1.57,2.46,9.08,9.08,0,0,0,3.12-1.46,1.86,1.86,0,0,0,.58-1.05v-.19a1.5,1.5,0,0,0-.19-.78,1.55,1.55,0,0,0-.75-.55,1.33,1.33,0,0,0-.91,0,1.86,1.86,0,0,0-.74.6,8.11,8.11,0,0,0-.61.89,4.91,4.91,0,0,0-.17-.76,1.18,1.18,0,0,0-.36-.59,1,1,0,0,0-.58-.22h-.08a.94.94,0,0,0-1,1A2.26,2.26,0,0,0,705.52,859.47Zm.47,6.91a1.77,1.77,0,0,0,3.42.74,1.3,1.3,0,0,0,.41-.77v-.17a1.14,1.14,0,0,0-.13-.55,1.1,1.1,0,0,0-.56-.39,1.11,1.11,0,0,0-.66,0,1.33,1.33,0,0,0-.54.42,4.37,4.37,0,0,0-.42.66c0-.18-.09-.37-.14-.55a.91.91,0,0,0-.25-.42.66.66,0,0,0-.44-.16h-.09a.82.82,0,0,0-.38.11.67.67,0,0,0-.3.61A1.4,1.4,0,0,0,706,866.38Zm.14,7.39a5.62,5.62,0,0,0,.91,1.41,5.25,5.25,0,0,0,1.76-.83.93.93,0,0,0,.31-.6,1.15,1.15,0,0,0,0-.14.72.72,0,0,0-.13-.42.73.73,0,0,0-.42-.3.66.66,0,0,0-.27-.06.61.61,0,0,0-.25.06,1.16,1.16,0,0,0-.4.34,5.23,5.23,0,0,0-.35.52,4.46,4.46,0,0,0-.11-.46A.58.58,0,0,0,707,873a.6.6,0,0,0-.33-.12.57.57,0,0,0-.36.09.52.52,0,0,0-.25.5A1.16,1.16,0,0,0,706.13,873.77Z"/><path class="cls-3" d="M747.78,844.87h-3.23c0-.49,0-1,.08-1.51l0-1.49q7.79-.55,15.6-1.08l14.46-1,.61,3.09q.33,1.54.63,3.12c-2.46.2-4.93.41-7.39.63l-8.48.75-1.35,7.37,6.21-.17,6.24-.16-.14,9.05-6.15-.77-4.17-.5-.06.44q-.37,3-.74,6.07l7.17,2q3.57,1,7.15,2c.17-.72.33-1.44.5-2.18s.3-1.44.47-2.18l1.41.33,1,.22-.47,5.11-.55,6.18-15.52-1.16c-3.36-.26-6.73-.5-10.1-.74q-.82-8.37-1.63-16.73Zm2.51,4.92a12.18,12.18,0,0,0,2.43,3,25,25,0,0,0,2.26-1.1,6.15,6.15,0,0,0,1.63-1.24,2.39,2.39,0,0,0,.61-1.47v-.11a2,2,0,0,0-.36-1.16,2.08,2.08,0,0,0-1.08-.6,1.56,1.56,0,0,0-.41-.06,1.72,1.72,0,0,0-.8.2,2.38,2.38,0,0,0-.9.86,11.2,11.2,0,0,0-.68,1.29,7.81,7.81,0,0,0-.33-1,1.63,1.63,0,0,0-.52-.71,1.3,1.3,0,0,0-.75-.22h-.3a1.08,1.08,0,0,0-.58.29,1.19,1.19,0,0,0-.44,1A2.67,2.67,0,0,0,750.29,849.79Zm1.46,9.38a10.31,10.31,0,0,0,1.88,2.29,8.67,8.67,0,0,0,3-1.79,1.88,1.88,0,0,0,.47-1.11v-.11a1.32,1.32,0,0,0-.28-.85,1.65,1.65,0,0,0-.83-.47,1.39,1.39,0,0,0-.3,0,1.52,1.52,0,0,0-.63.14,1.72,1.72,0,0,0-.68.66,8.46,8.46,0,0,0-.51,1,5.49,5.49,0,0,0-.28-.78,1.5,1.5,0,0,0-.41-.55.94.94,0,0,0-.53-.16h-.24a.87.87,0,0,0-.45.23.91.91,0,0,0-.36.75A2.25,2.25,0,0,0,751.75,859.17ZM753,866.1a7.08,7.08,0,0,0,1.36,1.71,6.47,6.47,0,0,0,2.18-1.35,1.24,1.24,0,0,0,.33-.8v-.08a.81.81,0,0,0-.22-.58.92.92,0,0,0-.58-.39h-.19a1.4,1.4,0,0,0-.47.08,1.07,1.07,0,0,0-.53.48c-.13.24-.25.48-.36.74a3.67,3.67,0,0,0-.19-.56.88.88,0,0,0-.3-.38.56.56,0,0,0-.36-.14h-.21a.5.5,0,0,0-.34.19.63.63,0,0,0-.25.53A1.36,1.36,0,0,0,753,866.1Zm.94,7.48A5.91,5.91,0,0,0,755,874.9a5.39,5.39,0,0,0,1.69-1,1,1,0,0,0,.27-.64v-.08a.73.73,0,0,0-.14-.47,1,1,0,0,0-.49-.25.51.51,0,0,0-.17,0,.58.58,0,0,0-.33.09.84.84,0,0,0-.4.37,3.2,3.2,0,0,0-.26.56c-.08-.14-.14-.29-.2-.42a.63.63,0,0,0-.22-.32.47.47,0,0,0-.27-.08h-.17a.41.41,0,0,0-.25.11.57.57,0,0,0-.19.47A1.53,1.53,0,0,0,753.9,873.58Z"/><rect class="cls-3" x="1500.33" y="514.12" width="5.82" height="38.62" transform="translate(37.79 1163.3) rotate(-42.8)"/><rect class="cls-3" x="1500.33" y="514.12" width="5.82" height="38.62" transform="translate(762.85 -879.4) rotate(42.81)"/><rect class="cls-4" x="1319.4" y="712.63" width="70.89" height="32.22" rx="16.11"/><rect class="cls-3" x="1319.9" y="714.47" width="70.89" height="32.22" rx="16.11"/><circle class="cls-4" cx="1333.4" cy="728.74" r="14.27"/><rect class="cls-3" x="1318.77" y="582.2" width="70.89" height="32.22" rx="16.11"/><rect class="cls-4" x="1318.84" y="582.05" width="70.89" height="32.22" rx="16.11"/><circle class="cls-3" cx="1369.23" cy="598.52" r="15.19"/><rect class="cls-3" x="984.86" y="864.24" width="398.59" height="13.16" rx="2.43"/><circle class="cls-4" cx="1267.35" cy="870.98" r="10.05"/></g><g id="characters"><path class="cls-5" d="M346.08,916.76a36.69,36.69,0,0,0-9.33-6.77,76.14,76.14,0,0,0,12.62-25.07c11.72-41-40.63-60-90.76-60-21.42,0-41.09,4.92-56.62,13.13-9.35-8.25-20.9-13.13-33.42-13.13-19.89,0-37.37,12.33-47.4,30.93a61,61,0,0,0-36.78-11.89c-30.72,0-55.63,21.3-55.63,47.58,0,12,5.26,23.06,13.9,31.44a40.61,40.61,0,0,0-8.07,13.15c-9.84,26.35,9.77,58,43.81,70.73,27.14,10.14,55.25,5.15,70.52-10.65,13,16.54,38.87,27.82,68.7,27.82,35.54,0,65.48-16,74.66-37.85,15.67,8.19,36.51,4.83,50.87-9.53C360.49,959.28,361.8,932.48,346.08,916.76Z"/><circle class="cls-3" cx="240.35" cy="916.43" r="19.76"/><circle class="cls-3" cx="133.44" cy="915.11" r="19.76"/><path class="cls-6" d="M147.6,898.56a31.24,31.24,0,0,1,1.67-2.74c3.71-5.42,8.54-8.41,13.58-8.41s9.86,3,13.58,8.41a28.91,28.91,0,0,1,1.66,2.74h2.6c-4-8-10.51-13.27-17.84-13.27S149,890.52,145,898.56Z"/><path class="cls-6" d="M195.39,898.56a28.91,28.91,0,0,1,1.66-2.74c3.72-5.42,8.54-8.41,13.58-8.41s9.87,3,13.58,8.41a31.24,31.24,0,0,1,1.67,2.74h2.59c-4-8-10.5-13.27-17.84-13.27s-13.83,5.23-17.84,13.27Z"/><path class="cls-6" d="M202.26,915.15a28,28,0,0,1-1.63,2.7c-3.65,5.32-8.38,8.25-13.33,8.25s-9.68-2.93-13.33-8.25a28,28,0,0,1-1.63-2.7h-2.55c3.93,7.89,10.31,13,17.51,13s13.57-5.14,17.5-13Z"/><path class="cls-7" d="M419,725.26c-.84-12.37-24.08-20.87-51.91-19-15.06,1-28.38,4.87-37.3,10.15,11.5-10.73,19.46-24.68,20.57-40.86,2.45-35.47-44.06-64.38-79.59-64.38S195.14,640,195.14,675.57c0,17.62,9.85,33.59,24.11,45.22-11.11.17-27.32,8.78-41.74,23.2-19.73,19.73-28.61,42.82-19.84,51.59,7,6.95,22.92,2.79,39.07-9.07a76.58,76.58,0,0,0,27.94,50,58.7,58.7,0,0,0-1.09,11.33c0,19.24,8.95,34.84,20,34.84,10.06,0,18.38-12.93,19.78-29.77a79.32,79.32,0,0,0,9.43.57c1.39,0,2.77,0,4.15-.11,1.52,16.61,9.78,29.31,19.74,29.31,11,0,20-15.6,20-34.84a60,60,0,0,0-.51-7.81,76.72,76.72,0,0,0,28.37-90.24,102.59,102.59,0,0,0,25.57,1.33C397.93,749.18,419.82,737.63,419,725.26Z"/><circle class="cls-3" cx="300.71" cy="670.59" r="8.63"/><circle class="cls-3" cx="248.94" cy="670.59" r="8.63"/><circle cx="292.08" cy="661.96" r="8.96"/><circle cx="254.91" cy="661.96" r="8.96"/><path class="cls-8" d="M267.85,582.59c3.53,4.06,5.85,11.2,2.66,14s-10.68.12-14.21-3.95-6.9-10.67-3.71-13.44S264.32,578.52,267.85,582.59Z"/><path class="cls-8" d="M287.11,594.42c-4.07,3.53-11.2,4.27-14,1.08s-.11-9.09,3.95-12.62,12.26-6.9,15-3.72S291.18,590.89,287.11,594.42Z"/><path class="cls-9" d="M270.65,595.93v13.23a1.5,1.5,0,0,0,3,0V595.93a1.5,1.5,0,0,0-3,0Z"/><path class="cls-9" d="M272.78,593.77a4.48,4.48,0,0,0,4.21-1c.54-.42,1-.91,1.6-1.28a10.71,10.71,0,0,1,1.77-.86,18.69,18.69,0,0,0,6.79-4.72,1.55,1.55,0,0,0,0-2.13,1.52,1.52,0,0,0-2.12,0,15.78,15.78,0,0,1-5.54,4,12.94,12.94,0,0,0-3.43,1.9c-.7.57-1.53,1.52-2.48,1.17a1.5,1.5,0,0,0-1.84,1,1.52,1.52,0,0,0,1,1.85Z"/><path class="cls-9" d="M279,589.71a11.33,11.33,0,0,1,0-2.79l-.06.4q.07-.5.18-1a1.5,1.5,0,0,0-1-1.84,1.5,1.5,0,0,0-1.85,1,12.71,12.71,0,0,0-.27,4.17,1.66,1.66,0,0,0,.44,1.06,1.56,1.56,0,0,0,1.06.44,1.54,1.54,0,0,0,1.06-.44,1.44,1.44,0,0,0,.44-1.06Z"/><path class="cls-9" d="M284.06,589.22a8.42,8.42,0,0,0,2.5.17,10.76,10.76,0,0,0,1.4-.23,10.55,10.55,0,0,0,1.33-.48,1.47,1.47,0,0,0,.68-.9,1.49,1.49,0,0,0-.15-1.15,1.47,1.47,0,0,0-.89-.69l-.4-.06a1.48,1.48,0,0,0-.76.21l-.07,0,.36-.16a6.54,6.54,0,0,1-1.68.46l.4-.06a6.93,6.93,0,0,1-1.82,0l.4,0-.5-.09a1.64,1.64,0,0,0-1.15.15,1.55,1.55,0,0,0-.69.9,1.53,1.53,0,0,0,1,1.85Z"/><path class="cls-9" d="M271.12,595c-1.15-2.52-3.47-4.2-5.62-5.83l-.33-.26s-.48-.37-.26-.19l-.76-.61a16.84,16.84,0,0,1-1.4-1.28q-.31-.33-.6-.69c.16.2,0,0-.08-.12s-.2-.28-.29-.43a6.72,6.72,0,0,1-.4-.75c0-.1,0-.08,0,0a1.17,1.17,0,0,1-.09-.24c-.06-.17-.11-.35-.16-.52a1.5,1.5,0,1,0-2.89.8c.75,2.81,2.94,4.7,5.16,6.4,1.94,1.49,4.08,2.93,5.1,5.19a1.52,1.52,0,0,0,2.06.54,1.55,1.55,0,0,0,.53-2.06Z"/><path class="cls-9" d="M266.58,590v-5.65a1.5,1.5,0,0,0-3,0V590a1.5,1.5,0,0,0,3,0Z"/><path class="cls-9" d="M269,592.5c-2.08-.65-4.12-.07-6.22-.13l-.54,0c-.14,0-.15,0,0,0l-.27-.05c-.19,0-.39-.09-.58-.15l-.25-.08s-.28-.11-.13,0-.17-.1-.17-.1l-.22-.12-.21-.14c.11.08.11.1,0,0l-.17-.17c-.2-.18.05.1,0,0s-.27-.54-.17-.26a1.5,1.5,0,1,0-2.89.8,5.52,5.52,0,0,0,4.82,3.31,13.75,13.75,0,0,0,2.94,0,16.9,16.9,0,0,1,1.74-.09,4.64,4.64,0,0,1,1.55.24,1.53,1.53,0,0,0,1.85-1A1.55,1.55,0,0,0,269,592.5Z"/><path class="cls-9" d="M259.26,583.57a6.25,6.25,0,0,1-.72.17l-.18,0c.41-.08.19,0,.08,0s-.24,0-.37,0a5.94,5.94,0,0,1-.73,0h-.18c-.2,0,.32,0,.12,0l-.4-.08a5.75,5.75,0,0,1-.71-.2l-.17-.07a1,1,0,1,0,.1.05,3.36,3.36,0,0,0-.33-.16,5.64,5.64,0,0,1-.67-.4l-.15-.11c-.16-.11.23.19.09.07l-.32-.27a1.51,1.51,0,0,0-2.12,0,1.53,1.53,0,0,0,0,2.12,7.79,7.79,0,0,0,7.45,1.76,1.5,1.5,0,0,0-.79-2.89Z"/><path class="cls-9" d="M262,584.32a9.27,9.27,0,0,0-.27-3.63,1.55,1.55,0,0,0-.69-.9,1.59,1.59,0,0,0-1.15-.15,1.53,1.53,0,0,0-1.05,1.85,9.46,9.46,0,0,1,.21,1.06l0-.4a8.3,8.3,0,0,1,0,2.17,1.52,1.52,0,0,0,.44,1.07,1.51,1.51,0,0,0,1.06.43,1.49,1.49,0,0,0,1.06-.43l.24-.31a1.51,1.51,0,0,0,.2-.76Z"/><path class="cls-9" d="M276.51,593.34l.11,0-.4,0a7.87,7.87,0,0,1,1.94,0l-.4-.06a9,9,0,0,1,.93.19,1.61,1.61,0,0,0,1.16-.15,1.51,1.51,0,0,0,.54-2.06,1.59,1.59,0,0,0-.9-.69,9.18,9.18,0,0,0-1.88-.28,9.34,9.34,0,0,0-1.9.12,1.49,1.49,0,0,0-.89.69,1.52,1.52,0,0,0-.15,1.16,1.47,1.47,0,0,0,.69.89l.35.16a1.55,1.55,0,0,0,.8,0Z"/><path class="cls-9" d="M239.2,783.53c4.74-9.54,14.42-15.11,24.34-18,10.81-3.11,23.11-3.08,32.36,4.08a26.11,26.11,0,0,1,9.31,13.8,1.5,1.5,0,0,0,2.89-.8c-2.89-10.79-12.18-18.86-23-21.22a44.27,44.27,0,0,0-19.73.55,54.21,54.21,0,0,0-16,6.48A34,34,0,0,0,236.61,782c-.86,1.72,1.73,3.24,2.59,1.51Z"/><path class="cls-9" d="M283.75,834.94c2.67-4.09,9-5.32,13.5-5.46s10.57,1.18,12.41,5.82c.7,1.77,3.61,1,2.89-.8-2.31-5.84-9-8.1-14.85-8s-13.16,1.79-16.54,7c-1.06,1.62,1.54,3.12,2.59,1.51Z"/><path class="cls-9" d="M199.22,785.12a62.49,62.49,0,0,1,1.09-12.52,1.54,1.54,0,0,0-1-1.85,1.52,1.52,0,0,0-1.85,1,66.15,66.15,0,0,0-1.2,13.32,1.5,1.5,0,0,0,3,0Z"/><path class="cls-9" d="M342.22,746.48l-4.76-2.69a1.5,1.5,0,0,0-1.51,2.59l4.75,2.69a1.5,1.5,0,0,0,1.52-2.59Z"/><path class="cls-9" d="M219.27,722.83l5.42,2.72A1.5,1.5,0,1,0,226.2,723l-5.41-2.72a1.5,1.5,0,0,0-1.52,2.59Z"/><path d="M285.47,674.24a19.81,19.81,0,0,1-1,1.73c-2.34,3.4-5.36,5.27-8.53,5.27s-6.2-1.87-8.53-5.27a19.81,19.81,0,0,1-1-1.73H264.7c2.51,5,6.59,8.34,11.2,8.34s8.69-3.29,11.2-8.34Z"/><path class="cls-4" d="M292.24,667.52c6.43,0,6.44-10,0-10s-6.45,10,0,10Z"/><path class="cls-4" d="M254.28,667.52c6.44,0,6.45-10,0-10s-6.44,10,0,10Z"/><path class="cls-10" d="M343.57,708.81c7.91,7.91,19.85,10.56,30.47,11.22,18.58,1.33,37.17-2,53.48-10.36"/><path class="cls-11" d="M342.78,709.61c7.76,7.66,18.82,10.52,29.4,11.41a108.14,108.14,0,0,0,36.5-3,96.74,96.74,0,0,0,19.41-7.4c1.29-.66.15-2.6-1.14-1.95a96.58,96.58,0,0,1-34.41,10A108.75,108.75,0,0,1,375,719a70.1,70.1,0,0,1-15.37-2.46A35.5,35.5,0,0,1,344.37,708c-1-1-2.63.57-1.59,1.59Z"/><polygon class="cls-12" points="406.87 672.81 385.73 636.17 364.57 672.79 343.4 709.42 428 709.45 406.87 672.81"/><path d="M361.9,705.34a1.5,1.5,0,0,0,0-3,1.5,1.5,0,0,0,0,3Z"/><path d="M373.19,690.2a1.5,1.5,0,0,0,0-3,1.5,1.5,0,0,0,0,3Z"/><path d="M379.29,663.54a1.5,1.5,0,0,0,0-3,1.5,1.5,0,0,0,0,3Z"/><path d="M390.36,663.09a1.5,1.5,0,0,0,0-3,1.5,1.5,0,0,0,0,3Z"/><path d="M384.72,647.89h-.23a1.06,1.06,0,0,0-.58.13,1.14,1.14,0,0,0-.48.31,1,1,0,0,0-.31.48,1.15,1.15,0,0,0-.13.58l.05.4a1.59,1.59,0,0,0,.39.66l.3.23a1.48,1.48,0,0,0,.76.21h.23a1.72,1.72,0,0,0,1.06-.44,1.24,1.24,0,0,0,.31-.48,1.27,1.27,0,0,0,.13-.58l-.06-.4a1.57,1.57,0,0,0-.38-.66l-.31-.24a1.5,1.5,0,0,0-.75-.2Z"/><path d="M406.41,701.27a1.5,1.5,0,0,0,0-3,1.5,1.5,0,0,0,0,3Z"/><path d="M404.82,692.69a1.5,1.5,0,0,0,0-3,1.5,1.5,0,0,0,0,3Z"/><path d="M383.59,703.08a1.5,1.5,0,0,0,0-3,1.5,1.5,0,0,0,0,3Z"/><path d="M360.09,690a1.5,1.5,0,0,0,0-3,1.5,1.5,0,0,0,0,3Z"/><path d="M366,695.85a1.5,1.5,0,0,0,0-3,1.5,1.5,0,0,0,0,3Z"/><path d="M370.71,698.79a1.5,1.5,0,0,0,0-3,1.5,1.5,0,0,0,0,3Z"/><path d="M375.23,703.08a1.5,1.5,0,0,0,0-3,1.5,1.5,0,0,0,0,3Z"/><path d="M360,698.42v-.23a1.15,1.15,0,0,0-.13-.58,1.08,1.08,0,0,0-.31-.48,1.14,1.14,0,0,0-.48-.31,1.17,1.17,0,0,0-.58-.13l-.4,0a1.44,1.44,0,0,0-.66.39l-.24.3a1.57,1.57,0,0,0-.2.76v.23a1,1,0,0,0,.13.57,1.34,1.34,0,0,0,.79.8,1.27,1.27,0,0,0,.58.13l.4-.06a1.57,1.57,0,0,0,.66-.38l.23-.31a1.42,1.42,0,0,0,.21-.75Z"/><path d="M352.86,706.69a1.5,1.5,0,0,0,0-3,1.5,1.5,0,0,0,0,3Z"/><path d="M352,697.82h-.46a1,1,0,0,0-.57.13,1.11,1.11,0,0,0-.49.31,1.17,1.17,0,0,0-.31.48,1.27,1.27,0,0,0-.13.58l.06.4a1.57,1.57,0,0,0,.38.66l.31.23a1.42,1.42,0,0,0,.75.21H352a1.72,1.72,0,0,0,1.06-.44,1.24,1.24,0,0,0,.31-.48,1.27,1.27,0,0,0,.13-.58l-.06-.4a1.57,1.57,0,0,0-.38-.66l-.31-.24a1.5,1.5,0,0,0-.75-.2Z"/><path d="M418.15,700.59a1.5,1.5,0,0,0,0-3,1.5,1.5,0,0,0,0,3Z"/><path d="M421.09,707.37a1.5,1.5,0,0,0,0-3,1.5,1.5,0,0,0,0,3Z"/><path d="M396.69,707.82a1.5,1.5,0,0,0,0-3,1.5,1.5,0,0,0,0,3Z"/><path d="M408.66,706.24a1.5,1.5,0,0,0,0-3,1.5,1.5,0,0,0,0,3Z"/><path d="M408.89,694.49a1.5,1.5,0,0,0,0-3,1.5,1.5,0,0,0,0,3Z"/><path d="M389,656.09a1.5,1.5,0,0,0,0-3,1.5,1.5,0,0,0,0,3Z"/><path d="M386.75,642.76a1.5,1.5,0,0,0,0-3,1.5,1.5,0,0,0,0,3Z"/><path d="M380,656.31a1.5,1.5,0,0,0,0-3,1.5,1.5,0,0,0,0,3Z"/><path d="M383.13,647.05a1.5,1.5,0,0,0,0-3,1.5,1.5,0,0,0,0,3Z"/><path d="M384,660.15a1.5,1.5,0,0,0,0-3,1.5,1.5,0,0,0,0,3Z"/><path d="M370.71,670.54a1.5,1.5,0,0,0,0-3,1.5,1.5,0,0,0,0,3Z"/><path d="M365.06,680.49a1.5,1.5,0,0,0,0-3,1.5,1.5,0,0,0,0,3Z"/><path d="M368.67,685.23a1.5,1.5,0,0,0,0-3,1.5,1.5,0,0,0,0,3Z"/><path d="M372.29,675.29a1.5,1.5,0,0,0,0-3,1.5,1.5,0,0,0,0,3Z"/><path d="M390.36,698.56a1.5,1.5,0,0,0,0-3,1.5,1.5,0,0,0,0,3Z"/><path d="M395.79,692.62h-.23a1.27,1.27,0,0,0-.58.13,1.24,1.24,0,0,0-.48.31,1.72,1.72,0,0,0-.44,1.06l.05.4a1.47,1.47,0,0,0,.39.66l.3.24a1.57,1.57,0,0,0,.76.2h.23a1,1,0,0,0,.57-.13,1.34,1.34,0,0,0,.8-.79,1.27,1.27,0,0,0,.13-.58l-.06-.4a1.57,1.57,0,0,0-.38-.66l-.31-.23a1.42,1.42,0,0,0-.75-.21Z"/><path d="M386.75,693.36a1.5,1.5,0,0,0,0-3,1.5,1.5,0,0,0,0,3Z"/><path d="M406.18,685.46a1.5,1.5,0,0,0,0-3,1.5,1.5,0,0,0,0,3Z"/><path d="M402.71,676.05v-.23a1.17,1.17,0,0,0-.13-.58,1.14,1.14,0,0,0-.31-.48,1.24,1.24,0,0,0-.48-.31,1.15,1.15,0,0,0-.58-.13l-.4.06a1.57,1.57,0,0,0-.66.38l-.24.31a1.5,1.5,0,0,0-.2.75v.23a1.06,1.06,0,0,0,.13.58,1.14,1.14,0,0,0,.31.48,1.08,1.08,0,0,0,.48.31,1.15,1.15,0,0,0,.58.13l.4-.06a1.47,1.47,0,0,0,.66-.38l.23-.3a1.48,1.48,0,0,0,.21-.76Z"/><path d="M395.33,664.44a1.5,1.5,0,0,0,0-3,1.5,1.5,0,0,0,0,3Z"/><path d="M395.56,670.77a1.5,1.5,0,0,0,0-3,1.5,1.5,0,0,0,0,3Z"/><path class="cls-13" d="M376.7,686.52v.13c0,5,3.63,9,8.12,9s8.13-4,8.13-9v-.13Z"/><circle class="cls-3" cx="403.24" cy="686.19" r="7.3"/><circle class="cls-3" cx="367.4" cy="687.51" r="7.3"/><circle cx="375.04" cy="676.56" r="7.63"/><path class="cls-4" d="M373.29,679.81c6.44,0,6.45-10,0-10s-6.44,10,0,10Z"/><circle cx="395.61" cy="675.9" r="7.63"/><path class="cls-4" d="M393.87,679.14c6.43,0,6.44-10,0-10s-6.45,10,0,10Z"/><path class="cls-14" d="M343.69,252.88l27.44,35.78Q344.31,309.29,318.59,332c.89,1,1.79,2,2.69,3.05q7.58-6.69,15.25-13.19c9.62-8.16,19.89-12.75,30.54-13.77,12-1.07,21.13,2.82,27.61,11.28l59.67,77.79c5.55,7.24,7.5,15.63,6.11,25.11-1.45,10.54-6.71,19.49-15.9,27.28q-10.85,9.21-21.46,18.84c-7.82,7.11-16.48,11.19-26.26,12.29-10.69,1.46-19.86-1.39-27.41-8.93L310.19,412.5q21.21-21.21,43.4-40.8l48.67,55.22,3.72-3.28q-25.51-29.28-51-58.55-7.12,6.21-14.14,12.58c-10.49,9.55-21.24,14.74-32.61,15.52-10.43,1-18.92-1.6-25.37-8.05l-17.49-17.48c-7.4-7.39-9.71-17.2-6.58-29.44,2.72-11,9.06-21.17,18.93-30.14Q309.82,278.9,343.69,252.88Z"/><path class="cls-15" d="M602.53,331.45C599.2,341.38,592.41,349,582,354.72q-12,6.55-23.74,13.51A45.89,45.89,0,0,1,535.48,375c-8.69.21-16.2-2.18-22.52-7.32q-7.62,5-15.17,10.17c-8.75,6-17.91,8.88-27.76,8.64-10.8,0-19.49-4.07-25.93-12.59l-82-108.36q25.13-19,51.14-36.36l69.53,104.71L487,331.1Q452.5,278.55,418,226q26.25-17.25,53.28-32.73l74.54,130.33,4.17-2.38Q513.1,255.88,476.19,190.5q26.91-15.21,54.52-28.68L601,305.91A32.81,32.81,0,0,1,602.53,331.45Z"/><path class="cls-16" d="M648.48,128.32c9.83,3.79,16.09,10.11,19,18.76l23.22,69.54c2.88,8.66,2,17.33-2.49,26-4.93,9.51-13,16.29-24.36,20.67q-7.92,3-15.78,6.25c.52,1.26,1,2.52,1.54,3.77Q676,262.59,703,253.6l14.19,42.51q-30.88,10.27-61.06,23.05a41.92,41.92,0,0,1-27.6,2.34,31.38,31.38,0,0,1-22.27-17.81q-26.49-55.23-53-110.45c-4.62-9.61-4-19.54,2.33-29.72,5.56-9.18,14.14-16.33,25.55-21.16q15.48-6.56,31.12-12.58C625.56,124.68,637.74,124.25,648.48,128.32Zm-32.58,48.5-4.9,2q10,24.52,20,49l4.64-1.87Z"/><path class="cls-17" d="M775.47,93.46c9.2,5.05,14.56,12.13,16.29,21.08q7,36,14,72c1.73,9-.29,17.42-5.79,25.47-6.07,8.78-14.86,14.44-26.63,17.27q-8.17,2-16.31,4.09l1,3.94q27.39-7.16,55.12-12.51,4.27,22,8.54,44-31.74,6.13-63,14.75a41.24,41.24,0,0,1-27.43-1.37A31.56,31.56,0,0,1,711.6,261.5q-19-58.23-38-116.44c-3.31-10.13-1.41-19.87,6.06-29.09,6.64-8.35,16-14.27,27.81-17.53q16-4.43,32.22-8.32C753.37,86.82,765.41,88,775.47,93.46ZM737.2,137.19l-5.07,1.31q6.72,25.62,13.43,51.22l4.8-1.24Q743.78,162.84,737.2,137.19Z"/><path class="cls-18" d="M834.74,255.12c-7.67-5.35-12.45-12.43-14.13-21.4L787.13,55q30.25-5.64,60.75-9.49,1.53,12.12,3.08,24.24,32.65-4.12,65.5-6.14l2.79,45q-31.38,1.93-62.61,5.87,6.42,50.65,12.86,101.3l4.63-.58q-5.91-48.65-11.83-97.31,28.53-3.45,57.2-5.21,3.35,54,6.68,108c.66,10.66-2.95,19.4-10.53,26.38a40.67,40.67,0,0,1-24.8,11.33q-13.36,1.43-26.69,3.29C852.68,263.3,843,261.17,834.74,255.12Z"/><path class="cls-19" d="M1144.52,96.87q-3.78,22.53-7.55,45-23.17-3.87-46.5-6.59-7.28,62-14.54,123.95-24.66-2.88-49.43-4.28,5.25-92.35,10.51-184.71c.52-9.28,5-17,13.59-23.05,9.72-6.91,22.05-9.75,36.66-8.25q24.29,2.5,48.46,6.12l-6.81,45.17q-16.29-2.44-32.65-4.35c-.16,1.34-.31,2.69-.47,4Q1120.21,92.82,1144.52,96.87Z"/><path class="cls-20" d="M1163.92,274.37q-23.84-5.43-47.89-9.42l26.43-158.1c1.5-9,6.66-16.11,15.71-21.2,9.68-5.76,21.7-7.26,35.76-4.26q23,4.9,45.79,10.88-5.7,21.66-11.39,43.33-15.45-4-31-7.58Q1180.64,201.19,1163.92,274.37Z"/><path class="cls-21" d="M1225.62,290.93A41.15,41.15,0,0,1,1203.29,275a31.44,31.44,0,0,1-5.31-27.93l31.83-121.59c2.3-8.81,8.1-15.44,17.6-19.69,10.19-4.85,22.35-5.24,36.15-1q16,4.95,31.82,10.45c11.68,4,20.69,10.59,26.83,19.38,7,9.53,8.34,19.3,4.38,29.2l-46.68,116.7c-3.39,8.47-9.5,14.47-18.12,18.21-9.53,4.23-19.55,4.41-30.41.64Q1238.55,295,1225.62,290.93Zm24.53-39.22,4.47,1.47q16.61-50,33.2-100l-5-1.64Q1266.48,201.65,1250.15,251.71Z"/><path class="cls-22" d="M1327.17,330a41.8,41.8,0,0,1-20.28-18.85,31.38,31.38,0,0,1-1.72-28.44l47.45-116.4c3.43-8.44,10.08-14.24,20.12-17.18,10.81-3.44,23-2.19,36.27,3.94q15.35,7.09,30.5,14.72c11.17,5.63,19.35,13.37,24.38,22.95,5.78,10.45,5.89,20.35.65,29.63q-30.84,54.76-61.67,109.53c-4.48,7.95-11.37,13.06-20.48,15.58-10.09,2.88-20.14,1.68-30.53-3.56Q1339.59,335.72,1327.17,330Zm29.57-35.6q2.15,1,4.28,2.07,23-47.37,46-94.74l-4.8-2.32Z"/><path class="cls-23" d="M1405,358.29c-2.54-9.14-1.67-17.67,2.86-25.59l90.28-157.85q27.4,15.69,54,33.18l-13.4,20.44q28.53,18.74,56,39.59-13.61,18-27.2,36-26.28-19.92-53.56-37.84-28,42.7-56,85.41l4,2.67,54.21-81.7q24.83,16.51,48.84,34.71l-65.28,86.32c-6.44,8.51-15,12.66-25.63,12.81-9.66.37-18.61-2.36-27.11-8.18q-11.52-7.92-23.26-15.39C1413.78,376.39,1407.53,368.34,1405,358.29Z"/><path class="cls-24" d="M1683.13,355.76c2.95,12.06.48,21.85-7.06,29.38L1565,496.21q-18.68-18.68-38.22-35.91l97.09-110.24-4.16-3.66-96.47,110.8q-19.48-17-39.75-32.58l131.73-171.74q25.56,19.65,50.14,41.09-8,9.21-16,18.43,7.79,6.8,15.47,13.78C1674.43,334.93,1680.57,344.9,1683.13,355.76Z"/></g></svg>