<svg xmlns="http://www.w3.org/2000/svg" xmlns:xlink="http://www.w3.org/1999/xlink" width="1920" height="1080" viewBox="0 0 1920 1080"><defs><style>.cls-1{fill:url(#New_Gradient_Swatch);}.cls-2{fill:#79abff;}.cls-12,.cls-3{fill:#d65fbf;}.cls-13,.cls-16,.cls-4{fill:#44210b;}.cls-10,.cls-11,.cls-12,.cls-13,.cls-14,.cls-15,.cls-17,.cls-18,.cls-4,.cls-8,.cls-9{stroke:#44210b;}.cls-10,.cls-11,.cls-12,.cls-13,.cls-14,.cls-15,.cls-17,.cls-18,.cls-4,.cls-5,.cls-6,.cls-8,.cls-9{stroke-miterlimit:10;}.cls-5,.cls-6{stroke:#000;}.cls-13,.cls-5{stroke-width:2px;}.cls-10,.cls-6,.cls-8,.cls-9{stroke-width:3px;}.cls-10,.cls-11,.cls-14,.cls-7{fill:#fff;}.cls-8{fill:url(#Grey);}.cls-9{fill:url(#Grey-2);}.cls-11{stroke-width:0.75px;}.cls-12,.cls-15{stroke-width:0.25px;}.cls-17{fill:#39b54a;}</style><linearGradient id="New_Gradient_Swatch" y1="540" x2="1920" y2="540" gradientUnits="userSpaceOnUse"><stop offset="0" stop-color="#eec9db"/><stop offset="0.01" stop-color="#eec3d9" stop-opacity="0.98"/><stop offset="0.35" stop-color="#e538b3" stop-opacity="0.57"/><stop offset="0.5" stop-color="#e100a3" stop-opacity="0.4"/><stop offset="0.7" stop-color="#df42ab" stop-opacity="0.66"/><stop offset="0.9" stop-color="#de7eb3" stop-opacity="0.91"/><stop offset="1" stop-color="#dd96b6"/></linearGradient><linearGradient id="Grey" x1="511.67" y1="915.57" x2="1321" y2="915.57" gradientUnits="userSpaceOnUse"><stop offset="0" stop-color="#b5c4d4"/><stop offset="0.5" stop-color="#85a4bd"/><stop offset="0.6" stop-color="#7ea0ba"/><stop offset="1" stop-color="#6791ad"/></linearGradient><linearGradient id="Grey-2" x1="511.67" y1="449" y2="449" xlink:href="#Grey"/></defs><g id="background"><rect class="cls-1" width="1920" height="1080"/><path class="cls-2" d="M1729.84,414c0-15.92-17-28.83-38.08-28.83a47.35,47.35,0,0,0-19.21,3.95,47.37,47.37,0,0,0-19.49-4.07,49.51,49.51,0,0,0-8.35.71c-6.87-9.95-17.32-16.31-29-16.31-13.37,0-25.09,8.3-31.72,20.77a42.94,42.94,0,0,0-25.08-7.77c-21,0-38.08,14-38.08,31.32a26.33,26.33,0,0,0,2.29,10.71c-16.39,4.73-27.26,13-27.26,22.37,0,14.68,26.55,26.59,59.3,26.59a118.14,118.14,0,0,0,31.1-3.95c6.86,10.31,17.5,16.95,29.45,16.95,11,0,21-5.67,27.84-14.68,6.51,8.83,19,14.8,33.25,14.8,21,0,38.08-12.91,38.08-28.84,0-6.51-2.86-12.53-7.68-17.35C1720.53,435.89,1729.84,425.78,1729.84,414Z"/><circle class="cls-3" cx="1579.84" cy="426.46" r="10"/><circle class="cls-3" cx="1641.84" cy="426.46" r="10"/><path class="cls-4" d="M1618.29,426.46a16.81,16.81,0,0,1-1,1.65c-2.23,3.25-5.12,5-8.14,5s-5.92-1.79-8.15-5a16.81,16.81,0,0,1-1-1.65h-1.55c2.4,4.83,6.3,8,10.7,8s8.29-3.13,10.69-8Z"/><path class="cls-4" d="M1587,414.46a18.08,18.08,0,0,1,1-1.65c2.24-3.27,5.15-5.07,8.19-5.07s5.94,1.8,8.18,5.07a18.16,18.16,0,0,1,1,1.65h1.56c-2.42-4.84-6.33-8-10.75-8s-8.34,3.16-10.75,8Z"/><path class="cls-4" d="M1614,414.46a18.08,18.08,0,0,1,1-1.65c2.24-3.27,5.15-5.07,8.19-5.07s5.94,1.8,8.18,5.07a18.16,18.16,0,0,1,1,1.65h1.56c-2.42-4.84-6.33-8-10.75-8s-8.34,3.16-10.75,8Z"/><path class="cls-2" d="M1559.35,783.05a25.24,25.24,0,0,0-6.38-4.63,52,52,0,0,0,8.63-17.12c8-28-27.76-41-62-41a90.37,90.37,0,0,0-22.32,2.75c-4.55-14.89-17.47-26.47-49.25-25.45-14.53.46-22.49,20.55-26.06,41.33a42.45,42.45,0,0,0-21.37-5.63c-21,0-38,14.55-38,32.5a29.89,29.89,0,0,0,9.49,21.48,27.68,27.68,0,0,0-5.51,9c-6.72,18,6.67,39.63,29.92,48.31,17.2,6.43,35,4,45.78-5.05,5.35,8.67,18.31,14.27,49.32,16.78,23.67,1.91,44.64-10.37,51-25.85,10.7,5.59,24.93,3.29,34.74-6.51C1569.19,812.1,1570.09,793.79,1559.35,783.05Z"/><circle class="cls-3" cx="1497.03" cy="781.6" r="11"/><circle class="cls-3" cx="1419.03" cy="781.6" r="11"/><circle cx="1435.53" cy="764.1" r="11.5"/><path class="cls-5" d="M1462.3,763.6a25.24,25.24,0,0,1,1.39-2.31c3.12-4.54,7.16-7,11.39-7s8.27,2.5,11.39,7a25.24,25.24,0,0,1,1.39,2.31H1490c-3.35-6.74-8.8-11.13-15-11.13s-11.59,4.39-14.95,11.13Z"/><path class="cls-6" d="M1442.05,777.5c0,.09,0,.17,0,.26,0,9.79,7.17,17.73,16,17.73s16-7.94,16-17.73v-.26Z"/><path class="cls-7" d="M1434.38,766.38c6.43,0,6.44-10,0-10s-6.45,10,0,10Z"/><path class="cls-2" d="M1799.9,933.7c10.2-2.48,17.66-10.35,17.66-19.69,0-11.32-11-20.5-24.5-20.5a28.2,28.2,0,0,0-12.52,2.88c-7.38-7.21-19.18-11.88-32.48-11.88a52.82,52.82,0,0,0-18.86,3.4c-8.53-9.39-21.54-15.4-36.14-15.4-23.66,0-43.18,15.78-46.11,36.19-25.15,2.19-51.83,23.92-43.39,47.31,11,30.5,21.27,47.5,47.5,47.5A47.32,47.32,0,0,0,1684,990.27a31.41,31.41,0,0,0,24.11,11.24c16.19,0,54.62-4.85,59.89-19.53a10.68,10.68,0,0,0,3.11.53c8.56,0,23.56-2,35.5-15C1817.69,955.38,1810.67,943,1799.9,933.7Z"/><circle class="cls-3" cx="1740.06" cy="931.01" r="13.5"/><circle class="cls-3" cx="1675.06" cy="931.01" r="13.5"/><circle cx="1726.06" cy="920.01" r="11.5"/><circle cx="1689.06" cy="920.01" r="11.5"/><path d="M1691.57,936c0,.09,0,.18,0,.26,0,9.8,7.16,17.74,16,17.74s16-7.94,16-17.74a2.35,2.35,0,0,0,0-.26Z"/><path class="cls-7" d="M1685.18,920.75c6.43,0,6.44-10,0-10s-6.45,10,0,10Z"/><path class="cls-7" d="M1723,921.77c6.44,0,6.45-10,0-10s-6.44,10,0,10Z"/><path class="cls-2" d="M1847.37,684a18.25,18.25,0,0,0-4.65-3.38,37.85,37.85,0,0,0,6.29-12.5c5.85-20.44-20.26-29.94-45.26-29.94a66.1,66.1,0,0,0-16.3,2c-3.32-10.87-12.75-19.33-36-18.58-10.62.34-16.42,15-19,30.17a31,31,0,0,0-15.61-4.1c-15.32,0-27.74,10.62-27.74,23.73a21.8,21.8,0,0,0,6.93,15.68,20.15,20.15,0,0,0-4,6.56c-4.91,13.14,4.87,28.93,21.84,35.27,12.56,4.69,25.53,2.89,33.42-3.69,3.91,6.33,13.37,10.42,36,12.25,17.29,1.4,32.6-7.57,37.25-18.87,7.81,4.08,18.2,2.4,25.36-4.75C1854.56,705.18,1855.21,691.81,1847.37,684Z"/><circle class="cls-3" cx="1797.13" cy="678.89" r="9.86"/><circle class="cls-3" cx="1746.75" cy="678.89" r="9.86"/><circle cx="1789.1" cy="670.13" r="8.4"/><circle cx="1756.97" cy="670.13" r="8.4"/><path class="cls-7" d="M1754.5,672.2c6.43,0,6.44-10,0-10s-6.45,10,0,10Z"/><path class="cls-7" d="M1785.81,672.2c6.44,0,6.45-10,0-10s-6.44,10,0,10Z"/><path class="cls-6" d="M1760.27,681.08c0,.07,0,.13,0,.19,0,7.15,5.23,13,11.69,13s11.68-5.8,11.68-13a1.28,1.28,0,0,0,0-.19Z"/><path class="cls-2" d="M215.84,702.67c10.2-2.48,17.65-10.35,17.65-19.68,0-11.32-11-20.5-24.5-20.5a28,28,0,0,0-12.51,2.88c-7.39-7.21-19.19-11.88-32.49-11.88a52.86,52.86,0,0,0-18.86,3.39c-8.52-9.38-21.54-15.39-36.14-15.39-23.66,0-43.18,15.78-46.1,36.18-25.15,2.19-51.83,23.92-43.4,47.32,11,30.5,21.27,47.5,47.5,47.5a47.37,47.37,0,0,0,32.89-13.24A31.42,31.42,0,0,0,124,770.49c16.19,0,54.62-4.85,59.89-19.54a10.39,10.39,0,0,0,3.11.54c8.56,0,23.56-2,35.5-15C233.62,724.35,226.6,712,215.84,702.67Zm-51.56,9.81c-.1.46-.19.93-.28,1.39-1.16-.54-2.35-1-3.55-1.5,1.17.07,2.35.12,3.54.12Z"/><circle class="cls-3" cx="155.99" cy="706.99" r="13.5"/><circle class="cls-3" cx="92.99" cy="706.99" r="13.5"/><circle cx="141.99" cy="688.99" r="11.5"/><circle cx="104.99" cy="688.99" r="11.5"/><path class="cls-5" d="M133.64,707q-.46.85-1,1.65c-2.23,3.25-5.13,5-8.15,5s-5.91-1.78-8.14-5c-.36-.53-.69-1.08-1-1.65h-1.55c2.4,4.82,6.29,8,10.69,8s8.3-3.14,10.7-8Z"/><path class="cls-7" d="M110.26,690.3c6.43,0,6.44-10,0-10s-6.45,10,0,10Z"/><path class="cls-7" d="M147,689.28c6.43,0,6.44-10,0-10s-6.45,10,0,10Z"/><path class="cls-2" d="M440.28,840.78a17.9,17.9,0,0,0,3.32-10.29c0-11.32-11-20.5-24.5-20.5a28,28,0,0,0-12.52,2.88C399.19,805.66,387.39,801,374.1,801a52.77,52.77,0,0,0-18.86,3.39C346.71,795,333.69,789,319.1,789c-23.67,0-43.19,15.78-46.11,36.18-25.15,2.19-51.83,23.92-43.39,47.32,11,30.5,21.26,47.5,47.5,47.5a47.34,47.34,0,0,0,32.32-12.71c7.77,13.4,20.86,25.71,32.18,25.71,16.24,0,48.33-18,52.53-34.5a10.21,10.21,0,0,0,3,.5c8.56,0,74.17,28.37,85.5-25C486.39,856.1,463.45,846.14,440.28,840.78Z"/><circle class="cls-3" cx="388.1" cy="852.49" r="13.5"/><circle class="cls-3" cx="322.1" cy="849.49" r="13.5"/><circle cx="334.1" cy="834.49" r="11.5"/><circle cx="375.1" cy="834.49" r="11.5"/><path class="cls-6" d="M339.6,852.49v.26c0,9.79,7.16,17.73,16,17.73s16-7.94,16-17.73c0-.09,0-.17,0-.26Z"/><path class="cls-7" d="M336.68,835.71c6.44,0,6.45-10,0-10s-6.44,10,0,10Z"/><path class="cls-7" d="M379.57,835.71c6.44,0,6.45-10,0-10s-6.44,10,0,10Z"/><path class="cls-2" d="M460.28,473.78a17.9,17.9,0,0,0,3.32-10.29c0-11.32-11-20.5-24.5-20.5a28,28,0,0,0-12.52,2.88C419.19,438.66,407.39,434,394.1,434a52.77,52.77,0,0,0-18.86,3.39C366.71,428,353.69,422,339.1,422c-23.67,0-43.19,15.78-46.11,36.18-25.15,2.19-51.83,23.92-43.39,47.32,11,30.5,21.26,47.5,47.5,47.5a47.34,47.34,0,0,0,32.32-12.71c7.77,13.4,20.86,25.71,32.18,25.71,16.24,0,48.33-18,52.53-34.5a10.21,10.21,0,0,0,3,.5c8.56,0,74.17,28.37,85.5-25C506.39,489.1,483.45,479.14,460.28,473.78Z"/><circle class="cls-3" cx="408.1" cy="480.49" r="13.5"/><circle class="cls-3" cx="340.1" cy="480.49" r="13.5"/><circle cx="354.1" cy="467.49" r="11.5"/><circle cx="397.1" cy="467.49" r="11.5"/><path class="cls-5" d="M384.68,481.49c-.31.57-.64,1.12-1,1.65-2.23,3.25-5.12,5-8.14,5s-5.92-1.78-8.15-5q-.52-.79-1-1.65h-1.56c2.4,4.82,6.3,8,10.7,8s8.29-3.14,10.69-8Z"/><path class="cls-7" d="M401.06,469.48c6.44,0,6.45-10,0-10s-6.44,10,0,10Z"/><path class="cls-7" d="M359.19,468.46c6.44,0,6.45-10,0-10s-6.44,10,0,10Z"/></g><g id="arkade"><rect class="cls-8" x="511.67" y="770.5" width="809.33" height="290.14"/><rect class="cls-9" x="511.67" y="131.39" width="809.33" height="635.23"/><circle class="cls-10" cx="638.13" cy="634.92" r="79.4"/><circle class="cls-10" cx="1188.96" cy="228.26" r="79.4"/><circle class="cls-10" cx="916.04" cy="228.26" r="79.4"/><circle class="cls-10" cx="920.75" cy="429.41" r="79.4"/><circle class="cls-10" cx="643.13" cy="431.77" r="79.4"/><circle class="cls-10" cx="916.04" cy="630.57" r="79.4"/><circle class="cls-10" cx="643.13" cy="231.79" r="79.4"/><circle class="cls-10" cx="1183.96" cy="423.77" r="79.4"/><circle class="cls-10" cx="1183.96" cy="630.28" r="79.4"/><path class="cls-11" d="M816,990.08a22.8,22.8,0,0,0-5.83-4.22,47.6,47.6,0,0,0,7.88-15.65c7.31-25.58-25.36-37.46-56.64-37.46-13.37,0-25.64,3.07-35.33,8.19a31.44,31.44,0,0,0-20.86-8.19c-12.41,0-23.32,7.7-29.58,19.3a38.1,38.1,0,0,0-22.95-7.42c-19.17,0-34.71,13.29-34.71,29.69a27.27,27.27,0,0,0,8.67,19.62,25.24,25.24,0,0,0-5,8.21c-6.15,16.44,6.09,36.2,27.33,44.14,16.94,6.33,34.48,3.21,44-6.65,8.1,10.32,24.25,17.36,42.87,17.36,22.18,0,40.86-10,46.59-23.62,9.78,5.11,22.79,3,31.75-5.94C825,1016.62,825.84,999.89,816,990.08Z"/><circle class="cls-12" cx="750.04" cy="989.88" r="12.33"/><path class="cls-13" d="M692.17,978.72a17.3,17.3,0,0,1,1-1.71c2.32-3.38,5.33-5.24,8.47-5.24s6.16,1.86,8.48,5.24c.37.54.71,1.12,1,1.71h1.61c-2.5-5-6.55-8.28-11.13-8.28s-8.63,3.27-11.13,8.28Z"/><path class="cls-13" d="M722,978.72a15.14,15.14,0,0,1,1-1.48,10.17,10.17,0,0,1,17,0c.37.47.71,1,1,1.48h1.61c-2.5-4.35-6.55-7.18-11.13-7.18s-8.63,2.83-11.13,7.18Z"/><path class="cls-4" d="M726.28,989.28c-.32.58-.66,1.15-1,1.68-2.28,3.32-5.23,5.15-8.32,5.15s-6-1.83-8.32-5.15c-.36-.53-.7-1.1-1-1.68H706c2.45,4.92,6.43,8.13,10.92,8.13s8.47-3.21,10.92-8.13Z"/><circle class="cls-12" cx="683.33" cy="989.05" r="12.33"/><path class="cls-14" d="M862.62,870.58c-.52-7.72-15-13-32.39-11.85-9.41.64-17.71,3-23.28,6.34,7.17-6.7,12.14-15.4,12.84-25.5,1.52-22.14-27.5-40.17-49.67-40.17s-47.19,18-47.19,40.17c0,11,6.15,21,15.05,28.22-6.93.1-17.05,5.48-26.05,14.48-12.31,12.31-17.85,26.72-12.38,32.19,4.34,4.34,14.31,1.74,24.39-5.66A47.76,47.76,0,0,0,741.37,940a36.4,36.4,0,0,0-.68,7.07c0,12,5.59,21.75,12.48,21.75,6.27,0,11.46-8.08,12.34-18.59a47.61,47.61,0,0,0,5.88.36c.87,0,1.73,0,2.59-.07.95,10.37,6.1,18.3,12.32,18.3,6.89,0,12.47-9.74,12.47-21.75a36.77,36.77,0,0,0-.32-4.87,47.9,47.9,0,0,0,17.71-56.32,64,64,0,0,0,16,.83C849.48,885.51,863.14,878.3,862.62,870.58Z"/><circle class="cls-12" cx="788.81" cy="836.46" r="5.38"/><circle class="cls-12" cx="756.51" cy="836.46" r="5.38"/><circle class="cls-15" cx="783.43" cy="831.08" r="5.59"/><circle class="cls-15" cx="760.23" cy="831.08" r="5.59"/><path class="cls-7" d="M770.73,791.19c0,1.51.26,5.44.26,6.94"/><path class="cls-16" d="M770.35,791.19c0,2.32.26,4.62.26,6.94a.38.38,0,0,0,.75,0c0-2.32-.25-4.62-.26-6.94a.38.38,0,0,0-.75,0Z"/><path class="cls-16" d="M750,906.66c4-7.94,13.5-12,22-12.68A20.84,20.84,0,0,1,785,897a17.07,17.07,0,0,1,7.16,9.72.37.37,0,0,0,.72-.2,18.4,18.4,0,0,0-13.75-12.8c-7.29-1.67-15.6.33-21.91,4.2a20.8,20.8,0,0,0-7.92,8.35c-.22.43.43.81.65.38Z"/><path class="cls-7" d="M777.42,938.55c1.13-1.81,3.5-2.87,5.89-3.42a14.71,14.71,0,0,1,7-.07c2.27.61,4.32,2.05,5,3.94"/><path class="cls-16" d="M777.75,938.74c1.76-2.69,5.72-3.55,8.72-3.68s7.18.82,8.47,4c.18.44.9.25.72-.2-1.37-3.44-5.46-4.67-8.87-4.6s-7.71,1.05-9.69,4.06c-.27.41.38.78.65.38Z"/><path class="cls-7" d="M724.54,907.93a38.93,38.93,0,0,1,.72-8.06"/><path class="cls-16" d="M724.92,907.93a39.35,39.35,0,0,1,.7-8c.09-.47-.63-.68-.72-.2a39.9,39.9,0,0,0-.73,8.16.38.38,0,0,0,.75,0Z"/><path class="cls-7" d="M814.24,884.63l-3-1.68"/><path class="cls-16" d="M814.43,884.3l-3-1.68a.37.37,0,0,0-.37.65l3,1.68a.38.38,0,0,0,.38-.65Z"/><path class="cls-7" d="M738.47,868.26l3.38,1.69"/><path class="cls-16" d="M738.28,868.58l3.38,1.7a.39.39,0,0,0,.51-.14.37.37,0,0,0-.13-.51l-3.38-1.7a.38.38,0,1,0-.38.65Z"/><path class="cls-15" d="M778.2,837.64a11.89,11.89,0,0,1-.65,1.08c-1.45,2.12-3.34,3.29-5.32,3.29s-3.87-1.17-5.32-3.29a11.89,11.89,0,0,1-.65-1.08h-1c1.57,3.15,4.12,5.2,7,5.2s5.42-2.05,7-5.2Z"/><ellipse class="cls-17" cx="775.13" cy="787.34" rx="5.5" ry="3.85" transform="translate(-318.69 631.48) rotate(-37.34)"/><ellipse class="cls-17" cx="765.22" cy="787.34" rx="3.85" ry="5.5" transform="translate(-318.18 965.43) rotate(-55.15)"/><path class="cls-16" d="M782.69,834.65a4.5,4.5,0,1,0-4.5-4.5,4.55,4.55,0,0,0,4.5,4.5Z"/><path class="cls-16" d="M760.77,834.65a4.5,4.5,0,1,0-4.5-4.5,4.55,4.55,0,0,0,4.5,4.5Z"/><path class="cls-18" d="M941.86,834.13q2.13,6.24,4.27,12.46c1.08,3.14,2.15,6.27,3.24,9.39q-.51-4.66-1-9.33l-1.32-12.44,6.17,1.07,4.11.69c0,.42-.08.82-.12,1.22l-1.14.06-.76,0c-.3,4.18-.61,8.36-.9,12.54L953.53,862l-6,.7-.39-.44a1.71,1.71,0,0,1-.21-.26l.7-.36c.24-.12.48-.24.71-.37q-2.19-3.94-4.35-7.92l-5.81-10.56,1.05,6.46q1,6,2,12l.33,0,.21,0,.43,0,.21,0,.43.06h.09l.16,0h0l0,0q0,.35-.06.72L943,863l-6.6-.54L931.6,862q.28-7.17.53-14.35c.14-3.63.27-7.25.4-10.88l-.48.1-1.08.18c-.12-.26-.24-.51-.35-.76l-.35-.77ZM933,842.3a9.56,9.56,0,0,0,1.53,2.19c.56-.21,1.1-.43,1.6-.66a3.86,3.86,0,0,0,1.2-.8,1.71,1.71,0,0,0,.49-1v-.14a1.28,1.28,0,0,0-.22-.75,1.34,1.34,0,0,0-.71-.47,1.24,1.24,0,0,0-.37-.06,1.32,1.32,0,0,0-.47.1,1.47,1.47,0,0,0-.65.55,8.87,8.87,0,0,0-.51.86,4.45,4.45,0,0,0-.19-.7,1.11,1.11,0,0,0-.35-.51.8.8,0,0,0-.54-.2,1,1,0,0,0-.58.18.84.84,0,0,0-.35.73A2,2,0,0,0,933,842.3Zm.6,6.52a7.38,7.38,0,0,0,1.18,1.66,6.83,6.83,0,0,0,2.15-1.1,1.37,1.37,0,0,0,.34-.75v-.14a1,1,0,0,0-.15-.54,1,1,0,0,0-.54-.37,1.29,1.29,0,0,0-.25,0,1.09,1.09,0,0,0-.39.08,1.26,1.26,0,0,0-.49.43c-.14.2-.27.42-.4.65a4.26,4.26,0,0,0-.15-.54.77.77,0,0,0-.26-.39.7.7,0,0,0-.41-.14.73.73,0,0,0-.44.12.68.68,0,0,0-.27.59A1.84,1.84,0,0,0,933.6,848.82Zm.52,4.82a5.38,5.38,0,0,0,.87,1.22,4.24,4.24,0,0,0,1.55-.82.8.8,0,0,0,.27-.54v-.12a.56.56,0,0,0-.12-.36.68.68,0,0,0-.38-.27.86.86,0,0,0-.22,0,.84.84,0,0,0-.27,0,.88.88,0,0,0-.36.31c-.09.15-.19.31-.28.48a2.6,2.6,0,0,0-.1-.4.67.67,0,0,0-.21-.28.44.44,0,0,0-.31-.11.43.43,0,0,0-.3.11.47.47,0,0,0-.2.41A1.22,1.22,0,0,0,934.12,853.64Zm.33,5.16a3.41,3.41,0,0,0,.66,1,3.47,3.47,0,0,0,1.22-.62,1,1,0,0,0,.21-.42v-.06a.56.56,0,0,0-.1-.33.54.54,0,0,0-.31-.2.63.63,0,0,0-.19,0l-.18,0a.83.83,0,0,0-.27.26l-.23.36a1.71,1.71,0,0,0-.09-.3.49.49,0,0,0-.14-.22.38.38,0,0,0-.23-.08.44.44,0,0,0-.25.08.36.36,0,0,0-.16.31A.74.74,0,0,0,934.45,858.8Z"/><path class="cls-18" d="M968.46,834a10.28,10.28,0,0,1,6.09,1.95,13.76,13.76,0,0,1,4.36,5.2,17,17,0,0,1,0,14.48,13.72,13.72,0,0,1-4.36,5.21,10.44,10.44,0,0,1-12.15,0,13.76,13.76,0,0,1-4.38-5.21,16.89,16.89,0,0,1,0-14.48,13.81,13.81,0,0,1,4.38-5.2A10.19,10.19,0,0,1,968.46,834ZM959.21,848a6.44,6.44,0,0,0,1,1.44,5.19,5.19,0,0,0,1.84-1,1,1,0,0,0,.31-.64v-.12a.77.77,0,0,0-.6-.77,1.29,1.29,0,0,0-.25,0,.65.65,0,0,0-.29.06,1.06,1.06,0,0,0-.44.38,3.9,3.9,0,0,0-.34.57c0-.17-.08-.32-.13-.47a1.05,1.05,0,0,0-.22-.34.57.57,0,0,0-.37-.12.64.64,0,0,0-.38.12.52.52,0,0,0-.23.48A1.32,1.32,0,0,0,959.21,848Zm.56-5.14a9.93,9.93,0,0,0,2.27,1.41q.68-.62,1.23-1.23a4.44,4.44,0,0,0,.8-1.21,1.84,1.84,0,0,0,.12-.63,2.21,2.21,0,0,0-.11-.58,1.1,1.1,0,0,0-.49-.59,1.32,1.32,0,0,0-.66-.19l-.35,0a1.11,1.11,0,0,0-.58.35,1.61,1.61,0,0,0-.39.77,7.41,7.41,0,0,0-.13,1,4.7,4.7,0,0,0-.46-.58,1.27,1.27,0,0,0-.51-.35l-.21,0a1.06,1.06,0,0,0-.42.1.89.89,0,0,0-.42.36.92.92,0,0,0-.11.43A1.58,1.58,0,0,0,959.77,842.9Zm.41,11.28a5.8,5.8,0,0,0,1.28.79,4.55,4.55,0,0,0,1.12-1.35,1,1,0,0,0,.08-.37,1.19,1.19,0,0,0-.07-.31.68.68,0,0,0-.28-.33.78.78,0,0,0-.35-.1l-.21,0a.64.64,0,0,0-.33.18,1,1,0,0,0-.21.43,3.31,3.31,0,0,0-.08.55,2.6,2.6,0,0,0-.25-.31.64.64,0,0,0-.29-.19l-.14,0a.68.68,0,0,0-.22.05.46.46,0,0,0-.22.2.53.53,0,0,0-.06.24A.9.9,0,0,0,960.18,854.18Zm4.37,3.17a4.48,4.48,0,0,0,1,.62,3.63,3.63,0,0,0,.87-1.06.66.66,0,0,0,.06-.27,1.05,1.05,0,0,0-.05-.26.48.48,0,0,0-.22-.25.6.6,0,0,0-.29-.08h-.15a.47.47,0,0,0-.26.15.63.63,0,0,0-.15.34,2.79,2.79,0,0,0-.06.43,2.52,2.52,0,0,0-.21-.25.51.51,0,0,0-.22-.15.13.13,0,0,0-.09,0,.36.36,0,0,0-.19.05.31.31,0,0,0-.16.16.38.38,0,0,0-.06.19A.59.59,0,0,0,964.55,857.35Zm3.52-14.47a3.51,3.51,0,0,0-1.94,1,3.61,3.61,0,0,0-.8,2.28v.29a11.39,11.39,0,0,0,.54,3.23A12.38,12.38,0,0,0,967.4,853c1.14,1.65,2.38,2.47,3.69,2.47a3.88,3.88,0,0,0,.82-.09,4.18,4.18,0,0,0,2.08-1.6,6.89,6.89,0,0,0,1.17-2.95,9.66,9.66,0,0,0,.07-1.2,10.6,10.6,0,0,0-.38-2.6,6.25,6.25,0,0,0-1.49-2.64,5.35,5.35,0,0,0-2.58-1.47,6.86,6.86,0,0,0-1.53-.18A5.69,5.69,0,0,0,968.07,842.88Z"/><path class="cls-18" d="M996.15,833.67c.19,1.48.39,3,.58,4.43q.39,3,.75,5.9c.35-1.33.69-2.66,1-4q.63-2.52,1.28-5l6.07.17,6.11.19c0,.47.06.94.08,1.42-.37.15-.75.31-1.12.48l-1.1.48q.51,6.24,1,12.48t1.07,12.48c-2.38-.4-4.76-.8-7.14-1.22l-6.43-1.08c0-.35,0-.7-.06-1v-.08l.91,0,.91,0c.38-2.9.75-5.81,1.13-8.73l1.14-8.72q-2.32,5.19-4.67,10.35l-1.43,3.21q-1.42-3.6-2.88-7.2l-2.86-7.19q.42,3.69.85,7.37L992.88,861c.57.09,1.13.18,1.7.29s.85.15,1.28.21a1.61,1.61,0,0,0,.06.33l.15,1.16-7.84-.87-5.53-.62q.6-6.81,1.18-13.62c.31-3.46.61-6.91.91-10.37l-1.26-.08-1.27-.08c-.08-.16-.15-.33-.22-.5-.15-.35-.3-.69-.44-1,2.14-.33,4.28-.64,6.42-1ZM985.43,842a9.94,9.94,0,0,0,1.45,2.25q.86-.3,1.62-.6a4.16,4.16,0,0,0,1.22-.74,1.78,1.78,0,0,0,.53-1,1.64,1.64,0,0,0,0-.23,1.19,1.19,0,0,0-.2-.66,1.25,1.25,0,0,0-.67-.5,1.56,1.56,0,0,0-.41-.06,1.38,1.38,0,0,0-.45.08,1.6,1.6,0,0,0-.67.53,5.81,5.81,0,0,0-.54.82,5,5,0,0,0-.17-.69,1.32,1.32,0,0,0-.32-.54.93.93,0,0,0-.54-.22h-.06a.93.93,0,0,0-.52.16.87.87,0,0,0-.39.79A1.91,1.91,0,0,0,985.43,842Zm.33,6.52a7.16,7.16,0,0,0,1.1,1.72,6.39,6.39,0,0,0,2.19-1,1.27,1.27,0,0,0,.4-.74v-.13a1.09,1.09,0,0,0-.13-.55,1.1,1.1,0,0,0-.52-.38,1,1,0,0,0-.33-.06.81.81,0,0,0-.31.06,1.41,1.41,0,0,0-.53.41q-.21.29-.42.63a4.54,4.54,0,0,0-.12-.53.89.89,0,0,0-.25-.42.78.78,0,0,0-.4-.15h-.06a.68.68,0,0,0-.68.73A1.71,1.71,0,0,0,985.76,848.47Zm.33,4.84a5,5,0,0,0,.81,1.26,4.91,4.91,0,0,0,1.59-.74,1,1,0,0,0,.29-.54v-.12a.8.8,0,0,0-.1-.38.76.76,0,0,0-.39-.28.85.85,0,0,0-.23,0,.91.91,0,0,0-.23,0,1,1,0,0,0-.38.29,3.76,3.76,0,0,0-.3.47c0-.13-.06-.26-.1-.39a.52.52,0,0,0-.17-.29.44.44,0,0,0-.31-.11h-.06a.54.54,0,0,0-.27.07.48.48,0,0,0-.21.43A1.05,1.05,0,0,0,986.09,853.31Zm.09,5.18a4.54,4.54,0,0,0,.64,1,3.68,3.68,0,0,0,1.24-.58.65.65,0,0,0,.21-.43.18.18,0,0,0,0-.09.5.5,0,0,0-.09-.29.53.53,0,0,0-.29-.22.71.71,0,0,0-.2,0,.59.59,0,0,0-.17,0,.83.83,0,0,0-.28.25,2.16,2.16,0,0,0-.24.35c0-.11-.06-.22-.08-.32a.42.42,0,0,0-.14-.22.43.43,0,0,0-.23-.09.45.45,0,0,0-.25.07.36.36,0,0,0-.17.35A1,1,0,0,0,986.18,858.49Z"/><path class="cls-18" d="M1005.41,907.21q2.12,6.22,4.27,12.46,1.61,4.7,3.23,9.38-.49-4.66-1-9.32-.66-6.24-1.32-12.44c2,.34,4.11.7,6.17,1.06l4.1.7c0,.41-.07.82-.11,1.21l-1.14.06-.76,0q-.47,6.27-.91,12.54l-.89,12.23-6,.69c-.12-.15-.25-.3-.38-.44a1.64,1.64,0,0,1-.21-.25l.69-.37c.25-.12.49-.24.72-.37q-2.19-3.95-4.36-7.91l-5.8-10.57,1,6.47,2,12,.33,0,.21,0,.43,0,.21,0,.42.05h.1a.41.41,0,0,0,.16,0h0s0,0,0,0c0,.24,0,.47,0,.72l-.08.7-6.6-.55-4.76-.38q.27-7.18.52-14.36c.15-3.62.28-7.25.41-10.87-.17,0-.33.06-.48.09-.36.06-.73.11-1.09.18-.11-.26-.23-.51-.34-.76l-.35-.77Q999.59,907.9,1005.41,907.21Zm-8.87,8.16a9.56,9.56,0,0,0,1.53,2.19c.57-.21,1.11-.43,1.61-.66a4.31,4.31,0,0,0,1.2-.79,1.75,1.75,0,0,0,.48-1V915a1.32,1.32,0,0,0-.21-.75,1.26,1.26,0,0,0-.72-.46,1.23,1.23,0,0,0-.36-.06,1.31,1.31,0,0,0-.47.09,1.47,1.47,0,0,0-.66.56,7.78,7.78,0,0,0-.5.86,5.58,5.58,0,0,0-.19-.71,1.26,1.26,0,0,0-.35-.51.84.84,0,0,0-.54-.2,1,1,0,0,0-.58.18.83.83,0,0,0-.35.73A2.21,2.21,0,0,0,996.54,915.37Zm.6,6.52a7.75,7.75,0,0,0,1.18,1.67,6.62,6.62,0,0,0,2.15-1.11,1.36,1.36,0,0,0,.35-.75v-.14a1,1,0,0,0-.15-.54,1,1,0,0,0-.55-.37l-.25,0a1,1,0,0,0-.38.07,1.23,1.23,0,0,0-.5.44,6.57,6.57,0,0,0-.39.65,4,4,0,0,0-.15-.55.89.89,0,0,0-.26-.38.76.76,0,0,0-.42-.15.73.73,0,0,0-.43.13.67.67,0,0,0-.27.58A1.79,1.79,0,0,0,997.14,921.89Zm.53,4.82a5.38,5.38,0,0,0,.87,1.22,4.34,4.34,0,0,0,1.54-.81.89.89,0,0,0,.28-.55v-.11a.59.59,0,0,0-.12-.37.67.67,0,0,0-.39-.27l-.21,0a.66.66,0,0,0-.63.36,5.3,5.3,0,0,0-.28.47,1.6,1.6,0,0,0-.11-.39.5.5,0,0,0-.2-.28.45.45,0,0,0-.31-.12.47.47,0,0,0-.31.12.45.45,0,0,0-.19.4A1.22,1.22,0,0,0,997.67,926.71Zm.33,5.17a1,1,0,0,0,1.87.32.83.83,0,0,0,.21-.42v-.06a.66.66,0,0,0-.09-.33.48.48,0,0,0-.31-.19.46.46,0,0,0-.19,0,.42.42,0,0,0-.18,0,.7.7,0,0,0-.27.25l-.23.37-.09-.3a.53.53,0,0,0-.14-.23.4.4,0,0,0-.24-.07.45.45,0,0,0-.25.07.39.39,0,0,0-.15.31A.83.83,0,0,0,998,931.88Z"/><path class="cls-18" d="M1032,907a10.23,10.23,0,0,1,6.08,2,13.78,13.78,0,0,1,4.37,5.2,17,17,0,0,1,0,14.48,13.85,13.85,0,0,1-4.37,5.22,10.48,10.48,0,0,1-12.15,0,13.94,13.94,0,0,1-4.37-5.22,16.8,16.8,0,0,1,0-14.48,13.87,13.87,0,0,1,4.37-5.2A10.24,10.24,0,0,1,1032,907Zm-9.25,14.09a6.64,6.64,0,0,0,1,1.43,5.23,5.23,0,0,0,1.83-1,.91.91,0,0,0,.31-.64v-.11a.88.88,0,0,0-.13-.47.91.91,0,0,0-.47-.31l-.25,0a.93.93,0,0,0-.29.05,1.11,1.11,0,0,0-.43.38,3.58,3.58,0,0,0-.34.57,4.21,4.21,0,0,0-.14-.46.93.93,0,0,0-.21-.35.59.59,0,0,0-.37-.12.69.69,0,0,0-.39.12.54.54,0,0,0-.23.48A1.46,1.46,0,0,0,1022.76,921.12Zm.56-5.15a9.84,9.84,0,0,0,2.26,1.41,15.79,15.79,0,0,0,1.23-1.22,4.41,4.41,0,0,0,.81-1.21,2.15,2.15,0,0,0,.11-.64,1.86,1.86,0,0,0-.11-.57,1,1,0,0,0-.49-.59,1.19,1.19,0,0,0-.66-.2l-.34,0a1.13,1.13,0,0,0-.59.35,1.59,1.59,0,0,0-.38.78,7,7,0,0,0-.14,1,3.87,3.87,0,0,0-.45-.58,1.37,1.37,0,0,0-.51-.35l-.22,0a1.27,1.27,0,0,0-.41.1,1,1,0,0,0-.42.37.79.79,0,0,0-.12.42A1.6,1.6,0,0,0,1023.32,916Zm.41,11.28a5.37,5.37,0,0,0,1.27.79,4.6,4.6,0,0,0,1.13-1.35,1,1,0,0,0,.07-.37,1.17,1.17,0,0,0-.06-.31.69.69,0,0,0-.29-.33.72.72,0,0,0-.34-.09l-.22,0a.65.65,0,0,0-.33.17,1,1,0,0,0-.21.44,4.27,4.27,0,0,0-.08.55,2,2,0,0,0-.25-.32.59.59,0,0,0-.29-.19H1024a.6.6,0,0,0-.22,0,.51.51,0,0,0-.23.21.46.46,0,0,0-.06.23A.86.86,0,0,0,1023.73,927.25Zm4.37,3.17a4,4,0,0,0,1,.62A3.51,3.51,0,0,0,1030,930a.65.65,0,0,0,0-.27.85.85,0,0,0,0-.25.43.43,0,0,0-.23-.25.49.49,0,0,0-.29-.08h-.14a.38.38,0,0,0-.26.14.77.77,0,0,0-.16.34c0,.14,0,.28-.06.44a1.69,1.69,0,0,0-.2-.25.54.54,0,0,0-.22-.16l-.1,0a.49.49,0,0,0-.18,0,.39.39,0,0,0-.22.36A.59.59,0,0,0,1028.1,930.42Zm3.52-14.47a3.46,3.46,0,0,0-1.94,1.06,3.51,3.51,0,0,0-.81,2.27v.29a11,11,0,0,0,.55,3.23,12.52,12.52,0,0,0,1.52,3.29q1.72,2.48,3.7,2.48a3.21,3.21,0,0,0,.81-.1,4.08,4.08,0,0,0,2.08-1.6,6.6,6.6,0,0,0,1.17-3,9.67,9.67,0,0,0,.08-1.2,10.25,10.25,0,0,0-.39-2.6,6.14,6.14,0,0,0-1.49-2.64,5.32,5.32,0,0,0-2.57-1.47,6.9,6.9,0,0,0-1.53-.17A6.39,6.39,0,0,0,1031.62,916Z"/><path class="cls-18" d="M1059.69,906.74c.2,1.49.39,3,.58,4.43.26,2,.51,3.94.76,5.91.35-1.33.69-2.67,1-4q.65-2.52,1.28-5.05l6.08.17,6.11.2c0,.46,0,.93.08,1.41l-1.13.48-1.1.49q.53,6.22,1.05,12.48t1.06,12.48l-7.14-1.22-6.42-1.09c0-.34,0-.69-.06-1v-.08l.91,0c.3,0,.6,0,.91,0,.37-2.9.75-5.81,1.12-8.72s.77-5.81,1.14-8.73q-2.31,5.19-4.66,10.35l-1.43,3.21-2.88-7.19-2.87-7.2q.44,3.69.85,7.37l1.47,12.75,1.71.29c.42.08.85.15,1.27.21q0,.18.06.33l.16,1.16-7.84-.87-5.53-.62q.6-6.81,1.18-13.62.46-5.18.91-10.37l-1.26-.07-1.28-.08c-.08-.17-.15-.34-.21-.5-.16-.35-.3-.7-.45-1.05l6.43-.95C1054.28,907.56,1057,907.16,1059.69,906.74ZM1049,915a9.61,9.61,0,0,0,1.45,2.25c.56-.19,1.1-.39,1.61-.6a4,4,0,0,0,1.23-.74,1.77,1.77,0,0,0,.52-1,1,1,0,0,0,0-.24,1.13,1.13,0,0,0-.19-.65,1.28,1.28,0,0,0-.68-.51,1.49,1.49,0,0,0-.4-.06,1.33,1.33,0,0,0-.45.08,1.71,1.71,0,0,0-.68.53,8.48,8.48,0,0,0-.54.83,4.79,4.79,0,0,0-.16-.7,1.32,1.32,0,0,0-.32-.54.91.91,0,0,0-.54-.21h-.06a1,1,0,0,0-.52.15.87.87,0,0,0-.39.79A1.91,1.91,0,0,0,1049,915Zm.32,6.52a7.47,7.47,0,0,0,1.11,1.73,6.24,6.24,0,0,0,2.18-1,1.3,1.3,0,0,0,.41-.73v-.14a.91.91,0,0,0-.66-.93.88.88,0,0,0-.33-.06.89.89,0,0,0-.31.06,1.31,1.31,0,0,0-.52.42,7.57,7.57,0,0,0-.43.63,3.45,3.45,0,0,0-.11-.54.89.89,0,0,0-.25-.41.82.82,0,0,0-.41-.16h-.06a.64.64,0,0,0-.38.12.67.67,0,0,0-.29.62A2.18,2.18,0,0,0,1049.3,921.54Zm.33,4.84a5.42,5.42,0,0,0,.82,1.26,4.56,4.56,0,0,0,1.58-.74.88.88,0,0,0,.29-.54v-.11a.8.8,0,0,0-.09-.39.73.73,0,0,0-.39-.27.66.66,0,0,0-.23,0,.67.67,0,0,0-.24,0,.84.84,0,0,0-.37.29,3,3,0,0,0-.3.46c0-.13-.06-.26-.1-.38a.62.62,0,0,0-.17-.29.47.47,0,0,0-.31-.12h-.06a.56.56,0,0,0-.27.08.46.46,0,0,0-.21.42A1,1,0,0,0,1049.63,926.38Zm.1,5.19a4.37,4.37,0,0,0,.64,1,3.68,3.68,0,0,0,1.24-.58.65.65,0,0,0,.21-.42.44.44,0,0,0,0-.1.46.46,0,0,0-.1-.29.49.49,0,0,0-.29-.21.43.43,0,0,0-.19,0,.45.45,0,0,0-.18,0,.88.88,0,0,0-.28.24l-.24.36a2.13,2.13,0,0,0-.08-.32.44.44,0,0,0-.13-.23.38.38,0,0,0-.23-.08.32.32,0,0,0-.25.07.35.35,0,0,0-.18.34A.75.75,0,0,0,1049.73,931.57Z"/><path class="cls-18" d="M1116.16,967.12q2.13,6.24,4.27,12.46,1.6,4.71,3.24,9.39-.51-4.66-1-9.33l-1.32-12.44c2.05.35,4.11.7,6.17,1.07l4.11.69c0,.42-.08.82-.12,1.22l-1.14.06-.76,0q-.46,6.27-.91,12.53l-.88,12.23-6,.7c-.13-.16-.26-.3-.39-.45a1.27,1.27,0,0,1-.21-.25l.69-.36c.25-.12.49-.24.72-.37q-2.19-3.94-4.35-7.92l-5.81-10.56,1,6.46q1,6,2,12l.33,0,.21,0,.43,0,.21,0c.14,0,.29,0,.43.06h.09l.16,0h0l0,0-.06.71-.08.7-6.6-.54-4.76-.39q.27-7.17.53-14.35c.14-3.63.27-7.25.4-10.88l-.48.1-1.08.17c-.12-.25-.24-.5-.35-.75l-.35-.77Zm-8.86,8.17a9.53,9.53,0,0,0,1.53,2.18c.56-.2,1.1-.42,1.6-.65a4.32,4.32,0,0,0,1.2-.8,1.71,1.71,0,0,0,.49-1v-.14a1.19,1.19,0,0,0-.93-1.22,1.29,1.29,0,0,0-.37-.06,1.32,1.32,0,0,0-.47.1,1.47,1.47,0,0,0-.65.55,8.87,8.87,0,0,0-.51.86,4.45,4.45,0,0,0-.19-.7,1.14,1.14,0,0,0-.35-.52.85.85,0,0,0-.54-.19,1,1,0,0,0-.58.18.84.84,0,0,0-.35.73A2,2,0,0,0,1107.3,975.29Zm.6,6.52a7.38,7.38,0,0,0,1.18,1.66,6.87,6.87,0,0,0,2.14-1.1,1.35,1.35,0,0,0,.35-.75v-.14a.89.89,0,0,0-.69-.91.82.82,0,0,0-.26,0,1.08,1.08,0,0,0-.38.08,1.12,1.12,0,0,0-.49.43c-.14.2-.27.42-.4.65a4.26,4.26,0,0,0-.15-.54.79.79,0,0,0-.26-.39.64.64,0,0,0-.41-.14.67.67,0,0,0-.44.12.68.68,0,0,0-.27.59A1.84,1.84,0,0,0,1107.9,981.81Zm.52,4.82a5.14,5.14,0,0,0,.87,1.21,4.24,4.24,0,0,0,1.55-.81.85.85,0,0,0,.27-.54v-.12a.56.56,0,0,0-.12-.36.63.63,0,0,0-.38-.27.86.86,0,0,0-.22,0l-.27,0a1,1,0,0,0-.36.32c-.09.15-.19.31-.28.48a2.34,2.34,0,0,0-.1-.4.67.67,0,0,0-.21-.28.45.45,0,0,0-.31-.12.47.47,0,0,0-.31.12.49.49,0,0,0-.19.41A1.22,1.22,0,0,0,1108.42,986.63Zm.33,5.16a3.56,3.56,0,0,0,.66,1,3.41,3.41,0,0,0,1.21-.62,1,1,0,0,0,.22-.42v-.06a.56.56,0,0,0-.1-.33.54.54,0,0,0-.31-.2.63.63,0,0,0-.19,0l-.18,0a.83.83,0,0,0-.27.26l-.23.36a1.71,1.71,0,0,0-.09-.3.49.49,0,0,0-.14-.22.38.38,0,0,0-.23-.08.5.5,0,0,0-.26.08.37.37,0,0,0-.15.31A.74.74,0,0,0,1108.75,991.79Z"/><path class="cls-18" d="M1142.76,967a10.28,10.28,0,0,1,6.08,1.94,13.89,13.89,0,0,1,4.37,5.21,17,17,0,0,1,0,14.48,13.74,13.74,0,0,1-4.37,5.21,10.42,10.42,0,0,1-12.14,0,13.76,13.76,0,0,1-4.38-5.21,16.89,16.89,0,0,1,0-14.48,13.92,13.92,0,0,1,4.38-5.21A10.25,10.25,0,0,1,1142.76,967ZM1133.51,981a6.44,6.44,0,0,0,1,1.44,5.28,5.28,0,0,0,1.84-1,1,1,0,0,0,.31-.64v-.12a.86.86,0,0,0-.14-.46.81.81,0,0,0-.46-.31.82.82,0,0,0-.26,0,.72.72,0,0,0-.29.06,1.1,1.1,0,0,0-.43.38,3.9,3.9,0,0,0-.34.57,3.23,3.23,0,0,0-.14-.47,1,1,0,0,0-.21-.35.62.62,0,0,0-.37-.11.7.7,0,0,0-.38.11.55.55,0,0,0-.24.49A1.35,1.35,0,0,0,1133.51,981Zm.56-5.14a9.93,9.93,0,0,0,2.27,1.41q.67-.62,1.23-1.23a4.44,4.44,0,0,0,.8-1.21,1.84,1.84,0,0,0,.11-.64,2.13,2.13,0,0,0-.1-.57,1.08,1.08,0,0,0-.5-.59,1.17,1.17,0,0,0-.65-.19l-.35,0a1,1,0,0,0-.58.35,1.53,1.53,0,0,0-.39.77,7.41,7.41,0,0,0-.13,1,4.05,4.05,0,0,0-.46-.58,1.27,1.27,0,0,0-.51-.35l-.21,0a1.06,1.06,0,0,0-.42.1.83.83,0,0,0-.53.79A1.58,1.58,0,0,0,1134.07,975.89Zm.41,11.28a5.58,5.58,0,0,0,1.28.79,4.67,4.67,0,0,0,1.12-1.35,1,1,0,0,0,.08-.37,1.19,1.19,0,0,0-.07-.31.68.68,0,0,0-.28-.33.78.78,0,0,0-.35-.1l-.21,0a.61.61,0,0,0-.33.18.88.88,0,0,0-.22.43,4.86,4.86,0,0,0-.07.55,2.6,2.6,0,0,0-.25-.31.64.64,0,0,0-.29-.19l-.14,0a.68.68,0,0,0-.22.05.42.42,0,0,0-.22.2.53.53,0,0,0-.06.24A.93.93,0,0,0,1134.48,987.17Zm4.37,3.17a4.25,4.25,0,0,0,1,.62,3.63,3.63,0,0,0,.87-1.06.71.71,0,0,0,.06-.28,1.08,1.08,0,0,0,0-.25.48.48,0,0,0-.22-.25.6.6,0,0,0-.29-.08h-.15a.47.47,0,0,0-.26.15.63.63,0,0,0-.15.34,2.79,2.79,0,0,0-.06.43,2.52,2.52,0,0,0-.21-.25.44.44,0,0,0-.22-.15.13.13,0,0,0-.09,0,.36.36,0,0,0-.19.05.31.31,0,0,0-.16.16.38.38,0,0,0-.06.19A.59.59,0,0,0,1138.85,990.34Zm3.52-14.47a3.51,3.51,0,0,0-1.94,1,3.61,3.61,0,0,0-.8,2.28v.29a11.39,11.39,0,0,0,.54,3.23,12.38,12.38,0,0,0,1.53,3.29c1.14,1.65,2.38,2.47,3.69,2.47a3.72,3.72,0,0,0,.81-.09,4.14,4.14,0,0,0,2.08-1.6,6.64,6.64,0,0,0,1.17-2.95,8.06,8.06,0,0,0,.08-1.2,10.19,10.19,0,0,0-.39-2.6,6,6,0,0,0-1.48-2.64,5.35,5.35,0,0,0-2.58-1.47,6.93,6.93,0,0,0-1.53-.18A5.69,5.69,0,0,0,1142.37,975.87Z"/><path class="cls-18" d="M1170.45,966.66c.19,1.48.38,3,.58,4.43q.39,3,.75,5.9c.35-1.33.69-2.66,1-4,.42-1.68.85-3.36,1.27-5l6.08.17,6.11.19c0,.47,0,.94.08,1.42-.37.15-.75.31-1.12.48l-1.11.48,1.05,12.48q.54,6.24,1.06,12.48c-2.37-.4-4.75-.8-7.14-1.22l-6.42-1.08q0-.52-.06-1.05v-.07l.91,0,.91,0q.57-4.35,1.12-8.73t1.15-8.72q-2.33,5.17-4.67,10.35l-1.43,3.21q-1.42-3.6-2.88-7.2l-2.86-7.19q.42,3.69.85,7.37l1.47,12.75c.56.09,1.13.18,1.7.29.42.07.85.15,1.28.21a2.88,2.88,0,0,0,0,.33l.16,1.16-7.84-.87-5.53-.62q.6-6.81,1.18-13.62c.31-3.46.61-6.91.91-10.37l-1.26-.08-1.27-.08c-.08-.16-.15-.33-.22-.5l-.44-1c2.14-.33,4.28-.64,6.42-1Zm-10.72,8.28a9.7,9.7,0,0,0,1.45,2.24c.57-.19,1.11-.39,1.61-.6a4,4,0,0,0,1.23-.73,1.85,1.85,0,0,0,.53-1,1.79,1.79,0,0,0,0-.23,1.19,1.19,0,0,0-.2-.66,1.27,1.27,0,0,0-.68-.5,1.44,1.44,0,0,0-.4-.06,1.38,1.38,0,0,0-.45.08,1.54,1.54,0,0,0-.67.53,6.89,6.89,0,0,0-.55.82,3.85,3.85,0,0,0-.16-.69,1.43,1.43,0,0,0-.32-.55,1,1,0,0,0-.54-.21h-.06a.93.93,0,0,0-.52.16.86.86,0,0,0-.39.79A1.91,1.91,0,0,0,1159.73,974.94Zm.33,6.52a7.16,7.16,0,0,0,1.1,1.72,6.39,6.39,0,0,0,2.19-1,1.36,1.36,0,0,0,.4-.74v-.13a1.09,1.09,0,0,0-.13-.55,1,1,0,0,0-.53-.38.87.87,0,0,0-.32-.06.81.81,0,0,0-.31.06,1.41,1.41,0,0,0-.53.41q-.21.29-.42.63a4.54,4.54,0,0,0-.12-.53.89.89,0,0,0-.25-.42.73.73,0,0,0-.41-.15h0a.67.67,0,0,0-.39.12.68.68,0,0,0-.29.61A1.71,1.71,0,0,0,1160.06,981.46Zm.33,4.84a4.83,4.83,0,0,0,.81,1.25,4.71,4.71,0,0,0,1.59-.73,1,1,0,0,0,.29-.54v-.12a.87.87,0,0,0-.1-.39.81.81,0,0,0-.39-.27.68.68,0,0,0-.46,0,1,1,0,0,0-.38.29,3.76,3.76,0,0,0-.3.47c0-.13-.06-.26-.1-.39a.59.59,0,0,0-.17-.29.45.45,0,0,0-.31-.12h-.06a.56.56,0,0,0-.27.08.47.47,0,0,0-.21.43A1.05,1.05,0,0,0,1160.39,986.3Zm.09,5.18a4.19,4.19,0,0,0,.64,1,3.88,3.88,0,0,0,1.24-.58.65.65,0,0,0,.21-.43.51.51,0,0,0,0-.09.5.5,0,0,0-.09-.29.53.53,0,0,0-.29-.22.71.71,0,0,0-.2,0,.59.59,0,0,0-.17,0,.92.92,0,0,0-.28.24,3.27,3.27,0,0,0-.25.36c0-.11,0-.22-.07-.32a.42.42,0,0,0-.14-.22.43.43,0,0,0-.23-.09.45.45,0,0,0-.25.07.37.37,0,0,0-.18.35A1.24,1.24,0,0,0,1160.48,991.48Z"/></g></svg>