<svg id="Layer_1" data-name="Layer 1" xmlns="http://www.w3.org/2000/svg" width="1192" height="686.57" viewBox="0 0 1192 686.57"><defs><style>.cls-1,.cls-28{fill:#db6e0b;}.cls-1,.cls-10,.cls-11,.cls-12,.cls-14,.cls-15,.cls-20,.cls-21,.cls-24,.cls-25,.cls-28,.cls-29,.cls-3,.cls-7,.cls-8,.cls-9{stroke:#44210b;}.cls-1,.cls-10,.cls-11,.cls-12,.cls-14,.cls-15,.cls-17,.cls-18,.cls-19,.cls-20,.cls-21,.cls-24,.cls-25,.cls-28,.cls-29,.cls-3,.cls-30,.cls-6,.cls-7,.cls-8,.cls-9{stroke-miterlimit:10;}.cls-1,.cls-14,.cls-15,.cls-18,.cls-19,.cls-20,.cls-21,.cls-3{stroke-width:2px;}.cls-2{fill:#44210b;}.cls-12,.cls-19,.cls-3,.cls-30{fill:none;}.cls-4,.cls-9{fill:#d65fbf;}.cls-5{fill:#fff;}.cls-18,.cls-19,.cls-30,.cls-6{stroke:#000;}.cls-10,.cls-11,.cls-12,.cls-24,.cls-25,.cls-6,.cls-7,.cls-8{stroke-width:3px;}.cls-7{fill:#ff152f;}.cls-20,.cls-29,.cls-8{fill:#009245;}.cls-10{fill:#f7931e;}.cls-11{fill:#39b54a;}.cls-13{fill:#006837;}.cls-14{fill:#ed1c24;}.cls-15,.cls-16{fill:#bc8800;}.cls-17{fill:#9b721f;stroke:#826525;}.cls-21{fill:#007114;}.cls-22{fill:#92a53f;}.cls-23{fill:#726014;}.cls-24{fill:#421542;}.cls-25{fill:#bc1b1b;}.cls-26{fill:red;}.cls-27{fill:#ff7bac;}</style></defs><ellipse class="cls-1" cx="316.06" cy="133.22" rx="58.39" ry="59.88"/><path class="cls-2" d="M309.75,73.17c0-2-.31-3.9.26-5.83a23.56,23.56,0,0,1,2.38-4.63,2.64,2.64,0,0,1,3.18-1.52l.48.11H316c.15.32-.18.85,0,1.16a.61.61,0,0,1,0,.19c.37-.23.4-.29.08-.17a4,4,0,0,0-1.2,0,15.5,15.5,0,0,1-2.89,0c-.44-.1-.55-.54-.76-1.07a14.68,14.68,0,0,1-.62-5.55c0-1.7.44-2.68,2.14-3.29,1.88-.67,4-.49,5.92-.48a1.5,1.5,0,0,0,0-3c-3.82,0-9.85-.12-10.87,4.7a18.19,18.19,0,0,0,0,5.89c.23,1.81.82,4.49,2.59,5.44a4.29,4.29,0,0,0,2.15.35c1.24,0,2.51.09,3.75,0,2.07-.2,2.76-1.71,2.82-3.62a3.28,3.28,0,0,0-2.88-3.62l-.39,0a5.4,5.4,0,0,0-4.9,1.52,19.69,19.69,0,0,0-1.71,2.81,12.19,12.19,0,0,0-2.44,6.53c-.09,1.37.09,2.74.1,4.1a1.5,1.5,0,1,0,3,0Z"/><path class="cls-3" d="M315.22,73.47c-6.67,48.4-7,71.6,5.63,119.22"/><path class="cls-3" d="M328,75c9.48,42.17,12,69.83,10.47,112.85"/><path class="cls-3" d="M307,73.32c-11.56,48.84-13.44,65.54-12.87,115.35"/><path class="cls-3" d="M292.57,78.64c-12.85,38.34-17.16,57.06-18.42,97.25"/><path class="cls-3" d="M336.08,76.75c16.94,43.31,29.72,52.36,21.81,98.59"/><path class="cls-3" d="M284.15,83.38c-11.45,27.21-17,46.16-21.46,75.23"/><circle class="cls-4" cx="339.27" cy="131.72" r="8.23"/><circle class="cls-4" cx="283.13" cy="131.72" r="8.23"/><circle cx="292.48" cy="120.12" r="8.61"/><path class="cls-5" d="M290.52,123.14c6.43,0,6.44-10,0-10S284.07,123.14,290.52,123.14Z"/><circle cx="327.67" cy="119.37" r="8.61"/><path class="cls-5" d="M325.7,122.39c6.43,0,6.45-10,0-10S319.25,122.39,325.7,122.39Z"/><path class="cls-6" d="M299.22,129.85v.2c0,7.33,5.37,13.27,12,13.27s12-5.94,12-13.27v-.2Z"/><path class="cls-7" d="M573.91,163.23c-12.62,2.17-14.94,2.56-23.64-7.73C539,142.21,534,132.42,525.41,118.07c-6.27-10.54-13.3-21.74-13.58-34-.38-16.69,12.42-25.36,29.22-26.7,13-1,36-1.62,48.5.6,16.21,2.87,25.73,7.59,25.25,26-.35,13.48-12.06,46.32-18.67,56.39C587.12,154,590.22,160.42,573.91,163.23Z"/><path class="cls-8" d="M585.17,27.56c-2.93-4.35-14.72,5.52-17.65,10.07-1.83,2.83-4.84,7.58-5.7,11.67-1.44-3.91-6.77-7.57-9.26-9.74-3.64-3.14-12.12-10.63-16.38-5.93s3.76,12.66,7,16.72,12.47,10,17.55,4.32A5.88,5.88,0,0,0,561.8,53a4.43,4.43,0,0,0,1.59,2.4c4.83,3.72,15.76-5.5,18.29-9S587.72,31.36,585.17,27.56Z"/><ellipse cx="551.12" cy="80" rx="8.09" ry="8.03"/><path d="M567,80a18.73,18.73,0,0,1,1-1.66c2.26-3.28,5.2-5.08,8.27-5.08s6,1.8,8.28,5.08a18.73,18.73,0,0,1,1,1.66h1.58c-2.44-4.86-6.4-8-10.87-8s-8.43,3.17-10.87,8Z"/><path class="cls-6" d="M550.87,92.54v.19c0,7.38,5.43,13.35,12.14,13.35s12.13-6,12.13-13.35v-.19Z"/><ellipse class="cls-9" cx="534.95" cy="99.06" rx="11.12" ry="11.04"/><ellipse class="cls-9" cx="591.57" cy="99.06" rx="11.12" ry="11.04"/><path class="cls-2" d="M548.76,121.61a1.5,1.5,0,1,0-1.5-1.5A1.5,1.5,0,0,0,548.76,121.61Z"/><path class="cls-2" d="M564.25,136a1.5,1.5,0,1,0-1.5-1.5A1.5,1.5,0,0,0,564.25,136Z"/><path class="cls-2" d="M571.47,119.56a1.5,1.5,0,1,0-1.5-1.5A1.5,1.5,0,0,0,571.47,119.56Z"/><path class="cls-2" d="M581.8,127.75a1.5,1.5,0,1,0-1.5-1.5A1.5,1.5,0,0,0,581.8,127.75Z"/><path class="cls-2" d="M591.09,121.61a1.5,1.5,0,1,0-1.5-1.5A1.5,1.5,0,0,0,591.09,121.61Z"/><path class="cls-2" d="M587,145.17a1.5,1.5,0,1,0-1.5-1.5A1.5,1.5,0,0,0,587,145.17Z"/><path class="cls-2" d="M546.69,134.92a1.5,1.5,0,1,0-1.5-1.5A1.5,1.5,0,0,0,546.69,134.92Z"/><path class="cls-2" d="M565.28,150.29a1.5,1.5,0,1,0-1.5-1.5A1.5,1.5,0,0,0,565.28,150.29Z"/><path class="cls-2" d="M572.51,152.34a1.5,1.5,0,1,0-1.5-1.5A1.5,1.5,0,0,0,572.51,152.34Z"/><path class="cls-2" d="M573.54,139a1.5,1.5,0,1,0-1.5-1.5A1.5,1.5,0,0,0,573.54,139Z"/><path class="cls-2" d="M579.73,67.31a1.5,1.5,0,1,0-1.5-1.5A1.5,1.5,0,0,0,579.73,67.31Z"/><path class="cls-2" d="M593.16,67.31a1.5,1.5,0,1,0-1.5-1.5A1.5,1.5,0,0,0,593.16,67.31Z"/><path class="cls-2" d="M593.16,80.62a1.5,1.5,0,1,0-1.5-1.5A1.5,1.5,0,0,0,593.16,80.62Z"/><path class="cls-2" d="M605.55,78.58a1.5,1.5,0,1,0-1.5-1.5A1.5,1.5,0,0,0,605.55,78.58Z"/><path class="cls-2" d="M605.55,87.8a1.5,1.5,0,1,0-1.5-1.5A1.5,1.5,0,0,0,605.55,87.8Z"/><path class="cls-2" d="M568.38,67.31a1.5,1.5,0,1,0-1.5-1.5A1.5,1.5,0,0,0,568.38,67.31Z"/><path class="cls-2" d="M556,67.31a1.5,1.5,0,1,0-1.5-1.5A1.5,1.5,0,0,0,556,67.31Z"/><path class="cls-2" d="M547.73,65.26a1.5,1.5,0,1,0-1.5-1.5A1.5,1.5,0,0,0,547.73,65.26Z"/><path class="cls-2" d="M528.11,70.38a1.5,1.5,0,1,0-1.5-1.5A1.5,1.5,0,0,0,528.11,70.38Z"/><path class="cls-2" d="M532.24,73.45a1.5,1.5,0,1,0-1.5-1.5A1.5,1.5,0,0,0,532.24,73.45Z"/><path class="cls-2" d="M515.72,83.7a1.5,1.5,0,1,0-1.5-1.5A1.5,1.5,0,0,0,515.72,83.7Z"/><path class="cls-2" d="M530.17,83.7a1.5,1.5,0,1,0-1.5-1.5A1.5,1.5,0,0,0,530.17,83.7Z"/><path class="cls-2" d="M524,77.55a1.5,1.5,0,1,0-1.5-1.5A1.5,1.5,0,0,0,524,77.55Z"/><path class="cls-2" d="M519.85,91.89a1.5,1.5,0,1,0-1.5-1.5A1.5,1.5,0,0,0,519.85,91.89Z"/><path class="cls-2" d="M541.53,69.35a1.5,1.5,0,1,0-1.5-1.5A1.5,1.5,0,0,0,541.53,69.35Z"/><path class="cls-2" d="M537.4,120.58a1.5,1.5,0,1,0-1.5-1.5A1.5,1.5,0,0,0,537.4,120.58Z"/><path class="cls-2" d="M539.47,127.75a1.5,1.5,0,1,0-1.5-1.5A1.5,1.5,0,0,0,539.47,127.75Z"/><path class="cls-2" d="M560.12,114.43a1.5,1.5,0,1,0-1.5-1.5A1.5,1.5,0,0,0,560.12,114.43Z"/><path class="cls-2" d="M560.12,125.7a1.5,1.5,0,1,0-1.5-1.5A1.5,1.5,0,0,0,560.12,125.7Z"/><path class="cls-2" d="M551.86,146.19a1.5,1.5,0,1,0-1.5-1.5A1.5,1.5,0,0,0,551.86,146.19Z"/><path class="cls-2" d="M591.09,131.85a1.5,1.5,0,1,0-1.5-1.5A1.5,1.5,0,0,0,591.09,131.85Z"/><path class="cls-2" d="M582.83,115.46a1.5,1.5,0,1,0-1.5-1.5A1.5,1.5,0,0,0,582.83,115.46Z"/><path class="cls-2" d="M563.21,159.51a1.5,1.5,0,1,0-1.5-1.5A1.5,1.5,0,0,0,563.21,159.51Z"/><path class="cls-2" d="M584.9,151.32a1.5,1.5,0,1,0-1.5-1.5A1.5,1.5,0,0,0,584.9,151.32Z"/><path class="cls-2" d="M601.42,117.51a1.5,1.5,0,1,0-1.5-1.5A1.5,1.5,0,0,0,601.42,117.51Z"/><path class="cls-5" d="M549.79,81.65a1.5,1.5,0,1,0-1.5-1.5A1.5,1.5,0,0,0,549.79,81.65Z"/><path class="cls-5" d="M547.25,83.61c6.44,0,6.45-10,0-10S540.81,83.61,547.25,83.61Z"/><path class="cls-10" d="M890.63,111.07c-1.9,34.53-26.25,55.14-47.27,54S799.77,139.5,801.6,106.2c1.89-34.53,26.58-61.25,47.6-60.1S892.52,76.54,890.63,111.07Z"/><path class="cls-11" d="M861.62,51.36c-4.38-3.29-27.34-1.21-29.25.42-5.1,3.31-6.62,6.2-10.08-2.69C820.45,44.38,820.59,34,823.9,28a16.79,16.79,0,0,1,8.67-7.16c-.25,13.22,8.66,18.83,9,12.44,20.09-33.93,8,4,17.42,2.21,5-.94,13.55-17.93,12.62-3.07C869.91,60.48,872.37,48.33,861.62,51.36Z"/><line class="cls-12" x1="826.22" y1="55.05" x2="890.36" y2="115.83"/><line class="cls-12" x1="840.79" y1="51.11" x2="890.05" y2="96.73"/><line class="cls-12" x1="813.8" y1="70.05" x2="885.28" y2="133.95"/><line class="cls-12" x1="805.47" y1="85.27" x2="875.55" y2="149.78"/><line class="cls-12" x1="801.75" y1="103.47" x2="861.29" y2="161.27"/><line class="cls-12" x1="802.71" y1="123.29" x2="850.19" y2="164.75"/><line class="cls-12" x1="860.6" y1="49.44" x2="802.71" y2="123.29"/><line class="cls-12" x1="873.67" y1="59.7" x2="810.65" y2="140.09"/><line class="cls-12" x1="884.98" y1="77.36" x2="820.74" y2="154.95"/><line class="cls-12" x1="891" y1="104.28" x2="838.64" y2="164.12"/><line class="cls-12" x1="840.79" y1="51.11" x2="802.73" y2="98.07"/><path class="cls-5" d="M852.75,90.38c6.44,0,6.45-10,0-10S846.31,90.38,852.75,90.38Z"/><circle cx="854.44" cy="87.28" r="7.83"/><circle cx="834.58" cy="88.91" r="7.83"/><path class="cls-5" d="M832.9,92c6.43,0,6.44-10,0-10S826.45,92,832.9,92Z"/><path class="cls-6" d="M835.73,103.87v.18c0,6.67,4.87,12.07,10.89,12.07s10.89-5.4,10.89-12.07v-.18Z"/><circle class="cls-9" cx="823.31" cy="98.6" r="9.36"/><circle class="cls-9" cx="869.59" cy="98.6" r="10.04"/><path class="cls-5" d="M851.74,90.65c6.44,0,6.45-10,0-10S845.3,90.65,851.74,90.65Z"/><path class="cls-13" d="M1062.61,140.9c11.49,11.49,28.85,15.35,44.28,16.31,27,1.93,54-2.89,77.71-15.05"/><path class="cls-2" d="M1061.82,141.7c11.08,11,27,15.1,42.08,16.41a156.4,156.4,0,0,0,53-4.23,140.25,140.25,0,0,0,28.27-10.75c1.29-.66.15-2.6-1.14-1.95a141,141,0,0,1-50,14.53,158.47,158.47,0,0,1-26.5.42,101.26,101.26,0,0,1-22.14-3.63c-8.17-2.43-15.93-6.35-22-12.39a1.12,1.12,0,0,0-1.59,1.59h0Z"/><polygon class="cls-14" points="1154.58 88.59 1123.87 35.34 1093.12 88.56 1062.36 141.78 1185.3 141.83 1154.58 88.59"/><path d="M1089.24,135.17a1.5,1.5,0,1,0-1.5-1.5A1.5,1.5,0,0,0,1089.24,135.17Z"/><path d="M1105.66,113.18a1.5,1.5,0,1,0-1.5-1.5A1.5,1.5,0,0,0,1105.66,113.18Z"/><path d="M1114.52,74.44a1.5,1.5,0,1,0-1.5-1.5A1.5,1.5,0,0,0,1114.52,74.44Z"/><path d="M1130.61,73.78a1.5,1.5,0,1,0-1.5-1.5A1.5,1.5,0,0,0,1130.61,73.78Z"/><path d="M1122.4,53.05h-.33a1.29,1.29,0,0,0-.58.13,1.17,1.17,0,0,0-.48.31,1.74,1.74,0,0,0-.44,1.06V55a1.44,1.44,0,0,0,.39.66l.3.24a1.54,1.54,0,0,0,.76.2h.33a1.08,1.08,0,0,0,.58-.13,1.17,1.17,0,0,0,.48-.31,1,1,0,0,0,.31-.48,1.17,1.17,0,0,0,.13-.58l0-.39a1.62,1.62,0,0,0-.39-.67l-.3-.23a1.45,1.45,0,0,0-.76-.21Z"/><path d="M1153.92,129.27a1.5,1.5,0,1,0-1.5-1.5A1.5,1.5,0,0,0,1153.92,129.27Z"/><path d="M1151.62,116.79a1.5,1.5,0,1,0-1.5-1.5A1.5,1.5,0,0,0,1151.62,116.79Z"/><path d="M1120.76,131.89a1.5,1.5,0,1,0-1.5-1.5A1.5,1.5,0,0,0,1120.76,131.89Z"/><path d="M1086.61,112.85a1.5,1.5,0,1,0-1.5-1.5A1.5,1.5,0,0,0,1086.61,112.85Z"/><path d="M1095.15,121.39a1.5,1.5,0,1,0-1.5-1.5A1.5,1.5,0,0,0,1095.15,121.39Z"/><path d="M1102,125.65a1.5,1.5,0,1,0-1.5-1.5A1.5,1.5,0,0,0,1102,125.65Z"/><path d="M1108.61,131.89a1.5,1.5,0,1,0-1.5-1.5A1.5,1.5,0,0,0,1108.61,131.89Z"/><path d="M1085.82,125.8v-.33a1.29,1.29,0,0,0-.13-.58,1.33,1.33,0,0,0-.8-.79,1,1,0,0,0-.57-.13h-.4a1.44,1.44,0,0,0-.66.39l-.24.3a1.54,1.54,0,0,0-.2.76v.33a1,1,0,0,0,.13.57,1.33,1.33,0,0,0,.79.8,1.29,1.29,0,0,0,.58.13l.39-.06a1.6,1.6,0,0,0,.67-.38l.23-.31a1.44,1.44,0,0,0,.21-.75Z"/><path d="M1076.11,137.14a1.5,1.5,0,1,0-1.5-1.5A1.5,1.5,0,0,0,1076.11,137.14Z"/><path d="M1074.8,125.61h-.66a1.08,1.08,0,0,0-.58.13,1.4,1.4,0,0,0-.79.79,1.08,1.08,0,0,0-.13.58v.4a1.44,1.44,0,0,0,.39.66l.3.23a1.45,1.45,0,0,0,.76.21h.66a1.72,1.72,0,0,0,1.06-.44,1.17,1.17,0,0,0,.31-.48,1.29,1.29,0,0,0,.13-.58l-.06-.4a1.51,1.51,0,0,0-.38-.66l-.31-.24a1.53,1.53,0,0,0-.75-.2Z"/><path d="M1171,128.28a1.5,1.5,0,1,0-1.5-1.5A1.5,1.5,0,0,0,1171,128.28Z"/><path d="M1175.26,138.13a1.5,1.5,0,1,0-1.5-1.5A1.5,1.5,0,0,0,1175.26,138.13Z"/><path d="M1139.8,138.79a1.5,1.5,0,1,0-1.5-1.5A1.5,1.5,0,0,0,1139.8,138.79Z"/><path d="M1157.2,136.49a1.5,1.5,0,1,0-1.5-1.5A1.5,1.5,0,0,0,1157.2,136.49Z"/><path d="M1157.53,119.42a1.5,1.5,0,1,0-1.5-1.5A1.5,1.5,0,0,0,1157.53,119.42Z"/><path d="M1128.64,63.61a1.5,1.5,0,1,0-1.5-1.5A1.5,1.5,0,0,0,1128.64,63.61Z"/><path d="M1125.35,44.24a1.5,1.5,0,1,0-1.5-1.5A1.5,1.5,0,0,0,1125.35,44.24Z"/><path d="M1115.5,63.93a1.5,1.5,0,1,0-1.5-1.5A1.5,1.5,0,0,0,1115.5,63.93Z"/><path d="M1120.1,50.47a1.5,1.5,0,1,0-1.5-1.5A1.5,1.5,0,0,0,1120.1,50.47Z"/><path d="M1121.41,69.51a1.5,1.5,0,1,0-1.5-1.5A1.5,1.5,0,0,0,1121.41,69.51Z"/><path d="M1102,84.62a1.5,1.5,0,1,0-1.5-1.5A1.5,1.5,0,0,0,1102,84.62Z"/><path d="M1093.84,99.06a1.5,1.5,0,1,0-1.5-1.5A1.5,1.5,0,0,0,1093.84,99.06Z"/><path d="M1099.09,106a1.5,1.5,0,1,0-1.5-1.5A1.5,1.5,0,0,0,1099.09,106Z"/><path d="M1104.34,91.51a1.5,1.5,0,1,0-1.5-1.5A1.5,1.5,0,0,0,1104.34,91.51Z"/><path d="M1130.61,125.33a1.5,1.5,0,1,0-1.5-1.5A1.5,1.5,0,0,0,1130.61,125.33Z"/><path d="M1138.49,118.06h-.33a1.08,1.08,0,0,0-.58.13,1.4,1.4,0,0,0-.79.79,1.08,1.08,0,0,0-.13.58v.4a1.44,1.44,0,0,0,.39.66l.3.23a1.45,1.45,0,0,0,.76.21h.33a1.14,1.14,0,0,0,.57-.13,1.21,1.21,0,0,0,.49-.31,1.17,1.17,0,0,0,.31-.48,1.29,1.29,0,0,0,.13-.58l-.06-.4a1.51,1.51,0,0,0-.38-.66l-.31-.24a1.53,1.53,0,0,0-.75-.2Z"/><path d="M1125.35,117.77a1.5,1.5,0,1,0-1.5-1.5A1.5,1.5,0,0,0,1125.35,117.77Z"/><path d="M1153.59,106.28a1.5,1.5,0,1,0-1.5-1.5A1.5,1.5,0,0,0,1153.59,106.28Z"/><path d="M1147.86,93.29V93a1.17,1.17,0,0,0-.12-.58,1.32,1.32,0,0,0-.8-.8,1.17,1.17,0,0,0-.58-.12H1146a1.6,1.6,0,0,0-.67.38l-.23.31a1.45,1.45,0,0,0-.21.76v.32a1.29,1.29,0,0,0,.13.58,1.33,1.33,0,0,0,.8.79,1,1,0,0,0,.57.13l.4,0a1.47,1.47,0,0,0,.67-.39l.23-.3a1.36,1.36,0,0,0,.2-.76Z"/><path d="M1137.83,75.75a1.5,1.5,0,1,0-1.5-1.5A1.5,1.5,0,0,0,1137.83,75.75Z"/><path d="M1138.16,84.94a1.5,1.5,0,1,0-1.5-1.5A1.5,1.5,0,0,0,1138.16,84.94Z"/><path class="cls-6" d="M1110.75,108.51v.19c0,7.23,5.29,13.09,11.81,13.09s11.81-5.86,11.81-13.09v-.19Z"/><circle class="cls-4" cx="1149.32" cy="108.03" r="10.61"/><circle class="cls-4" cx="1097.24" cy="109.95" r="10.61"/><circle cx="1108.33" cy="94.04" r="11.09"/><path class="cls-5" d="M1105.8,96.49c6.43,0,6.44-10,0-10S1099.35,96.49,1105.8,96.49Z"/><circle cx="1138.23" cy="93.08" r="11.09"/><path class="cls-5" d="M1135.69,95.52c6.44,0,6.45-10,0-10S1129.25,95.52,1135.69,95.52Z"/><path class="cls-15" d="M181,462.6c-8.31,33.31-62,65.8-83.38,36.71-15.43-21,22.82-57,17-85.17-5.31-25.88-4.53-79.18,29.57-76.21C194.16,342.28,189.36,429.29,181,462.6Z"/><path class="cls-16" d="M133.18,423.05a1.5,1.5,0,1,0-1.5-1.5A1.5,1.5,0,0,0,133.18,423.05Z"/><path class="cls-17" d="M132.83,415.07c-3-.31-1.47,3.7-5.07.41s.73-9.66,4.64-10.52,11.08.45,11,4.89S135.82,415.39,132.83,415.07Z"/><path class="cls-17" d="M132.83,457.21c-3-.32-1.47,3.7-5.07.4s.73-9.66,4.64-10.52,11.08.45,11,4.9S135.82,457.53,132.83,457.21Z"/><path class="cls-17" d="M143.5,382.92c-1.81,3.12,5.78,8,9.32,9.05s12.87-5.47,10.91-9-7.35,1.63-10.2,1.31S145.31,379.79,143.5,382.92Z"/><path class="cls-17" d="M136.47,359c3.28,1.23,2.95,6.06.26,8s-17.06,2.11-16.61-2.19,6.22-1.54,8.67-2.6S133.19,357.81,136.47,359Z"/><ellipse class="cls-17" cx="154.21" cy="452.93" rx="5.77" ry="3.59"/><ellipse class="cls-17" cx="120.5" cy="504.12" rx="5.77" ry="3.59"/><ellipse class="cls-17" cx="138.76" cy="434.52" rx="2.5" ry="5.15"/><ellipse class="cls-17" cx="168.1" cy="399.56" rx="2.5" ry="5.15"/><path class="cls-17" d="M175.09,423.78c2-1.73,5.76-4.51,2.77-7.14s-7.82-.18-11.73,1.52,1.52,12.6,4.7,12.83S173.07,425.51,175.09,423.78Z"/><path class="cls-17" d="M132,395.07c2-1.73,5.77-4.51,2.78-7.14s-7.82-.19-11.73,1.52,1.52,12.6,4.7,12.83S130,396.8,132,395.07Z"/><path class="cls-17" d="M114.19,486.07c3.78,1.19,17-9.49,16.89-14.11s-8.4-8.63-12.33-8.12-8.19,6.21-8.55,9.83S110.41,484.89,114.19,486.07Z"/><path class="cls-17" d="M137.34,484.09c.48,4.16,8,3,11,2.9s9.24.91,10.56-3.26-6.9-6.73-10.27-6.68S136.85,479.93,137.34,484.09Z"/><circle cx="132.17" cy="378.6" r="6.14"/><path class="cls-5" d="M130.77,382.18c6.43,0,6.44-10,0-10S124.32,382.18,130.77,382.18Z"/><circle cx="156.75" cy="378.07" r="6.14"/><path class="cls-5" d="M155.35,381.65c6.43,0,6.44-10,0-10S148.9,381.65,155.35,381.65Z"/><path class="cls-18" d="M139.52,389a9.19,9.19,0,0,1,.52-.85,4.72,4.72,0,0,1,6.31-2.13,4.77,4.77,0,0,1,2.13,2.13,9.19,9.19,0,0,1,.52.85h.81c-1.25-2.5-3.27-4.13-5.55-4.13s-4.3,1.63-5.55,4.13Z"/><line class="cls-19" x1="155.14" y1="364.17" x2="148.74" y2="372.19"/><line class="cls-19" x1="133.32" y1="364.11" x2="139.57" y2="372.25"/><path class="cls-20" d="M1131.17,433.06c13.55,22.79,5.77,77.4-35,72.63-31.19-3.66-38.93-49.93-27.91-71.6,10.25-20.17,5-66.15,27.27-66.37S1118.82,412.29,1131.17,433.06Z"/><path class="cls-3" d="M1092.12,368.05c4.61-18.93,2.8-23,21.09-32.76"/><path class="cls-20" d="M1084.22,341.76c10.12,7.17,4.91,18.07,7.79,23.2,3.58,6.4-21-.92-23.36-9.93-2.55-9.78-10.92-28.74-4.44-25.55C1069.45,332.07,1073.8,334.38,1084.22,341.76Z"/><circle class="cls-4" cx="1121.86" cy="460.45" r="8.91"/><circle class="cls-4" cx="1076.5" cy="462.07" r="8.91"/><circle cx="1085.81" cy="447.89" r="9.32"/><path class="cls-5" d="M1083.68,450.75c6.44,0,6.45-10,0-10S1077.24,450.75,1083.68,450.75Z"/><circle cx="1110.92" cy="447.89" r="9.32"/><path class="cls-5" d="M1108.8,450.75c6.43,0,6.44-10,0-10S1102.35,450.75,1108.8,450.75Z"/><path class="cls-6" d="M1089.53,460.86V461c0,5.7,4.17,10.32,9.31,10.32s9.32-4.62,9.32-10.32v-.15Z"/><path class="cls-21" d="M623.17,429.09c18.23,22.79,5.72,79.23-36.93,84.64s-83.43-45.3-57-80.3,3.24-72.33,41.86-81.69S604.94,406.29,623.17,429.09Z"/><path class="cls-22" d="M617.71,445.43c14.26,14.56-2.28,56.12-40.34,54S522,459.69,542.2,436.65s5.94-76.92,32.19-72.83S603.44,430.87,617.71,445.43Z"/><circle class="cls-23" cx="581.93" cy="457.22" r="30.44"/><circle cx="559.1" cy="389.63" r="10.3"/><path class="cls-5" d="M556.75,392.26c6.44,0,6.45-10,0-10S550.31,392.26,556.75,392.26Z"/><circle cx="589.54" cy="386.94" r="10.3"/><path class="cls-5" d="M587.19,389.57c6.44,0,6.45-10,0-10S580.75,389.57,587.19,389.57Z"/><path class="cls-18" d="M565.34,413.35a19.24,19.24,0,0,1,1.2-2c2.69-3.91,6.18-6.07,9.82-6.07s7.14,2.16,9.83,6.07a19.24,19.24,0,0,1,1.2,2h1.88c-2.9-5.81-7.6-9.6-12.91-9.6s-10,3.79-12.9,9.6Z"/><line class="cls-19" x1="556.13" y1="368.77" x2="571.03" y2="377.36"/><line class="cls-19" x1="585.05" y1="363.65" x2="574.34" y2="377.1"/><path class="cls-24" d="M368.39,423.37c10.31,33.84-19.16,108.91-56.21,88.45-65.67-36.24-21.66-57.15-20.09-87.66s-21.55-74.51,6.86-78.67S358.07,389.53,368.39,423.37Z"/><path class="cls-20" d="M316.87,346.52c-18.38-12.52-37.16-9.17-33.15,18.67s9.1-27.22,15.59-2.52-3-15.27,20.35-1.19S335.26,359,316.87,346.52Z"/><path class="cls-20" d="M291.29,340.46c.73-.19,1.38-.59,2.1-.81-3.69-8.36,1.64-8.81-11.62-7.47a4,4,0,0,0,.83,1.83C291.07,330.21,289.75,335.73,291.29,340.46Z"/><circle cx="300.86" cy="393.7" r="8.91"/><path class="cls-5" d="M298.82,396.65c6.44,0,6.45-10,0-10S292.38,396.65,298.82,396.65Z"/><circle cx="329.69" cy="382.96" r="9.64"/><path class="cls-5" d="M327.49,385.74c6.43,0,6.45-10,0-10S321.05,385.74,327.49,385.74Z"/><path class="cls-18" d="M311.84,406.62c.08-.62.18-1.23.32-1.84.87-3.73,2.85-6.38,5.58-7.45s6-.48,9.16,1.67a16.18,16.18,0,0,1,1.48,1.14l1.41-.55c-3.88-3.51-8.52-5-12.5-3.41s-6.39,5.78-6.85,11Z"/><line class="cls-19" x1="298" y1="379.63" x2="308.81" y2="383.91"/><line class="cls-19" x1="319.97" y1="371.74" x2="314.68" y2="380.9"/><path class="cls-25" d="M99.84,46a20.68,20.68,0,0,0-11.92,4.36,30.14,30.14,0,0,0-14.37-3A30.85,30.85,0,0,0,56.67,52.2C52,48.24,46.94,46,42.23,46c-15.91,0-34.7,25.44-28.8,55.62,6.06,31,12.89,55.62,28.8,55.62,5.78,0,10.22-3.52,13.88-9.38a22.09,22.09,0,0,0,16.29,7.26,21.64,21.64,0,0,0,14.42-5.21c3.56,4.66,7.8,7.33,13,7.33,15.91,0,21.73-26.58,28.8-55.62C135.92,71.7,115.75,46,99.84,46Z"/><path class="cls-8" d="M79.82,48.34c-3.93-1-7.87-.31-11.82-1,3.14-16.63,4.76-14.08,14-25.78,3.3,2.66,7.18,4.54,10.58,7.07C85.74,37.87,83.14,35.81,79.82,48.34Z"/><ellipse cx="56.38" cy="86.82" rx="11.62" ry="11.32"/><path class="cls-5" d="M53.72,89.21c6.44,0,6.45-10,0-10S47.28,89.21,53.72,89.21Z"/><ellipse cx="92.76" cy="86.82" rx="11.62" ry="11.32"/><path class="cls-5" d="M90.11,89.21c6.43,0,6.44-10,0-10S83.66,89.21,90.11,89.21Z"/><path class="cls-18" d="M58.76,110.94a26.61,26.61,0,0,1,1.61-2.59c3.6-5.12,8.27-7.93,13.16-7.93s9.56,2.81,13.16,7.93a28.69,28.69,0,0,1,1.61,2.59h2.51c-3.88-7.59-10.17-12.53-17.28-12.53s-13.4,4.94-17.28,12.53Z"/><line class="cls-19" x1="59.57" y1="61.1" x2="71.38" y2="76.11"/><line class="cls-19" x1="89.72" y1="61.21" x2="77.62" y2="76"/><path class="cls-26" d="M216.33,663.8s36.15-23.91,45.89-41.09l2.15-3.85a27.52,27.52,0,0,0-48.07-26.55,27.52,27.52,0,0,0-48.08,26.55l2.15,3.85c9.74,17.18,45.89,41.09,45.89,41.09Z"/><path d="M224.79,617.3a17.24,17.24,0,0,1-1,1.65c-2.22,3.25-5.12,5-8.14,5s-5.92-1.79-8.14-5a15.41,15.41,0,0,1-1-1.65H205c2.41,4.82,6.3,8,10.7,8s8.29-3.14,10.7-8Z"/><circle class="cls-27" cx="190.16" cy="619.47" r="9.34"/><circle class="cls-27" cx="241.16" cy="619.47" r="9.34"/><path d="M222.38,611.8a17.24,17.24,0,0,1,1-1.65c2.24-3.27,5.15-5.07,8.19-5.07s5.94,1.8,8.18,5.07c.36.53.69,1.08,1,1.65h1.56c-2.42-4.84-6.33-8-10.75-8s-8.34,3.16-10.75,8Z"/><path d="M191.38,611.8a17.24,17.24,0,0,1,1-1.65c2.24-3.27,5.15-5.07,8.19-5.07s5.94,1.8,8.18,5.07c.36.53.69,1.08,1,1.65h1.56c-2.42-4.84-6.33-8-10.75-8s-8.34,3.16-10.75,8Z"/><path class="cls-28" d="M857,445.21c-11,40.11-13.35,70.85-29.55,70.07-9.56-.45-16.58-31.79-28.68-70.44q-1.29-4.11-2.29-8.15c-4-15.93-8.26-32.81,1.87-48,13.5-18.56,43.88-19.41,56.37-.08a36.84,36.84,0,0,1,3.45,7.12C862.82,408.59,862.18,426.21,857,445.21Z"/><path class="cls-29" d="M819.8,382.2c-4.59.58-7.13-3.64-11.35-3.64,5.91-14.34,1.69-32.06-12.05-40.71-1-1.14-2-2.39-3.09-3.77s-2.23-2.89-3.42-4.55c2.88-2.72,5.76-5.45,8.68-8.14,2.72,3.21,5.08,6.05,7.12,8.61s3.77,4.85,5.22,7c9.36,11.2,10.2,25.55,9.08,39.43C819.94,378.23,819.88,380.16,819.8,382.2Z"/><path class="cls-29" d="M838,381.93a12.5,12.5,0,0,0-11,0c3.38-11,2.53-22.78,6.48-33.86.62-2.75,1.26-5.46,1.94-8.16a235.89,235.89,0,0,1,7.32-24.12l10.1,3.62c-2.5,8.31-4.61,15.92-6.51,23.36-.63,2.48-1.25,5-1.84,7.42-2.3,7.27-2.3,15.71-4.81,23.33C839.16,376.28,838.59,379.07,838,381.93Z"/><path class="cls-29" d="M831.39,381.17c-2.68,1.61-5.21.77-7.75.77,1.69-13.5.85-27-.11-40.54-.15-2.67-.36-5.36-.65-8.08,2.92-.41,5.8-1,8.73-1.38-.05,2.69-.07,5.38-.08,8.07s0,5.41,0,8.14c-.31,8.47,1.38,16.91.45,25C831.85,375.83,831.66,378.5,831.39,381.17Z"/><path class="cls-29" d="M823.86,383.27a67.55,67.55,0,0,1-8.65-2.17c5.9-13.51,4.21-27.85.94-41a51,51,0,0,0-2.84-7.66c3.39-.65,6.83-.89,10.25-1.34.28,2.91.49,5.79.63,8.66.3,11.83,2,22.8.52,35C824.47,377.57,824.18,380.41,823.86,383.27Z"/><path class="cls-29" d="M843.67,383.28c-15.81-3-4.84-24.12-8.45-35.5.06-2.87.14-5.73.29-8.59s.37-5.73.68-8.61c2.79.37,5.56.82,8.33,1.32-.34,3.4-.62,6.51-.82,9.44s-.36,5.66-.45,8.3c.65,7.83-1,16.27.24,24.07C843.56,376.68,843.63,379.84,843.67,383.28Z"/><path class="cls-18" d="M816.61,435.11c.38-.76.79-1.51,1.24-2.23,2.79-4.38,6.4-6.79,10.17-6.79s7.38,2.41,10.16,6.79c.45.72.87,1.47,1.25,2.23h1.94c-3-6.51-7.86-10.74-13.35-10.74s-10.35,4.23-13.35,10.74Z"/><line class="cls-19" x1="814.07" y1="394.07" x2="823.93" y2="406.94"/><line class="cls-19" x1="840.09" y1="394.17" x2="829.99" y2="406.85"/><circle cx="841.79" cy="414.43" r="9.7"/><path class="cls-5" d="M839.57,417.2c6.43,0,6.45-10,0-10S833.13,417.2,839.57,417.2Z"/><circle cx="813.1" cy="414.43" r="9.7"/><path class="cls-5" d="M810.88,417.2c6.43,0,6.44-10,0-10S804.43,417.2,810.88,417.2Z"/><path class="cls-30" d="M802.93,457.81c9.08,3.11,9,4.28,17.84-.23"/><path class="cls-30" d="M849.4,475.47c-8.49,1.06-10.68,1.07-19.21-.24"/><path class="cls-30" d="M844.08,494.8c-8.91,5.41-7,5.51-16.91.69"/><path class="cls-30" d="M811.62,485.36c7.69,1.55,8.31,3.06,15.12-1.05"/><path class="cls-30" d="M796.58,433.4c5.44,2,7.54,2,13.12,0"/><path class="cls-30" d="M793.68,400.24c5.27.38,4.13.4,11.39,0"/><path class="cls-30" d="M857.24,392.46c-5.43,2.07-8.28,2.29-14.1,1.13"/><path class="cls-30" d="M860.48,427.39c-6.27,3.58-11.52,3.95-18.55,3.07"/><path class="cls-30" d="M856.35,446.9c-7.15-3.26-4.93-.86-10.43-.32"/></svg>