<svg xmlns="http://www.w3.org/2000/svg" xmlns:xlink="http://www.w3.org/1999/xlink" width="1920" height="1080" viewBox="0 0 1920 1080"><defs><style>.cls-1{fill:url(#New_Gradient_Swatch);}.cls-2,.cls-8{fill:#fff;}.cls-2,.cls-5,.cls-6{stroke:#42210b;}.cls-11,.cls-12,.cls-2,.cls-4,.cls-5,.cls-6{stroke-miterlimit:10;}.cls-2,.cls-5{stroke-width:6px;}.cls-3{fill:#d65fbf;}.cls-12,.cls-4{stroke:#000;}.cls-11,.cls-4{stroke-width:2px;}.cls-5{fill:#fcfcfc;}.cls-6{fill:#00b428;}.cls-12,.cls-6{stroke-width:3px;}.cls-7{fill:#42210b;}.cls-9{fill:#006837;}.cls-10{fill:#44210b;}.cls-11{fill:#ed1c24;stroke:#44210b;}.cls-13{fill:url(#linear-gradient);}.cls-14{fill:url(#linear-gradient-2);}.cls-15{fill:url(#linear-gradient-3);}.cls-16{fill:url(#linear-gradient-4);}.cls-17{fill:url(#linear-gradient-5);}.cls-18{fill:url(#linear-gradient-6);}.cls-19{fill:url(#linear-gradient-7);}.cls-20{fill:url(#linear-gradient-8);}.cls-21{fill:url(#linear-gradient-9);}.cls-22{fill:url(#linear-gradient-10);}.cls-23{fill:url(#linear-gradient-11);}</style><linearGradient id="New_Gradient_Swatch" y1="540" x2="1920" y2="540" gradientUnits="userSpaceOnUse"><stop offset="0" stop-color="#eec9db"/><stop offset="0.01" stop-color="#eec3d9" stop-opacity="0.98"/><stop offset="0.35" stop-color="#e538b3" stop-opacity="0.57"/><stop offset="0.5" stop-color="#e100a3" stop-opacity="0.4"/><stop offset="0.7" stop-color="#df42ab" stop-opacity="0.66"/><stop offset="0.9" stop-color="#de7eb3" stop-opacity="0.91"/><stop offset="1" stop-color="#dd96b6"/></linearGradient><linearGradient id="linear-gradient" x1="274.41" y1="427.96" x2="477.89" y2="427.96" gradientUnits="userSpaceOnUse"><stop offset="0" stop-color="#eec9db"/><stop offset="0.25" stop-color="#f455ff"/><stop offset="0.31" stop-color="#ec5aff" stop-opacity="0.95"/><stop offset="0.5" stop-color="#d46aff" stop-opacity="0.8"/><stop offset="0.56" stop-color="#dc53ff" stop-opacity="0.86"/><stop offset="0.72" stop-color="#f015ff"/><stop offset="0.81" stop-color="#e942e5"/><stop offset="0.94" stop-color="#e07ec3"/><stop offset="1" stop-color="#dd96b6"/></linearGradient><linearGradient id="linear-gradient-2" x1="379.15" y1="335.14" x2="621.4" y2="335.14" xlink:href="#linear-gradient"/><linearGradient id="linear-gradient-3" x1="567.3" y1="285.21" x2="734.2" y2="285.21" xlink:href="#linear-gradient"/><linearGradient id="linear-gradient-4" x1="689.01" y1="247.75" x2="838.69" y2="247.75" xlink:href="#linear-gradient"/><linearGradient id="linear-gradient-5" x1="804.13" y1="214.87" x2="943.26" y2="214.87" xlink:href="#linear-gradient"/><linearGradient id="linear-gradient-6" x1="1043.5" y1="209.94" x2="1161.52" y2="209.94" xlink:href="#linear-gradient"/><linearGradient id="linear-gradient-7" x1="1133.03" y1="238.12" x2="1256.72" y2="238.12" xlink:href="#linear-gradient"/><linearGradient id="linear-gradient-8" x1="1213.78" y1="262.96" x2="1365.79" y2="262.96" xlink:href="#linear-gradient"/><linearGradient id="linear-gradient-9" x1="1319.56" y1="308.09" x2="1485.35" y2="308.09" xlink:href="#linear-gradient"/><linearGradient id="linear-gradient-10" x1="1420.61" y1="351.64" x2="1611.83" y2="351.64" xlink:href="#linear-gradient"/><linearGradient id="linear-gradient-11" x1="1500.49" y1="435.55" x2="1701.34" y2="435.55" xlink:href="#linear-gradient"/></defs><g id="background_start" data-name="background start"><rect class="cls-1" width="1920" height="1080"/></g><g id="characters"><path class="cls-2" d="M346.08,916.76a36.69,36.69,0,0,0-9.33-6.77,76.14,76.14,0,0,0,12.62-25.07c11.72-41-40.63-60-90.76-60-21.42,0-41.09,4.92-56.62,13.13-9.35-8.25-20.9-13.13-33.42-13.13-19.89,0-37.37,12.33-47.4,30.93a61,61,0,0,0-36.78-11.89c-30.72,0-55.63,21.3-55.63,47.58,0,12,5.26,23.06,13.9,31.44a40.61,40.61,0,0,0-8.07,13.15c-9.84,26.35,9.77,58,43.81,70.73,27.14,10.14,55.25,5.15,70.52-10.65,13,16.54,38.87,27.82,68.7,27.82,35.54,0,65.48-16,74.66-37.85,15.67,8.19,36.51,4.83,50.87-9.53C360.49,959.28,361.8,932.48,346.08,916.76Z"/><circle class="cls-3" cx="240.35" cy="916.43" r="19.76"/><circle class="cls-3" cx="133.44" cy="915.11" r="19.76"/><path class="cls-4" d="M147.6,898.56a31.24,31.24,0,0,1,1.67-2.74c3.71-5.42,8.54-8.41,13.58-8.41s9.86,3,13.58,8.41a28.91,28.91,0,0,1,1.66,2.74h2.6c-4-8-10.51-13.27-17.84-13.27S149,890.52,145,898.56Z"/><path class="cls-4" d="M195.39,898.56a28.91,28.91,0,0,1,1.66-2.74c3.72-5.42,8.54-8.41,13.58-8.41s9.87,3,13.58,8.41a31.24,31.24,0,0,1,1.67,2.74h2.59c-4-8-10.5-13.27-17.84-13.27s-13.83,5.23-17.84,13.27Z"/><path class="cls-4" d="M202.26,915.15a28,28,0,0,1-1.63,2.7c-3.65,5.32-8.38,8.25-13.33,8.25s-9.68-2.93-13.33-8.25a28,28,0,0,1-1.63-2.7h-2.55c3.93,7.89,10.31,13,17.51,13s13.57-5.14,17.5-13Z"/><path class="cls-5" d="M419,725.26c-.84-12.37-24.08-20.87-51.91-19-15.06,1-28.38,4.87-37.3,10.15,11.5-10.73,19.46-24.68,20.57-40.86,2.45-35.47-44.06-64.38-79.59-64.38S195.14,640,195.14,675.57c0,17.62,9.85,33.59,24.11,45.22-11.11.17-27.32,8.78-41.74,23.2-19.73,19.73-28.61,42.82-19.84,51.59,7,6.95,22.92,2.79,39.07-9.07a76.58,76.58,0,0,0,27.94,50,58.7,58.7,0,0,0-1.09,11.33c0,19.24,8.95,34.84,20,34.84,10.06,0,18.38-12.93,19.78-29.77a79.32,79.32,0,0,0,9.43.57c1.39,0,2.77,0,4.15-.11,1.52,16.61,9.78,29.31,19.74,29.31,11,0,20-15.6,20-34.84a60,60,0,0,0-.51-7.81,76.72,76.72,0,0,0,28.37-90.24,102.59,102.59,0,0,0,25.57,1.33C397.93,749.18,419.82,737.63,419,725.26Z"/><circle class="cls-3" cx="300.71" cy="670.59" r="8.63"/><circle class="cls-3" cx="248.94" cy="670.59" r="8.63"/><circle cx="292.08" cy="661.96" r="8.96"/><circle cx="254.91" cy="661.96" r="8.96"/><path class="cls-6" d="M267.85,582.59c3.53,4.06,5.85,11.2,2.66,14s-10.68.12-14.21-3.95-6.9-10.67-3.71-13.44S264.32,578.52,267.85,582.59Z"/><path class="cls-6" d="M287.11,594.42c-4.07,3.53-11.2,4.27-14,1.08s-.11-9.09,3.95-12.62,12.26-6.9,15-3.72S291.18,590.89,287.11,594.42Z"/><path class="cls-7" d="M270.65,595.93v13.23a1.5,1.5,0,0,0,3,0V595.93a1.5,1.5,0,0,0-3,0Z"/><path class="cls-7" d="M272.78,593.77a4.48,4.48,0,0,0,4.21-1c.54-.42,1-.91,1.6-1.28a10.71,10.71,0,0,1,1.77-.86,18.69,18.69,0,0,0,6.79-4.72,1.55,1.55,0,0,0,0-2.13,1.52,1.52,0,0,0-2.12,0,15.78,15.78,0,0,1-5.54,4,12.94,12.94,0,0,0-3.43,1.9c-.7.57-1.53,1.52-2.48,1.17a1.5,1.5,0,0,0-1.84,1,1.52,1.52,0,0,0,1,1.85Z"/><path class="cls-7" d="M279,589.71a11.33,11.33,0,0,1,0-2.79l-.06.4q.07-.5.18-1a1.5,1.5,0,0,0-1-1.84,1.5,1.5,0,0,0-1.85,1,12.71,12.71,0,0,0-.27,4.17,1.66,1.66,0,0,0,.44,1.06,1.56,1.56,0,0,0,1.06.44,1.54,1.54,0,0,0,1.06-.44,1.44,1.44,0,0,0,.44-1.06Z"/><path class="cls-7" d="M284.06,589.22a8.42,8.42,0,0,0,2.5.17,10.76,10.76,0,0,0,1.4-.23,10.55,10.55,0,0,0,1.33-.48,1.47,1.47,0,0,0,.68-.9,1.49,1.49,0,0,0-.15-1.15,1.47,1.47,0,0,0-.89-.69l-.4-.06a1.48,1.48,0,0,0-.76.21l-.07,0,.36-.16a6.54,6.54,0,0,1-1.68.46l.4-.06a6.93,6.93,0,0,1-1.82,0l.4,0-.5-.09a1.64,1.64,0,0,0-1.15.15,1.55,1.55,0,0,0-.69.9,1.53,1.53,0,0,0,1,1.85Z"/><path class="cls-7" d="M271.12,595c-1.15-2.52-3.47-4.2-5.62-5.83l-.33-.26s-.48-.37-.26-.19l-.76-.61a16.84,16.84,0,0,1-1.4-1.28q-.31-.33-.6-.69c.16.2,0,0-.08-.12s-.2-.28-.29-.43a6.72,6.72,0,0,1-.4-.75c0-.1,0-.08,0,0a1.17,1.17,0,0,1-.09-.24c-.06-.17-.11-.35-.16-.52a1.5,1.5,0,1,0-2.89.8c.75,2.81,2.94,4.7,5.16,6.4,1.94,1.49,4.08,2.93,5.1,5.19a1.52,1.52,0,0,0,2.06.54,1.55,1.55,0,0,0,.53-2.06Z"/><path class="cls-7" d="M266.58,590v-5.65a1.5,1.5,0,0,0-3,0V590a1.5,1.5,0,0,0,3,0Z"/><path class="cls-7" d="M269,592.5c-2.08-.65-4.12-.07-6.22-.13l-.54,0c-.14,0-.15,0,0,0l-.27-.05c-.19,0-.39-.09-.58-.15l-.25-.08s-.28-.11-.13,0-.17-.1-.17-.1l-.22-.12-.21-.14c.11.08.11.1,0,0l-.17-.17c-.2-.18.05.1,0,0s-.27-.54-.17-.26a1.5,1.5,0,1,0-2.89.8,5.52,5.52,0,0,0,4.82,3.31,13.75,13.75,0,0,0,2.94,0,16.9,16.9,0,0,1,1.74-.09,4.64,4.64,0,0,1,1.55.24,1.53,1.53,0,0,0,1.85-1A1.55,1.55,0,0,0,269,592.5Z"/><path class="cls-7" d="M259.26,583.57a6.25,6.25,0,0,1-.72.17l-.18,0c.41-.08.19,0,.08,0s-.24,0-.37,0a5.94,5.94,0,0,1-.73,0h-.18c-.2,0,.32,0,.12,0l-.4-.08a5.75,5.75,0,0,1-.71-.2l-.17-.07a1,1,0,1,0,.1.05,3.36,3.36,0,0,0-.33-.16,5.64,5.64,0,0,1-.67-.4l-.15-.11c-.16-.11.23.19.09.07l-.32-.27a1.51,1.51,0,0,0-2.12,0,1.53,1.53,0,0,0,0,2.12,7.79,7.79,0,0,0,7.45,1.76,1.5,1.5,0,0,0-.79-2.89Z"/><path class="cls-7" d="M262,584.32a9.27,9.27,0,0,0-.27-3.63,1.55,1.55,0,0,0-.69-.9,1.59,1.59,0,0,0-1.15-.15,1.53,1.53,0,0,0-1.05,1.85,9.46,9.46,0,0,1,.21,1.06l0-.4a8.3,8.3,0,0,1,0,2.17,1.52,1.52,0,0,0,.44,1.07,1.51,1.51,0,0,0,1.06.43,1.49,1.49,0,0,0,1.06-.43l.24-.31a1.51,1.51,0,0,0,.2-.76Z"/><path class="cls-7" d="M276.51,593.34l.11,0-.4,0a7.87,7.87,0,0,1,1.94,0l-.4-.06a9,9,0,0,1,.93.19,1.61,1.61,0,0,0,1.16-.15,1.51,1.51,0,0,0,.54-2.06,1.59,1.59,0,0,0-.9-.69,9.18,9.18,0,0,0-1.88-.28,9.34,9.34,0,0,0-1.9.12,1.49,1.49,0,0,0-.89.69,1.52,1.52,0,0,0-.15,1.16,1.47,1.47,0,0,0,.69.89l.35.16a1.55,1.55,0,0,0,.8,0Z"/><path class="cls-7" d="M239.2,783.53c4.74-9.54,14.42-15.11,24.34-18,10.81-3.11,23.11-3.08,32.36,4.08a26.11,26.11,0,0,1,9.31,13.8,1.5,1.5,0,0,0,2.89-.8c-2.89-10.79-12.18-18.86-23-21.22a44.27,44.27,0,0,0-19.73.55,54.21,54.21,0,0,0-16,6.48A34,34,0,0,0,236.61,782c-.86,1.72,1.73,3.24,2.59,1.51Z"/><path class="cls-7" d="M283.75,834.94c2.67-4.09,9-5.32,13.5-5.46s10.57,1.18,12.41,5.82c.7,1.77,3.61,1,2.89-.8-2.31-5.84-9-8.1-14.85-8s-13.16,1.79-16.54,7c-1.06,1.62,1.54,3.12,2.59,1.51Z"/><path class="cls-7" d="M199.22,785.12a62.49,62.49,0,0,1,1.09-12.52,1.54,1.54,0,0,0-1-1.85,1.52,1.52,0,0,0-1.85,1,66.15,66.15,0,0,0-1.2,13.32,1.5,1.5,0,0,0,3,0Z"/><path class="cls-7" d="M342.22,746.48l-4.76-2.69a1.5,1.5,0,0,0-1.51,2.59l4.75,2.69a1.5,1.5,0,0,0,1.52-2.59Z"/><path class="cls-7" d="M219.27,722.83l5.42,2.72A1.5,1.5,0,1,0,226.2,723l-5.41-2.72a1.5,1.5,0,0,0-1.52,2.59Z"/><path d="M285.47,674.24a19.81,19.81,0,0,1-1,1.73c-2.34,3.4-5.36,5.27-8.53,5.27s-6.2-1.87-8.53-5.27a19.81,19.81,0,0,1-1-1.73H264.7c2.51,5,6.59,8.34,11.2,8.34s8.69-3.29,11.2-8.34Z"/><path class="cls-8" d="M292.24,667.52c6.43,0,6.44-10,0-10s-6.45,10,0,10Z"/><path class="cls-8" d="M254.28,667.52c6.44,0,6.45-10,0-10s-6.44,10,0,10Z"/><path class="cls-9" d="M343.57,708.81c7.91,7.91,19.85,10.56,30.47,11.22,18.58,1.33,37.17-2,53.48-10.36"/><path class="cls-10" d="M342.78,709.61c7.76,7.66,18.82,10.52,29.4,11.41a108.14,108.14,0,0,0,36.5-3,96.74,96.74,0,0,0,19.41-7.4c1.29-.66.15-2.6-1.14-1.95a96.58,96.58,0,0,1-34.41,10A108.75,108.75,0,0,1,375,719a70.1,70.1,0,0,1-15.37-2.46A35.5,35.5,0,0,1,344.37,708c-1-1-2.63.57-1.59,1.59Z"/><polygon class="cls-11" points="406.87 672.81 385.73 636.17 364.57 672.79 343.4 709.42 428 709.45 406.87 672.81"/><path d="M361.9,705.34a1.5,1.5,0,0,0,0-3,1.5,1.5,0,0,0,0,3Z"/><path d="M373.19,690.2a1.5,1.5,0,0,0,0-3,1.5,1.5,0,0,0,0,3Z"/><path d="M379.29,663.54a1.5,1.5,0,0,0,0-3,1.5,1.5,0,0,0,0,3Z"/><path d="M390.36,663.09a1.5,1.5,0,0,0,0-3,1.5,1.5,0,0,0,0,3Z"/><path d="M384.72,647.89h-.23a1.06,1.06,0,0,0-.58.13,1.14,1.14,0,0,0-.48.31,1,1,0,0,0-.31.48,1.15,1.15,0,0,0-.13.58l.05.4a1.59,1.59,0,0,0,.39.66l.3.23a1.48,1.48,0,0,0,.76.21h.23a1.72,1.72,0,0,0,1.06-.44,1.24,1.24,0,0,0,.31-.48,1.27,1.27,0,0,0,.13-.58l-.06-.4a1.57,1.57,0,0,0-.38-.66l-.31-.24a1.5,1.5,0,0,0-.75-.2Z"/><path d="M406.41,701.27a1.5,1.5,0,0,0,0-3,1.5,1.5,0,0,0,0,3Z"/><path d="M404.82,692.69a1.5,1.5,0,0,0,0-3,1.5,1.5,0,0,0,0,3Z"/><path d="M383.59,703.08a1.5,1.5,0,0,0,0-3,1.5,1.5,0,0,0,0,3Z"/><path d="M360.09,690a1.5,1.5,0,0,0,0-3,1.5,1.5,0,0,0,0,3Z"/><path d="M366,695.85a1.5,1.5,0,0,0,0-3,1.5,1.5,0,0,0,0,3Z"/><path d="M370.71,698.79a1.5,1.5,0,0,0,0-3,1.5,1.5,0,0,0,0,3Z"/><path d="M375.23,703.08a1.5,1.5,0,0,0,0-3,1.5,1.5,0,0,0,0,3Z"/><path d="M360,698.42v-.23a1.15,1.15,0,0,0-.13-.58,1.08,1.08,0,0,0-.31-.48,1.14,1.14,0,0,0-.48-.31,1.17,1.17,0,0,0-.58-.13l-.4,0a1.44,1.44,0,0,0-.66.39l-.24.3a1.57,1.57,0,0,0-.2.76v.23a1,1,0,0,0,.13.57,1.34,1.34,0,0,0,.79.8,1.27,1.27,0,0,0,.58.13l.4-.06a1.57,1.57,0,0,0,.66-.38l.23-.31a1.42,1.42,0,0,0,.21-.75Z"/><path d="M352.86,706.69a1.5,1.5,0,0,0,0-3,1.5,1.5,0,0,0,0,3Z"/><path d="M352,697.82h-.46a1,1,0,0,0-.57.13,1.11,1.11,0,0,0-.49.31,1.17,1.17,0,0,0-.31.48,1.27,1.27,0,0,0-.13.58l.06.4a1.57,1.57,0,0,0,.38.66l.31.23a1.42,1.42,0,0,0,.75.21H352a1.72,1.72,0,0,0,1.06-.44,1.24,1.24,0,0,0,.31-.48,1.27,1.27,0,0,0,.13-.58l-.06-.4a1.57,1.57,0,0,0-.38-.66l-.31-.24a1.5,1.5,0,0,0-.75-.2Z"/><path d="M418.15,700.59a1.5,1.5,0,0,0,0-3,1.5,1.5,0,0,0,0,3Z"/><path d="M421.09,707.37a1.5,1.5,0,0,0,0-3,1.5,1.5,0,0,0,0,3Z"/><path d="M396.69,707.82a1.5,1.5,0,0,0,0-3,1.5,1.5,0,0,0,0,3Z"/><path d="M408.66,706.24a1.5,1.5,0,0,0,0-3,1.5,1.5,0,0,0,0,3Z"/><path d="M408.89,694.49a1.5,1.5,0,0,0,0-3,1.5,1.5,0,0,0,0,3Z"/><path d="M389,656.09a1.5,1.5,0,0,0,0-3,1.5,1.5,0,0,0,0,3Z"/><path d="M386.75,642.76a1.5,1.5,0,0,0,0-3,1.5,1.5,0,0,0,0,3Z"/><path d="M380,656.31a1.5,1.5,0,0,0,0-3,1.5,1.5,0,0,0,0,3Z"/><path d="M383.13,647.05a1.5,1.5,0,0,0,0-3,1.5,1.5,0,0,0,0,3Z"/><path d="M384,660.15a1.5,1.5,0,0,0,0-3,1.5,1.5,0,0,0,0,3Z"/><path d="M370.71,670.54a1.5,1.5,0,0,0,0-3,1.5,1.5,0,0,0,0,3Z"/><path d="M365.06,680.49a1.5,1.5,0,0,0,0-3,1.5,1.5,0,0,0,0,3Z"/><path d="M368.67,685.23a1.5,1.5,0,0,0,0-3,1.5,1.5,0,0,0,0,3Z"/><path d="M372.29,675.29a1.5,1.5,0,0,0,0-3,1.5,1.5,0,0,0,0,3Z"/><path d="M390.36,698.56a1.5,1.5,0,0,0,0-3,1.5,1.5,0,0,0,0,3Z"/><path d="M395.79,692.62h-.23a1.27,1.27,0,0,0-.58.13,1.24,1.24,0,0,0-.48.31,1.72,1.72,0,0,0-.44,1.06l.05.4a1.47,1.47,0,0,0,.39.66l.3.24a1.57,1.57,0,0,0,.76.2h.23a1,1,0,0,0,.57-.13,1.34,1.34,0,0,0,.8-.79,1.27,1.27,0,0,0,.13-.58l-.06-.4a1.57,1.57,0,0,0-.38-.66l-.31-.23a1.42,1.42,0,0,0-.75-.21Z"/><path d="M386.75,693.36a1.5,1.5,0,0,0,0-3,1.5,1.5,0,0,0,0,3Z"/><path d="M406.18,685.46a1.5,1.5,0,0,0,0-3,1.5,1.5,0,0,0,0,3Z"/><path d="M402.71,676.05v-.23a1.17,1.17,0,0,0-.13-.58,1.14,1.14,0,0,0-.31-.48,1.24,1.24,0,0,0-.48-.31,1.15,1.15,0,0,0-.58-.13l-.4.06a1.57,1.57,0,0,0-.66.38l-.24.31a1.5,1.5,0,0,0-.2.75v.23a1.06,1.06,0,0,0,.13.58,1.14,1.14,0,0,0,.31.48,1.08,1.08,0,0,0,.48.31,1.15,1.15,0,0,0,.58.13l.4-.06a1.47,1.47,0,0,0,.66-.38l.23-.3a1.48,1.48,0,0,0,.21-.76Z"/><path d="M395.33,664.44a1.5,1.5,0,0,0,0-3,1.5,1.5,0,0,0,0,3Z"/><path d="M395.56,670.77a1.5,1.5,0,0,0,0-3,1.5,1.5,0,0,0,0,3Z"/><path class="cls-12" d="M376.7,686.52v.13c0,5,3.63,9,8.12,9s8.13-4,8.13-9v-.13Z"/><circle class="cls-3" cx="403.24" cy="686.19" r="7.3"/><circle class="cls-3" cx="367.4" cy="687.51" r="7.3"/><circle cx="375.04" cy="676.56" r="7.63"/><path class="cls-8" d="M373.29,679.81c6.44,0,6.45-10,0-10s-6.44,10,0,10Z"/><circle cx="395.61" cy="675.9" r="7.63"/><path class="cls-8" d="M393.87,679.14c6.43,0,6.44-10,0-10s-6.45,10,0,10Z"/><path class="cls-13" d="M360.69,313.88l27.44,35.78Q361.31,370.29,335.59,393c.89,1,1.79,2,2.69,3.05q7.58-6.69,15.25-13.19c9.62-8.16,19.89-12.75,30.54-13.77,12-1.07,21.13,2.82,27.61,11.28l59.67,77.79c5.55,7.24,7.5,15.63,6.11,25.11-1.45,10.54-6.71,19.49-15.9,27.28q-10.85,9.21-21.46,18.84c-7.82,7.11-16.48,11.19-26.26,12.29-10.69,1.46-19.86-1.39-27.41-8.93L327.19,473.5q21.21-21.21,43.4-40.8l48.67,55.22,3.72-3.28q-25.51-29.28-51-58.55-7.12,6.21-14.14,12.58c-10.49,9.55-21.24,14.74-32.61,15.52-10.43,1-18.92-1.6-25.37-8.05l-17.49-17.48c-7.4-7.39-9.71-17.2-6.58-29.44,2.72-11,9.06-21.17,18.93-30.14Q326.82,339.91,360.69,313.88Z"/><path class="cls-14" d="M619.53,392.45C616.2,402.38,609.41,410,599,415.72q-12,6.55-23.74,13.51A45.89,45.89,0,0,1,552.48,436c-8.69.21-16.2-2.18-22.52-7.32q-7.62,5-15.17,10.17c-8.75,6-17.91,8.88-27.76,8.64-10.8,0-19.49-4.07-25.93-12.59l-82-108.36q25.13-19,51.14-36.36l69.53,104.71L504,392.1Q469.5,339.55,435,287q26.25-17.25,53.28-32.73l74.54,130.33,4.17-2.38Q530.1,316.88,493.19,251.5q26.91-15.21,54.52-28.68L618,366.91A32.81,32.81,0,0,1,619.53,392.45Z"/><path class="cls-15" d="M665.48,189.32c9.83,3.79,16.09,10.11,19,18.76l23.22,69.54c2.88,8.66,2,17.33-2.49,26.05-4.93,9.51-13,16.29-24.36,20.67q-7.92,3-15.78,6.25c.52,1.26,1,2.52,1.54,3.77Q693,323.59,720,314.6l14.19,42.51q-30.88,10.27-61.06,23.05a41.92,41.92,0,0,1-27.6,2.34,31.38,31.38,0,0,1-22.27-17.81q-26.49-55.23-53-110.45c-4.62-9.61-4-19.54,2.33-29.72,5.56-9.18,14.14-16.33,25.55-21.16q15.48-6.56,31.12-12.58C642.56,185.68,654.74,185.25,665.48,189.32Zm-32.58,48.5-4.9,2q10,24.52,20,49l4.64-1.87Z"/><path class="cls-16" d="M792.47,154.46c9.2,5,14.56,12.13,16.29,21.08q7,36,14,72c1.73,8.95-.29,17.42-5.79,25.47-6.07,8.78-14.86,14.44-26.63,17.27q-8.17,2-16.31,4.09l1,3.94q27.39-7.15,55.12-12.51,4.27,22,8.54,44-31.74,6.13-63,14.75a41.24,41.24,0,0,1-27.43-1.37A31.56,31.56,0,0,1,728.6,322.5q-19-58.23-38-116.44c-3.31-10.13-1.41-19.87,6.06-29.09,6.64-8.35,16-14.27,27.81-17.53q16-4.42,32.22-8.32C770.37,147.82,782.41,149,792.47,154.46ZM754.2,198.19l-5.07,1.31q6.72,25.62,13.43,51.22l4.8-1.24Q760.78,223.84,754.2,198.19Z"/><path class="cls-17" d="M851.74,316.12c-7.67-5.35-12.45-12.43-14.13-21.4L804.13,116q30.25-5.64,60.75-9.49,1.53,12.12,3.08,24.24,32.65-4.12,65.5-6.14l2.79,45q-31.38,1.94-62.61,5.87,6.42,50.65,12.86,101.3l4.63-.58q-5.91-48.64-11.83-97.31,28.53-3.45,57.2-5.21,3.35,54,6.68,108c.66,10.66-2.95,19.4-10.53,26.38a40.67,40.67,0,0,1-24.8,11.33q-13.36,1.43-26.69,3.29C869.68,324.3,860,322.17,851.74,316.12Z"/><path class="cls-18" d="M1161.52,157.87q-3.78,22.53-7.55,45-23.17-3.87-46.5-6.59-7.28,62-14.54,123.95-24.66-2.88-49.43-4.28,5.25-92.35,10.51-184.71c.52-9.28,5-17,13.59-23,9.72-6.91,22.05-9.75,36.66-8.25q24.29,2.51,48.46,6.12l-6.81,45.17q-16.29-2.44-32.65-4.35c-.16,1.34-.31,2.69-.47,4Q1137.21,153.82,1161.52,157.87Z"/><path class="cls-19" d="M1180.92,335.37q-23.84-5.43-47.89-9.42l26.43-158.1c1.5-9,6.66-16.11,15.71-21.2,9.68-5.76,21.7-7.26,35.76-4.26q23,4.91,45.79,10.88-5.7,21.66-11.39,43.33-15.45-4-31-7.58Q1197.64,262.19,1180.92,335.37Z"/><path class="cls-20" d="M1242.62,351.93A41.15,41.15,0,0,1,1220.29,336a31.44,31.44,0,0,1-5.31-27.93l31.83-121.59c2.3-8.81,8.1-15.44,17.6-19.69,10.19-4.85,22.35-5.24,36.15-1q16,5,31.82,10.45c11.68,4.05,20.69,10.59,26.83,19.38,7,9.53,8.34,19.3,4.38,29.2l-46.68,116.7c-3.39,8.47-9.5,14.47-18.12,18.21-9.53,4.23-19.55,4.41-30.41.64Q1255.55,356,1242.62,351.93Zm24.53-39.22,4.47,1.47q16.61-50,33.2-100l-5-1.64Q1283.48,262.65,1267.15,312.71Z"/><path class="cls-21" d="M1344.17,391a41.8,41.8,0,0,1-20.28-18.85,31.38,31.38,0,0,1-1.72-28.44l47.45-116.4c3.43-8.44,10.08-14.24,20.12-17.18,10.81-3.44,23-2.19,36.27,3.94q15.35,7.09,30.5,14.72c11.17,5.63,19.35,13.37,24.38,22.95,5.78,10.45,5.89,20.35.65,29.63q-30.84,54.76-61.67,109.53c-4.48,7.95-11.37,13.06-20.48,15.58-10.09,2.88-20.14,1.68-30.53-3.56Q1356.59,396.72,1344.17,391Zm29.57-35.6q2.15,1,4.28,2.07,23-47.37,46-94.74l-4.8-2.32Z"/><path class="cls-22" d="M1422,419.29c-2.54-9.14-1.67-17.67,2.86-25.59l90.28-157.85q27.4,15.69,54,33.18l-13.4,20.44q28.53,18.73,56,39.59-13.61,18-27.2,36-26.28-19.92-53.56-37.84-28,42.7-56,85.41l4,2.67,54.21-81.7q24.83,16.51,48.84,34.71l-65.28,86.32c-6.44,8.51-15,12.66-25.63,12.81-9.66.37-18.61-2.36-27.11-8.18q-11.52-7.92-23.26-15.39C1430.78,437.39,1424.53,429.34,1422,419.29Z"/><path class="cls-23" d="M1700.13,416.76c2.95,12.06.48,21.85-7.06,29.38L1582,557.21q-18.68-18.68-38.22-35.91l97.09-110.24-4.16-3.66-96.47,110.8q-19.48-17-39.75-32.58l131.73-171.74q25.56,19.65,50.14,41.09-8,9.21-16,18.43,7.79,6.8,15.47,13.78C1691.43,395.93,1697.57,405.9,1700.13,416.76Z"/></g></svg>