<svg xmlns="http://www.w3.org/2000/svg" xmlns:xlink="http://www.w3.org/1999/xlink" width="1920" height="1080" viewBox="0 0 1920 1080"><defs><style>.cls-1{fill:#d65fbf;}.cls-2{fill:url(#New_Gradient_Swatch);}.cls-3,.cls-8{fill:#fff;}.cls-3,.cls-5,.cls-6{stroke:#42210b;}.cls-11,.cls-12,.cls-13,.cls-14,.cls-15,.cls-16,.cls-17,.cls-18,.cls-19,.cls-20,.cls-21,.cls-22,.cls-23,.cls-3,.cls-4,.cls-5,.cls-6{stroke-miterlimit:10;}.cls-3,.cls-5{stroke-width:6px;}.cls-12,.cls-4{stroke:#000;}.cls-11,.cls-4{stroke-width:2px;}.cls-24,.cls-5{fill:#fcfcfc;}.cls-6{fill:#00b428;}.cls-12,.cls-6{stroke-width:3px;}.cls-7{fill:#42210b;}.cls-9{fill:#006837;}.cls-10{fill:#44210b;}.cls-11{fill:#ed1c24;}.cls-11,.cls-13,.cls-14,.cls-15,.cls-16,.cls-17,.cls-18,.cls-19,.cls-20,.cls-21,.cls-22,.cls-23{stroke:#44210b;}.cls-13{fill:url(#linear-gradient);}.cls-14{fill:url(#linear-gradient-2);}.cls-15{fill:url(#linear-gradient-3);}.cls-16{fill:url(#linear-gradient-4);}.cls-17{fill:url(#linear-gradient-5);}.cls-18{fill:url(#linear-gradient-6);}.cls-19{fill:url(#linear-gradient-7);}.cls-20{fill:url(#linear-gradient-8);}.cls-21{fill:url(#linear-gradient-9);}.cls-22{fill:url(#linear-gradient-10);}.cls-23{fill:url(#linear-gradient-11);}</style><linearGradient id="New_Gradient_Swatch" y1="536" x2="1920" y2="536" gradientUnits="userSpaceOnUse"><stop offset="0" stop-color="#eec9db"/><stop offset="0.01" stop-color="#eec3d9" stop-opacity="0.98"/><stop offset="0.35" stop-color="#e538b3" stop-opacity="0.57"/><stop offset="0.5" stop-color="#e100a3" stop-opacity="0.4"/><stop offset="0.7" stop-color="#df42ab" stop-opacity="0.66"/><stop offset="0.9" stop-color="#de7eb3" stop-opacity="0.91"/><stop offset="1" stop-color="#dd96b6"/></linearGradient><linearGradient id="linear-gradient" x1="174.69" y1="412.91" x2="401.09" y2="412.91" gradientUnits="userSpaceOnUse"><stop offset="0" stop-color="#eec9db"/><stop offset="0.25" stop-color="#f455ff"/><stop offset="0.31" stop-color="#ec5aff" stop-opacity="0.95"/><stop offset="0.5" stop-color="#d46aff" stop-opacity="0.8"/><stop offset="0.56" stop-color="#dc53ff" stop-opacity="0.86"/><stop offset="0.72" stop-color="#f015ff"/><stop offset="0.81" stop-color="#e942e5"/><stop offset="0.94" stop-color="#e07ec3"/><stop offset="1" stop-color="#dd96b6"/></linearGradient><linearGradient id="linear-gradient-2" x1="291.31" y1="309.67" x2="560.9" y2="309.67" xlink:href="#linear-gradient"/><linearGradient id="linear-gradient-3" x1="500.75" y1="254.13" x2="686.48" y2="254.13" xlink:href="#linear-gradient"/><linearGradient id="linear-gradient-4" x1="636.24" y1="212.47" x2="802.81" y2="212.47" xlink:href="#linear-gradient"/><linearGradient id="linear-gradient-5" x1="764.39" y1="175.89" x2="919.23" y2="175.89" xlink:href="#linear-gradient"/><linearGradient id="linear-gradient-6" x1="1030.83" y1="170.41" x2="1162.19" y2="170.41" xlink:href="#linear-gradient"/><linearGradient id="linear-gradient-7" x1="1130.5" y1="201.76" x2="1268.15" y2="201.76" xlink:href="#linear-gradient"/><linearGradient id="linear-gradient-8" x1="1220.4" y1="229.39" x2="1389.56" y2="229.39" xlink:href="#linear-gradient"/><linearGradient id="linear-gradient-9" x1="1338.18" y1="279.59" x2="1522.66" y2="279.59" xlink:href="#linear-gradient"/><linearGradient id="linear-gradient-10" x1="1450.68" y1="328.02" x2="1663.46" y2="328.02" xlink:href="#linear-gradient"/><linearGradient id="linear-gradient-11" x1="1539.66" y1="421.36" x2="1763.14" y2="421.36" xlink:href="#linear-gradient"/></defs><g id="characters"><rect class="cls-1" x="2" y="1" width="1916" height="1078"/><rect class="cls-2" y="-4" width="1920" height="1080"/><path class="cls-3" d="M444.08,881.76a36.69,36.69,0,0,0-9.33-6.77,76.14,76.14,0,0,0,12.62-25.07c11.72-41-40.63-60-90.76-60-21.42,0-41.09,4.92-56.62,13.13-9.35-8.25-20.9-13.13-33.42-13.13-19.89,0-37.37,12.33-47.4,30.93a61,61,0,0,0-36.78-11.89c-30.72,0-55.63,21.3-55.63,47.58,0,12,5.26,23.06,13.9,31.44a40.61,40.61,0,0,0-8.07,13.15c-9.84,26.35,9.77,58,43.81,70.73,27.14,10.14,55.25,5.15,70.52-10.65,13,16.54,38.87,27.82,68.7,27.82,35.54,0,65.48-16,74.66-37.85,15.67,8.19,36.51,4.83,50.87-9.53C458.49,924.28,459.8,897.48,444.08,881.76Z"/><circle class="cls-1" cx="338.35" cy="881.43" r="19.76"/><circle class="cls-1" cx="231.44" cy="880.11" r="19.76"/><path class="cls-4" d="M245.6,863.56a31.24,31.24,0,0,1,1.67-2.74c3.71-5.42,8.54-8.41,13.58-8.41s9.86,3,13.58,8.41a28.91,28.91,0,0,1,1.66,2.74h2.6c-4-8-10.51-13.27-17.84-13.27S247,855.52,243,863.56Z"/><path class="cls-4" d="M293.39,863.56a28.91,28.91,0,0,1,1.66-2.74c3.72-5.42,8.54-8.41,13.58-8.41s9.87,3,13.58,8.41a31.24,31.24,0,0,1,1.67,2.74h2.59c-4-8-10.5-13.27-17.84-13.27s-13.83,5.23-17.84,13.27Z"/><path class="cls-4" d="M300.26,880.15a28,28,0,0,1-1.63,2.7c-3.65,5.32-8.38,8.25-13.33,8.25s-9.68-2.93-13.33-8.25a28,28,0,0,1-1.63-2.7h-2.55c3.93,7.89,10.31,13,17.51,13s13.57-5.14,17.5-13Z"/><path class="cls-5" d="M517,690.26c-.84-12.37-24.08-20.87-51.91-19-15.06,1-28.38,4.87-37.3,10.15,11.5-10.73,19.46-24.68,20.57-40.86,2.45-35.47-44.06-64.38-79.59-64.38S293.14,605,293.14,640.57c0,17.62,9.85,33.59,24.11,45.22-11.11.17-27.32,8.78-41.74,23.2-19.73,19.73-28.61,42.82-19.84,51.59,7,6.95,22.92,2.79,39.07-9.07a76.58,76.58,0,0,0,27.94,50,58.7,58.7,0,0,0-1.09,11.33c0,19.24,9,34.84,20,34.84,10.06,0,18.38-12.93,19.78-29.77a79.32,79.32,0,0,0,9.43.57c1.39,0,2.77,0,4.15-.11,1.52,16.61,9.78,29.31,19.74,29.31,11,0,20-15.6,20-34.84a60,60,0,0,0-.51-7.81,76.72,76.72,0,0,0,28.37-90.24,102.59,102.59,0,0,0,25.57,1.33C495.93,714.18,517.82,702.63,517,690.26Z"/><circle class="cls-1" cx="398.71" cy="635.59" r="8.63"/><circle class="cls-1" cx="346.94" cy="635.59" r="8.63"/><circle cx="390.08" cy="626.96" r="8.96"/><circle cx="352.91" cy="626.96" r="8.96"/><path class="cls-6" d="M365.85,547.59c3.53,4.06,5.85,11.2,2.66,14s-10.68.12-14.21-3.95-6.9-10.67-3.71-13.44S362.32,543.52,365.85,547.59Z"/><path class="cls-6" d="M385.11,559.42c-4.07,3.53-11.2,4.27-14,1.08s-.11-9.09,3.95-12.62,12.26-6.9,15-3.72S389.18,555.89,385.11,559.42Z"/><path class="cls-7" d="M368.65,560.93v13.23a1.5,1.5,0,0,0,3,0V560.93a1.5,1.5,0,0,0-3,0Z"/><path class="cls-7" d="M370.78,558.77a4.48,4.48,0,0,0,4.21-1c.54-.42,1-.91,1.6-1.28a10.71,10.71,0,0,1,1.77-.86,18.69,18.69,0,0,0,6.79-4.72,1.55,1.55,0,0,0,0-2.13,1.52,1.52,0,0,0-2.12,0,15.78,15.78,0,0,1-5.54,4,12.94,12.94,0,0,0-3.43,1.9c-.7.57-1.53,1.52-2.48,1.17a1.5,1.5,0,0,0-1.84,1,1.52,1.52,0,0,0,1,1.85Z"/><path class="cls-7" d="M377,554.71a11.33,11.33,0,0,1,0-2.79l-.06.4q.07-.5.18-1a1.5,1.5,0,0,0-1-1.84,1.5,1.5,0,0,0-1.85,1,12.71,12.71,0,0,0-.27,4.17,1.66,1.66,0,0,0,.44,1.06,1.56,1.56,0,0,0,1.06.44,1.54,1.54,0,0,0,1.06-.44,1.44,1.44,0,0,0,.44-1.06Z"/><path class="cls-7" d="M382.06,554.22a8.42,8.42,0,0,0,2.5.17,10.76,10.76,0,0,0,1.4-.23,10.55,10.55,0,0,0,1.33-.48,1.47,1.47,0,0,0,.68-.9,1.49,1.49,0,0,0-.15-1.15,1.47,1.47,0,0,0-.89-.69l-.4-.06a1.48,1.48,0,0,0-.76.21l-.07,0,.36-.16a6.54,6.54,0,0,1-1.68.46l.4-.06a6.93,6.93,0,0,1-1.82,0l.4,0-.5-.09a1.64,1.64,0,0,0-1.15.15,1.55,1.55,0,0,0-.69.9,1.53,1.53,0,0,0,1,1.85Z"/><path class="cls-7" d="M369.12,560c-1.15-2.52-3.47-4.2-5.62-5.83l-.33-.26s-.48-.37-.26-.19l-.76-.61a16.84,16.84,0,0,1-1.4-1.28q-.31-.33-.6-.69c.16.2,0,0-.08-.12s-.2-.28-.29-.43a6.72,6.72,0,0,1-.4-.75c0-.1,0-.08,0,0a1.17,1.17,0,0,1-.09-.24c-.06-.17-.11-.35-.16-.52a1.5,1.5,0,1,0-2.89.8c.75,2.81,2.94,4.7,5.16,6.4,1.94,1.49,4.08,2.93,5.1,5.19a1.52,1.52,0,0,0,2.06.54,1.55,1.55,0,0,0,.53-2.06Z"/><path class="cls-7" d="M364.58,555v-5.65a1.5,1.5,0,0,0-3,0V555a1.5,1.5,0,0,0,3,0Z"/><path class="cls-7" d="M367,557.5c-2.08-.65-4.12-.07-6.22-.13l-.54,0c-.14,0-.15,0,0,0l-.27-.05c-.19,0-.39-.09-.58-.15l-.25-.08s-.28-.11-.13,0-.17-.1-.17-.1l-.22-.12-.21-.14c.11.08.11.1,0,0l-.17-.17c-.2-.18.05.1,0,0s-.27-.54-.17-.26a1.5,1.5,0,1,0-2.89.8,5.52,5.52,0,0,0,4.82,3.31,13.75,13.75,0,0,0,2.94,0,16.9,16.9,0,0,1,1.74-.09,4.64,4.64,0,0,1,1.55.24,1.53,1.53,0,0,0,1.85-1A1.55,1.55,0,0,0,367,557.5Z"/><path class="cls-7" d="M357.26,548.57a6.25,6.25,0,0,1-.72.17l-.18,0c.41-.08.19,0,.08,0s-.24,0-.37,0a5.94,5.94,0,0,1-.73,0h-.18c-.2,0,.32,0,.12,0l-.4-.08a5.75,5.75,0,0,1-.71-.2l-.17-.07a1,1,0,1,0,.1.05,3.36,3.36,0,0,0-.33-.16,5.64,5.64,0,0,1-.67-.4l-.15-.11c-.16-.11.23.19.09.07l-.32-.27a1.51,1.51,0,0,0-2.12,0,1.53,1.53,0,0,0,0,2.12,7.79,7.79,0,0,0,7.45,1.76,1.5,1.5,0,0,0-.79-2.89Z"/><path class="cls-7" d="M360,549.32a9.27,9.27,0,0,0-.27-3.63,1.55,1.55,0,0,0-.69-.9,1.59,1.59,0,0,0-1.15-.15,1.53,1.53,0,0,0-1.05,1.85,9.46,9.46,0,0,1,.21,1.06l0-.4a8.3,8.3,0,0,1,0,2.17,1.52,1.52,0,0,0,.44,1.07,1.51,1.51,0,0,0,1.06.43,1.49,1.49,0,0,0,1.06-.43l.24-.31a1.51,1.51,0,0,0,.2-.76Z"/><path class="cls-7" d="M374.51,558.34l.11,0-.4,0a7.87,7.87,0,0,1,1.94,0l-.4-.06a9,9,0,0,1,.93.19,1.61,1.61,0,0,0,1.16-.15,1.51,1.51,0,0,0,.54-2.06,1.59,1.59,0,0,0-.9-.69,9.18,9.18,0,0,0-1.88-.28,9.34,9.34,0,0,0-1.9.12,1.49,1.49,0,0,0-.89.69,1.52,1.52,0,0,0-.15,1.16,1.47,1.47,0,0,0,.69.89l.35.16a1.55,1.55,0,0,0,.8,0Z"/><path class="cls-7" d="M337.2,748.53c4.74-9.54,14.42-15.11,24.34-18,10.81-3.11,23.11-3.08,32.36,4.08a26.11,26.11,0,0,1,9.31,13.8,1.5,1.5,0,0,0,2.89-.8c-2.89-10.79-12.18-18.86-23-21.22a44.27,44.27,0,0,0-19.73.55,54.21,54.21,0,0,0-16,6.48A34,34,0,0,0,334.61,747c-.86,1.72,1.73,3.24,2.59,1.51Z"/><path class="cls-7" d="M381.75,799.94c2.67-4.09,9-5.32,13.5-5.46s10.57,1.18,12.41,5.82c.7,1.77,3.61,1,2.89-.8-2.31-5.84-9-8.1-14.85-8s-13.16,1.79-16.54,7c-1.06,1.62,1.54,3.12,2.59,1.51Z"/><path class="cls-7" d="M297.22,750.12a62.49,62.49,0,0,1,1.09-12.52,1.54,1.54,0,0,0-1-1.85,1.52,1.52,0,0,0-1.85,1,66.15,66.15,0,0,0-1.2,13.32,1.5,1.5,0,0,0,3,0Z"/><path class="cls-7" d="M440.22,711.48l-4.76-2.69a1.5,1.5,0,0,0-1.51,2.59l4.75,2.69a1.5,1.5,0,0,0,1.52-2.59Z"/><path class="cls-7" d="M317.27,687.83l5.42,2.72A1.5,1.5,0,1,0,324.2,688l-5.41-2.72a1.5,1.5,0,0,0-1.52,2.59Z"/><path d="M383.47,639.24a19.81,19.81,0,0,1-1,1.73c-2.34,3.4-5.36,5.27-8.53,5.27s-6.2-1.87-8.53-5.27a19.81,19.81,0,0,1-1-1.73H362.7c2.51,5,6.59,8.34,11.2,8.34s8.69-3.29,11.2-8.34Z"/><path class="cls-8" d="M390.24,632.52c6.43,0,6.44-10,0-10s-6.45,10,0,10Z"/><path class="cls-8" d="M352.28,632.52c6.44,0,6.45-10,0-10s-6.44,10,0,10Z"/><path class="cls-9" d="M441.57,673.81c7.91,7.91,19.85,10.56,30.47,11.22,18.58,1.33,37.17-2,53.48-10.36"/><path class="cls-10" d="M440.78,674.61c7.76,7.66,18.82,10.52,29.4,11.41a108.14,108.14,0,0,0,36.5-3,96.74,96.74,0,0,0,19.41-7.4c1.29-.66.15-2.6-1.14-1.95a96.58,96.58,0,0,1-34.41,10A108.75,108.75,0,0,1,473,684a70.1,70.1,0,0,1-15.37-2.46A35.5,35.5,0,0,1,442.37,673c-1-1-2.63.57-1.59,1.59Z"/><polygon class="cls-11" points="504.87 637.81 483.73 601.17 462.57 637.79 441.4 674.42 526 674.45 504.87 637.81"/><path d="M459.9,670.34a1.5,1.5,0,0,0,0-3,1.5,1.5,0,0,0,0,3Z"/><path d="M471.19,655.2a1.5,1.5,0,0,0,0-3,1.5,1.5,0,0,0,0,3Z"/><path d="M477.29,628.54a1.5,1.5,0,0,0,0-3,1.5,1.5,0,0,0,0,3Z"/><path d="M488.36,628.09a1.5,1.5,0,0,0,0-3,1.5,1.5,0,0,0,0,3Z"/><path d="M482.72,612.89h-.23a1.06,1.06,0,0,0-.58.13,1.14,1.14,0,0,0-.48.31,1,1,0,0,0-.31.48,1.15,1.15,0,0,0-.13.58l.05.4a1.59,1.59,0,0,0,.39.66l.3.23a1.48,1.48,0,0,0,.76.21h.23a1.72,1.72,0,0,0,1.06-.44,1.24,1.24,0,0,0,.31-.48,1.27,1.27,0,0,0,.13-.58l-.06-.4a1.57,1.57,0,0,0-.38-.66l-.31-.24a1.5,1.5,0,0,0-.75-.2Z"/><path d="M504.41,666.27a1.5,1.5,0,0,0,0-3,1.5,1.5,0,0,0,0,3Z"/><path d="M502.82,657.69a1.5,1.5,0,0,0,0-3,1.5,1.5,0,0,0,0,3Z"/><path d="M481.59,668.08a1.5,1.5,0,0,0,0-3,1.5,1.5,0,0,0,0,3Z"/><path d="M458.09,655a1.5,1.5,0,0,0,0-3,1.5,1.5,0,0,0,0,3Z"/><path d="M464,660.85a1.5,1.5,0,0,0,0-3,1.5,1.5,0,0,0,0,3Z"/><path d="M468.71,663.79a1.5,1.5,0,0,0,0-3,1.5,1.5,0,0,0,0,3Z"/><path d="M473.23,668.08a1.5,1.5,0,0,0,0-3,1.5,1.5,0,0,0,0,3Z"/><path d="M458,663.42v-.23a1.15,1.15,0,0,0-.13-.58,1.08,1.08,0,0,0-.31-.48,1.14,1.14,0,0,0-.48-.31,1.17,1.17,0,0,0-.58-.13l-.4,0a1.44,1.44,0,0,0-.66.39l-.24.3a1.57,1.57,0,0,0-.2.76v.23a1,1,0,0,0,.13.57,1.34,1.34,0,0,0,.79.8,1.27,1.27,0,0,0,.58.13l.4-.06a1.57,1.57,0,0,0,.66-.38l.23-.31a1.42,1.42,0,0,0,.21-.75Z"/><path d="M450.86,671.69a1.5,1.5,0,0,0,0-3,1.5,1.5,0,0,0,0,3Z"/><path d="M450,662.82h-.46a1,1,0,0,0-.57.13,1.11,1.11,0,0,0-.49.31,1.17,1.17,0,0,0-.31.48,1.27,1.27,0,0,0-.13.58l.06.4a1.57,1.57,0,0,0,.38.66l.31.23a1.42,1.42,0,0,0,.75.21H450a1.72,1.72,0,0,0,1.06-.44,1.24,1.24,0,0,0,.31-.48,1.27,1.27,0,0,0,.13-.58l-.06-.4a1.57,1.57,0,0,0-.38-.66l-.31-.24a1.5,1.5,0,0,0-.75-.2Z"/><path d="M516.15,665.59a1.5,1.5,0,0,0,0-3,1.5,1.5,0,0,0,0,3Z"/><path d="M519.09,672.37a1.5,1.5,0,0,0,0-3,1.5,1.5,0,0,0,0,3Z"/><path d="M494.69,672.82a1.5,1.5,0,0,0,0-3,1.5,1.5,0,0,0,0,3Z"/><path d="M506.66,671.24a1.5,1.5,0,0,0,0-3,1.5,1.5,0,0,0,0,3Z"/><path d="M506.89,659.49a1.5,1.5,0,0,0,0-3,1.5,1.5,0,0,0,0,3Z"/><path d="M487,621.09a1.5,1.5,0,0,0,0-3,1.5,1.5,0,0,0,0,3Z"/><path d="M484.75,607.76a1.5,1.5,0,0,0,0-3,1.5,1.5,0,0,0,0,3Z"/><path d="M478,621.31a1.5,1.5,0,0,0,0-3,1.5,1.5,0,0,0,0,3Z"/><path d="M481.13,612.05a1.5,1.5,0,0,0,0-3,1.5,1.5,0,0,0,0,3Z"/><path d="M482,625.15a1.5,1.5,0,0,0,0-3,1.5,1.5,0,0,0,0,3Z"/><path d="M468.71,635.54a1.5,1.5,0,0,0,0-3,1.5,1.5,0,0,0,0,3Z"/><path d="M463.06,645.49a1.5,1.5,0,0,0,0-3,1.5,1.5,0,0,0,0,3Z"/><path d="M466.67,650.23a1.5,1.5,0,0,0,0-3,1.5,1.5,0,0,0,0,3Z"/><path d="M470.29,640.29a1.5,1.5,0,0,0,0-3,1.5,1.5,0,0,0,0,3Z"/><path d="M488.36,663.56a1.5,1.5,0,0,0,0-3,1.5,1.5,0,0,0,0,3Z"/><path d="M493.79,657.62h-.23a1.27,1.27,0,0,0-.58.13,1.24,1.24,0,0,0-.48.31,1.72,1.72,0,0,0-.44,1.06l.05.4a1.47,1.47,0,0,0,.39.66l.3.24a1.57,1.57,0,0,0,.76.2h.23a1,1,0,0,0,.57-.13,1.34,1.34,0,0,0,.8-.79,1.27,1.27,0,0,0,.13-.58l-.06-.4a1.57,1.57,0,0,0-.38-.66l-.31-.23a1.42,1.42,0,0,0-.75-.21Z"/><path d="M484.75,658.36a1.5,1.5,0,0,0,0-3,1.5,1.5,0,0,0,0,3Z"/><path d="M504.18,650.46a1.5,1.5,0,0,0,0-3,1.5,1.5,0,0,0,0,3Z"/><path d="M500.71,641.05v-.23a1.17,1.17,0,0,0-.13-.58,1.14,1.14,0,0,0-.31-.48,1.24,1.24,0,0,0-.48-.31,1.15,1.15,0,0,0-.58-.13l-.4.06a1.57,1.57,0,0,0-.66.38l-.24.31a1.5,1.5,0,0,0-.2.75v.23a1.06,1.06,0,0,0,.13.58,1.14,1.14,0,0,0,.31.48,1.08,1.08,0,0,0,.48.31,1.15,1.15,0,0,0,.58.13l.4-.06a1.47,1.47,0,0,0,.66-.38l.23-.3a1.48,1.48,0,0,0,.21-.76Z"/><path d="M493.33,629.44a1.5,1.5,0,0,0,0-3,1.5,1.5,0,0,0,0,3Z"/><path d="M493.56,635.77a1.5,1.5,0,0,0,0-3,1.5,1.5,0,0,0,0,3Z"/><path class="cls-12" d="M474.7,651.52v.13c0,5,3.63,9,8.12,9s8.13-4,8.13-9v-.13Z"/><circle class="cls-1" cx="501.24" cy="651.19" r="7.3"/><circle class="cls-1" cx="465.4" cy="652.51" r="7.3"/><circle cx="473.04" cy="641.56" r="7.63"/><path class="cls-8" d="M471.29,644.81c6.44,0,6.45-10,0-10s-6.44,10,0,10Z"/><circle cx="493.61" cy="640.9" r="7.63"/><path class="cls-8" d="M491.87,644.14c6.43,0,6.44-10,0-10s-6.45,10,0,10Z"/><path class="cls-13" d="M270.77,286l30.52,39.82q-29.88,23-58.51,48.19c1,1.14,2,2.27,3,3.41q8.44-7.44,17-14.68c10.71-9.07,22.15-14.17,34-15.31,13.32-1.18,23.52,3.15,30.72,12.57l66.35,86.59c6.17,8.06,8.34,17.4,6.78,27.95-1.61,11.72-7.48,21.69-17.71,30.36q-12.09,10.23-23.9,21c-8.72,7.9-18.36,12.44-29.24,13.66-11.9,1.62-22.1-1.56-30.5-10q-32.94-33-65.87-66Q257,440,281.71,418.18l54.11,61.47L340,476l-56.74-65.19q-7.92,6.9-15.74,14c-11.69,10.61-23.65,16.38-36.3,17.25-11.61,1.08-21.06-1.79-28.23-9l-19.44-19.47c-8.24-8.23-10.8-19.15-7.31-32.77,3-12.25,10.1-23.55,21.09-33.52Q233,314.9,270.77,286Z"/><path class="cls-14" d="M558.81,373.47c-3.71,11-11.28,19.55-22.9,25.89q-13.3,7.29-26.43,15a51.31,51.31,0,0,1-25.34,7.49c-9.67.22-18-2.44-25.06-8.16q-8.49,5.55-16.89,11.31c-9.74,6.68-19.95,9.88-30.9,9.61-12,0-21.69-4.54-28.86-14L291.31,300q28-21.19,56.94-40.44l77.31,116.55,4.62-3.06-76.66-117q29.21-19.19,59.31-36.4l82.88,145.05q2.31-1.34,4.64-2.64l-82.08-145.5q30-16.93,60.7-31.9l78.15,160.36C561.56,354.18,562,363.65,558.81,373.47Z"/><path class="cls-15" d="M610.06,147.44c10.93,4.22,17.9,11.26,21.1,20.87Q644.08,207,657,245.7c3.2,9.64,2.17,19.28-2.79,29-5.49,10.59-14.45,18.13-27.13,23q-8.8,3.39-17.56,6.95l1.71,4.2q29.46-12,59.49-22l15.78,47.29q-34.38,11.44-68,25.65c-10.31,4.36-20.46,5.24-30.72,2.6-11.31-2.62-19.64-9.11-24.78-19.83q-29.46-61.45-58.91-122.92c-5.13-10.69-4.39-21.74,2.61-33.06,6.2-10.22,15.75-18.17,28.46-23.55q17.22-7.29,34.64-14C584.55,143.38,598.1,142.91,610.06,147.44Zm-36.29,54-5.46,2.21q11.13,27.27,22.25,54.56l5.16-2.08Q584.74,228.75,573.77,201.4Z"/><path class="cls-16" d="M751.41,108.66c10.24,5.62,16.2,13.51,18.13,23.46q7.76,40,15.52,80.08c1.93,10-.32,19.39-6.45,28.35-6.76,9.77-16.55,16.06-29.64,19.21q-9.11,2.19-18.17,4.56c.39,1.46.77,2.92,1.15,4.38q30.49-8,61.37-13.91,4.74,24.47,9.49,48.94-35.34,6.81-70.19,16.4c-10.7,2.95-20.78,2.46-30.53-1.53-10.78-4.11-18.14-11.67-21.83-23Q659.13,230.86,638,166.07c-3.68-11.27-1.56-22.11,6.76-32.37,7.39-9.29,17.78-15.88,31-19.51q17.87-4.92,35.86-9.25C726.81,101.28,740.21,102.59,751.41,108.66ZM708.8,157.32l-5.65,1.46,14.94,57c1.77-.47,3.56-.93,5.34-1.38Q716.11,185.86,708.8,157.32Z"/><path class="cls-17" d="M817.34,288.55c-8.53-5.95-13.85-13.83-15.73-23.8Q783,165.32,764.39,65.88,798.07,59.61,832,55.33l3.42,27q36.36-4.59,72.91-6.84,1.56,25.05,3.1,50.08-34.92,2.15-69.7,6.53,7.15,56.35,14.3,112.71l5.16-.64Q854.63,190,848.05,135.87q31.76-3.84,63.67-5.8,3.72,60.09,7.43,120.18c.72,11.85-3.29,21.58-11.72,29.35-7.54,7.29-16.66,11.43-27.62,12.6q-14.88,1.59-29.71,3.67C837.31,297.66,826.51,295.29,817.34,288.55Z"/><path class="cls-18" d="M1162.19,112.46l-8.4,50.13q-25.8-4.31-51.76-7.33l-16.17,137.92q-27.45-3.19-55-4.75,5.84-102.77,11.69-205.53c.58-10.34,5.53-18.94,15.13-25.65,10.82-7.69,24.53-10.85,40.79-9.18q27,2.77,53.94,6.8-3.78,25.14-7.57,50.26-18.13-2.72-36.34-4.84c-.18,1.5-.35,3-.53,4.5Q1135.13,108,1162.19,112.46Z"/><path class="cls-19" d="M1183.82,310q-26.52-6-53.32-10.48,14.7-88,29.39-175.92c1.67-10,7.41-17.93,17.49-23.6,10.77-6.4,24.16-8.07,39.8-4.74q25.59,5.46,51,12.1-6.35,24.12-12.67,48.22-17.19-4.5-34.48-8.43Q1202.4,228.54,1183.82,310Z"/><path class="cls-20" d="M1252.52,328.4c-10.61-3.29-18.83-9.14-24.86-17.75-6.84-9.27-8.93-19.59-5.93-31.08q17.7-67.65,35.39-135.3c2.57-9.81,9-17.19,19.59-21.91,11.34-5.4,24.88-5.84,40.23-1.08q17.79,5.52,35.43,11.62c13,4.51,23,11.79,29.87,21.56,7.78,10.61,9.28,21.48,4.87,32.49l-51.9,129.88c-3.77,9.43-10.56,16.1-20.16,20.26-10.6,4.71-21.76,4.91-33.85.72Q1266.94,332.86,1252.52,328.4Zm27.29-43.65,5,1.64q18.45-55.62,36.91-111.24l-5.58-1.83Q1298,229,1279.81,284.75Z"/><path class="cls-21" d="M1365.59,371.82c-10.2-4.71-17.67-11.62-22.59-21-5.64-10.12-6.4-20.64-1.93-31.65q26.39-64.77,52.76-129.53c3.81-9.39,11.21-15.85,22.39-19.12,12-3.83,25.61-2.44,40.36,4.37q17.09,7.89,34,16.38c12.43,6.25,21.54,14.87,27.15,25.53,6.44,11.62,6.56,22.64.74,33l-68.58,121.89c-5,8.85-12.64,14.55-22.79,17.35-11.22,3.21-22.42,1.87-34-3.95Q1379.42,378.21,1365.59,371.82Zm32.89-39.63,4.77,2.3q25.59-52.71,51.19-105.43l-5.35-2.58Z"/><path class="cls-22" d="M1452.25,403.33c-2.83-10.17-1.86-19.66,3.17-28.48q50.19-87.84,100.39-175.69,30.51,17.46,60.15,36.9-7.44,11.38-14.89,22.75,31.76,20.85,62.39,44l-30.25,40q-29.25-22.17-59.63-42.09l-62.26,95.07c1.51,1,3,2,4.5,3l60.27-90.94q27.66,18.36,54.39,38.6l-72.59,96.09c-7.17,9.47-16.72,14.1-28.52,14.27-10.76.41-20.72-2.62-30.18-9.1q-12.84-8.81-25.9-17.11C1462,423.47,1455.07,414.51,1452.25,403.33Z"/><path class="cls-23" d="M1761.79,400.4c3.29,13.41.55,24.32-7.84,32.7L1630.44,556.76q-20.81-20.78-42.57-40l108-122.73L1691.2,390,1583.93,513.36q-21.71-18.9-44.27-36.24L1686.14,286q28.44,21.85,55.82,45.69l-17.84,20.52q8.67,7.56,17.24,15.33C1752.08,377.22,1758.92,388.32,1761.79,400.4Z"/><path class="cls-24" d="M1242.31,576h9.45v45.38h-9.45v-18h-.85v18h-9.4V576h9.4v18h.85Z"/><path class="cls-24" d="M1252.8,580.45h9.58v40.93h-9.58Z"/><path class="cls-24" d="M1283.36,619.06a7.06,7.06,0,0,1-1.89-4.94V576h9.39v5.12h10.31v9.46h-10.31V612h.86V591.43h9.45v22.69a6.76,6.76,0,0,1-2.31,5.37,7.11,7.11,0,0,1-4.95,1.89h-5.18A6.74,6.74,0,0,1,1283.36,619.06Z"/><path class="cls-24" d="M1319.6,583a7,7,0,0,1,2.31,5.43v32.94h-9.45v-30.8h-.86v30.8h-9.39V576h9.39v5.12h3.05A7.11,7.11,0,0,1,1319.6,583Z"/><path class="cls-24" d="M1340.76,583.44a7.32,7.32,0,0,1,1.89,5v15.37a7.32,7.32,0,0,1-1.89,5,6.88,6.88,0,0,1-5.37,2.31h-3.05V612h10.31v9.39h-12.44a7.08,7.08,0,0,1-4.94-1.89,6.74,6.74,0,0,1-2.32-5.37V588.44a7,7,0,0,1,2.32-5.43,7.08,7.08,0,0,1,4.94-1.89h5.18A6.88,6.88,0,0,1,1340.76,583.44Zm-7.56,7.14h-.86v11.1h.86Z"/><path class="cls-24" d="M1353,621.38h-9.39V587.77a7.08,7.08,0,0,1,1.89-4.94,6.77,6.77,0,0,1,5.37-2.32h7.32v9.4H1353Z"/><path class="cls-24" d="M1375.84,583.44a7.32,7.32,0,0,1,1.89,5v15.37a7.32,7.32,0,0,1-1.89,5,6.89,6.89,0,0,1-5.37,2.31h-3V612h10.31v9.39h-12.45a7.08,7.08,0,0,1-4.94-1.89,6.77,6.77,0,0,1-2.32-5.37V588.44a7,7,0,0,1,2.32-5.43,7.08,7.08,0,0,1,4.94-1.89h5.19A6.9,6.9,0,0,1,1375.84,583.44Zm-7.57,7.14h-.85v11.1h.85Z"/><path class="cls-24" d="M1414.15,577.89a6.88,6.88,0,0,1,2.31,5.37v20.13H1407V585.45h-.86v18.79h10.31v9.46h-10.31v7.68h-9.39V583.26a7.08,7.08,0,0,1,1.89-4.94A6.74,6.74,0,0,1,1404,576h5.18A7.11,7.11,0,0,1,1414.15,577.89Z"/><path class="cls-24" d="M1426.83,621.38h-9.39V587.77a7.08,7.08,0,0,1,1.89-4.94,6.77,6.77,0,0,1,5.37-2.32H1432v9.4h-5.19Z"/><path class="cls-24" d="M1431.83,580.45h9.58v40.93h-9.58Z"/><path class="cls-24" d="M1460.32,583.44a7.32,7.32,0,0,1,1.89,5v15.37a7.32,7.32,0,0,1-1.89,5,6.88,6.88,0,0,1-5.37,2.31h-3V612h10.31v9.39h-12.44a7.08,7.08,0,0,1-4.94-1.89,6.74,6.74,0,0,1-2.32-5.37V588.44a7,7,0,0,1,2.32-5.43,7.08,7.08,0,0,1,4.94-1.89H1455A6.88,6.88,0,0,1,1460.32,583.44Zm-7.56,7.14h-.86v11.1h.86Z"/><path class="cls-24" d="M1472.64,626.51h-9.39V587.83a7.08,7.08,0,0,1,1.89-4.94,6.77,6.77,0,0,1,5.37-2.32h5.18a7.13,7.13,0,0,1,4.94,1.89,6.88,6.88,0,0,1,2.32,5.37v33.55h-9.45V590h-.86Z"/><path class="cls-24" d="M1486.31,619.49a6.74,6.74,0,0,1-2.32-5.37V588.44a7.5,7.5,0,0,1,2-5.09,6.71,6.71,0,0,1,5.31-2.23h3V576h9.45v38.12a7.06,7.06,0,0,1-1.89,4.94,6.85,6.85,0,0,1-5.37,2.32h-5.18A7.08,7.08,0,0,1,1486.31,619.49Zm7.07-7.5h.86V590.58h-.86Z"/><path class="cls-24" d="M1504.73,575.21h9.58V611h-9.58Zm0,36.29h9.58v9.88h-9.58Z"/><path class="cls-24" d="M1232.06,649.2h9.4v9.7h-9.4Zm0,10.31h9.4v35.07h-9.4Z"/><path class="cls-24" d="M1246.16,662.77a3.38,3.38,0,0,0,3-1.74,7.64,7.64,0,0,0,1.12-4.19c-2.62,0-3.94-1.48-3.94-4.46a3.86,3.86,0,0,1,1.26-2.76,4.71,4.71,0,0,1,3.51-1.26A3.31,3.31,0,0,1,1254,650a7.81,7.81,0,0,1,1.09,4.33,11.12,11.12,0,0,1-2.62,7.23,7.89,7.89,0,0,1-6.28,3.2Z"/><path class="cls-24" d="M1267.58,694.58h-9.39V660.85a7.08,7.08,0,0,1,1.89-4.94,6.74,6.74,0,0,1,5.37-2.32h5.12a7.56,7.56,0,0,1,4.33,1.37,6.57,6.57,0,0,1,2.69,3.75h3.23a7.09,7.09,0,0,1,4.94,1.9,6.84,6.84,0,0,1,2.32,5.36v33.74h-9.39v-31.6h-.86v26.47h-9.39V663h-.86Z"/><path class="cls-24" d="M1324.92,656.64a7.32,7.32,0,0,1,1.89,5V674h-9.45V663.78h-.85v21.41h.85V674.88h9.45v12.44a6.76,6.76,0,0,1-2.31,5.37,7.1,7.1,0,0,1-4.94,1.89h-5.19a6.74,6.74,0,0,1-5.37-2.32,7.06,7.06,0,0,1-1.89-4.94V661.64a7,7,0,0,1,2.32-5.43,7.08,7.08,0,0,1,4.94-1.89h5.19A6.88,6.88,0,0,1,1324.92,656.64Z"/><path class="cls-24" d="M1337.18,694.58h-9.39V661a7.08,7.08,0,0,1,1.89-4.94,6.77,6.77,0,0,1,5.37-2.32h7.32v9.4h-5.19Z"/><path class="cls-24" d="M1361.89,687.32a6.74,6.74,0,0,1-2.32,5.37,7.08,7.08,0,0,1-4.94,1.89h-5.18a6.74,6.74,0,0,1-5.37-2.32,7.06,7.06,0,0,1-1.89-4.94V671.89a7.08,7.08,0,0,1,1.89-4.94,6.77,6.77,0,0,1,5.37-2.32h3v-.85h-10.24v-9.46h12.44a7.08,7.08,0,0,1,4.94,1.89,7,7,0,0,1,2.32,5.43ZM1352.43,674h-.85v11.16h.85Z"/><path class="cls-24" d="M1378.3,692a12.7,12.7,0,0,1-8.11,2.81h-7.26V653.65h9.39v31a2.81,2.81,0,0,0,.85-2.26V653.65h9.46v28.73A11.67,11.67,0,0,1,1378.3,692Z"/><path class="cls-24" d="M1383.67,653.65h9.57v40.93h-9.57Z"/><path class="cls-24" d="M1403.73,699.71h-9.39V661a7.08,7.08,0,0,1,1.89-4.94,6.77,6.77,0,0,1,5.37-2.32h5.18a7.11,7.11,0,0,1,5,1.9A6.87,6.87,0,0,1,1414,661v33.55h-9.45V663.17h-.86Z"/><path class="cls-24" d="M1432.89,655.85a7.3,7.3,0,0,1,1.89,5v36.78a7.08,7.08,0,0,1-1.89,4.94,6.85,6.85,0,0,1-5.37,2.32h-3v.86h7.75v9.45h-9.88a6.74,6.74,0,0,1-5.37-2.32,7.3,7.3,0,0,1-1.89-5v-5.12a6.92,6.92,0,0,1,2.32-5.43,7.21,7.21,0,0,1,4.94-1.83h3v-.86h-3a6.76,6.76,0,0,1-5.37-2.31,7.11,7.11,0,0,1-1.89-5V660.85a6.92,6.92,0,0,1,2.32-5.43,7.08,7.08,0,0,1,4.94-1.89h5.18A6.85,6.85,0,0,1,1432.89,655.85Zm-7.56,7.14h-.86v22.2h.86Z"/><path class="cls-24" d="M1471.63,692.2a6.85,6.85,0,0,1-5.37,2.32h-5.18a7.24,7.24,0,0,1-4.95-1.83,6.94,6.94,0,0,1-2.31-5.43v-13h9.39v10.92h.85V673.36h-3a6.77,6.77,0,0,1-5.37-2.32,7.32,7.32,0,0,1-1.89-5v-5.13a7,7,0,0,1,2.31-5.43,7.24,7.24,0,0,1,4.95-1.83H1471v9.4h-7.75v.85h3a7.08,7.08,0,0,1,4.94,1.89,6.85,6.85,0,0,1,2.32,5.37v16.1A7.08,7.08,0,0,1,1471.63,692.2Z"/><path class="cls-24" d="M1481.82,694.58a7.11,7.11,0,0,1-5-1.89,6.76,6.76,0,0,1-2.31-5.37V661a7.08,7.08,0,0,1,1.89-4.94,6.77,6.77,0,0,1,5.37-2.32H1487a7.08,7.08,0,0,1,4.94,1.89,6.77,6.77,0,0,1,2.32,5.37v26.35a7.06,7.06,0,0,1-1.89,4.94,6.85,6.85,0,0,1-5.37,2.32Zm2.13-9.39h.85V663.11H1484Z"/><path class="cls-24" d="M1504.69,694.58h-9.39V660.85a7.08,7.08,0,0,1,1.89-4.94,6.74,6.74,0,0,1,5.37-2.32h5.12A7.58,7.58,0,0,1,1512,655a6.55,6.55,0,0,1,2.68,3.75h3.24a7.09,7.09,0,0,1,4.94,1.9,6.88,6.88,0,0,1,2.32,5.36v33.74h-9.4v-31.6h-.85v26.47h-9.4V663h-.85Z"/><path class="cls-24" d="M1544,656.64a7.36,7.36,0,0,1,1.89,5V677a7.37,7.37,0,0,1-1.89,5,6.9,6.9,0,0,1-5.37,2.31h-3.05v.86h10.31v9.39h-12.45a7.08,7.08,0,0,1-4.94-1.89,6.77,6.77,0,0,1-2.32-5.37V661.64a7,7,0,0,1,2.32-5.43,7.08,7.08,0,0,1,4.94-1.89h5.19A6.91,6.91,0,0,1,1544,656.64Zm-7.57,7.14h-.85v11.1h.85Z"/><path class="cls-24" d="M1548.85,692.26a7.06,7.06,0,0,1-1.89-4.94V649.2h9.4v5.12h10.31v9.46h-10.31v21.41h.85V664.63h9.46v22.69a6.77,6.77,0,0,1-2.32,5.37,7.08,7.08,0,0,1-4.94,1.89h-5.19A6.77,6.77,0,0,1,1548.85,692.26Z"/><path class="cls-24" d="M1585.09,656.21a7,7,0,0,1,2.32,5.43v32.94H1578v-30.8h-.85v30.8h-9.4V649.2h9.4v5.12h3.05A7.08,7.08,0,0,1,1585.09,656.21Z"/><path class="cls-24" d="M1588.44,653.65H1598v40.93h-9.58Z"/><path class="cls-24" d="M1608.51,699.71h-9.39V661a7.08,7.08,0,0,1,1.89-4.94,6.77,6.77,0,0,1,5.37-2.32h5.18a7.09,7.09,0,0,1,4.94,1.9,6.84,6.84,0,0,1,2.32,5.36v33.55h-9.45V663.17h-.86Z"/><path class="cls-24" d="M1637.67,655.85a7.3,7.3,0,0,1,1.89,5v36.78a7.08,7.08,0,0,1-1.89,4.94,6.85,6.85,0,0,1-5.37,2.32h-3v.86H1637v9.45h-9.88a6.74,6.74,0,0,1-5.37-2.32,7.3,7.3,0,0,1-1.89-5v-5.12a6.92,6.92,0,0,1,2.32-5.43,7.21,7.21,0,0,1,4.94-1.83h3v-.86h-3a6.76,6.76,0,0,1-5.37-2.31,7.11,7.11,0,0,1-1.89-5V660.85a6.92,6.92,0,0,1,2.32-5.43,7.08,7.08,0,0,1,4.94-1.89h5.18A6.85,6.85,0,0,1,1637.67,655.85Zm-7.56,7.14h-.86v22.2h.86Z"/><path class="cls-24" d="M1676.41,692.2a6.88,6.88,0,0,1-5.37,2.32h-5.19a7.21,7.21,0,0,1-4.94-1.83,7,7,0,0,1-2.32-5.43v-13h9.4v10.92h.85V673.36h-3a6.8,6.8,0,0,1-5.37-2.32,7.32,7.32,0,0,1-1.89-5v-5.13a7,7,0,0,1,2.32-5.43,7.21,7.21,0,0,1,4.94-1.83h9.88v9.4H1668v.85h3a7.08,7.08,0,0,1,4.94,1.89,6.88,6.88,0,0,1,2.32,5.37v16.1A7.08,7.08,0,0,1,1676.41,692.2Z"/><path class="cls-24" d="M1707.45,692.2a6.91,6.91,0,0,1-5.42,2.32h-5.13a7.48,7.48,0,0,1-4.27-1.28,6.55,6.55,0,0,1-2.74-3.84h-3.3a7.08,7.08,0,0,1-4.94-1.89,6.77,6.77,0,0,1-2.32-5.37V653.65h9.4V680h.85V653.65H1699v31.48h.85V653.65h9.39v33.61A7.21,7.21,0,0,1,1707.45,692.2Z"/><path class="cls-24" d="M1728.13,656.64a7.32,7.32,0,0,1,1.89,5V677a7.32,7.32,0,0,1-1.89,5,6.88,6.88,0,0,1-5.37,2.31h-3v.86H1730v9.39h-12.44a7.08,7.08,0,0,1-4.94-1.89,6.74,6.74,0,0,1-2.32-5.37V661.64a7,7,0,0,1,2.32-5.43,7.08,7.08,0,0,1,4.94-1.89h5.18A6.88,6.88,0,0,1,1728.13,656.64Zm-7.56,7.14h-.86v11.1h.86Z"/><path class="cls-24" d="M1748.87,656.64a7.32,7.32,0,0,1,1.89,5V677a7.32,7.32,0,0,1-1.89,5,6.88,6.88,0,0,1-5.37,2.31h-3v.86h10.3v9.39h-12.44a7.08,7.08,0,0,1-4.94-1.89,6.74,6.74,0,0,1-2.32-5.37V661.64a7,7,0,0,1,2.32-5.43,7.08,7.08,0,0,1,4.94-1.89h5.18A6.88,6.88,0,0,1,1748.87,656.64Zm-7.56,7.14h-.85v11.1h.85Z"/><path class="cls-24" d="M1753.69,692.26a7.06,7.06,0,0,1-1.89-4.94V649.2h9.4v5.12h10.3v9.46h-10.3v21.41h.85V664.63h9.45v22.69a6.76,6.76,0,0,1-2.31,5.37,7.1,7.1,0,0,1-4.94,1.89h-5.19A6.74,6.74,0,0,1,1753.69,692.26Z"/><path class="cls-24" d="M1772.54,684.88h9.4v9.7h-9.4Z"/><path class="cls-24" d="M1242.31,722.4h9.45v45.38h-9.45v-18h-.85v18h-9.4V722.4h9.4v18h.85Z"/><path class="cls-24" d="M1270.61,729.84a7.32,7.32,0,0,1,1.89,5v15.37a7.32,7.32,0,0,1-1.89,5,6.88,6.88,0,0,1-5.36,2.32h-3v.85h10.3v9.39h-12.44a7.08,7.08,0,0,1-4.94-1.89,6.74,6.74,0,0,1-2.32-5.37V734.84a7,7,0,0,1,2.32-5.43,7.08,7.08,0,0,1,4.94-1.89h5.19A6.88,6.88,0,0,1,1270.61,729.84Zm-7.56,7.14h-.85v11.1h.85Z"/><path class="cls-24" d="M1282.94,767.78h-9.4V722.4h9.4Z"/><path class="cls-24" d="M1301.42,729.41a7,7,0,0,1,2.32,5.43v25.68a7.06,7.06,0,0,1-1.89,4.94,6.88,6.88,0,0,1-5.37,2.32h-3v5.13H1284V734.84a7.46,7.46,0,0,1,2-5.09,6.71,6.71,0,0,1,5.3-2.23h5.19A7.08,7.08,0,0,1,1301.42,729.41Zm-7.14,7.57h-.85v21.41h.85Z"/><path class="cls-24" d="M1332.16,767.78h-9.39V734.05a7.08,7.08,0,0,1,1.89-4.94,6.74,6.74,0,0,1,5.37-2.32h5.12a7.56,7.56,0,0,1,4.33,1.37,6.56,6.56,0,0,1,2.69,3.76h3.23a7.08,7.08,0,0,1,4.94,1.89,6.84,6.84,0,0,1,2.32,5.36v33.74h-9.4v-31.6h-.85v26.47H1333V736.19h-.86Z"/><path class="cls-24" d="M1371.51,729.84a7.32,7.32,0,0,1,1.89,5v15.37a7.32,7.32,0,0,1-1.89,5,6.9,6.9,0,0,1-5.37,2.32h-3.05v.85h10.31v9.39H1361a7.11,7.11,0,0,1-5-1.89,6.76,6.76,0,0,1-2.31-5.37V734.84a7,7,0,0,1,2.31-5.43,7.11,7.11,0,0,1,5-1.89h5.18A6.9,6.9,0,0,1,1371.51,729.84Zm-7.57,7.14h-.85v11.1h.85Z"/><path class="cls-24" d="M1420.55,765.4a6.92,6.92,0,0,1-5.43,2.32H1410a7.46,7.46,0,0,1-4.27-1.28,6.61,6.61,0,0,1-2.75-3.84h-3.29a7.08,7.08,0,0,1-4.94-1.89,6.74,6.74,0,0,1-2.32-5.37V726.85h9.4V753.2h.85V726.85h9.45v31.48h.86V726.85h9.39v33.61A7.2,7.2,0,0,1,1420.55,765.4Z"/><path class="cls-24" d="M1440.8,729.41a7,7,0,0,1,2.32,5.43v32.94h-9.45V737h-.86v30.8h-9.39V722.4h9.39v5.12h3A7.08,7.08,0,0,1,1440.8,729.41Z"/><path class="cls-24" d="M1463.86,760.52a6.74,6.74,0,0,1-2.32,5.37,7.08,7.08,0,0,1-4.94,1.89h-5.18a6.74,6.74,0,0,1-5.37-2.32,7.06,7.06,0,0,1-1.89-4.94V745.09a7.08,7.08,0,0,1,1.89-4.94,6.77,6.77,0,0,1,5.37-2.32h3V737h-10.25v-9.46h12.44a7.08,7.08,0,0,1,4.94,1.89,7,7,0,0,1,2.32,5.43Zm-9.45-13.29h-.86v11.16h.86Z"/><path class="cls-24" d="M1482.71,729.84a7.32,7.32,0,0,1,1.89,5v12.39h-9.45V737h-.86v21.41h.86V748.08h9.45v12.44a6.74,6.74,0,0,1-2.32,5.37,7.08,7.08,0,0,1-4.94,1.89h-5.18a6.74,6.74,0,0,1-5.37-2.32,7.06,7.06,0,0,1-1.89-4.94V734.84a7,7,0,0,1,2.32-5.43,7.08,7.08,0,0,1,4.94-1.89h5.18A6.88,6.88,0,0,1,1482.71,729.84Z"/><path class="cls-24" d="M1495,767.78h-9.39V722.4H1495V743h.86V727.52h9.45v17.57a3.33,3.33,0,0,1-.67,1.59,6.87,6.87,0,0,0-.73,1.28,4.66,4.66,0,0,0,.76,1,2,2,0,0,1,.64,1.21v17.57h-9.45V752.35H1495Z"/><path class="cls-24" d="M1544.08,760.52a6.77,6.77,0,0,1-2.32,5.37,7.08,7.08,0,0,1-4.94,1.89h-5.19a6.73,6.73,0,0,1-5.36-2.32,7,7,0,0,1-1.9-4.94V745.09a7,7,0,0,1,1.9-4.94,6.76,6.76,0,0,1,5.36-2.32h3V737h-10.25v-9.46h12.45a7.08,7.08,0,0,1,4.94,1.89,7,7,0,0,1,2.32,5.43Zm-9.46-13.29h-.85v11.16h.85Z"/><path class="cls-24" d="M1554.51,767.78h-9.4V722.4h9.4Z"/><path class="cls-24" d="M1565,767.78h-9.39V722.4H1565Z"/><path class="cls-24" d="M1586,765.46a7,7,0,0,1-1.9-4.94V722.4h9.4v5.12h10.31V737h-10.31v21.41h.85V737.83h9.46v22.69a6.77,6.77,0,0,1-2.32,5.37,7.08,7.08,0,0,1-4.94,1.89h-5.19A6.73,6.73,0,0,1,1586,765.46Z"/><path class="cls-24" d="M1622.22,729.41a7,7,0,0,1,2.32,5.43v32.94h-9.46V737h-.85v30.8h-9.4V722.4h9.4v5.12h3A7.08,7.08,0,0,1,1622.22,729.41Z"/><path class="cls-24" d="M1643.39,729.84a7.32,7.32,0,0,1,1.89,5v15.37a7.32,7.32,0,0,1-1.89,5,6.91,6.91,0,0,1-5.37,2.32h-3v.85h10.31v9.39h-12.45a7.08,7.08,0,0,1-4.94-1.89,6.77,6.77,0,0,1-2.32-5.37V734.84a7,7,0,0,1,2.32-5.43,7.08,7.08,0,0,1,4.94-1.89H1638A6.91,6.91,0,0,1,1643.39,729.84Zm-7.57,7.14H1635v11.1h.85Z"/><path class="cls-24" d="M1681.7,724.29a6.88,6.88,0,0,1,2.31,5.37v20.13h-9.45V731.85h-.86v18.79H1684v9.46H1673.7v7.68h-9.39V729.66a7.08,7.08,0,0,1,1.89-4.94,6.74,6.74,0,0,1,5.37-2.32h5.18A7.11,7.11,0,0,1,1681.7,724.29Z"/><path class="cls-24" d="M1694.38,767.78H1685V734.17a7.08,7.08,0,0,1,1.89-4.94,6.77,6.77,0,0,1,5.37-2.32h7.32v9.4h-5.19Z"/><path class="cls-24" d="M1706.64,767.72a7.21,7.21,0,0,1-4.94-1.83,7,7,0,0,1-2.32-5.43V726.85h9.4v31.48h.85V726.85h9.46v33.61a7.06,7.06,0,0,1-1.89,4.94,6.88,6.88,0,0,1-5.37,2.32Z"/><path class="cls-24" d="M1720.12,726.85h9.58v40.93h-9.58Z"/><path class="cls-24" d="M1732.69,765.46a7.06,7.06,0,0,1-1.89-4.94V722.4h9.39v5.12h10.31V737h-10.31v21.41h.86V737.83h9.45v22.69a6.74,6.74,0,0,1-2.32,5.37,7.08,7.08,0,0,1-4.94,1.89h-5.18A6.74,6.74,0,0,1,1732.69,765.46Z"/><path class="cls-24" d="M1786.92,765.89a7.08,7.08,0,0,1-4.94,1.89h-5.19a6.77,6.77,0,0,1-5.37-2.32,7.06,7.06,0,0,1-1.89-4.94V722.4h9.4v5.12h3a6.91,6.91,0,0,1,5.37,2.32,7.32,7.32,0,0,1,1.89,5v25.68A6.77,6.77,0,0,1,1786.92,765.89ZM1779.78,737h-.85v21.41h.85Z"/><path class="cls-24" d="M1797.53,767.72a7.21,7.21,0,0,1-4.94-1.83,7,7,0,0,1-2.32-5.43V726.85h9.4v31.48h.85V726.85H1810v33.61a7.06,7.06,0,0,1-1.89,4.94,6.88,6.88,0,0,1-5.37,2.32Z"/><path class="cls-24" d="M1812.91,765.46a7,7,0,0,1-1.9-4.94V722.4h9.4v5.12h10.31V737h-10.31v21.41h.85V737.83h9.46v22.69a6.77,6.77,0,0,1-2.32,5.37,7.08,7.08,0,0,1-4.94,1.89h-5.19A6.73,6.73,0,0,1,1812.91,765.46Z"/><path class="cls-24" d="M1831.75,758h9.4v12.26h-9.4Z"/><path class="cls-24" d="M1249.45,839.09a7.11,7.11,0,0,1-5,1.89h-5.18a6.76,6.76,0,0,1-5.37-2.31,7.11,7.11,0,0,1-1.89-4.95V795.6h9.4v5.12h3a6.88,6.88,0,0,1,5.37,2.32,7.32,7.32,0,0,1,1.89,5v25.68A6.76,6.76,0,0,1,1249.45,839.09Zm-7.14-28.91h-.85v21.41h.85Z"/><path class="cls-24" d="M1270.61,803a7.32,7.32,0,0,1,1.89,5v15.38a7.32,7.32,0,0,1-1.89,5,6.88,6.88,0,0,1-5.36,2.32h-3v.85h10.3V841h-12.44a7.08,7.08,0,0,1-4.94-1.89,6.74,6.74,0,0,1-2.32-5.37V808a7,7,0,0,1,2.32-5.43,7.08,7.08,0,0,1,4.94-1.89h5.19A6.88,6.88,0,0,1,1270.61,803Zm-7.56,7.14h-.85v11.1h.85Z"/><path class="cls-24" d="M1301.66,838.6a6.92,6.92,0,0,1-5.43,2.32h-5.12a7.38,7.38,0,0,1-4.27-1.28,6.61,6.61,0,0,1-2.75-3.84h-3.29a7.08,7.08,0,0,1-4.94-1.89,6.74,6.74,0,0,1-2.32-5.37V800.05h9.4V826.4h.85V800.05h9.45v31.48h.86V800.05h9.39v33.61A7.2,7.2,0,0,1,1301.66,838.6Z"/><path class="cls-24" d="M1324.23,833.72a6.74,6.74,0,0,1-2.32,5.37A7.08,7.08,0,0,1,1317,841h-5.18a6.76,6.76,0,0,1-5.37-2.31,7.11,7.11,0,0,1-1.89-4.95V818.29a7.08,7.08,0,0,1,1.89-4.94,6.77,6.77,0,0,1,5.37-2.32h3v-.85h-10.25v-9.46H1317a7.08,7.08,0,0,1,4.94,1.89,7,7,0,0,1,2.32,5.43Zm-9.45-13.29h-.86v11.16h.86Z"/><path class="cls-24" d="M1334.6,841h-9.39V807.37a7.08,7.08,0,0,1,1.89-4.94,6.77,6.77,0,0,1,5.37-2.32h7.32v9.4h-5.19Z"/><path class="cls-24" d="M1357.42,803a7.36,7.36,0,0,1,1.89,5v15.38a7.36,7.36,0,0,1-1.89,5,6.91,6.91,0,0,1-5.37,2.32h-3v.85h10.31V841h-12.45a7.08,7.08,0,0,1-4.94-1.89,6.77,6.77,0,0,1-2.32-5.37V808a7,7,0,0,1,2.32-5.43,7.08,7.08,0,0,1,4.94-1.89h5.19A6.91,6.91,0,0,1,1357.42,803Zm-7.57,7.14H1349v11.1h.85Z"/><path class="cls-24" d="M1385.6,841a7.08,7.08,0,0,1-4.94-1.89,6.74,6.74,0,0,1-2.32-5.37V807.37a7.08,7.08,0,0,1,1.89-4.94,6.77,6.77,0,0,1,5.37-2.32h5.18a7.08,7.08,0,0,1,4.94,1.89,6.77,6.77,0,0,1,2.32,5.37v26.35a7.11,7.11,0,0,1-1.89,4.95,6.88,6.88,0,0,1-5.37,2.31Zm2.13-9.39h.86V809.51h-.86Z"/><path class="cls-24" d="M1416.46,797.49a6.85,6.85,0,0,1,2.32,5.37V823h-9.45V805.05h-.86v18.79h10.31v9.46h-10.31V841h-9.39V802.86a7.08,7.08,0,0,1,1.89-4.94,6.74,6.74,0,0,1,5.37-2.32h5.18A7.08,7.08,0,0,1,1416.46,797.49Z"/><path class="cls-24" d="M1439.71,838.67a7.07,7.07,0,0,1-1.9-4.95V795.6h9.4v5.12h10.31v9.46h-10.31v21.41h.85V811h9.46v22.69a6.77,6.77,0,0,1-2.32,5.37,7.08,7.08,0,0,1-4.94,1.89h-5.19A6.76,6.76,0,0,1,1439.71,838.67Z"/><path class="cls-24" d="M1475.94,802.61a7,7,0,0,1,2.32,5.43V841h-9.46v-30.8H1468V841h-9.4V795.6h9.4v5.12h3A7.08,7.08,0,0,1,1475.94,802.61Z"/><path class="cls-24" d="M1497.11,803a7.32,7.32,0,0,1,1.89,5v15.38a7.32,7.32,0,0,1-1.89,5,6.91,6.91,0,0,1-5.37,2.32h-3v.85H1499V841h-12.45a7.08,7.08,0,0,1-4.94-1.89,6.77,6.77,0,0,1-2.32-5.37V808a7,7,0,0,1,2.32-5.43,7.08,7.08,0,0,1,4.94-1.89h5.19A6.91,6.91,0,0,1,1497.11,803Zm-7.57,7.14h-.85v11.1h.85Z"/><path class="cls-24" d="M1533.4,838.42a12.7,12.7,0,0,1-8.11,2.81H1518V800.05h9.39v31a2.82,2.82,0,0,0,.86-2.26V800.05h9.45v28.73A11.67,11.67,0,0,1,1533.4,838.42Z"/><path class="cls-24" d="M1556.58,803a7.32,7.32,0,0,1,1.89,5v15.38a7.32,7.32,0,0,1-1.89,5,6.88,6.88,0,0,1-5.37,2.32h-3v.85h10.31V841H1546a7.08,7.08,0,0,1-4.94-1.89,6.74,6.74,0,0,1-2.32-5.37V808a7,7,0,0,1,2.32-5.43,7.08,7.08,0,0,1,4.94-1.89h5.18A6.88,6.88,0,0,1,1556.58,803Zm-7.56,7.14h-.86v11.1h.86Z"/><path class="cls-24" d="M1577.32,802.25a7.3,7.3,0,0,1,1.89,5V844a7.08,7.08,0,0,1-1.89,4.94,6.85,6.85,0,0,1-5.37,2.32h-3v.86h7.75v9.45h-9.88a6.74,6.74,0,0,1-5.37-2.32,7.3,7.3,0,0,1-1.89-5v-5.12a6.92,6.92,0,0,1,2.32-5.43,7.21,7.21,0,0,1,4.94-1.83h3V841h-3a6.76,6.76,0,0,1-5.37-2.31,7.1,7.1,0,0,1-1.89-4.94V807.25a6.92,6.92,0,0,1,2.32-5.43,7.08,7.08,0,0,1,4.94-1.89H1572A6.85,6.85,0,0,1,1577.32,802.25Zm-7.56,7.14h-.86v22.2h.86Z"/><path class="cls-24" d="M1598.06,803a7.32,7.32,0,0,1,1.89,5v15.38a7.32,7.32,0,0,1-1.89,5,6.88,6.88,0,0,1-5.37,2.32h-3v.85H1600V841h-12.44a7.08,7.08,0,0,1-4.94-1.89,6.74,6.74,0,0,1-2.32-5.37V808a7,7,0,0,1,2.32-5.43,7.08,7.08,0,0,1,4.94-1.89h5.18A6.88,6.88,0,0,1,1598.06,803Zm-7.56,7.14h-.86v11.1h.86Z"/><path class="cls-24" d="M1602.88,838.67a7.11,7.11,0,0,1-1.89-4.95V795.6h9.39v5.12h10.31v9.46h-10.31v21.41h.86V811h9.45v22.69a6.76,6.76,0,0,1-2.31,5.37,7.11,7.11,0,0,1-5,1.89h-5.18A6.76,6.76,0,0,1,1602.88,838.67Z"/><path class="cls-24" d="M1641.43,833.72a6.76,6.76,0,0,1-2.31,5.37,7.11,7.11,0,0,1-4.95,1.89H1629a6.76,6.76,0,0,1-5.37-2.31,7.11,7.11,0,0,1-1.89-4.95V818.29a7.08,7.08,0,0,1,1.89-4.94A6.77,6.77,0,0,1,1629,811h3v-.85h-10.25v-9.46h12.44a7.11,7.11,0,0,1,4.95,1.89,7,7,0,0,1,2.31,5.43ZM1632,820.43h-.86v11.16h.86Z"/><path class="cls-24" d="M1659.86,839.09a7.1,7.1,0,0,1-4.94,1.89h-5.19a6.76,6.76,0,0,1-5.37-2.31,7.11,7.11,0,0,1-1.89-4.95V795.6h9.4v5.12h3.05a6.88,6.88,0,0,1,5.36,2.32,7.32,7.32,0,0,1,1.89,5v25.68A6.76,6.76,0,0,1,1659.86,839.09Zm-7.14-28.91h-.85v21.41h.85Z"/><path class="cls-24" d="M1672.61,841h-9.4V795.6h9.4Z"/><path class="cls-24" d="M1691.52,803a7.32,7.32,0,0,1,1.89,5v15.38a7.32,7.32,0,0,1-1.89,5,6.91,6.91,0,0,1-5.37,2.32h-3.05v.85h10.31V841H1681a7.08,7.08,0,0,1-4.94-1.89,6.77,6.77,0,0,1-2.32-5.37V808a7,7,0,0,1,2.32-5.43,7.08,7.08,0,0,1,4.94-1.89h5.19A6.91,6.91,0,0,1,1691.52,803Zm-7.57,7.14h-.85v11.1h.85Z"/><path class="cls-24" d="M1712.26,838.6a6.88,6.88,0,0,1-5.37,2.32h-5.19a7.21,7.21,0,0,1-4.94-1.83,7,7,0,0,1-2.32-5.43v-13h9.4v10.92h.85V819.76h-3a6.8,6.8,0,0,1-5.37-2.32,7.32,7.32,0,0,1-1.89-5v-5.13a7,7,0,0,1,2.32-5.43,7.21,7.21,0,0,1,4.94-1.83h9.88v9.4h-7.74v.85h3.05a7.08,7.08,0,0,1,4.94,1.89,6.88,6.88,0,0,1,2.32,5.37v16.1A7.06,7.06,0,0,1,1712.26,838.6Z"/><path class="cls-24" d="M1750.56,802.61a7,7,0,0,1,2.32,5.43V841h-9.45v-30.8h-.86V841h-9.39V795.6h9.39v5.12h3A7.08,7.08,0,0,1,1750.56,802.61Z"/><path class="cls-24" d="M1753.92,800.05h9.58V841h-9.58Z"/><path class="cls-24" d="M1766.91,839.09a6.77,6.77,0,0,1-2.32-5.37V808a7.5,7.5,0,0,1,2-5.09,6.74,6.74,0,0,1,5.31-2.23h3V795.6h9.46v38.12a7.11,7.11,0,0,1-1.89,4.95A6.9,6.9,0,0,1,1777,841h-5.19A7.08,7.08,0,0,1,1766.91,839.09Zm7.08-7.5h.85V810.18H1774Z"/><path class="cls-24" d="M1785.33,800.05h9.58V841h-9.58Z"/><path class="cls-24" d="M1805.4,846.11H1796V807.43a7.1,7.1,0,0,1,1.89-4.94,6.77,6.77,0,0,1,5.37-2.32h5.18a7.09,7.09,0,0,1,4.94,1.9,6.84,6.84,0,0,1,2.32,5.36V841h-9.46V809.57h-.85Z"/><path class="cls-24" d="M1834.56,802.25a7.3,7.3,0,0,1,1.89,5V844a7.08,7.08,0,0,1-1.89,4.94,6.85,6.85,0,0,1-5.37,2.32h-3v.86h7.75v9.45H1824a6.74,6.74,0,0,1-5.37-2.32,7.3,7.3,0,0,1-1.89-5v-5.12a6.92,6.92,0,0,1,2.32-5.43,7.2,7.2,0,0,1,4.94-1.83h3V841h-3a6.76,6.76,0,0,1-5.37-2.31,7.1,7.1,0,0,1-1.89-4.94V807.25a6.92,6.92,0,0,1,2.32-5.43,7.06,7.06,0,0,1,4.94-1.89h5.18A6.85,6.85,0,0,1,1834.56,802.25Zm-7.56,7.14h-.86v22.2h.86Z"/><path class="cls-24" d="M1251.76,906.92a6.76,6.76,0,0,1-2.31,5.37,7.11,7.11,0,0,1-5,1.89h-5.18a6.76,6.76,0,0,1-5.37-2.31,7.11,7.11,0,0,1-1.89-5V891.49a7.08,7.08,0,0,1,1.89-4.94,6.77,6.77,0,0,1,5.37-2.32h3v-.85h-10.25v-9.46h12.44a7.11,7.11,0,0,1,5,1.89,7,7,0,0,1,2.31,5.43Zm-9.45-13.29h-.85v11.16h.85Z"/><path class="cls-24" d="M1262.2,914.18h-9.4V880.45a7.08,7.08,0,0,1,1.89-4.94,6.74,6.74,0,0,1,5.37-2.32h5.12a7.61,7.61,0,0,1,4.34,1.37,6.59,6.59,0,0,1,2.68,3.76h3.23a7.08,7.08,0,0,1,4.94,1.89,6.84,6.84,0,0,1,2.32,5.36v33.74h-9.39v-31.6h-.86v26.47h-9.39V882.59h-.85Z"/><path class="cls-24" d="M1291,914.18a7.08,7.08,0,0,1-4.94-1.89,6.74,6.74,0,0,1-2.32-5.37V880.57a7.08,7.08,0,0,1,1.89-4.94,6.77,6.77,0,0,1,5.37-2.32h5.18a7,7,0,0,1,4.94,1.9,6.73,6.73,0,0,1,2.32,5.36v26.35a7.11,7.11,0,0,1-1.89,5,6.88,6.88,0,0,1-5.37,2.31Zm2.13-9.39h.86V882.71h-.86Z"/><path class="cls-24" d="M1313.86,919.31h-9.39V880.63a7.1,7.1,0,0,1,1.89-4.94,6.76,6.76,0,0,1,5.37-2.31h5.18a7.08,7.08,0,0,1,4.94,1.89,6.84,6.84,0,0,1,2.32,5.36v33.55h-9.45V882.77h-.86Z"/><path class="cls-24" d="M1343,875.45a7.3,7.3,0,0,1,1.89,5v36.78a7.08,7.08,0,0,1-1.89,4.94,6.85,6.85,0,0,1-5.37,2.32h-3.05v.86h7.75v9.45h-9.88a6.74,6.74,0,0,1-5.37-2.32,7.3,7.3,0,0,1-1.89-5v-5.12a6.92,6.92,0,0,1,2.32-5.43,7.21,7.21,0,0,1,4.94-1.83h3v-.86h-3a6.76,6.76,0,0,1-5.37-2.31,7.1,7.1,0,0,1-1.89-4.94V880.45a6.92,6.92,0,0,1,2.32-5.43,7.08,7.08,0,0,1,4.94-1.89h5.18A6.85,6.85,0,0,1,1343,875.45Zm-7.56,7.14h-.86v22.2h.86Z"/><path class="cls-24" d="M1363.76,911.8a6.85,6.85,0,0,1-5.37,2.32h-5.18a7.21,7.21,0,0,1-4.94-1.83,6.92,6.92,0,0,1-2.32-5.43V893.81h9.39v10.92h.86V893h-3a6.77,6.77,0,0,1-5.37-2.32,7.32,7.32,0,0,1-1.89-5v-5.13a7,7,0,0,1,2.32-5.43,7.21,7.21,0,0,1,4.94-1.83h9.88v9.4h-7.75v.85h3.05a7.08,7.08,0,0,1,4.94,1.89,6.85,6.85,0,0,1,2.32,5.37v16.1A7.06,7.06,0,0,1,1363.76,911.8Z"/><path class="cls-24" d="M1368.58,911.87a7.11,7.11,0,0,1-1.89-5V868.8h9.39v5.12h10.31v9.46h-10.31v21.41h.86V884.23h9.45v22.69a6.74,6.74,0,0,1-2.32,5.37,7.08,7.08,0,0,1-4.94,1.89H1374A6.76,6.76,0,0,1,1368.58,911.87Z"/><path class="cls-24" d="M1407.32,911.87a7.07,7.07,0,0,1-1.9-5V868.8h9.4v5.12h10.31v9.46h-10.31v21.41h.85V884.23h9.46v22.69a6.77,6.77,0,0,1-2.32,5.37,7.08,7.08,0,0,1-4.94,1.89h-5.19A6.76,6.76,0,0,1,1407.32,911.87Z"/><path class="cls-24" d="M1443.55,875.81a7,7,0,0,1,2.32,5.43v32.94h-9.46v-30.8h-.85v30.8h-9.4V868.8h9.4v5.12h3A7.08,7.08,0,0,1,1443.55,875.81Z"/><path class="cls-24" d="M1464.72,876.24a7.32,7.32,0,0,1,1.89,5v15.38a7.32,7.32,0,0,1-1.89,5,6.91,6.91,0,0,1-5.37,2.32h-3v.85h10.31v9.39h-12.45a7.08,7.08,0,0,1-4.94-1.89,6.77,6.77,0,0,1-2.32-5.37V881.24a7,7,0,0,1,2.32-5.43,7.08,7.08,0,0,1,4.94-1.89h5.19A6.91,6.91,0,0,1,1464.72,876.24Zm-7.57,7.14h-.85v11.1h.85Z"/><path class="cls-24" d="M1495,914.18h-9.39V868.8H1495Z"/><path class="cls-24" d="M1503.39,914.18a7.08,7.08,0,0,1-4.94-1.89,6.74,6.74,0,0,1-2.32-5.37V880.57a7.08,7.08,0,0,1,1.89-4.94,6.78,6.78,0,0,1,5.37-2.32h5.19a7.06,7.06,0,0,1,4.94,1.9,6.76,6.76,0,0,1,2.31,5.36v26.35a7.11,7.11,0,0,1-1.89,5,6.87,6.87,0,0,1-5.36,2.31Zm2.14-9.39h.85V882.71h-.85Z"/><path class="cls-24" d="M1532.24,911.62a12.68,12.68,0,0,1-8.11,2.81h-7.26V873.25h9.4v31a2.81,2.81,0,0,0,.85-2.26V873.25h9.46V902A11.68,11.68,0,0,1,1532.24,911.62Z"/><path class="cls-24" d="M1555.42,876.24a7.33,7.33,0,0,1,1.9,5v15.38a7.33,7.33,0,0,1-1.9,5,6.88,6.88,0,0,1-5.36,2.32h-3v.85h10.31v9.39h-12.45a7.08,7.08,0,0,1-4.94-1.89,6.74,6.74,0,0,1-2.32-5.37V881.24a7,7,0,0,1,2.32-5.43,7.08,7.08,0,0,1,4.94-1.89h5.19A6.88,6.88,0,0,1,1555.42,876.24Zm-7.56,7.14H1547v11.1h.85Z"/><path class="cls-24" d="M1567.75,914.18h-9.4V868.8h9.4Z"/><path class="cls-24" d="M1586.66,911.8a6.87,6.87,0,0,1-5.37,2.32h-12.45v-9.39h10.25v-.85h-3a6.76,6.76,0,0,1-5.36-2.32,7.11,7.11,0,0,1-1.9-4.94V873.25h9.4v21.23h.85V873.25h9.46v33.61A7.06,7.06,0,0,1,1586.66,911.8Z"/><path class="cls-24" d="M1607.4,911.8a6.87,6.87,0,0,1-5.37,2.32h-12.45v-9.39h10.25v-.85h-3a6.76,6.76,0,0,1-5.36-2.32,7.11,7.11,0,0,1-1.9-4.94V873.25h9.4v21.23h.85V873.25h9.46v33.61A7.06,7.06,0,0,1,1607.4,911.8Z"/><path class="cls-24" d="M1628.14,911.8a6.87,6.87,0,0,1-5.37,2.32h-12.44v-9.39h10.24v-.85h-3a6.76,6.76,0,0,1-5.36-2.32,7.1,7.1,0,0,1-1.89-4.94V873.25h9.39v21.23h.85V873.25H1630v33.61A7.06,7.06,0,0,1,1628.14,911.8Z"/><path class="cls-24" d="M1648.88,911.8a6.85,6.85,0,0,1-5.37,2.32h-12.44v-9.39h10.24v-.85h-3a6.77,6.77,0,0,1-5.37-2.32,7.1,7.1,0,0,1-1.89-4.94V873.25h9.39v21.23h.85V873.25h9.46v33.61A7.06,7.06,0,0,1,1648.88,911.8Z"/><path class="cls-24" d="M1669.62,911.8a6.85,6.85,0,0,1-5.37,2.32h-12.44v-9.39h10.24v-.85h-3a6.77,6.77,0,0,1-5.37-2.32,7.1,7.1,0,0,1-1.89-4.94V873.25h9.39v21.23h.85V873.25h9.46v33.61A7.06,7.06,0,0,1,1669.62,911.8Z"/><path class="cls-24" d="M1707.93,870.69a6.88,6.88,0,0,1,2.31,5.37v20.13h-9.45V878.25h-.85V897h10.3v9.46h-10.3v7.68h-9.4V876.06a7.08,7.08,0,0,1,1.89-4.94,6.74,6.74,0,0,1,5.37-2.32H1703A7.1,7.1,0,0,1,1707.93,870.69Z"/><path class="cls-24" d="M1720.61,914.18h-9.39V880.57a7.08,7.08,0,0,1,1.89-4.94,6.77,6.77,0,0,1,5.37-2.32h7.32v9.4h-5.19Z"/><path class="cls-24" d="M1732.88,914.12a7.24,7.24,0,0,1-5-1.83,6.94,6.94,0,0,1-2.31-5.43V873.25H1735v31.48h.85V873.25h9.46v33.61a7.06,7.06,0,0,1-1.89,4.94,6.87,6.87,0,0,1-5.37,2.32Z"/><path class="cls-24" d="M1746.36,873.25h9.57v40.93h-9.57Z"/><path class="cls-24" d="M1758.92,911.87a7.11,7.11,0,0,1-1.89-5V868.8h9.39v5.12h10.31v9.46h-10.31v21.41h.86V884.23h9.45v22.69a6.76,6.76,0,0,1-2.31,5.37,7.12,7.12,0,0,1-5,1.89h-5.18A6.76,6.76,0,0,1,1758.92,911.87Z"/><path class="cls-24" d="M1777.77,904.48h9.39v9.7h-9.39Z"/><path class="cls-24" d="M1242.31,942h9.45v27.81a7.35,7.35,0,0,1-1.52,4.64,7,7,0,0,1-3.6,2.32v10.61h-9.46V976.83a6.62,6.62,0,0,1-3.78-2.75,7.2,7.2,0,0,1-1.34-4.27V942h9.4v25.68h.85Z"/><path class="cls-24" d="M1260.06,987.38a7.08,7.08,0,0,1-4.94-1.89,6.74,6.74,0,0,1-2.32-5.37V953.77a7.08,7.08,0,0,1,1.89-4.94,6.77,6.77,0,0,1,5.37-2.32h5.19a7.1,7.1,0,0,1,4.94,1.89,6.79,6.79,0,0,1,2.31,5.37v26.35a7.06,7.06,0,0,1-1.89,4.94,6.84,6.84,0,0,1-5.36,2.32Zm2.14-9.39h.85V955.91h-.85Z"/><path class="cls-24" d="M1280.8,987.32a7.21,7.21,0,0,1-4.94-1.83,6.92,6.92,0,0,1-2.32-5.43V946.45h9.4v31.48h.85V946.45h9.45v33.61a7.08,7.08,0,0,1-1.89,4.94,6.84,6.84,0,0,1-5.36,2.32Z"/><path class="cls-24" d="M1329.66,949a7,7,0,0,1,2.32,5.43v32.94h-9.46v-30.8h-.85v30.8h-9.39V942h9.39v5.12h3A7.08,7.08,0,0,1,1329.66,949Z"/><path class="cls-24" d="M1352.72,980.12a6.74,6.74,0,0,1-2.32,5.37,7.08,7.08,0,0,1-4.94,1.89h-5.18a6.74,6.74,0,0,1-5.37-2.32,7.06,7.06,0,0,1-1.89-4.94V964.69a7.08,7.08,0,0,1,1.89-4.94,6.77,6.77,0,0,1,5.37-2.32h3v-.85H1333v-9.46h12.44a7.08,7.08,0,0,1,4.94,1.89,7,7,0,0,1,2.32,5.43Zm-9.46-13.29h-.85V978h.85Z"/><path class="cls-24" d="M1369.13,984.82a12.7,12.7,0,0,1-8.11,2.81h-7.26V946.45h9.39v31a2.81,2.81,0,0,0,.85-2.26V946.45h9.46v28.73A11.67,11.67,0,0,1,1369.13,984.82Z"/><path class="cls-24" d="M1392.31,949.44a7.32,7.32,0,0,1,1.89,5v15.37a7.32,7.32,0,0,1-1.89,5,6.88,6.88,0,0,1-5.37,2.31h-3V978h10.31v9.39h-12.44a7.06,7.06,0,0,1-4.94-1.89,6.74,6.74,0,0,1-2.32-5.37V954.44a7,7,0,0,1,2.32-5.43,7.06,7.06,0,0,1,4.94-1.89h5.18A6.88,6.88,0,0,1,1392.31,949.44Zm-7.56,7.14h-.86v11.1h.86Z"/><path class="cls-24" d="M1430.62,943.89a6.88,6.88,0,0,1,2.32,5.37v30.86a7.07,7.07,0,0,1-1.9,4.94,6.84,6.84,0,0,1-5.36,2.32h-5.19a7.08,7.08,0,0,1-4.94-1.89,6.74,6.74,0,0,1-2.32-5.37V962.56h9.4V978h.85V961.7h-10.25v-9.39h10.25v-.86h-10.25V942h12.45A7.08,7.08,0,0,1,1430.62,943.89Z"/><path class="cls-24" d="M1451.79,944.32a7.13,7.13,0,0,1,1.89,4.94v30.86a6.77,6.77,0,0,1-2.32,5.37,7.08,7.08,0,0,1-4.94,1.89h-5.19a6.77,6.77,0,0,1-5.37-2.32,7.06,7.06,0,0,1-1.89-4.94V949.26a6.88,6.88,0,0,1,2.32-5.37,7.08,7.08,0,0,1,4.94-1.89h5.19A6.88,6.88,0,0,1,1451.79,944.32Zm-7.57,7.13h-.85V978h.85Z"/><path class="cls-24" d="M1490.52,985a6.85,6.85,0,0,1-5.37,2.32H1480a7.21,7.21,0,0,1-4.94-1.83,6.92,6.92,0,0,1-2.32-5.43V967h9.39v10.92h.86V966.16h-3a6.77,6.77,0,0,1-5.37-2.32,7.32,7.32,0,0,1-1.89-5v-5.12a6.93,6.93,0,0,1,2.32-5.43,7.21,7.21,0,0,1,4.94-1.83h9.88v9.4h-7.75v.85h3.05a7.08,7.08,0,0,1,4.94,1.89,6.85,6.85,0,0,1,2.32,5.37v16.1A7.08,7.08,0,0,1,1490.52,985Z"/><path class="cls-24" d="M1511.26,949.44a7.32,7.32,0,0,1,1.89,5v15.37a7.32,7.32,0,0,1-1.89,5,6.88,6.88,0,0,1-5.37,2.31h-3.05V978h10.31v9.39h-12.44a7.08,7.08,0,0,1-4.94-1.89,6.74,6.74,0,0,1-2.32-5.37V954.44a7,7,0,0,1,2.32-5.43,7.08,7.08,0,0,1,4.94-1.89h5.18A6.88,6.88,0,0,1,1511.26,949.44Zm-7.56,7.14h-.86v11.1h.86Z"/><path class="cls-24" d="M1532,949.44a7.32,7.32,0,0,1,1.89,5v12.39h-9.45V956.58h-.86V978h.86V967.68h9.45v12.44a6.74,6.74,0,0,1-2.32,5.37,7.08,7.08,0,0,1-4.94,1.89h-5.18a6.74,6.74,0,0,1-5.37-2.32,7.06,7.06,0,0,1-1.89-4.94V954.44a7,7,0,0,1,2.32-5.43,7.08,7.08,0,0,1,4.94-1.89h5.18A6.88,6.88,0,0,1,1532,949.44Z"/><path class="cls-24" d="M1542.19,987.38a7.08,7.08,0,0,1-4.94-1.89,6.74,6.74,0,0,1-2.32-5.37V953.77a7.08,7.08,0,0,1,1.89-4.94,6.77,6.77,0,0,1,5.37-2.32h5.18a7.08,7.08,0,0,1,4.94,1.89,6.77,6.77,0,0,1,2.32,5.37v26.35a7.06,7.06,0,0,1-1.89,4.94,6.85,6.85,0,0,1-5.37,2.32Zm2.13-9.39h.86V955.91h-.86Z"/><path class="cls-24" d="M1565.06,992.51h-9.39V953.83a7.08,7.08,0,0,1,1.89-4.94,6.77,6.77,0,0,1,5.37-2.32h5.18a7.13,7.13,0,0,1,4.94,1.89,6.88,6.88,0,0,1,2.32,5.37v33.55h-9.45V956h-.86Z"/><path class="cls-24" d="M1578.73,985.49a6.74,6.74,0,0,1-2.32-5.37V954.44a7.5,7.5,0,0,1,1.95-5.09,6.71,6.71,0,0,1,5.31-2.23h3V942h9.45v38.12a7.06,7.06,0,0,1-1.89,4.94,6.85,6.85,0,0,1-5.37,2.32h-5.18A7.08,7.08,0,0,1,1578.73,985.49Zm7.07-7.5h.86V956.58h-.86Z"/><path class="cls-24" d="M1615,985a6.85,6.85,0,0,1-5.37,2.32h-5.18a7.21,7.21,0,0,1-4.94-1.83,6.92,6.92,0,0,1-2.32-5.43V967h9.39v10.92h.86V966.16h-3a6.77,6.77,0,0,1-5.37-2.32,7.32,7.32,0,0,1-1.89-5v-5.12a6.93,6.93,0,0,1,2.32-5.43,7.21,7.21,0,0,1,4.94-1.83h9.88v9.4h-7.75v.85h3a7.12,7.12,0,0,1,5,1.89,6.88,6.88,0,0,1,2.31,5.37v16.1A7.08,7.08,0,0,1,1615,985Z"/><path class="cls-24" d="M1617.89,977.68h9.39v9.7h-9.39Z"/><path class="cls-24" d="M1656.44,960h12v9.4h-2.56v18h-12.45a6.77,6.77,0,0,1-5.37-2.32,7.06,7.06,0,0,1-1.89-4.94V949.26a6.88,6.88,0,0,1,2.32-5.37,7.08,7.08,0,0,1,4.94-1.89h5.19a7.08,7.08,0,0,1,4.94,1.89,6.88,6.88,0,0,1,2.32,5.37v9.88h-9.46v-7.69h-.85V978h.85Z"/><path class="cls-24" d="M1675.78,987.38a7.08,7.08,0,0,1-4.94-1.89,6.74,6.74,0,0,1-2.32-5.37V953.77a7.08,7.08,0,0,1,1.89-4.94,6.77,6.77,0,0,1,5.37-2.32H1681a7.11,7.11,0,0,1,5,1.89,6.79,6.79,0,0,1,2.31,5.37v26.35a7.06,7.06,0,0,1-1.89,4.94,6.85,6.85,0,0,1-5.37,2.32Zm2.13-9.39h.86V955.91h-.86Z"/><path class="cls-24" d="M1696.52,987.38a7.08,7.08,0,0,1-4.94-1.89,6.74,6.74,0,0,1-2.32-5.37V953.77a7.08,7.08,0,0,1,1.89-4.94,6.77,6.77,0,0,1,5.37-2.32h5.18a7.11,7.11,0,0,1,5,1.89,6.79,6.79,0,0,1,2.31,5.37v26.35a7.06,7.06,0,0,1-1.89,4.94,6.85,6.85,0,0,1-5.37,2.32Zm2.13-9.39h.86V955.91h-.86Z"/><path class="cls-24" d="M1712.32,985.49a6.74,6.74,0,0,1-2.32-5.37V954.44a7.5,7.5,0,0,1,2-5.09,6.71,6.71,0,0,1,5.31-2.23h3V942h9.45v38.12a7.06,7.06,0,0,1-1.89,4.94,6.85,6.85,0,0,1-5.37,2.32h-5.18A7.08,7.08,0,0,1,1712.32,985.49Zm7.07-7.5h.86V956.58h-.86Z"/><path class="cls-24" d="M1758.13,987.38h-9.39V942h9.39Z"/><path class="cls-24" d="M1766.49,987.32a7.21,7.21,0,0,1-4.94-1.83,6.92,6.92,0,0,1-2.32-5.43V946.45h9.39v31.48h.86V946.45h9.45v33.61A7.08,7.08,0,0,1,1777,985a6.85,6.85,0,0,1-5.37,2.32Z"/><path class="cls-24" d="M1797.78,949.44a7.32,7.32,0,0,1,1.89,5v12.39h-9.45V956.58h-.86V978h.86V967.68h9.45v12.44a6.74,6.74,0,0,1-2.32,5.37,7.08,7.08,0,0,1-4.94,1.89h-5.18a6.74,6.74,0,0,1-5.37-2.32,7.06,7.06,0,0,1-1.89-4.94V954.44a7,7,0,0,1,2.32-5.43,7.08,7.08,0,0,1,4.94-1.89h5.18A6.88,6.88,0,0,1,1797.78,949.44Z"/><path class="cls-24" d="M1810.1,987.38h-9.39V942h9.39v20.56h.86V947.12h9.45v17.57a3.33,3.33,0,0,1-.67,1.59,6.87,6.87,0,0,0-.73,1.28,4.45,4.45,0,0,0,.76,1,2.08,2.08,0,0,1,.64,1.22v17.57H1811V972h-.86Z"/><path class="cls-24" d="M1821.45,941.21H1831V977h-9.58Zm0,36.29H1831v9.88h-9.58Z"/></g></svg>