<svg xmlns="http://www.w3.org/2000/svg" xmlns:xlink="http://www.w3.org/1999/xlink" width="649.79" height="921.31" viewBox="0 0 649.79 921.31"><defs><style>.cls-1,.cls-4{stroke:#fff;}.cls-1,.cls-2,.cls-4{stroke-miterlimit:10;}.cls-1{fill:url(#hfuivhgv7eg);}.cls-2{fill:#93278f;stroke:#44210b;stroke-width:4px;}.cls-3,.cls-4{fill:#d65fbf;}.cls-4{stroke-width:5px;}.cls-5{fill:url(#Pink);}.cls-6{fill:url(#Pink-2);}</style><linearGradient id="hfuivhgv7eg" x1="77.5" y1="362.3" x2="275.5" y2="362.3" gradientUnits="userSpaceOnUse"><stop offset="0" stop-color="#eec9db"/><stop offset="0.25" stop-color="#f455ff"/><stop offset="0.31" stop-color="#ec5aff" stop-opacity="0.95"/><stop offset="0.5" stop-color="#d46aff" stop-opacity="0.8"/><stop offset="0.56" stop-color="#dc53ff" stop-opacity="0.86"/><stop offset="0.72" stop-color="#f015ff"/><stop offset="0.81" stop-color="#e942e5"/><stop offset="0.94" stop-color="#e07ec3"/><stop offset="1" stop-color="#dd96b6"/></linearGradient><linearGradient id="Pink" x1="35" y1="680.3" x2="398" y2="680.3" gradientUnits="userSpaceOnUse"><stop offset="0" stop-color="#eec9db"/><stop offset="0.5" stop-color="#e3a8c4"/><stop offset="1" stop-color="#dd96b6"/></linearGradient><linearGradient id="Pink-2" x1="35" y1="828.8" x2="561" y2="828.8" xlink:href="#Pink"/></defs><g id="characters"><rect class="cls-1" x="77.5" y="135.3" width="198" height="454"/><rect class="cls-2" x="77" y="24.8" width="249" height="99.28" rx="21.39"/><path class="cls-3" d="M94.8,40.21c-1.23.46-2.46.93-3.69,1.42-.06-1-.11-2.08-.13-3.12V38q11.51-1.92,20.65-2.52,1.23-.09,2.37-.09,6.9,0,11.25,2.85a22,22,0,0,1,8,10.79,38.82,38.82,0,0,1,2.19,12.76v1.15A31.78,31.78,0,0,1,133,75.2a19.3,19.3,0,0,1-7.21,9A11.53,11.53,0,0,1,119.58,86a16.4,16.4,0,0,1-5-.87A12.3,12.3,0,0,1,111,83a41.81,41.81,0,0,1-3.16-2.91A51.28,51.28,0,0,0,103.37,76l3.86,22.77,2.51.28.83.09c.12.55.22,1.1.31,1.65.21,1,.4,2.07.57,3.08l-21.84-3.17q1.64-18.69,3.12-36Q93.7,52.94,94.8,40.21Zm-.22,29.12a15.4,15.4,0,0,0,2.28,3.44,11.54,11.54,0,0,0,4.22-2.3,2.87,2.87,0,0,0,.71-1.51v-.19a2.48,2.48,0,0,0-.31-1.19,2,2,0,0,0-1.1-.73,1.66,1.66,0,0,0-.53-.1,1.94,1.94,0,0,0-.7.14,2.55,2.55,0,0,0-1,.9,12.88,12.88,0,0,0-.77,1.31A7.73,7.73,0,0,0,97.13,68a1.77,1.77,0,0,0-.53-.81,1.31,1.31,0,0,0-.83-.27h-.14a1,1,0,0,0-.7.27,1.28,1.28,0,0,0-.53,1.11A3.32,3.32,0,0,0,94.58,69.33Zm1-12.68a19.58,19.58,0,0,0,2.85,4.23,14.46,14.46,0,0,0,5.14-2.81,3.35,3.35,0,0,0,.88-1.88v-.32a2.48,2.48,0,0,0-.35-1.38,2.54,2.54,0,0,0-1.32-.92,3.32,3.32,0,0,0-.74-.09,2.5,2.5,0,0,0-.8.14A2.85,2.85,0,0,0,100,54.7a12.11,12.11,0,0,0-1,1.68c-.12-.49-.24-1-.37-1.36a2.13,2.13,0,0,0-.64-1,1.54,1.54,0,0,0-1-.36A1.86,1.86,0,0,0,96,54a1.74,1.74,0,0,0-.65,1.47A3.93,3.93,0,0,0,95.55,56.65Zm.52,25.95A12.44,12.44,0,0,0,98,85.49a10.17,10.17,0,0,0,3.56-1.93,2.6,2.6,0,0,0,.61-1.28v-.19a2.08,2.08,0,0,0-.26-1,1.62,1.62,0,0,0-.93-.59,1.06,1.06,0,0,0-.48-.1,1.44,1.44,0,0,0-.57.14,2.25,2.25,0,0,0-.84.74,6.21,6.21,0,0,0-.61,1.15,9.75,9.75,0,0,0-.29-1,2,2,0,0,0-.41-.71,1.18,1.18,0,0,0-.71-.23,1.15,1.15,0,0,0-.7.23,1.26,1.26,0,0,0-.44,1A3,3,0,0,0,96.07,82.6Zm.71,12.26a11,11,0,0,0,1.53,2.25,8.25,8.25,0,0,0,2.77-1.47,1.87,1.87,0,0,0,.44-1v-.18a1.61,1.61,0,0,0-.17-.74,1.31,1.31,0,0,0-1.06-.55,1.24,1.24,0,0,0-.48.09,1.6,1.6,0,0,0-.66.58,5,5,0,0,0-.48.89,7.47,7.47,0,0,0-.2-.73,1.25,1.25,0,0,0-.33-.51.88.88,0,0,0-.57-.23.92.92,0,0,0-.93,1A1.9,1.9,0,0,0,96.78,94.86Zm10.1-48-3.95,21a21.17,21.17,0,0,0,3.18-1.15,15.83,15.83,0,0,0,3.23-2.16,27.51,27.51,0,0,0,3.78-4A22.11,22.11,0,0,0,115.89,56a9.81,9.81,0,0,0,.92-3.81,4.79,4.79,0,0,0-.74-2.67,7,7,0,0,0-4.26-3.17,13.65,13.65,0,0,0-1.54-.09A11,11,0,0,0,106.88,46.82Z"/><path class="cls-3" d="M138.57,35.07c3,0,6.08,0,9.09,0h9.15c0,.77.07,1.53.13,2.3-1.41.21-2.8.44-4.18.68q4.26,24.68,8.48,49.37L174.6,80q6.65-3.63,13.32-7.31,2,15.12,4.09,30.27c-.44.06-.88.11-1.32.14a7.64,7.64,0,0,1-.79.13c-.06-.42-.14-.84-.22-1.24l-.53-2.66q-9.5.92-19,1.88-13.27,1.29-26.59,2.62l-5.05-.82c.12-1.08.22-2.15.31-3.22.64,0,1.29.05,1.93.05h2.51q-1.15-16.17-2.33-32.38T138.57,35.07Zm3.29,16.21a23.62,23.62,0,0,0,3.87,4.87c1.26-.62,2.43-1.24,3.52-1.89a10.82,10.82,0,0,0,2.59-2.06,4.5,4.5,0,0,0,.88-2.44v-.14a3,3,0,0,0-.62-1.88,3.21,3.21,0,0,0-1.71-1,4.13,4.13,0,0,0-.57,0,2.75,2.75,0,0,0-1.32.33,3.4,3.4,0,0,0-1.36,1.42,23.12,23.12,0,0,0-1,2.11,10,10,0,0,0-.55-1.6,3,3,0,0,0-.86-1.15,2,2,0,0,0-1.19-.37l-.44,0a1.88,1.88,0,0,0-.92.5,2,2,0,0,0-.7,1.61A4.66,4.66,0,0,0,141.86,51.28Zm2.55,15.24a16.41,16.41,0,0,0,3,3.77,13.92,13.92,0,0,0,4.66-3,3.37,3.37,0,0,0,.68-1.84,2.18,2.18,0,0,0-1.78-2.34,2.28,2.28,0,0,0-.44,0,2.37,2.37,0,0,0-1,.23,2.94,2.94,0,0,0-1,1.13,15.41,15.41,0,0,0-.77,1.63,8.1,8.1,0,0,0-.41-1.26,1.74,1.74,0,0,0-.68-.85,1.43,1.43,0,0,0-.84-.28l-.37,0a1.35,1.35,0,0,0-.73.39,1.6,1.6,0,0,0-.48,1.2A3.93,3.93,0,0,0,144.41,66.52Zm2,11.35a13.34,13.34,0,0,0,2.2,2.71A10.59,10.59,0,0,0,152,78.37,2.2,2.2,0,0,0,152.5,77V76.9a1.55,1.55,0,0,0-.35-1,1.45,1.45,0,0,0-.93-.55,1.18,1.18,0,0,0-.3,0,1.6,1.6,0,0,0-.75.18,2,2,0,0,0-.79.83,7.52,7.52,0,0,0-.53,1.15,6.14,6.14,0,0,0-.33-.88,1.72,1.72,0,0,0-.5-.64,1,1,0,0,0-.58-.18h-.28a.88.88,0,0,0-.55.27,1.14,1.14,0,0,0-.4.92A2.49,2.49,0,0,0,146.43,77.87ZM148.1,90a10,10,0,0,0,1.67,2.11,7.39,7.39,0,0,0,2.64-1.7,1.7,1.7,0,0,0,.4-1,1.46,1.46,0,0,0-.27-.88,1.09,1.09,0,0,0-.74-.41.86.86,0,0,0-.27,0,1,1,0,0,0-.53.14,1.31,1.31,0,0,0-.61.62c-.15.29-.29.61-.44.94a3.47,3.47,0,0,0-.24-.73,1.58,1.58,0,0,0-.38-.51,1,1,0,0,0-.57-.11.86.86,0,0,0-.52.2.89.89,0,0,0-.31.69A2.05,2.05,0,0,0,148.1,90Z"/><path class="cls-3" d="M251.42,103.59q-7.95,0-15.38.09-7,.13-13.23.41l-.88-1.74c-.2-.43-.41-.85-.61-1.24a2.28,2.28,0,0,1,.48,0q3.21-.27,6.42-.51-.57-7.89-1.1-13.31-.27-2.49-.51-4c-.16-1-.33-2-.5-2.78-2.14-.21-4.18-.46-6.11-.73s-3.71-.53-5.41-.83c-.14.67-.31,1.45-.5,2.32s-.45,2.06-.77,3.56-.7,3.4-1.14,5.44-.84,3.88-1.19,5.53c-.21,1-.4,1.79-.57,2.53-.35,1.68-.66,3.11-.92,4.27l-11.34-.18h-6.55c.67-2.39,1.49-5.08,2.44-8.06s2.29-6.9,4-11.74q2.37-6.47,5.34-14.3l5.43-14.31c.58-1.53,1.11-2.92,1.58-4.18,1-2.63,1.79-4.63,2.28-6s.86-2.35,1.08-3l.51-1.43,18.89-.46,5.45-.07,3.69,0c.15.71.28,1.41.4,2.11s.23,1.43.35,2.16c-1.29.19-2.42.32-3.38.42s-1.53.09-2.11.09q3.38,14.7,6.81,29.44Q247.9,88.29,251.42,103.59Zm-46.36-5.65a1.66,1.66,0,0,0,.35-.88.79.79,0,0,0-.18-.5.83.83,0,0,0-.44-.37.91.91,0,0,0-.3,0,1.2,1.2,0,0,0-.31,0,.89.89,0,0,0-.46.39c-.14.2-.27.41-.42.62a5,5,0,0,0-.18-1,1.43,1.43,0,0,0-.44-.73,1.09,1.09,0,0,0-.79-.32h-.13a1.06,1.06,0,0,0-.66.23,1.41,1.41,0,0,0-.48.78,1.49,1.49,0,0,0-.05.36,1.89,1.89,0,0,0,.18.74,7.66,7.66,0,0,0,2.2,2.34A9.44,9.44,0,0,0,205.06,97.94Zm3.69-13.55a2.06,2.06,0,0,0,.48-1.19,1,1,0,0,0-.22-.65,1.19,1.19,0,0,0-.61-.46.79.79,0,0,0-.35-.09,1.08,1.08,0,0,0-.4.09,1.53,1.53,0,0,0-.59.51,5.24,5.24,0,0,0-.51.78c-.09-.46-.19-.89-.31-1.29a2.27,2.27,0,0,0-.52-1,1.74,1.74,0,0,0-1-.41h-.14a1.49,1.49,0,0,0-.92.32,1.72,1.72,0,0,0-.57,1,2.32,2.32,0,0,0,0,.46,2.37,2.37,0,0,0,.22,1,9.81,9.81,0,0,0,2.76,3A13.49,13.49,0,0,0,208.75,84.39Zm4.52-11.57a3,3,0,0,0,.66-1.66,1.34,1.34,0,0,0-.26-.82,1.56,1.56,0,0,0-.88-.65,1.28,1.28,0,0,0-.48-.09,1.64,1.64,0,0,0-.53.09,2.14,2.14,0,0,0-.81.69c-.25.34-.49.71-.73,1.1a12.84,12.84,0,0,0-.37-1.79,3,3,0,0,0-.77-1.33,2.21,2.21,0,0,0-1.36-.55h-.13a2.17,2.17,0,0,0-1.28.41,2.24,2.24,0,0,0-.83,1.43,1.71,1.71,0,0,0-.09.55,3.27,3.27,0,0,0,.35,1.38,14.24,14.24,0,0,0,3.82,4.13A16.38,16.38,0,0,0,213.27,72.82ZM217.58,58a2.84,2.84,0,0,0,.62-1.6,1.35,1.35,0,0,0-.27-.83,1.55,1.55,0,0,0-.83-.6,1.64,1.64,0,0,0-.53-.09,1.45,1.45,0,0,0-.48.09,1.84,1.84,0,0,0-.79.67c-.24.32-.47.66-.71,1a12.81,12.81,0,0,0-.35-1.68,2.71,2.71,0,0,0-.75-1.3,2.18,2.18,0,0,0-1.31-.56H212a2.1,2.1,0,0,0-1.27.42,2.31,2.31,0,0,0-.79,1.38,3.31,3.31,0,0,0,0,.55,3.61,3.61,0,0,0,.26,1.33,14.47,14.47,0,0,0,3.73,4A16.46,16.46,0,0,0,217.58,58Zm5.71,13.78q-1-8.82-1-14c-.09-3.06-.26-4.65-.53-4.78s-.94,1.84-1.93,5.51c-.21.68-.59,1.73-1.17,3.15s-1.16,2.86-1.78,4.29l-1.18,2.94c1.67.62,3,1.1,4,1.47S221.8,71.21,223.29,71.76Z"/><path class="cls-3" d="M270.93,32.17a13.32,13.32,0,0,1,.35,2.67,12.88,12.88,0,0,0-2.94,1.33l8.83,28.15h.18l7.91-23.93-2.95-1.51c.35-1.81.66-2.71.93-2.71q20.34,2.3,20.34,2.71V39Q284.86,69.83,281,77q1.62,20.75,2,22,4.4,1.24,4.39,1.93c0,.21.06,1.36.18,3.44h0c-.09,0-.14.06-.14.19l-24-2.71,4.22-26.82-21.1-41,.35-.19Q248.78,33.87,270.93,32.17ZM257.66,46.92a23.57,23.57,0,0,0,5,3.85,37.27,37.27,0,0,0,3.1-2.78,11.26,11.26,0,0,0,2.08-2.77,4.78,4.78,0,0,0,.4-1.84,3.59,3.59,0,0,0-.09-.78,2.79,2.79,0,0,0-2.9-2.44h-.13a3.16,3.16,0,0,0-1.8.74,4.06,4.06,0,0,0-1.06,1.84,19.32,19.32,0,0,0-.48,2.34,13.9,13.9,0,0,0-.94-1.45,3,3,0,0,0-1.12-.94,2,2,0,0,0-.71-.14,1.94,1.94,0,0,0-.7.14,2.13,2.13,0,0,0-1.14.87,1.94,1.94,0,0,0-.36,1.15A4.12,4.12,0,0,0,257.66,46.92Zm6.2,14.6a15.54,15.54,0,0,0,3.86,2.94,14,14,0,0,0,3.87-4.23,3.44,3.44,0,0,0,.35-1.47,1.81,1.81,0,0,0-.09-.55,2.72,2.72,0,0,0-.83-1.42,2.16,2.16,0,0,0-1.32-.41h-.13a2.22,2.22,0,0,0-1.41.55,3.47,3.47,0,0,0-.79,1.4,11,11,0,0,0-.39,1.76c-.24-.39-.48-.76-.73-1.1a2,2,0,0,0-.86-.69,2.15,2.15,0,0,0-.61-.09,2.2,2.2,0,0,0-.44,0,1.73,1.73,0,0,0-.88.69,1.4,1.4,0,0,0-.26.87A3.14,3.14,0,0,0,263.86,61.52Zm6,27a10.21,10.21,0,0,0,1.4,2.48,9.56,9.56,0,0,0,3-1.29,2,2,0,0,0,.5-.85,2.55,2.55,0,0,0,.07-.48,1.11,1.11,0,0,0-.18-.6,1.13,1.13,0,0,0-.55-.55,1.57,1.57,0,0,0-.59-.14,1.41,1.41,0,0,0-.35,0,1.46,1.46,0,0,0-.7.55c-.21.28-.42.57-.62.87a6.34,6.34,0,0,0-.13-.78,1,1,0,0,0-.31-.55.72.72,0,0,0-.53-.23h-.13a1.24,1.24,0,0,0-.48.09,1,1,0,0,0-.4.92A3.25,3.25,0,0,0,269.88,88.57Zm.3-9.46A14.22,14.22,0,0,0,272,82.23a9.34,9.34,0,0,0,3.78-1.65,1.91,1.91,0,0,0,.68-1,5.23,5.23,0,0,0,.06-.67,1.35,1.35,0,0,0-.22-.78,1.31,1.31,0,0,0-.7-.71,2.41,2.41,0,0,0-.75-.16,2.44,2.44,0,0,0-.48,0,2.18,2.18,0,0,0-.9.69,7.42,7.42,0,0,0-.77,1.1,7.29,7.29,0,0,0-.15-1,1.59,1.59,0,0,0-.38-.73,1.21,1.21,0,0,0-.57-.3,2.16,2.16,0,0,0-.31,0,1.19,1.19,0,0,0-.61.18,1.32,1.32,0,0,0-.53,1.15A5.76,5.76,0,0,0,270.18,79.11Z"/><rect class="cls-4" x="113.5" y="149.65" width="88" height="372.26"/><rect class="cls-5" x="35" y="613.8" width="363" height="133"/><path d="M95.94,664.3v9.3h-5v35.34H81.6V673.6h-5v-9.3Z"/><path d="M114.06,666.16a6.76,6.76,0,0,1,2.28,5.28v17.7a3.55,3.55,0,0,1-.69,1.89q-.69,1.05-1.29,2l1.2,1.68a3.48,3.48,0,0,1,.78,2v12.24H107V698.86h-.84v10.08H97V664.3H109.2A7,7,0,0,1,114.06,666.16ZM106.2,687H107V673.6h-.84Z"/><path d="M127.44,664.3h9.3v27.36a7.19,7.19,0,0,1-1.5,4.56,6.83,6.83,0,0,1-3.54,2.28v10.44h-9.3V698.56a6.5,6.5,0,0,1-3.72-2.7,7.08,7.08,0,0,1-1.32-4.2V664.3h9.24v25.26h.84Z"/><path d="M172.56,666.16a6.76,6.76,0,0,1,2.28,5.28v37.5h-9.3V693.76h-.84v15.18h-9.24v-37.5a7,7,0,0,1,1.86-4.86,6.64,6.64,0,0,1,5.28-2.28h5.1A7,7,0,0,1,172.56,666.16Zm-7,18.36V673.6h-.84v10.92Z"/><path d="M185.88,682H197.7v9.24h-2.52v17.7H182.94a6.64,6.64,0,0,1-5.28-2.28,7,7,0,0,1-1.86-4.86V671.44a6.76,6.76,0,0,1,2.28-5.28,7,7,0,0,1,4.86-1.86H188a7,7,0,0,1,4.86,1.86,6.76,6.76,0,0,1,2.28,5.28v9.72h-9.3V673.6H185v26.1h.84Z"/><path d="M214.86,666.16a6.76,6.76,0,0,1,2.28,5.28v37.5h-9.3V693.76H207v15.18h-9.24v-37.5a7,7,0,0,1,1.86-4.86,6.64,6.64,0,0,1,5.28-2.28H210A7,7,0,0,1,214.86,666.16Zm-7,18.36V673.6H207v10.92Z"/><path d="M218.16,664.3h9.24v9.54h-9.24Zm0,10.14h9.24v34.5h-9.24Z"/><path d="M245.58,666.16a6.76,6.76,0,0,1,2.28,5.28v37.5h-9.3V673.6h-.84v35.34h-9.24v-37.5a7,7,0,0,1,1.86-4.86,6.64,6.64,0,0,1,5.28-2.28h5.1A7,7,0,0,1,245.58,666.16Z"/><path d="M286,664.3v9.3H275.82v.84h3a7.1,7.1,0,0,1,4.86,1.8,6.83,6.83,0,0,1,2.28,5.34V701.8a7,7,0,0,1-1.86,4.86,6.76,6.76,0,0,1-5.28,2.28h-5.1a7,7,0,0,1-4.86-1.86,6.64,6.64,0,0,1-2.28-5.28V684.52h9.24V699.7h.84v-16h-2.94a6.64,6.64,0,0,1-5.28-2.28,7,7,0,0,1-1.86-4.86v-5.1a6.76,6.76,0,0,1,2.28-5.28,7,7,0,0,1,4.86-1.86Z"/><path d="M287,664.3h9.24v9.54H287Zm0,10.14h9.24v34.5H287Z"/><path d="M314.16,708.94H297.3V664.3h9.24v35.4h7.62Z"/><path d="M332,708.94H315.18V664.3h9.24v35.4H332Z"/><path d="M343.14,664.3h9.3v27.36a7.19,7.19,0,0,1-1.5,4.56,6.83,6.83,0,0,1-3.54,2.28v10.44h-9.3V698.56a6.5,6.5,0,0,1-3.72-2.7,7.08,7.08,0,0,1-1.32-4.2V664.3h9.24v25.26h.84Z"/><rect class="cls-6" x="35" y="757.8" width="526" height="142"/><path d="M76.55,806h9.24v9.54H76.55Zm0,10.14h9.24v34.5H76.55Z"/><path d="M97.85,809.58a69.22,69.22,0,0,1-5.64,14.22l-3.36.42a84.94,84.94,0,0,0,3.54-14.1Z"/><path d="M119.51,850.68V815.34h-.84v35.34h-9.3v-30.3h-.84v30.3H99.29v-32.4a6.83,6.83,0,0,1,2.28-5.34,7,7,0,0,1,4.86-1.86h3.24a6.5,6.5,0,0,1,2.7-3.72,7.08,7.08,0,0,1,4.2-1.32h12.18v44.64Z"/><path d="M164.57,807.9a6.76,6.76,0,0,1,2.28,5.28v30.36A7,7,0,0,1,165,848.4a6.76,6.76,0,0,1-5.28,2.28h-5.1a7,7,0,0,1-4.86-1.86,6.64,6.64,0,0,1-2.28-5.28V813.18a7,7,0,0,1,1.86-4.86,6.64,6.64,0,0,1,5.28-2.28h5.1A7,7,0,0,1,164.57,807.9Zm-7,7.44h-.84v26.1h.84Z"/><path d="M185,807.9a6.76,6.76,0,0,1,2.28,5.28v37.5H178V815.34h-.84v35.34h-9.24v-37.5a7,7,0,0,1,1.86-4.86A6.64,6.64,0,0,1,175,806h5.1A7,7,0,0,1,185,807.9Z"/><path d="M225.35,806v9.3h-5v35.34H211V815.34h-5V806Z"/><path d="M236.45,806h9.3v44.64h-9.3V833h-.84v17.7h-9.24V806h9.24v17.7h.84Z"/><path d="M266.15,806v9.3H256v.84h10.14v9.24H256v16h.84V826.26h9.3v17.28a6.64,6.64,0,0,1-2.28,5.28,7,7,0,0,1-4.86,1.86h-5.1a7,7,0,0,1-4.86-1.86,6.64,6.64,0,0,1-2.28-5.28V813.18a7,7,0,0,1,1.86-4.86,6.64,6.64,0,0,1,5.28-2.28Z"/><path d="M302,807.9a6.76,6.76,0,0,1,2.28,5.28v37.5H295V815.34h-.84v35.34h-9.24v-37.5a7,7,0,0,1,1.86-4.86A6.64,6.64,0,0,1,292,806h5.1A7,7,0,0,1,302,807.9Z"/><path d="M324.65,806v9.3H314.51v.84h10.14v9.24H314.51v16h.84V826.26h9.3v17.28a6.64,6.64,0,0,1-2.28,5.28,7,7,0,0,1-4.86,1.86h-5.1a7,7,0,0,1-4.86-1.86,6.64,6.64,0,0,1-2.28-5.28V813.18a7,7,0,0,1,1.86-4.86,6.64,6.64,0,0,1,5.28-2.28Z"/><path d="M335.75,806h9.3v17.28a7.51,7.51,0,0,0,0,7.56v19.8h-9.3V833h-.84v17.7h-9.24v-19.8a7.51,7.51,0,0,0,0-7.56V806h9.24v15.18h.84Z"/><path d="M365.45,806v9.3h-5v35.34h-9.3V815.34h-5V806Z"/><path d="M386.15,824.22a69.91,69.91,0,0,1,5.64-14.28l3.36-.36a84.21,84.21,0,0,0-3.54,14Zm8.94,0a70.16,70.16,0,0,1,5.58-14.28l3.36-.36a84.21,84.21,0,0,0-3.54,14Z"/><path d="M422.27,850.68H405.41V806h9.24v35.4h7.62Z"/><path d="M442.66,806v9.3H432.52v.84h10.14v9.24H432.52v16h.84V826.26h9.3v17.28a6.64,6.64,0,0,1-2.28,5.28,7,7,0,0,1-4.86,1.86h-5.1a7,7,0,0,1-4.86-1.86,6.64,6.64,0,0,1-2.28-5.28V813.18a7,7,0,0,1,1.86-4.86,6.64,6.64,0,0,1,5.28-2.28Z"/><path d="M453.76,806h9.3v32.4q0,6.12-4.26,9.48a12.49,12.49,0,0,1-8,2.76h-7.14V806h9.24v34.68a2.85,2.85,0,0,0,.84-2.28Z"/><path d="M483.46,806v9.3H473.32v.84h10.14v9.24H473.32v16h.84V826.26h9.3v17.28a6.64,6.64,0,0,1-2.28,5.28,7,7,0,0,1-4.86,1.86h-5.1a7,7,0,0,1-4.86-1.86,6.64,6.64,0,0,1-2.28-5.28V813.18a7,7,0,0,1,1.86-4.86,6.64,6.64,0,0,1,5.28-2.28Z"/><path d="M501.34,850.68H484.48V806h9.24v35.4h7.62Z"/><path d="M513.28,809.58a73.11,73.11,0,0,1-5.58,14.22l-3.36.42a91.32,91.32,0,0,0,3.54-14.1Zm8.88,0a73.11,73.11,0,0,1-5.58,14.22l-3.36.42a84.94,84.94,0,0,0,3.54-14.1Z"/></g></svg>