<svg xmlns="http://www.w3.org/2000/svg" width="127" height="126" viewBox="0 0 127 126"><defs><style>.cls-1{fill:#006837;}.cls-2{fill:#44210b;}.cls-3{fill:#ed1c24;stroke:#44210b;stroke-width:2px;}.cls-3,.cls-4{stroke-miterlimit:10;}.cls-4{stroke:#000;stroke-width:3px;}.cls-5{fill:#d65fbf;}.cls-6{fill:#fff;}</style></defs><g id="characters"><path class="cls-1" d="M2.28,107.86c11.49,11.49,28.85,15.34,44.28,16.31,27,1.93,54-2.89,77.71-15"/><path class="cls-2" d="M1.49,108.66c11.09,11,27,15.1,42.08,16.41a156.36,156.36,0,0,0,53-4.23,140,140,0,0,0,28.27-10.75c1.29-.66.15-2.6-1.14-2a140.92,140.92,0,0,1-50,14.53,158.47,158.47,0,0,1-26.5.42,101.16,101.16,0,0,1-22.14-3.63c-8.17-2.43-15.93-6.35-22-12.39a1.12,1.12,0,0,0-1.59,1.59Z"/><polygon class="cls-3" points="94.25 55.55 63.55 2.3 32.79 55.52 2.04 108.74 124.97 108.79 94.25 55.55"/><path d="M28.91,102.13a1.5,1.5,0,0,0,0-3,1.5,1.5,0,0,0,0,3Z"/><path d="M45.33,80.14a1.5,1.5,0,0,0,0-3,1.5,1.5,0,0,0,0,3Z"/><path d="M54.19,41.4a1.5,1.5,0,0,0,0-3,1.5,1.5,0,0,0,0,3Z"/><path d="M70.28,40.74a1.5,1.5,0,0,0,0-3,1.5,1.5,0,0,0,0,3Z"/><path d="M62.07,20h-.33a1.29,1.29,0,0,0-.58.13,1.24,1.24,0,0,0-.48.31,1.72,1.72,0,0,0-.44,1.06l.06.4a1.45,1.45,0,0,0,.38.66l.3.24a1.57,1.57,0,0,0,.76.2h.33a1.06,1.06,0,0,0,.58-.13,1.14,1.14,0,0,0,.48-.31,1,1,0,0,0,.31-.48,1.15,1.15,0,0,0,.13-.58l0-.39a1.47,1.47,0,0,0-.39-.67l-.3-.23a1.48,1.48,0,0,0-.76-.21Z"/><path d="M93.59,96.22a1.5,1.5,0,0,0,0-3,1.5,1.5,0,0,0,0,3Z"/><path d="M91.29,83.75a1.5,1.5,0,0,0,0-3,1.5,1.5,0,0,0,0,3Z"/><path d="M60.43,98.85a1.5,1.5,0,0,0,0-3,1.5,1.5,0,0,0,0,3Z"/><path d="M26.29,79.81a1.5,1.5,0,0,0,0-3,1.5,1.5,0,0,0,0,3Z"/><path d="M34.82,88.35a1.5,1.5,0,0,0,0-3,1.5,1.5,0,0,0,0,3Z"/><path d="M41.72,92.61a1.5,1.5,0,0,0,0-3,1.5,1.5,0,0,0,0,3Z"/><path d="M48.28,98.85a1.5,1.5,0,0,0,0-3,1.5,1.5,0,0,0,0,3Z"/><path d="M25.49,92.76v-.33a1.15,1.15,0,0,0-.13-.58,1.11,1.11,0,0,0-.31-.48,1.14,1.14,0,0,0-.48-.31,1.08,1.08,0,0,0-.58-.13l-.4,0a1.39,1.39,0,0,0-.66.39l-.24.3a1.54,1.54,0,0,0-.2.76v.33a1,1,0,0,0,.13.57,1.34,1.34,0,0,0,.79.8,1.27,1.27,0,0,0,.58.13l.4-.06a1.57,1.57,0,0,0,.66-.38l.23-.31a1.42,1.42,0,0,0,.21-.75Z"/><path d="M15.78,104.1a1.5,1.5,0,0,0,0-3,1.5,1.5,0,0,0,0,3Z"/><path d="M14.47,92.57h-.66a1.06,1.06,0,0,0-.58.13,1.14,1.14,0,0,0-.48.31,1,1,0,0,0-.31.48,1.15,1.15,0,0,0-.13.58l0,.4a1.49,1.49,0,0,0,.39.66l.3.23a1.48,1.48,0,0,0,.76.21h.66a1.11,1.11,0,0,0,.57-.13,1.11,1.11,0,0,0,.49-.31,1.24,1.24,0,0,0,.31-.48,1.29,1.29,0,0,0,.13-.58l-.06-.4a1.51,1.51,0,0,0-.38-.66l-.31-.24a1.5,1.5,0,0,0-.75-.2Z"/><path d="M110.66,95.24a1.5,1.5,0,0,0,0-3,1.5,1.5,0,0,0,0,3Z"/><path d="M114.93,105.09a1.5,1.5,0,0,0,0-3,1.5,1.5,0,0,0,0,3Z"/><path d="M79.47,105.75a1.5,1.5,0,0,0,0-3,1.5,1.5,0,0,0,0,3Z"/><path d="M96.87,103.45a1.5,1.5,0,0,0,0-3,1.5,1.5,0,0,0,0,3Z"/><path d="M97.2,86.38a1.5,1.5,0,0,0,0-3,1.5,1.5,0,0,0,0,3Z"/><path d="M68.31,30.56a1.5,1.5,0,0,0,0-3,1.5,1.5,0,0,0,0,3Z"/><path d="M65,11.2a1.5,1.5,0,0,0,0-3,1.5,1.5,0,0,0,0,3Z"/><path d="M55.18,30.89a1.5,1.5,0,0,0,0-3,1.5,1.5,0,0,0,0,3Z"/><path d="M59.77,17.43a1.5,1.5,0,0,0,0-3,1.5,1.5,0,0,0,0,3Z"/><path d="M61.09,36.47a1.5,1.5,0,0,0,0-3,1.5,1.5,0,0,0,0,3Z"/><path d="M41.72,51.58a1.5,1.5,0,0,0,0-3,1.5,1.5,0,0,0,0,3Z"/><path d="M33.51,66a1.5,1.5,0,0,0,0-3,1.5,1.5,0,0,0,0,3Z"/><path d="M38.76,72.92a1.5,1.5,0,0,0,0-3,1.5,1.5,0,0,0,0,3Z"/><path d="M44,58.47a1.5,1.5,0,0,0,0-3,1.5,1.5,0,0,0,0,3Z"/><path d="M70.28,92.29a1.5,1.5,0,0,0,0-3,1.5,1.5,0,0,0,0,3Z"/><path d="M78.16,85h-.33a1.06,1.06,0,0,0-.58.13,1.36,1.36,0,0,0-.79.79,1.06,1.06,0,0,0-.13.58l0,.4a1.49,1.49,0,0,0,.39.66l.3.23a1.48,1.48,0,0,0,.76.21h.33a1.11,1.11,0,0,0,.57-.13,1.21,1.21,0,0,0,.49-.31,1.24,1.24,0,0,0,.31-.48,1.29,1.29,0,0,0,.13-.58l-.06-.4a1.45,1.45,0,0,0-.38-.66l-.31-.24a1.5,1.5,0,0,0-.75-.2Z"/><path d="M65,84.73a1.5,1.5,0,0,0,0-3,1.5,1.5,0,0,0,0,3Z"/><path d="M93.26,73.24a1.5,1.5,0,0,0,0-3,1.5,1.5,0,0,0,0,3Z"/><path d="M87.54,60.25v-.32a1.27,1.27,0,0,0-.13-.58,1.32,1.32,0,0,0-.8-.8,1.11,1.11,0,0,0-.57-.12l-.4,0a1.45,1.45,0,0,0-.66.38l-.24.31a1.51,1.51,0,0,0-.2.76v.32a1.06,1.06,0,0,0,.13.58,1.36,1.36,0,0,0,.79.79,1.06,1.06,0,0,0,.58.13l.39,0a1.47,1.47,0,0,0,.67-.39l.23-.3a1.45,1.45,0,0,0,.21-.76Z"/><path d="M77.5,42.71a1.5,1.5,0,0,0,0-3,1.5,1.5,0,0,0,0,3Z"/><path d="M77.83,51.9a1.5,1.5,0,0,0,0-3,1.5,1.5,0,0,0,0,3Z"/><path class="cls-4" d="M50.42,75.47v.19c0,7.23,5.28,13.09,11.8,13.09S74,82.89,74,75.66v-.19Z"/><circle class="cls-5" cx="88.99" cy="74.99" r="10.61"/><circle class="cls-5" cx="36.91" cy="76.91" r="10.61"/><circle cx="48" cy="61" r="11.09"/><path class="cls-6" d="M45.47,63.45c6.43,0,6.45-10,0-10s-6.44,10,0,10Z"/><circle cx="77.9" cy="60.04" r="11.09"/><path class="cls-6" d="M75.37,62.48c6.43,0,6.44-10,0-10s-6.45,10,0,10Z"/></g></svg>