<svg xmlns="http://www.w3.org/2000/svg" width="125.78" height="174.44" viewBox="0 0 125.78 174.44"><defs><style>.cls-1,.cls-5{fill:#fff;}.cls-1{stroke:#42210b;stroke-width:6px;}.cls-1,.cls-4{stroke-miterlimit:10;}.cls-2{fill:#ff8afa;}.cls-3{fill:#42210b;}.cls-4{stroke:#000;stroke-width:3px;}</style></defs><g id="ekstra_ui_elementer" data-name="ekstra ui elementer"><path class="cls-1" d="M123.21,62.27c-1.18-3.85-7.76-5.25-14.7-3.13-.73.23-1.44.48-2.12.76-6.84-16.56-18.11-31.52-33-36.55a20.74,20.74,0,0,0,1.51-8c0-7.25-3.26-13.13-7.29-13.13S60.37,8.1,60.37,15.35a21.77,21.77,0,0,0,.88,6.24c-.6,0-1.2.06-1.79.12a21.8,21.8,0,0,0,.91-6.36c0-7.25-3.26-13.13-7.28-13.13S45.81,8.1,45.81,15.35a19.29,19.29,0,0,0,2.25,9.49c-13.31,6.21-23.42,20.48-29.66,36l-.65-.31c-6.61-3-13.31-2.49-15,1.16S5.1,70.77,11.7,73.78c.75.34,1.49.64,2.23.89a87.47,87.47,0,0,0-2.76,20.69c0,22,5.4,49.82,27.6,61.22a18.35,18.35,0,0,0-.42,3.93c0,6.46,3.26,11.71,7.28,11.71s7.09-4.94,7.27-11.14a61.7,61.7,0,0,0,9.69.74,66.21,66.21,0,0,0,12.7-1.17c0,6.4,3.29,11.57,7.28,11.57s7.29-5.25,7.29-11.71a17.55,17.55,0,0,0-.67-4.88C110.29,143.69,114,116.76,114,95.36A88,88,0,0,0,111,73.53c.6-.13,1.2-.29,1.8-.47C119.71,70.94,124.38,66.11,123.21,62.27Z"/><ellipse class="cls-2" cx="76.18" cy="56.7" rx="4.62" ry="4.61"/><ellipse class="cls-2" cx="44.92" cy="56.7" rx="4.62" ry="4.61"/><ellipse cx="49.54" cy="52.08" rx="4.8" ry="4.79"/><ellipse cx="72.98" cy="52.08" rx="4.8" ry="4.79"/><path class="cls-3" d="M18.19,63.7a11,11,0,0,1,1.51,1l-.31-.24a8.43,8.43,0,0,1,1.19,1.12,1.52,1.52,0,0,0,1.06.44,1.59,1.59,0,0,0,1.07-.44,1.51,1.51,0,0,0,.43-1.06l-.05-.4a1.45,1.45,0,0,0-.38-.66,9.33,9.33,0,0,0-1.35-1.24,12.44,12.44,0,0,0-1.66-1.08A1.61,1.61,0,0,0,18.54,61a1.57,1.57,0,0,0-.89.69,1.5,1.5,0,0,0,.54,2.05Z"/><path class="cls-3" d="M14.46,77.11c.34,0,.69.09,1,.1a7.32,7.32,0,0,0,1-.1,6.25,6.25,0,0,0,1.62-.52,1.52,1.52,0,0,0,.69-.9,1.5,1.5,0,0,0-1.05-1.84l-.4-.06a1.58,1.58,0,0,0-.76.21l-.12,0,.36-.15a5.09,5.09,0,0,1-1.14.32l.4-.06a4.61,4.61,0,0,1-1.23,0l.4,0h0a1.11,1.11,0,0,0-.6,0,1.11,1.11,0,0,0-.56.17,1.55,1.55,0,0,0-.69.9,1.52,1.52,0,0,0,.15,1.16l.24.3a1.53,1.53,0,0,0,.66.39Z"/><path class="cls-3" d="M104.77,60.08c0,.06,0,.13,0,.19l0-.4a1.94,1.94,0,0,1-.14.51l.15-.36a2.07,2.07,0,0,1-.27.45l.24-.3a2.22,2.22,0,0,1-.38.37l.3-.23a1.67,1.67,0,0,1-.43.25l.36-.15-.2.07a1.59,1.59,0,0,0-.9.69,1,1,0,0,0-.17.56,1.11,1.11,0,0,0,0,.6,1.5,1.5,0,0,0,1.85,1,3.07,3.07,0,0,0,.92-.42,4.45,4.45,0,0,0,.53-.42,2.44,2.44,0,0,0,.33-.39,4,4,0,0,0,.3-.42,4.3,4.3,0,0,0,.27-.62,1.71,1.71,0,0,0,.09-.3,4.43,4.43,0,0,0,.09-.72,1.08,1.08,0,0,0-.13-.58,1.14,1.14,0,0,0-.31-.48,1.17,1.17,0,0,0-.48-.31,1.15,1.15,0,0,0-.58-.13,1.54,1.54,0,0,0-1.06.44,1.66,1.66,0,0,0-.44,1.06Z"/><path class="cls-3" d="M109.91,71.63h-1.45a1.15,1.15,0,0,0-.58.13,1,1,0,0,0-.48.31,1.14,1.14,0,0,0-.31.48,1.06,1.06,0,0,0-.13.58l.05.4a1.49,1.49,0,0,0,.39.66,1.54,1.54,0,0,0,1.06.44h1.45a1.08,1.08,0,0,0,.58-.13,1.14,1.14,0,0,0,.48-.31,1.17,1.17,0,0,0,.31-.48,1.15,1.15,0,0,0,.13-.58l-.06-.4a1.49,1.49,0,0,0-1.44-1.1Z"/><path class="cls-4" d="M57,62.85V63c0,6.42,2.35,11.63,5.25,11.63S67.48,69.44,67.48,63a1,1,0,0,0,0-.17Z"/><path d="M69.74,62.29l-.53-.69c-.36,0-.72.09-1.07.11a6.5,6.5,0,0,1-3.85-.86,1.28,1.28,0,0,0-.4-.27,4.67,4.67,0,0,1-.77-.77,4.43,4.43,0,0,1-.41-.65.53.53,0,0,0-.22-.51,5.32,5.32,0,0,1-.28-1.34,9.22,9.22,0,0,0,.15-2c0-.2.1-.4.16-.61h-1.8a5.49,5.49,0,0,1-.07,5,5.65,5.65,0,0,1-4.75,2.48,7.79,7.79,0,0,1-1.08,0l-.45.75a9.11,9.11,0,0,0,4.08-.55,1.82,1.82,0,0,0,1,2.41,1.75,1.75,0,0,0,1,.28A1.63,1.63,0,0,0,62,63.77h.23l.28.11a1.62,1.62,0,0,0,1.47.81,1.76,1.76,0,0,0,1.59-2.46A9.36,9.36,0,0,0,69.74,62.29Z"/><path d="M51.49,52.12a1.5,1.5,0,0,0,0-3,1.5,1.5,0,0,0,0,3Z"/><path class="cls-5" d="M51.49,51.61a1.5,1.5,0,0,0,0-3,1.5,1.5,0,0,0,0,3Z"/><path class="cls-5" d="M75.22,51.09a1.5,1.5,0,0,0,0-3,1.5,1.5,0,0,0,0,3Z"/></g></svg>