<svg xmlns="http://www.w3.org/2000/svg" width="125.78" height="839" viewBox="0 0 125.78 839"><defs><style>.cls-1{fill:#79abff;stroke:#44210b;stroke-width:2px;}.cls-1,.cls-2,.cls-5{stroke-miterlimit:10;}.cls-2,.cls-6{fill:#fff;}.cls-2{stroke:#42210b;stroke-width:6px;}.cls-3{fill:#ff8afa;}.cls-4{fill:#42210b;}.cls-5{stroke:#000;stroke-width:3px;}</style></defs><g id="ekstra_ui_elementer" data-name="ekstra ui elementer"><rect class="cls-1" x="22.78" y="1" width="79" height="837" rx="38.01"/><path class="cls-2" d="M122.6,572.77c-1.16-3.81-7.68-5.19-14.55-3.1-.73.23-1.43.48-2.1.76C99.17,554,88,539.19,73.32,534.22a20.48,20.48,0,0,0,1.49-7.94c0-7.18-3.22-13-7.2-13s-7.21,5.83-7.21,13a21.79,21.79,0,0,0,.86,6.19c-.59,0-1.18.06-1.76.11a21.68,21.68,0,0,0,.9-6.3c0-7.18-3.23-13-7.21-13S46,519.1,46,526.28a19.21,19.21,0,0,0,2.23,9.41C35,541.84,25,556,18.85,571.37l-.65-.3c-6.53-3-13.17-2.47-14.82,1.15s2.3,9,8.84,12a22.57,22.57,0,0,0,2.21.88,86.3,86.3,0,0,0-2.73,20.5c0,21.79,5.34,49.36,27.31,60.66a17.92,17.92,0,0,0-.41,3.89c0,6.4,3.22,11.6,7.2,11.6s7-4.89,7.2-11a61.72,61.72,0,0,0,9.6.72,64.23,64.23,0,0,0,12.57-1.16c0,6.35,3.25,11.47,7.21,11.47s7.2-5.2,7.2-11.6a17.7,17.7,0,0,0-.65-4.84c20.88-11.83,24.57-38.51,24.57-59.71a87.72,87.72,0,0,0-3-21.63c.59-.13,1.18-.28,1.78-.47C119.13,581.36,123.76,576.58,122.6,572.77Z"/><circle class="cls-3" cx="76.05" cy="567.25" r="4.57"/><circle class="cls-3" cx="45.1" cy="567.25" r="4.57"/><circle cx="49.67" cy="562.68" r="4.75"/><circle cx="72.88" cy="562.68" r="4.75"/><path class="cls-4" d="M18.63,574.21a10.15,10.15,0,0,1,1.49.95l-.3-.23A7.69,7.69,0,0,1,21,576,1.5,1.5,0,0,0,23.56,575l0-.4a1.49,1.49,0,0,0-.39-.66,9,9,0,0,0-1.33-1.22,10.59,10.59,0,0,0-1.65-1.07,1.59,1.59,0,0,0-1.15-.16,1.51,1.51,0,0,0-.36,2.75Z"/><path class="cls-4" d="M15,587.49c.34,0,.68.09,1,.1a7,7,0,0,0,1-.1,6.06,6.06,0,0,0,1.61-.52,1.5,1.5,0,0,0,.69-.89,1.5,1.5,0,0,0-1.05-1.85l-.4-.05a1.57,1.57,0,0,0-.76.2l-.12.06.36-.15a4.85,4.85,0,0,1-1.13.31l.4-.06a4.46,4.46,0,0,1-1.21,0l.4.05h0a1.11,1.11,0,0,0-.6,0,1.18,1.18,0,0,0-.55.17,1.55,1.55,0,0,0-.69.9,1.51,1.51,0,0,0,.15,1.16l.23.3a1.47,1.47,0,0,0,.67.39Z"/><path class="cls-4" d="M104.33,570.61a1.09,1.09,0,0,1,0,.18l.05-.4a1.78,1.78,0,0,1-.14.5l.15-.35a2.51,2.51,0,0,1-.26.45l.23-.31a1.85,1.85,0,0,1-.37.37l.3-.23a2.22,2.22,0,0,1-.42.25l.35-.15L104,571a1.56,1.56,0,0,0-.9.69,1.12,1.12,0,0,0-.18.55,1.22,1.22,0,0,0,0,.6,1.5,1.5,0,0,0,1.84,1,3.25,3.25,0,0,0,.93-.42,5.3,5.3,0,0,0,.52-.42,2.44,2.44,0,0,0,.33-.39,3,3,0,0,0,.29-.41,4.85,4.85,0,0,0,.27-.62,1.71,1.71,0,0,0,.09-.3,4.45,4.45,0,0,0,.09-.71,1.06,1.06,0,0,0-.13-.58,1.36,1.36,0,0,0-.79-.79,1.06,1.06,0,0,0-.58-.13,1.46,1.46,0,0,0-1.06.44l-.23.3a1.45,1.45,0,0,0-.21.76Z"/><path class="cls-4" d="M109.43,582H108a1.27,1.27,0,0,0-.58.13,1.34,1.34,0,0,0-.79.8,1,1,0,0,0-.13.57l0,.4a1.47,1.47,0,0,0,.39.67l.3.23a1.44,1.44,0,0,0,.76.2h1.43a1.14,1.14,0,0,0,.58-.12,1.34,1.34,0,0,0,.79-.8,1.06,1.06,0,0,0,.13-.58l-.05-.39a1.47,1.47,0,0,0-.39-.67l-.3-.23a1.55,1.55,0,0,0-.76-.21Z"/><path class="cls-5" d="M57,573.35v.17c0,6.36,2.33,11.52,5.2,11.52s5.2-5.16,5.2-11.52v-.17Z"/><path d="M69.67,572.79l-.52-.68c-.36,0-.71.09-1.06.11a6.44,6.44,0,0,1-3.81-.85,1.41,1.41,0,0,0-.4-.27,5,5,0,0,1-.76-.76,4.43,4.43,0,0,1-.41-.65.52.52,0,0,0-.22-.5,5.24,5.24,0,0,1-.28-1.33,8.49,8.49,0,0,0,.16-2c0-.2.09-.4.15-.61H60.75a5.47,5.47,0,0,1-.07,4.93A5.66,5.66,0,0,1,56,572.65c-.35,0-.71,0-1.07,0l-.44.74a9.11,9.11,0,0,0,4-.55,1.8,1.8,0,0,0,1,2.39,1.68,1.68,0,0,0,1,.28,1.61,1.61,0,0,0,1.64-1.26h.23a1.69,1.69,0,0,0,.27.11,1.61,1.61,0,0,0,1.45.8,1.74,1.74,0,0,0,1.58-2.44A9.18,9.18,0,0,0,69.67,572.79Z"/><path d="M51.61,562.73a1.5,1.5,0,0,0,0-3,1.5,1.5,0,0,0,0,3Z"/><path class="cls-6" d="M51.61,562.22a1.5,1.5,0,0,0,0-3,1.5,1.5,0,0,0,0,3Z"/><path class="cls-6" d="M75.1,561.71a1.5,1.5,0,0,0,0-3,1.5,1.5,0,0,0,0,3Z"/></g></svg>