<svg xmlns="http://www.w3.org/2000/svg" xmlns:xlink="http://www.w3.org/1999/xlink" width="1874" height="781" viewBox="0 0 1874 781"><defs><style>.cls-1{stroke:#44210b;stroke-miterlimit:10;stroke-width:5px;fill:url(#Pink);}.cls-2{fill:#d65fbf;}.cls-3{fill:#fff;}</style><linearGradient id="Pink" x1="2.5" y1="390.5" x2="1871.5" y2="390.5" gradientUnits="userSpaceOnUse"><stop offset="0" stop-color="#eec9db"/><stop offset="0.5" stop-color="#e3a8c4"/><stop offset="1" stop-color="#dd96b6"/></linearGradient></defs><g id="ekstra_ui_elementer" data-name="ekstra ui elementer"><rect class="cls-1" x="2.5" y="2.5" width="1869" height="776" rx="69.13"/><path class="cls-2" d="M190.56,176.75,184.79,193q-1.12,3.31-2.29,6.59c-1.95-2-3.88-3.8-5.76-5.44a20.35,20.35,0,0,0-5.23-3.49,7.48,7.48,0,0,0-2.54-.49,5,5,0,0,0-1.71.29,6.25,6.25,0,0,0-2.83,2.2,4.32,4.32,0,0,0-.93,2.68,3.5,3.5,0,0,0,.05.54q.19,1.75,2.54,3.57a28.52,28.52,0,0,0,5.25,2.78c2.17.91,4.45,1.81,6.86,2.69q1.76.63,3.42,1.26a32.64,32.64,0,0,1,7.47,3.79,11.89,11.89,0,0,1,4.49,6.57,22.81,22.81,0,0,1,.74,5.95,32.68,32.68,0,0,1-.4,5,27.19,27.19,0,0,1-4.34,11.23,19.3,19.3,0,0,1-8.33,6.72,25.52,25.52,0,0,1-9.69,2c-.58,0-1.17,0-1.76-.05a37.26,37.26,0,0,1-10.86-2.66,80.24,80.24,0,0,1-8.47-4q-3.22-1.71-4.71-2.57c-1-.57-1.8-1.05-2.42-1.44.42-2.47.85-4.93,1.27-7.37q1.06-6.35,2.15-12.74l1.75.39c1,.19,2,.4,2.93.63a16.79,16.79,0,0,0-.58,3.13c0,.71-.05,1.09-.05,1.12a7.67,7.67,0,0,0,1.17,4,13.32,13.32,0,0,0,4,3.74,11.58,11.58,0,0,0,5.07,1.88h.49a5.62,5.62,0,0,0,3.62-1.22,6.77,6.77,0,0,0,2.24-3.52,6.62,6.62,0,0,0,.25-1.76,8.1,8.1,0,0,0-.49-2.68,12.08,12.08,0,0,0-3.71-4.79,48.73,48.73,0,0,0-4.94-3.46q-2.53-1.62-5.1-3.49a24.46,24.46,0,0,1-4.51-4.28,17.5,17.5,0,0,1-3.67-10.69,22.1,22.1,0,0,1,1.37-7.37,30.73,30.73,0,0,1,5.62-9,25.25,25.25,0,0,1,7.17-5.86,10.58,10.58,0,0,1,4.54-1.17,7.61,7.61,0,0,1,1.52.15,24.94,24.94,0,0,1,5.61,2.05q6,2.73,12.8,5.81l2.78-3.08,1-1.07,2.1.54C190,176.6,190.29,176.69,190.56,176.75Zm-40,25.2a18.71,18.71,0,0,0,4.39,2.68,15.88,15.88,0,0,0,3.86-4.64,3.93,3.93,0,0,0,.24-1.32,3,3,0,0,0-.1-.78,2.49,2.49,0,0,0-1-1.41,2.72,2.72,0,0,0-1.32-.35h-.29a2.65,2.65,0,0,0-1.47.74,2.72,2.72,0,0,0-.75,1.49,18.09,18.09,0,0,0-.27,1.88c-.3-.39-.59-.75-.88-1.08a2.45,2.45,0,0,0-1-.68,2,2,0,0,0-.44,0,1.67,1.67,0,0,0-.68.15,1.49,1.49,0,0,0-.88.73,1.57,1.57,0,0,0-.24.83A2.9,2.9,0,0,0,150.57,202Zm4.78-16.17a24.32,24.32,0,0,0,5.71,3.62,41.39,41.39,0,0,0,3.1-3.13,11.38,11.38,0,0,0,2-3,4.69,4.69,0,0,0,.29-1.61,4.58,4.58,0,0,0-.14-1.12,3.2,3.2,0,0,0-3-2.3,2.47,2.47,0,0,0-.44,0,3.21,3.21,0,0,0-1.9.93,3.93,3.93,0,0,0-1,1.95,19,19,0,0,0-.34,2.45,11,11,0,0,0-1.15-1.42,3.46,3.46,0,0,0-1.29-.88,2,2,0,0,0-.59-.1,2.16,2.16,0,0,0-.88.2,2.81,2.81,0,0,0-1.17,1,2,2,0,0,0-.29,1.07A3.71,3.71,0,0,0,155.35,185.78Zm7.42,25.39a13.9,13.9,0,0,0,3.23,2,12,12,0,0,0,2.83-3.42,2.53,2.53,0,0,0,.19-.93,1.74,1.74,0,0,0-.1-.59,2,2,0,0,0-.78-1.07,1.64,1.64,0,0,0-.88-.24,1,1,0,0,0-.29,0,1.69,1.69,0,0,0-1.07.49,2.47,2.47,0,0,0-.54,1.1,8.63,8.63,0,0,0-.19,1.39,6.41,6.41,0,0,0-.64-.8,1.94,1.94,0,0,0-.73-.52.85.85,0,0,0-.25,0,1.24,1.24,0,0,0-.58.14,1.33,1.33,0,0,0-.64.54,1.38,1.38,0,0,0-.14.59A2.16,2.16,0,0,0,162.77,211.17Zm11,8a11.22,11.22,0,0,0,2.44,1.56,8.68,8.68,0,0,0,2.25-2.68,2.71,2.71,0,0,0,.09-.68,2,2,0,0,0-.05-.49,1.18,1.18,0,0,0-.58-.78,1.56,1.56,0,0,0-.78-.2H177a1.3,1.3,0,0,0-.83.39,1.92,1.92,0,0,0-.41.86,4.08,4.08,0,0,0-.13,1.05,4.56,4.56,0,0,0-.51-.62,1.52,1.52,0,0,0-.56-.36.92.92,0,0,0-.25,0,.81.81,0,0,0-.39.1.9.9,0,0,0-.48.44.69.69,0,0,0-.15.44A1.69,1.69,0,0,0,173.81,219.18Z"/><path class="cls-2" d="M226.93,174.94a26,26,0,0,1,15.36,4.91,34.69,34.69,0,0,1,11,13.14,42.76,42.76,0,0,1,0,36.54,34.61,34.61,0,0,1-11,13.16,26.4,26.4,0,0,1-30.67,0,34.92,34.92,0,0,1-11-13.16,42.48,42.48,0,0,1,0-36.54,35,35,0,0,1,11-13.14A25.86,25.86,0,0,1,226.93,174.94Zm-23.34,35.55a16.32,16.32,0,0,0,2.59,3.61,13.09,13.09,0,0,0,4.64-2.44,2.41,2.41,0,0,0,.78-1.61v-.29a2.08,2.08,0,0,0-.34-1.17,2.14,2.14,0,0,0-1.17-.79,2.53,2.53,0,0,0-.64-.09,2,2,0,0,0-.73.14,2.85,2.85,0,0,0-1.1,1,11.14,11.14,0,0,0-.85,1.44,10.37,10.37,0,0,0-.35-1.18,2.29,2.29,0,0,0-.53-.87,1.48,1.48,0,0,0-.93-.3,1.72,1.72,0,0,0-1,.3,1.35,1.35,0,0,0-.58,1.22A3.41,3.41,0,0,0,203.59,210.49Zm1.42-13a25.37,25.37,0,0,0,5.71,3.57c1.14-1,2.17-2.08,3.1-3.1a10.9,10.9,0,0,0,2-3.06,4.94,4.94,0,0,0,.29-1.61,5.38,5.38,0,0,0-.27-1.44,2.61,2.61,0,0,0-1.24-1.49,3.14,3.14,0,0,0-1.66-.49c-.13,0-.43,0-.88.1a2.78,2.78,0,0,0-1.47.88,4,4,0,0,0-1,1.95,17.59,17.59,0,0,0-.34,2.49,10.3,10.3,0,0,0-1.15-1.46,3.41,3.41,0,0,0-1.3-.88,2.89,2.89,0,0,0-.53-.05,2.73,2.73,0,0,0-1.05.25,2.24,2.24,0,0,0-1.05.92,2,2,0,0,0-.3,1.08A3.92,3.92,0,0,0,205,197.5ZM206,226a14.48,14.48,0,0,0,3.23,2,11.68,11.68,0,0,0,2.83-3.42,2.45,2.45,0,0,0,.19-.93,2.39,2.39,0,0,0-.17-.78,1.67,1.67,0,0,0-.7-.83,1.85,1.85,0,0,0-.88-.24l-.54,0a1.57,1.57,0,0,0-.83.44,2.42,2.42,0,0,0-.54,1.1,8.63,8.63,0,0,0-.19,1.39,7.36,7.36,0,0,0-.64-.81,1.5,1.5,0,0,0-.73-.46,1.16,1.16,0,0,0-.34,0,1.57,1.57,0,0,0-.56.12,1.19,1.19,0,0,0-.57.51,1.45,1.45,0,0,0-.14.59A2.21,2.21,0,0,0,206,226Zm11,8a11.22,11.22,0,0,0,2.49,1.56,8.9,8.9,0,0,0,2.2-2.69,1.8,1.8,0,0,0,.14-.68,2.26,2.26,0,0,0-.12-.63,1.12,1.12,0,0,0-.56-.64,1.45,1.45,0,0,0-.73-.19l-.37,0a1.12,1.12,0,0,0-.66.37,1.86,1.86,0,0,0-.39.85c-.06.34-.11.71-.15,1.1a6.51,6.51,0,0,0-.51-.64,1.43,1.43,0,0,0-.56-.39.57.57,0,0,0-.24-.05,1.24,1.24,0,0,0-.47.13.86.86,0,0,0-.41.41.93.93,0,0,0-.15.49A1.54,1.54,0,0,0,217.07,234ZM226,197.45a8.84,8.84,0,0,0-4.91,2.66,9,9,0,0,0-2,5.74v.73a28.73,28.73,0,0,0,1.37,8.16,31.22,31.22,0,0,0,3.86,8.3q4.33,6.26,9.32,6.25a8.4,8.4,0,0,0,2.05-.25,10.34,10.34,0,0,0,5.25-4,16.81,16.81,0,0,0,3-7.45,23.7,23.7,0,0,0,.19-3,25.9,25.9,0,0,0-1-6.56,15.65,15.65,0,0,0-3.76-6.67,13.58,13.58,0,0,0-6.5-3.71,18.14,18.14,0,0,0-3.86-.44A15,15,0,0,0,226,197.45Z"/><path class="cls-2" d="M291.73,174.41q7.66,1.17,7.71,1.36,15.63,2.35,15.63,2.79v3.17a2,2,0,0,1-.39.59q-4.65-.39-6.94-.39a1.51,1.51,0,0,1-.58-.2v.2Q319,201.31,319,213.18v2.39q0,9.42-8.3,21.39-9.77,10.68-20.6,10.69a16.29,16.29,0,0,1-5.33-.83q-26.31-8.94-26.31-31.45v-1q0-14.51,15.23-33.45c4.82.65,7.45,1.11,7.91,1.37a43.81,43.81,0,0,0-4.15,19.58,23.43,23.43,0,0,0,2.78,11.67q4.54,7.13,9.28,7.13a13,13,0,0,0,3.17-.79q6.94-4.09,6.94-13.62,0-8.74-8.11-31.69C291.66,174.6,291.73,174.54,291.73,174.41Zm-27.44,42.28a17.39,17.39,0,0,0,4.78,2,15.15,15.15,0,0,0,3.08-5.22,4,4,0,0,0,.1-.78,3.23,3.23,0,0,0-.37-1.42,2.43,2.43,0,0,0-1.2-1.12,2.67,2.67,0,0,0-.88-.15,4.28,4.28,0,0,0-1,.17,2.08,2.08,0,0,0-1.13.86,3.21,3.21,0,0,0-.48,1.61v.58c0,.43,0,.87,0,1.32a8.27,8.27,0,0,0-1-.95,2.44,2.44,0,0,0-1.07-.51H265a2,2,0,0,0-1,.29,1.56,1.56,0,0,0-.71.88,1.74,1.74,0,0,0-.1.59A2.67,2.67,0,0,0,264.29,216.69ZM266.48,200a25,25,0,0,0,6.2,2.64c.95-1.24,1.8-2.43,2.57-3.59a10.11,10.11,0,0,0,1.49-3.3,5.83,5.83,0,0,0,.09-1,4.34,4.34,0,0,0-.46-1.93,2.78,2.78,0,0,0-1.54-1.39,3,3,0,0,0-1.22-.25,4.21,4.21,0,0,0-1.22.25,3,3,0,0,0-1.46,1.12,3.91,3.91,0,0,0-.64,2v.83c0,.55,0,1.12,0,1.71a12.2,12.2,0,0,0-1.37-1.27,2.9,2.9,0,0,0-1.41-.64h-.25a2.44,2.44,0,0,0-1.24.37,2.26,2.26,0,0,0-1.05,1.88A3.46,3.46,0,0,0,266.48,200Zm5.57,28a13,13,0,0,0,3.47,1.46,11.83,11.83,0,0,0,2.24-3.85,3.74,3.74,0,0,0,.05-.54,2.33,2.33,0,0,0-.27-1.07,1.64,1.64,0,0,0-.85-.79,1.77,1.77,0,0,0-.64-.14,2.63,2.63,0,0,0-.73.14,1.6,1.6,0,0,0-.78.64,1.9,1.9,0,0,0-.34,1.12v1.42a8,8,0,0,0-.78-.69,2.38,2.38,0,0,0-.78-.39,1.58,1.58,0,0,0-.81.22,1.5,1.5,0,0,0-.56.61.92.92,0,0,0-.1.44A2,2,0,0,0,272.05,228Zm12.11,6.15a10.64,10.64,0,0,0,2.68,1.12,8.87,8.87,0,0,0,1.81-3,1.74,1.74,0,0,0,.05-.39,1.78,1.78,0,0,0-.22-.86,1.35,1.35,0,0,0-.66-.61,1.82,1.82,0,0,0-.54-.1,2.14,2.14,0,0,0-.56.1,1.34,1.34,0,0,0-.61.49,1.5,1.5,0,0,0-.24.88v1.07a6.7,6.7,0,0,0-.59-.51,1.27,1.27,0,0,0-.63-.27h-.15a1.06,1.06,0,0,0-.51.15,1,1,0,0,0-.42.49.93.93,0,0,0-.05.29A1.62,1.62,0,0,0,284.16,234.17Z"/><path class="cls-2" d="M352,175.38q5.37,15.74,10.79,31.45,4.05,11.86,8.16,23.68-1.28-11.76-2.49-23.54-1.67-15.72-3.32-31.39,7.75,1.32,15.57,2.68L391,180c-.09,1-.19,2.07-.29,3.08-1,.06-1.94.11-2.88.14-.65,0-1.29,0-1.9,0q-1.19,15.83-2.3,31.64l-2.25,30.86-15.18,1.76c-.33-.39-.65-.76-1-1.12a5.46,5.46,0,0,1-.53-.64c.58-.29,1.17-.6,1.75-.92s1.22-.61,1.81-.93q-5.52-10-11-20l-14.64-26.66,2.63,16.31q2.49,15.13,5,30.32l.83.1.54.09,1.07.1.54.1c.36,0,.72.08,1.08.14h.24a1.31,1.31,0,0,0,.39.05h.1a0,0,0,0,1,.05,0c0,.59-.09,1.19-.15,1.81l-.2,1.76-16.65-1.37-12-1q.69-18.1,1.32-36.23.54-13.71,1-27.44c-.43.07-.83.15-1.22.25-.92.13-1.83.27-2.74.43-.29-.65-.58-1.28-.88-1.9l-.88-2Q337.34,177.14,352,175.38ZM329.62,196a24.23,24.23,0,0,0,3.86,5.52c1.43-.52,2.78-1.08,4-1.66a10.5,10.5,0,0,0,3-2,4.39,4.39,0,0,0,1.22-2.44v-.34a3.25,3.25,0,0,0-.54-1.9,3.3,3.3,0,0,0-1.81-1.18,3.44,3.44,0,0,0-.93-.14,3.06,3.06,0,0,0-1.17.24,3.72,3.72,0,0,0-1.66,1.39,19.8,19.8,0,0,0-1.27,2.18,13.24,13.24,0,0,0-.48-1.79,3.06,3.06,0,0,0-.88-1.29,2.11,2.11,0,0,0-1.37-.49,2.57,2.57,0,0,0-1.47.44,2.16,2.16,0,0,0-.87,1.86A5,5,0,0,0,329.62,196Zm1.51,16.45a19.09,19.09,0,0,0,3,4.2,17.19,17.19,0,0,0,5.42-2.78,3.54,3.54,0,0,0,.88-1.9v-.35a2.25,2.25,0,0,0-1.76-2.29,2.16,2.16,0,0,0-.63-.1,2.64,2.64,0,0,0-1,.2,3.08,3.08,0,0,0-1.25,1.09c-.34.51-.67,1.05-1,1.64a10.52,10.52,0,0,0-.36-1.37,2.1,2.1,0,0,0-.66-1,1.78,1.78,0,0,0-1-.37,1.72,1.72,0,0,0-1.1.32,1.66,1.66,0,0,0-.68,1.46A4.44,4.44,0,0,0,331.13,212.44Zm1.32,12.16a13.43,13.43,0,0,0,2.2,3.08,11.08,11.08,0,0,0,3.9-2.05,2.15,2.15,0,0,0,.69-1.37V224a1.48,1.48,0,0,0-.3-.93,1.64,1.64,0,0,0-1-.68,2.71,2.71,0,0,0-.54-.05,2.59,2.59,0,0,0-.68.09,2.26,2.26,0,0,0-.91.81,13.54,13.54,0,0,0-.7,1.2,6.59,6.59,0,0,0-.27-1,1.49,1.49,0,0,0-.52-.71,1.12,1.12,0,0,0-.78-.3,1.16,1.16,0,0,0-.78.3,1.18,1.18,0,0,0-.49,1A3,3,0,0,0,332.45,224.6Zm.83,13a8.87,8.87,0,0,0,1.66,2.39,8.75,8.75,0,0,0,3.08-1.56,2.37,2.37,0,0,0,.53-1.08v-.14a1.57,1.57,0,0,0-.24-.83,1.3,1.3,0,0,0-.78-.49,1.43,1.43,0,0,0-.49-.1,1.31,1.31,0,0,0-.44.1,1.76,1.76,0,0,0-.68.63c-.2.3-.39.61-.59.93-.06-.26-.14-.51-.22-.75a1.17,1.17,0,0,0-.36-.57.93.93,0,0,0-.59-.19,1.14,1.14,0,0,0-.64.19.94.94,0,0,0-.39.79A2,2,0,0,0,333.28,237.64Z"/><path class="cls-2" d="M396.85,181.58l-4.68-1.36-2.15-.69c-.23-1.43-.44-2.86-.64-4.29-.06-.39-.11-.78-.14-1.18q5.72.84,13.08,1.81c1.5.2,3.06.39,4.69.59q6.15.73,12.5,1.61,4.39.59,8.37,1.41a29.54,29.54,0,0,1,7.21,2.45,23.15,23.15,0,0,1,9.57,9.27,29.84,29.84,0,0,1,3.85,12.26,46.91,46.91,0,0,1,.25,4.88,51.29,51.29,0,0,1-.93,9.72,27.06,27.06,0,0,1-2,6.47,30.73,30.73,0,0,1-4.17,6.57,54.5,54.5,0,0,1-7.15,7.25,38.17,38.17,0,0,1-9.55,5.93,40,40,0,0,1-11.06,2.56q-5.79.51-11.74.56-1.32-16.46-2.69-32.91Zm4.64,8.6a26,26,0,0,0,3.71,5.61q2.21-.73,4.11-1.56a11.05,11.05,0,0,0,3.07-1.9,4.29,4.29,0,0,0,1.27-2.45,2.61,2.61,0,0,0,.05-.48,3,3,0,0,0-.49-1.71,3.4,3.4,0,0,0-1.76-1.27,3.76,3.76,0,0,0-1-.15,3.22,3.22,0,0,0-1.12.2,4,4,0,0,0-1.66,1.34,15.16,15.16,0,0,0-1.37,2.12,11.78,11.78,0,0,0-.42-1.75,3.1,3.1,0,0,0-.85-1.37,2.06,2.06,0,0,0-1.37-.49h-.14a2.47,2.47,0,0,0-1.32.39,2.2,2.2,0,0,0-.93,1.95A5.55,5.55,0,0,0,401.49,190.18Zm1.08,16.45a18.35,18.35,0,0,0,2.83,4.3,16.59,16.59,0,0,0,5.47-2.64,3,3,0,0,0,1-1.85,1.8,1.8,0,0,0,.05-.44,2.24,2.24,0,0,0-.39-1.27,2.33,2.33,0,0,0-1.32-1,3.47,3.47,0,0,0-.78-.1,2.76,2.76,0,0,0-.88.15,3,3,0,0,0-1.27,1,14.38,14.38,0,0,0-1,1.61c-.1-.49-.21-.95-.34-1.37a1.9,1.9,0,0,0-.64-1,1.55,1.55,0,0,0-1.07-.39H404a1.66,1.66,0,0,0-.93.3,1.7,1.7,0,0,0-.73,1.51A3.85,3.85,0,0,0,402.57,206.63Zm1,12.21a12.17,12.17,0,0,0,2,3.12,10.86,10.86,0,0,0,4-1.9,2.35,2.35,0,0,0,.73-1.37v-.29a1.79,1.79,0,0,0-.29-1,1.84,1.84,0,0,0-1-.68,1.76,1.76,0,0,0-1.17,0,2.3,2.3,0,0,0-.93.78q-.39.54-.78,1.17c-.06-.32-.15-.64-.24-.95a2,2,0,0,0-.44-.76,1.2,1.2,0,0,0-.78-.29,1.47,1.47,0,0,0-.83.25,1.15,1.15,0,0,0-.49,1A3.4,3.4,0,0,0,403.54,218.84Zm.39,13.09a11.11,11.11,0,0,0,1.66,2.44,8.68,8.68,0,0,0,3.08-1.52,2,2,0,0,0,.59-1.07v-.15a1.27,1.27,0,0,0-.25-.78,1.15,1.15,0,0,0-.73-.58,1.31,1.31,0,0,0-.39-.05,1.57,1.57,0,0,0-.54.09,1.49,1.49,0,0,0-.73.57,8.77,8.77,0,0,0-.59,1,3.45,3.45,0,0,0-.17-.78,1.54,1.54,0,0,0-.36-.59,1,1,0,0,0-.64-.19h-.14a.68.68,0,0,0-.44.14,1,1,0,0,0-.44.88A2.53,2.53,0,0,0,403.93,231.93Zm12.85-43.61Q415.9,196.68,415,205q-.84,7.92-1.66,15.77a46.87,46.87,0,0,0,9.72-6.39,20.41,20.41,0,0,0,3.75-4.71,11.32,11.32,0,0,0,1.57-5.5,13.15,13.15,0,0,0-1.59-5.73,23.61,23.61,0,0,0-3.34-4.86,21.7,21.7,0,0,0-3.42-3.13Q418.39,189.25,416.78,188.32Z"/><path class="cls-2" d="M180.18,391q.73,5.61,1.47,11.18,1,7.47,1.9,14.89,1.32-5,2.59-10.1c1.07-4.24,2.15-8.48,3.22-12.75l15.33.44,15.43.49c.07,1.17.13,2.36.2,3.56-.94.39-1.89.8-2.83,1.22s-1.84.8-2.79,1.23q1.32,15.72,2.64,31.49T220,464.18q-9-1.51-18-3.07l-16.21-2.74c0-.88-.08-1.75-.15-2.63v-.2c.75,0,1.52,0,2.3-.05s1.51,0,2.29-.05q1.42-11,2.83-22t2.88-22q-5.85,13.08-11.76,26.12l-3.62,8.11q-3.62-9.09-7.27-18.17l-7.23-18.16q1.08,9.33,2.15,18.6,1.86,16.13,3.71,32.18c1.43.23,2.86.47,4.3.73,1.07.2,2.15.38,3.22.54a5.31,5.31,0,0,0,.15.83l.39,2.93q-9.87-1.08-19.78-2.2l-14-1.56q1.51-17.19,3-34.37,1.17-13.1,2.29-26.18l-3.17-.19-3.23-.2c-.19-.42-.37-.84-.53-1.27-.39-.87-.77-1.75-1.13-2.63q8.11-1.23,16.21-2.39Q169.93,392.61,180.18,391Zm-27.05,20.9a25.28,25.28,0,0,0,3.66,5.66c1.44-.49,2.79-1,4.08-1.51a10.07,10.07,0,0,0,3.1-1.86,4.53,4.53,0,0,0,1.32-2.44,3.79,3.79,0,0,0,.05-.58,2.92,2.92,0,0,0-.49-1.67,3.15,3.15,0,0,0-1.71-1.26,3.82,3.82,0,0,0-1-.15,3.31,3.31,0,0,0-1.13.19,4.05,4.05,0,0,0-1.71,1.35,17.64,17.64,0,0,0-1.36,2.07,11.91,11.91,0,0,0-.42-1.76,3.46,3.46,0,0,0-.8-1.36,2.27,2.27,0,0,0-1.37-.54h-.15a2.52,2.52,0,0,0-1.32.39,2.21,2.21,0,0,0-1,2A5.39,5.39,0,0,0,153.13,411.94Zm.83,16.45a18.68,18.68,0,0,0,2.79,4.35,16,16,0,0,0,5.51-2.59,3.33,3.33,0,0,0,1-1.86V428a2.72,2.72,0,0,0-.34-1.36,2.65,2.65,0,0,0-1.32-1,2.31,2.31,0,0,0-.83-.15,2.16,2.16,0,0,0-.78.15,3.35,3.35,0,0,0-1.32,1.05,18.25,18.25,0,0,0-1.08,1.59,8.76,8.76,0,0,0-.29-1.35,2.21,2.21,0,0,0-.63-1,2.06,2.06,0,0,0-1-.39h-.15a1.68,1.68,0,0,0-1,.3,1.72,1.72,0,0,0-.73,1.56A4.31,4.31,0,0,0,154,428.39Zm.83,12.21a13.05,13.05,0,0,0,2.05,3.17,11.89,11.89,0,0,0,4-1.85,2.41,2.41,0,0,0,.73-1.37v-.29a1.91,1.91,0,0,0-.25-1,1.78,1.78,0,0,0-1-.68,1.74,1.74,0,0,0-.59-.1,1.69,1.69,0,0,0-.58.1,2.13,2.13,0,0,0-1,.73,9.76,9.76,0,0,0-.75,1.17c-.07-.32-.15-.65-.25-1a1.43,1.43,0,0,0-.44-.74,1.16,1.16,0,0,0-.78-.29h-.14a1.4,1.4,0,0,0-.69.2,1.15,1.15,0,0,0-.53,1.07A2.54,2.54,0,0,0,154.79,440.6Zm.25,13.09a11.07,11.07,0,0,0,1.61,2.49,9.26,9.26,0,0,0,3.12-1.47,1.65,1.65,0,0,0,.54-1.07.92.92,0,0,0,.05-.25,1.19,1.19,0,0,0-.25-.73,1.24,1.24,0,0,0-.73-.54,1.37,1.37,0,0,0-.49-.09,1.32,1.32,0,0,0-.44.09,2.1,2.1,0,0,0-.7.61,7.59,7.59,0,0,0-.61.91c-.07-.3-.13-.56-.2-.81a1,1,0,0,0-.34-.56,1.06,1.06,0,0,0-.59-.22.94.94,0,0,0-.63.17.91.91,0,0,0-.44.88A2.07,2.07,0,0,0,155,453.69Z"/><path class="cls-2" d="M256.84,391.23c5.11.79,7.68,1.24,7.72,1.37q15.62,2.34,15.62,2.78v3.18a2,2,0,0,1-.39.58q-4.64-.39-6.93-.39a1.48,1.48,0,0,1-.59-.19v.19q11.87,19.39,11.87,31.25v2.4q0,9.42-8.3,21.38-9.76,10.7-20.61,10.7a16.22,16.22,0,0,1-5.32-.83q-26.32-8.94-26.32-31.45v-1q0-14.49,15.24-33.44,7.21,1,7.91,1.36a43.87,43.87,0,0,0-4.16,19.58,23.28,23.28,0,0,0,2.79,11.67q4.55,7.14,9.28,7.13a12.78,12.78,0,0,0,3.17-.78q6.93-4.1,6.93-13.62,0-8.75-8.1-31.69C256.78,391.43,256.84,391.37,256.84,391.23ZM229.4,433.52a17.47,17.47,0,0,0,4.79,2,15.2,15.2,0,0,0,3.07-5.22,3.47,3.47,0,0,0,.1-.78,3.1,3.1,0,0,0-.37-1.42A2.41,2.41,0,0,0,235.8,427a2.76,2.76,0,0,0-.88-.15,4.34,4.34,0,0,0-1,.17,2.06,2.06,0,0,0-1.12.86,3.22,3.22,0,0,0-.49,1.61v.58c0,.43,0,.87,0,1.32a8.28,8.28,0,0,0-1-.95,2.34,2.34,0,0,0-1.07-.51h-.15a2,2,0,0,0-1,.29,1.53,1.53,0,0,0-.71.88,2,2,0,0,0-.09.58A2.68,2.68,0,0,0,229.4,433.52Zm2.2-16.65a25.33,25.33,0,0,0,6.2,2.64c.94-1.24,1.8-2.44,2.56-3.59a9.91,9.91,0,0,0,1.49-3.3,5.09,5.09,0,0,0,.1-1,4.3,4.3,0,0,0-.46-1.92,2.87,2.87,0,0,0-1.54-1.4,3.2,3.2,0,0,0-1.22-.24,4.42,4.42,0,0,0-1.22.24,3.15,3.15,0,0,0-1.47,1.13,3.88,3.88,0,0,0-.63,2.05v.83c0,.55,0,1.12.05,1.71a13.14,13.14,0,0,0-1.37-1.27,3,3,0,0,0-1.42-.64h-.24a2.38,2.38,0,0,0-1.25.37,2.21,2.21,0,0,0-.9,1.1,2.16,2.16,0,0,0-.15.78A3.48,3.48,0,0,0,231.6,416.87Zm5.57,28a13,13,0,0,0,3.46,1.46,11.88,11.88,0,0,0,2.25-3.85,3.74,3.74,0,0,0,.05-.54,2.4,2.4,0,0,0-.27-1.08,1.69,1.69,0,0,0-.86-.78,1.54,1.54,0,0,0-.63-.14,2.26,2.26,0,0,0-.73.14,1.52,1.52,0,0,0-.78.64,1.89,1.89,0,0,0-.35,1.12v1.42a8,8,0,0,0-.78-.69,2.38,2.38,0,0,0-.78-.39,1.58,1.58,0,0,0-.8.22,1.46,1.46,0,0,0-.57.61,1,1,0,0,0-.09.44A2,2,0,0,0,237.17,444.85Zm12.1,6.15a11.11,11.11,0,0,0,2.69,1.12,9.14,9.14,0,0,0,1.81-3,1.74,1.74,0,0,0,0-.39,1.89,1.89,0,0,0-.22-.85,1.35,1.35,0,0,0-.66-.61,1.64,1.64,0,0,0-.54-.1,1.79,1.79,0,0,0-.56.1,1.23,1.23,0,0,0-.61.49,1.43,1.43,0,0,0-.25.88v1.07a5.3,5.3,0,0,0-.58-.51,1.34,1.34,0,0,0-.64-.27h-.14a1.06,1.06,0,0,0-.52.15.94.94,0,0,0-.41.48,1,1,0,0,0-.05.3A1.61,1.61,0,0,0,249.27,451Z"/><path class="cls-2" d="M334.77,393.58,329,409.79q-1.12,3.31-2.29,6.59c-2-2-3.88-3.8-5.77-5.44a20.32,20.32,0,0,0-5.22-3.49,7.48,7.48,0,0,0-2.54-.49,4.72,4.72,0,0,0-1.71.29,6.2,6.2,0,0,0-2.83,2.2,4.32,4.32,0,0,0-.93,2.68,3.61,3.61,0,0,0,0,.54q.19,1.75,2.54,3.56a27.29,27.29,0,0,0,5.25,2.79q3.24,1.37,6.86,2.68l3.42,1.27a32.24,32.24,0,0,1,7.47,3.79,12,12,0,0,1,4.49,6.56,23,23,0,0,1,.73,6,34.15,34.15,0,0,1-.39,5,27.33,27.33,0,0,1-4.34,11.23,19.36,19.36,0,0,1-8.33,6.72,25.7,25.7,0,0,1-9.69,2c-.59,0-1.17,0-1.76-.05a36.64,36.64,0,0,1-10.86-2.66,80.67,80.67,0,0,1-8.48-4q-3.21-1.71-4.71-2.57c-1-.57-1.8-1.05-2.41-1.44q.63-3.7,1.27-7.37,1.07-6.35,2.14-12.75l1.76.39c1,.2,1.95.41,2.93.64a16,16,0,0,0-.58,3.12c0,.72-.05,1.1-.05,1.13a7.7,7.7,0,0,0,1.17,4,13.28,13.28,0,0,0,4,3.74,11.79,11.79,0,0,0,5.08,1.88h.49a5.59,5.59,0,0,0,3.61-1.22,6.77,6.77,0,0,0,2.25-3.52,6.66,6.66,0,0,0,.24-1.76,7.81,7.81,0,0,0-.49-2.68,11.9,11.9,0,0,0-3.71-4.79,47,47,0,0,0-4.93-3.46c-1.69-1.08-3.39-2.24-5.1-3.5a24.14,24.14,0,0,1-4.52-4.27,17.58,17.58,0,0,1-3.66-10.69,22.05,22.05,0,0,1,1.37-7.37,30.7,30.7,0,0,1,5.61-9,25.28,25.28,0,0,1,7.18-5.86,10.58,10.58,0,0,1,4.54-1.17,7.44,7.44,0,0,1,1.51.15,24.54,24.54,0,0,1,5.62,2.05q6,2.73,12.79,5.81l2.79-3.08,1-1.07c.72.19,1.42.37,2.1.53Zm-40,25.19a18.46,18.46,0,0,0,4.4,2.69,15.8,15.8,0,0,0,3.85-4.64,3.71,3.71,0,0,0,.25-1.32,3,3,0,0,0-.1-.78,2.59,2.59,0,0,0-1-1.42,2.88,2.88,0,0,0-1.32-.34h-.3a2.59,2.59,0,0,0-1.46.74,2.81,2.81,0,0,0-.76,1.48c-.11.61-.2,1.23-.27,1.88-.29-.39-.58-.74-.88-1.07a2.42,2.42,0,0,0-1-.68,1.52,1.52,0,0,0-.44-.05,1.8,1.8,0,0,0-.68.14,1.51,1.51,0,0,0-.88.74,1.47,1.47,0,0,0-.25.83A2.91,2.91,0,0,0,294.78,418.77Zm4.79-16.16a23.8,23.8,0,0,0,5.71,3.61,43.29,43.29,0,0,0,3.1-3.12,11.63,11.63,0,0,0,2-3,4.94,4.94,0,0,0,.29-1.61,4.15,4.15,0,0,0-.15-1.12,3.1,3.1,0,0,0-1.36-1.81,3.14,3.14,0,0,0-1.66-.49,2.47,2.47,0,0,0-.44,0,3.23,3.23,0,0,0-1.91.93,3.92,3.92,0,0,0-1,2,18.86,18.86,0,0,0-.35,2.44,10.79,10.79,0,0,0-1.14-1.41,3.41,3.41,0,0,0-1.3-.88,1.69,1.69,0,0,0-.58-.1,2.13,2.13,0,0,0-.88.2,2.86,2.86,0,0,0-1.17,1,2,2,0,0,0-.3,1.08A3.76,3.76,0,0,0,299.57,402.61ZM307,428a13.81,13.81,0,0,0,3.22,2,11.63,11.63,0,0,0,2.83-3.41,2.56,2.56,0,0,0,.2-.93,1.74,1.74,0,0,0-.1-.59,1.91,1.91,0,0,0-.78-1.07,1.64,1.64,0,0,0-.88-.25,1,1,0,0,0-.29.05,1.74,1.74,0,0,0-1.08.49,2.31,2.31,0,0,0-.53,1.1,8.61,8.61,0,0,0-.2,1.39,6.35,6.35,0,0,0-.63-.8,2,2,0,0,0-.74-.52.79.79,0,0,0-.24,0,1.32,1.32,0,0,0-.59.15,1.19,1.19,0,0,0-.78,1.12A2.23,2.23,0,0,0,307,428Zm11,8a11.31,11.31,0,0,0,2.45,1.56,8.5,8.5,0,0,0,2.24-2.68,2.35,2.35,0,0,0,.1-.69,2.81,2.81,0,0,0-.05-.49,1.24,1.24,0,0,0-.59-.78,1.5,1.5,0,0,0-.78-.19h-.14a1.27,1.27,0,0,0-.83.39,1.94,1.94,0,0,0-.42.85,4.7,4.7,0,0,0-.12,1,5.15,5.15,0,0,0-.51-.61,1.4,1.4,0,0,0-.56-.36.65.65,0,0,0-.25-.05.81.81,0,0,0-.39.1.91.91,0,0,0-.49.43.72.72,0,0,0-.14.44A1.72,1.72,0,0,0,318,436Z"/><path class="cls-2" d="M349.18,401.49c-1.5-.46-3-.9-4.45-1.32q-2.49-.69-4.93-1.42c.36-.87.7-1.75,1-2.63l1.17-2.93q5.65.24,11.33.44l11.33.44q1.6,11.56,3.27,23.09Q370.7,437,373.49,457c1.44,0,2.88.05,4.35.05l4.3.09c.06,1.11.11,2.2.14,3.28.07,1.43.15,2.86.25,4.29l-38-.14Zm2.83,8.4a23.67,23.67,0,0,0,3.47,5.47c1.4-.49,2.71-1,3.95-1.49a9.93,9.93,0,0,0,3-1.79,4.21,4.21,0,0,0,1.27-2.29v-.49a3.19,3.19,0,0,0-.44-1.66,3,3,0,0,0-1.66-1.22,3.83,3.83,0,0,0-1-.15,3.45,3.45,0,0,0-1,.15,4.09,4.09,0,0,0-1.64,1.29,15.33,15.33,0,0,0-1.29,2,11.15,11.15,0,0,0-.42-1.68,3.35,3.35,0,0,0-.75-1.3,2,2,0,0,0-1.32-.49H354a2.11,2.11,0,0,0-1.27.4,2.07,2.07,0,0,0-.93,1.9A4.81,4.81,0,0,0,352,409.89Zm.78,15.82a17.4,17.4,0,0,0,2.69,4.15,15.31,15.31,0,0,0,5.27-2.49,2.92,2.92,0,0,0,1-1.76v-.44a2.65,2.65,0,0,0-.3-1.22,2.79,2.79,0,0,0-1.32-.93,3.27,3.27,0,0,0-.73-.1,2.56,2.56,0,0,0-.83.15,3.16,3.16,0,0,0-1.22,1,14.68,14.68,0,0,0-1,1.54,7.57,7.57,0,0,0-.3-1.32,2.53,2.53,0,0,0-.58-1,1.52,1.52,0,0,0-1-.39h-.15a1.9,1.9,0,0,0-.92.25,1.62,1.62,0,0,0-.69,1.41A5,5,0,0,0,352.79,425.71Zm.73,11.76a13.6,13.6,0,0,0,2,3,11,11,0,0,0,3.86-1.75,2.38,2.38,0,0,0,.73-1.32v-.3a1.63,1.63,0,0,0-.24-.87,1.71,1.71,0,0,0-.93-.69,2,2,0,0,0-.58-.1,1.53,1.53,0,0,0-.54.1,1.87,1.87,0,0,0-.95.71c-.25.34-.5.72-.76,1.15-.07-.36-.13-.69-.19-1a1.38,1.38,0,0,0-.44-.73,1.14,1.14,0,0,0-.74-.25l-.14,0a1.14,1.14,0,0,0-.64.19,1.35,1.35,0,0,0-.54,1.17A3.8,3.8,0,0,0,353.52,437.47Zm.3,12.5a9.58,9.58,0,0,0,1.51,2.4,8.91,8.91,0,0,0,3-1.37,2,2,0,0,0,.58-1.07v-.25a1.09,1.09,0,0,0-.19-.63,1.6,1.6,0,0,0-.69-.54,1.37,1.37,0,0,0-.48-.1,1.31,1.31,0,0,0-.44.1,1.61,1.61,0,0,0-.71.56,6.66,6.66,0,0,0-.56.86,4.21,4.21,0,0,0-.17-.74,1.59,1.59,0,0,0-.32-.53,1.23,1.23,0,0,0-.61-.22.92.92,0,0,0-.61.17.85.85,0,0,0-.39.78A2,2,0,0,0,353.82,450Z"/><path class="cls-2" d="M432.43,399q1.13,0,1.41-.78A3.59,3.59,0,0,0,434,397a9.52,9.52,0,0,0-.1-1.13,17.73,17.73,0,0,0-.44-2.14c1,0,2.09,0,3.13,0,.78,0,1.54,0,2.29,0q.19,6.89.25,12.6v1.37a48.34,48.34,0,0,1-.3,6.54c-.13.62-.31.93-.53.93l-.32,0a3.45,3.45,0,0,1-1.2-.8,20.74,20.74,0,0,0-5.71-3,37.54,37.54,0,0,0-11.33-1.61h-.29a26.46,26.46,0,0,0-11.18,2.2,11.76,11.76,0,0,0-5.86,6.69,14.72,14.72,0,0,0-.78,4.68,14.2,14.2,0,0,0,.49,3.67,13.88,13.88,0,0,0,4,6.69,13.15,13.15,0,0,0,7,3.32,18,18,0,0,0,2.25.14,27,27,0,0,0,7.15-1.14q4.08-1.15,9-3.06,3.42,7.57,6.79,15.14l5,11-2.88,1.22c-.95.42-1.89.83-2.84,1.22a56,56,0,0,0-4.15-4.93,4.93,4.93,0,0,0-3.27-1.86,1.55,1.55,0,0,0-.34.05,6.54,6.54,0,0,0-2.93,2.78,30.35,30.35,0,0,1-2,2.52,13.4,13.4,0,0,1-2.83,2.32,19.05,19.05,0,0,1-9.13,2.14,32.4,32.4,0,0,1-8.45-1.22,28.58,28.58,0,0,1-9.35-4.73,30.1,30.1,0,0,1-7.74-8.94,50,50,0,0,1-5.08-12.94,51.91,51.91,0,0,1-1.71-12.64v-.64a26.92,26.92,0,0,1,2.05-10.06,24.79,24.79,0,0,1,4.74-7.13,33.13,33.13,0,0,1,14-8.79,39.59,39.59,0,0,1,13.19-2.29,39,39,0,0,1,4.69.29,46.52,46.52,0,0,1,8.54,2.25A14.18,14.18,0,0,0,432.43,399Zm-46.05,25.19a20.21,20.21,0,0,0,3.62,3.67,16.06,16.06,0,0,0,4.88-3.62,3.45,3.45,0,0,0,.63-1.85c0-.07,0-.27,0-.61a2.17,2.17,0,0,0-.64-1.15,2.25,2.25,0,0,0-1.51-.68H393a2.48,2.48,0,0,0-1.23.29,3.47,3.47,0,0,0-1.07,1.29,11.7,11.7,0,0,0-.68,1.79c-.2-.46-.4-.88-.61-1.27a2.24,2.24,0,0,0-.81-.88,1.58,1.58,0,0,0-.83-.25,3.07,3.07,0,0,0-.51.08,1.73,1.73,0,0,0-.81.51,1.63,1.63,0,0,0-.49,1.17A3.53,3.53,0,0,0,386.38,424.14Zm4.25,13.29a13.69,13.69,0,0,0,2.64,2.68,11.73,11.73,0,0,0,3.56-2.64,2.36,2.36,0,0,0,.44-1.31c0-.07,0-.23,0-.49a1.35,1.35,0,0,0-.47-.83,1.79,1.79,0,0,0-1.12-.49h-.29a1.82,1.82,0,0,0-.88.24,1.92,1.92,0,0,0-.76.91c-.18.4-.35.84-.51,1.29a7.52,7.52,0,0,0-.44-.9,2,2,0,0,0-.59-.66,1,1,0,0,0-.53-.15,3.25,3.25,0,0,0-.44.05,1.22,1.22,0,0,0-.93,1.17A2.44,2.44,0,0,0,390.63,437.43Zm.78-27.49a24.7,24.7,0,0,0,4.69,4.78c1.34-.75,2.58-1.51,3.74-2.29A10.83,10.83,0,0,0,402.5,410a4.42,4.42,0,0,0,.78-2.39c0-.06,0-.33,0-.8a2.6,2.6,0,0,0-.83-1.54,3.16,3.16,0,0,0-1.95-.88,2.58,2.58,0,0,0-.44-.05,2.78,2.78,0,0,0-1.61.49,3.81,3.81,0,0,0-1.42,1.63,17.54,17.54,0,0,0-.93,2.32,13.64,13.64,0,0,0-.76-1.63,2.92,2.92,0,0,0-1-1.15,2,2,0,0,0-1-.29,5.06,5.06,0,0,0-.73.07,2.08,2.08,0,0,0-1.08.66,2,2,0,0,0-.58,1.46A4.76,4.76,0,0,0,391.41,409.94Zm7.67,37.45a11,11,0,0,0,2.05,2.1,9.54,9.54,0,0,0,2.78-2.05,1.91,1.91,0,0,0,.34-1,3.58,3.58,0,0,0,0-.39,1.11,1.11,0,0,0-.37-.64A1.38,1.38,0,0,0,403,445h-.19a1.58,1.58,0,0,0-.73.15,2,2,0,0,0-.61.76,5.91,5.91,0,0,0-.37,1c-.13-.26-.25-.51-.37-.73a1,1,0,0,0-.46-.49,1,1,0,0,0-.49-.1l-.27,0a.87.87,0,0,0-.46.27.9.9,0,0,0-.25.64A2.08,2.08,0,0,0,399.08,447.39Z"/><path class="cls-2" d="M166.18,619.19l.2.39v3c0,.46-1.25.92-3.76,1.37l6.1,50.49h.2l8-43.55-1.42.19H173.9c-.46,0-.86-1.38-1.22-4.15q.48-.2,24.95-4.15c0,.13.06.2.19.2q-2.38,4.49-13.47,40-7.72,22.95-7.72,24.12a64.45,64.45,0,0,1,7.13,3.56,9.51,9.51,0,0,0,.59,1.61.18.18,0,0,0-.2.2q-5.46-.2-26.71-.39-.39-.3-17.62-64.55h-3.13c-.39,0-.86-1.26-1.41-3.76Zm-17.87,16.3a24,24,0,0,0,4.84,4.74q1.95-1.17,3.66-2.39a10.28,10.28,0,0,0,2.59-2.54,4.45,4.45,0,0,0,.73-2.34v-.25a3.11,3.11,0,0,0-.93-2.1,2.6,2.6,0,0,0-1.46-.83l-.78,0a3.28,3.28,0,0,0-1.76.49,3.81,3.81,0,0,0-1.37,1.69,20.34,20.34,0,0,0-.88,2.36,17.69,17.69,0,0,0-.83-1.63,3.14,3.14,0,0,0-1.07-1.15,2.32,2.32,0,0,0-1-.24,2.39,2.39,0,0,0-.44,0,2.49,2.49,0,0,0-1.32.69,2,2,0,0,0-.58,1.46A4.45,4.45,0,0,0,148.31,635.49Zm4.49,15.87a18.51,18.51,0,0,0,3.67,3.62,16,16,0,0,0,4.83-3.76,3.37,3.37,0,0,0,.54-1.76v-.25a2.75,2.75,0,0,0-.69-1.61A1.94,1.94,0,0,0,160,647l-.58,0a2.56,2.56,0,0,0-1.37.39,3,3,0,0,0-1.08,1.27,9.63,9.63,0,0,0-.63,1.81,11.57,11.57,0,0,0-.64-1.27,2.28,2.28,0,0,0-.83-.88,1.74,1.74,0,0,0-.78-.2,1.16,1.16,0,0,0-.34,0,1.82,1.82,0,0,0-1,.54,1.49,1.49,0,0,0-.44,1.12A3.3,3.3,0,0,0,152.8,651.36Zm3.52,11.77a13.78,13.78,0,0,0,2.69,2.64,12.34,12.34,0,0,0,3.51-2.74,2.71,2.71,0,0,0,.39-1.36v-.15a1.64,1.64,0,0,0-.49-1.12,1.53,1.53,0,0,0-.85-.47l-.46,0a2,2,0,0,0-1,.24,2.65,2.65,0,0,0-.73,1,7.75,7.75,0,0,0-.49,1.3,6.28,6.28,0,0,0-.44-.9,1.59,1.59,0,0,0-.64-.62,1.46,1.46,0,0,0-.63-.14H157a1.41,1.41,0,0,0-.73.39,1.2,1.2,0,0,0-.29.78A2.73,2.73,0,0,0,156.32,663.13Zm3.17,12.7a11.19,11.19,0,0,0,2,2,8.38,8.38,0,0,0,2.74-2.1,1.91,1.91,0,0,0,.34-1v-.09a1.4,1.4,0,0,0-.39-.93,1.31,1.31,0,0,0-.66-.37l-.36,0a1.26,1.26,0,0,0-.74.24,1.64,1.64,0,0,0-.61.71,5.61,5.61,0,0,0-.36,1,5.47,5.47,0,0,0-.35-.73,1.19,1.19,0,0,0-.48-.49,1,1,0,0,0-.49-.1H160a1,1,0,0,0-.58.29.86.86,0,0,0-.25.64A2.09,2.09,0,0,0,159.49,675.83Z"/><path class="cls-2" d="M228.59,619.77a25.9,25.9,0,0,1,15.35,4.91,34.74,34.74,0,0,1,11,13.13,42.78,42.78,0,0,1,0,36.55,34.68,34.68,0,0,1-11,13.16,26.39,26.39,0,0,1-30.66,0,34.93,34.93,0,0,1-11-13.16,42.59,42.59,0,0,1,0-36.55,35,35,0,0,1,11-13.13A25.84,25.84,0,0,1,228.59,619.77Zm-23.34,35.55a16.23,16.23,0,0,0,2.58,3.61,13,13,0,0,0,4.64-2.44,2.43,2.43,0,0,0,.78-1.61v-.29a2.14,2.14,0,0,0-.34-1.18,2.08,2.08,0,0,0-1.17-.78,2.51,2.51,0,0,0-.63-.09,1.81,1.81,0,0,0-.74.14,2.82,2.82,0,0,0-1.1,1,11.14,11.14,0,0,0-.85,1.44,10.86,10.86,0,0,0-.34-1.17,2.34,2.34,0,0,0-.54-.88,1.54,1.54,0,0,0-.93-.29,1.73,1.73,0,0,0-1,.29,1.37,1.37,0,0,0-.59,1.22A3.45,3.45,0,0,0,205.25,655.32Zm1.41-13a24.89,24.89,0,0,0,5.72,3.56c1.13-1,2.17-2.07,3.1-3.1a10.89,10.89,0,0,0,2-3,4.69,4.69,0,0,0,.29-1.61,5.23,5.23,0,0,0-.26-1.44,2.63,2.63,0,0,0-1.25-1.49,3.12,3.12,0,0,0-1.66-.49c-.13,0-.42,0-.88.1a2.8,2.8,0,0,0-1.46.88,3.93,3.93,0,0,0-1,1.95,18.7,18.7,0,0,0-.34,2.49,9.63,9.63,0,0,0-1.15-1.46,3.46,3.46,0,0,0-1.29-.88,2.57,2.57,0,0,0-1.59.19,2.32,2.32,0,0,0-1.05.93,2.13,2.13,0,0,0-.29,1.08A4,4,0,0,0,206.66,642.33Zm1,28.47a14.15,14.15,0,0,0,3.22,2,11.68,11.68,0,0,0,2.83-3.42,2.47,2.47,0,0,0,.2-.93,2.69,2.69,0,0,0-.17-.78,1.69,1.69,0,0,0-.71-.83,1.82,1.82,0,0,0-.88-.24,3.72,3.72,0,0,0-.54,0,1.61,1.61,0,0,0-.83.44,2.32,2.32,0,0,0-.53,1.09,8.74,8.74,0,0,0-.2,1.4,6.68,6.68,0,0,0-.63-.81,1.53,1.53,0,0,0-.74-.46.87.87,0,0,0-.34,0,1.61,1.61,0,0,0-.56.12,1.17,1.17,0,0,0-.56.51,1.29,1.29,0,0,0-.15.59A2.23,2.23,0,0,0,207.69,670.8Zm11,8a10.86,10.86,0,0,0,2.49,1.57,8.75,8.75,0,0,0,2.2-2.69,1.67,1.67,0,0,0,.15-.68,2.06,2.06,0,0,0-.13-.64,1.07,1.07,0,0,0-.56-.63,1.43,1.43,0,0,0-.73-.2l-.37,0a1.05,1.05,0,0,0-.65.36,1.85,1.85,0,0,0-.4.86c-.06.34-.11.71-.14,1.1-.16-.23-.34-.44-.51-.64a1.46,1.46,0,0,0-.57-.39.54.54,0,0,0-.24-.05,1.12,1.12,0,0,0-.46.12.9.9,0,0,0-.42.42.93.93,0,0,0-.15.49A1.54,1.54,0,0,0,218.72,678.8Zm8.89-36.52a8.84,8.84,0,0,0-4.91,2.66,9,9,0,0,0-2,5.74v.73a28.68,28.68,0,0,0,1.36,8.16,31.37,31.37,0,0,0,3.86,8.3q4.35,6.24,9.33,6.25a8.52,8.52,0,0,0,2.05-.25,10.44,10.44,0,0,0,5.25-4,16.83,16.83,0,0,0,2.95-7.44,23.72,23.72,0,0,0,.2-3,26.09,26.09,0,0,0-1-6.57,15.51,15.51,0,0,0-3.76-6.66,13.47,13.47,0,0,0-6.49-3.71,17.66,17.66,0,0,0-3.86-.44A15.06,15.06,0,0,0,227.61,642.28Z"/><path class="cls-2" d="M263.11,619.33c3.38,0,6.75,0,10.1-.05h10.16c0,.82.08,1.63.15,2.44-1.56.23-3.11.48-4.64.74q4.74,26.22,9.42,52.49l14.85-7.82q7.37-3.86,14.79-7.76,2.25,16.07,4.54,32.18c-.49.06-1,.11-1.46.15-.3.06-.59.11-.88.14-.07-.45-.15-.89-.25-1.32l-.58-2.83q-10.55,1-21.14,2-14.76,1.38-29.55,2.79L263,691.6c.13-1.14.24-2.28.34-3.42.72,0,1.43.05,2.15.05h2.78Q267,671,265.7,653.8T263.11,619.33Zm3.66,17.24a24.86,24.86,0,0,0,4.3,5.17c1.4-.65,2.7-1.31,3.9-2a11.22,11.22,0,0,0,2.88-2.2,4.58,4.58,0,0,0,1-2.58v-.15a3.07,3.07,0,0,0-.68-2,3.7,3.7,0,0,0-1.91-1.08,4.84,4.84,0,0,0-.63,0,3.24,3.24,0,0,0-1.47.34,3.72,3.72,0,0,0-1.51,1.51,21.44,21.44,0,0,0-1.12,2.25,11,11,0,0,0-.61-1.71,3.23,3.23,0,0,0-1-1.22,2.33,2.33,0,0,0-1.32-.39l-.48,0a2.07,2.07,0,0,0-1,.53,2.11,2.11,0,0,0-.78,1.71A4.79,4.79,0,0,0,266.77,636.57Zm2.83,16.21a17.76,17.76,0,0,0,3.27,4,15.22,15.22,0,0,0,5.18-3.22,3.4,3.4,0,0,0,.76-1.95,2.52,2.52,0,0,0-.52-1.66,2.72,2.72,0,0,0-1.46-.83,2,2,0,0,0-.49,0,2.68,2.68,0,0,0-1.12.24,3.1,3.1,0,0,0-1.15,1.2,17.42,17.42,0,0,0-.86,1.73,9.14,9.14,0,0,0-.46-1.34,1.85,1.85,0,0,0-.76-.9,1.6,1.6,0,0,0-.92-.3l-.42,0a1.36,1.36,0,0,0-.8.41,1.64,1.64,0,0,0-.54,1.27A4.11,4.11,0,0,0,269.6,652.78Zm2.25,12.06a13.63,13.63,0,0,0,2.44,2.88,11.56,11.56,0,0,0,3.76-2.34,2.28,2.28,0,0,0,.54-1.42v-.15a1.55,1.55,0,0,0-.39-1.07,1.67,1.67,0,0,0-1-.59,1.48,1.48,0,0,0-.34,0,1.84,1.84,0,0,0-.83.19,2.32,2.32,0,0,0-.88.88,9.14,9.14,0,0,0-.59,1.22,6.17,6.17,0,0,0-.36-.93,1.91,1.91,0,0,0-.56-.68,1.15,1.15,0,0,0-.64-.2h-.32a1,1,0,0,0-.61.3,1.17,1.17,0,0,0-.44,1A2.29,2.29,0,0,0,271.85,664.84Zm1.85,12.94a10.64,10.64,0,0,0,1.86,2.25,8.43,8.43,0,0,0,2.93-1.81,1.77,1.77,0,0,0,.44-1.12,1.48,1.48,0,0,0-.3-.93,1.2,1.2,0,0,0-.83-.44.93.93,0,0,0-.29-.05,1.06,1.06,0,0,0-.58.15,1.38,1.38,0,0,0-.69.66c-.16.3-.32.64-.49,1a3.1,3.1,0,0,0-.26-.78,1.69,1.69,0,0,0-.42-.54,1.13,1.13,0,0,0-.63-.12,1,1,0,0,0-.59.22.91.91,0,0,0-.34.73A1.92,1.92,0,0,0,273.7,677.78Z"/><path class="cls-2" d="M356.47,619.23c5.11.79,7.68,1.24,7.71,1.37q15.63,2.34,15.63,2.78v3.18a2,2,0,0,1-.39.58q-4.65-.39-6.94-.39a1.45,1.45,0,0,1-.58-.19v.19q11.87,19.39,11.86,31.25v2.4q0,9.42-8.3,21.38-9.76,10.69-20.6,10.7a16.29,16.29,0,0,1-5.33-.83q-26.31-8.94-26.32-31.45v-1q0-14.49,15.24-33.44c4.82.65,7.45,1.1,7.91,1.36a43.87,43.87,0,0,0-4.15,19.58A23.38,23.38,0,0,0,345,658.39q4.54,7.14,9.28,7.13a12.67,12.67,0,0,0,3.17-.78q6.94-4.1,6.94-13.62,0-8.75-8.11-31.69A.18.18,0,0,0,356.47,619.23ZM329,661.52a17.26,17.26,0,0,0,4.78,2,15.24,15.24,0,0,0,3.08-5.22,4.06,4.06,0,0,0,.09-.78,3.21,3.21,0,0,0-.36-1.42,2.43,2.43,0,0,0-1.2-1.12,2.67,2.67,0,0,0-.88-.15,4.19,4.19,0,0,0-1,.17,2.08,2.08,0,0,0-1.13.86,3.21,3.21,0,0,0-.48,1.61v.58c0,.43,0,.87,0,1.32a7.56,7.56,0,0,0-1-1,2.42,2.42,0,0,0-1.08-.51h-.14a1.94,1.94,0,0,0-1,.29,1.53,1.53,0,0,0-.71.88,1.69,1.69,0,0,0-.1.58A2.66,2.66,0,0,0,329,661.52Zm2.19-16.65a25.33,25.33,0,0,0,6.2,2.64c.95-1.24,1.8-2.44,2.57-3.59a10.11,10.11,0,0,0,1.49-3.3,6,6,0,0,0,.09-1,4.3,4.3,0,0,0-.46-1.92,2.83,2.83,0,0,0-1.54-1.4,3.2,3.2,0,0,0-1.22-.24,4.49,4.49,0,0,0-1.22.24,3.08,3.08,0,0,0-1.46,1.13,3.88,3.88,0,0,0-.64,2v.83c0,.55,0,1.12.05,1.71a12.2,12.2,0,0,0-1.37-1.27,2.9,2.9,0,0,0-1.41-.64h-.25a2.32,2.32,0,0,0-1.24.37,2.17,2.17,0,0,0-.91,1.1,2.38,2.38,0,0,0-.14.78A3.5,3.5,0,0,0,331.22,644.87Zm5.57,28a13,13,0,0,0,3.47,1.46,11.83,11.83,0,0,0,2.24-3.85,3.74,3.74,0,0,0,.05-.54,2.4,2.4,0,0,0-.27-1.08,1.67,1.67,0,0,0-.85-.78,1.58,1.58,0,0,0-.64-.14,2.3,2.3,0,0,0-.73.14,1.6,1.6,0,0,0-.78.64,1.88,1.88,0,0,0-.34,1.12v1.42a8,8,0,0,0-.78-.69,2.38,2.38,0,0,0-.78-.39,1.58,1.58,0,0,0-.81.22,1.5,1.5,0,0,0-.56.61.92.92,0,0,0-.1.44A2,2,0,0,0,336.79,672.85ZM348.9,679a11,11,0,0,0,2.68,1.12,8.8,8.8,0,0,0,1.81-3,1.74,1.74,0,0,0,.05-.39,1.77,1.77,0,0,0-.22-.85,1.35,1.35,0,0,0-.66-.61,1.55,1.55,0,0,0-.54-.1,1.79,1.79,0,0,0-.56.1,1.27,1.27,0,0,0-.61.49,1.5,1.5,0,0,0-.24.88v1.07a5.36,5.36,0,0,0-.59-.51,1.3,1.3,0,0,0-.63-.27h-.15a1.06,1.06,0,0,0-.51.15,1,1,0,0,0-.42.48,1,1,0,0,0-.05.3A1.62,1.62,0,0,0,348.9,679Z"/><path class="cls-2" d="M417.06,619q.74,5.61,1.47,11.18,1,7.47,1.9,14.89,1.32-5,2.59-10.1c1.07-4.24,2.15-8.48,3.22-12.75l15.33.44,15.43.49c.07,1.17.13,2.36.2,3.56-.95.39-1.89.8-2.83,1.22s-1.84.8-2.79,1.23q1.32,15.72,2.64,31.49t2.69,31.49q-9-1.51-18-3.07l-16.21-2.74c0-.88-.08-1.75-.15-2.63v-.2c.75,0,1.51,0,2.3,0s1.51,0,2.29,0q1.41-11,2.83-22t2.88-22q-5.85,13.08-11.76,26.12l-3.62,8.11q-3.61-9.09-7.27-18.17L403,637.3q1.08,9.33,2.15,18.6Q407,672,408.81,688.08c1.43.23,2.86.47,4.3.73,1.07.2,2.15.38,3.22.54a5.31,5.31,0,0,0,.15.83l.39,2.93q-9.87-1.08-19.78-2.2l-14-1.56q1.51-17.19,3-34.37,1.17-13.1,2.29-26.18l-3.17-.19-3.23-.2c-.19-.42-.37-.84-.53-1.27-.39-.87-.77-1.75-1.13-2.63q8.12-1.23,16.21-2.39Q406.81,620.61,417.06,619ZM390,639.94a25.28,25.28,0,0,0,3.66,5.66c1.44-.49,2.79-1,4.08-1.51a10.07,10.07,0,0,0,3.1-1.86,4.53,4.53,0,0,0,1.32-2.44,3.79,3.79,0,0,0,.05-.58,2.92,2.92,0,0,0-.49-1.67,3.15,3.15,0,0,0-1.71-1.26,3.82,3.82,0,0,0-1-.15,3.31,3.31,0,0,0-1.13.19,4.05,4.05,0,0,0-1.71,1.35,17.64,17.64,0,0,0-1.36,2.07,11.91,11.91,0,0,0-.42-1.76,3.46,3.46,0,0,0-.8-1.36,2.27,2.27,0,0,0-1.37-.54h-.15a2.52,2.52,0,0,0-1.32.39,2.21,2.21,0,0,0-1,2A5.39,5.39,0,0,0,390,639.94Zm.83,16.45a18.93,18.93,0,0,0,2.78,4.35,16,16,0,0,0,5.52-2.59,3.33,3.33,0,0,0,1-1.86V656a2.72,2.72,0,0,0-.34-1.36,2.65,2.65,0,0,0-1.32-1,2.31,2.31,0,0,0-.83-.15,2.16,2.16,0,0,0-.78.15,3.35,3.35,0,0,0-1.32,1,18.25,18.25,0,0,0-1.08,1.59,8.76,8.76,0,0,0-.29-1.35,2.21,2.21,0,0,0-.63-1,2.06,2.06,0,0,0-1-.39h-.15a1.68,1.68,0,0,0-1,.3,1.72,1.72,0,0,0-.73,1.56A4.31,4.31,0,0,0,390.84,656.39Zm.83,12.21a13.05,13.05,0,0,0,2.05,3.17,11.89,11.89,0,0,0,4-1.85,2.41,2.41,0,0,0,.73-1.37v-.29a1.91,1.91,0,0,0-.25-1,1.78,1.78,0,0,0-1-.68,1.74,1.74,0,0,0-.59-.1,1.69,1.69,0,0,0-.58.1,2.13,2.13,0,0,0-1,.73,8.66,8.66,0,0,0-.75,1.17c-.07-.32-.15-.65-.25-1a1.43,1.43,0,0,0-.44-.74,1.16,1.16,0,0,0-.78-.29h-.14a1.4,1.4,0,0,0-.69.2,1.15,1.15,0,0,0-.53,1.07A2.54,2.54,0,0,0,391.67,668.6Zm.25,13.09a11.07,11.07,0,0,0,1.61,2.49,9.26,9.26,0,0,0,3.12-1.47,1.65,1.65,0,0,0,.54-1.07.92.92,0,0,0,.05-.25,1.19,1.19,0,0,0-.25-.73,1.24,1.24,0,0,0-.73-.54,1.37,1.37,0,0,0-.49-.09,1.32,1.32,0,0,0-.44.09,2.1,2.1,0,0,0-.7.61,7.59,7.59,0,0,0-.61.91c-.07-.3-.13-.56-.2-.81a1.09,1.09,0,0,0-.34-.56,1.06,1.06,0,0,0-.59-.22.94.94,0,0,0-.63.17.91.91,0,0,0-.44.88A2.07,2.07,0,0,0,391.92,681.69Z"/><path class="cls-2" d="M465.6,630.56h-5.72c0-.88.09-1.77.15-2.68l.1-2.64q13.77-1,27.59-1.9,12.79-.93,25.58-1.81l1.08,5.47q.58,2.73,1.12,5.52-6.54.53-13.09,1.12l-15,1.32L485,648l11-.29,11-.29-.24,16-10.89-1.36-7.37-.88-.1.78q-.69,5.37-1.32,10.74l12.7,3.61q6.3,1.82,12.64,3.57c.3-1.27.59-2.56.88-3.86s.54-2.55.83-3.86l2.49.59,1.81.39-.83,9-1,10.94-27.44-2.05q-8.94-.67-17.87-1.32-1.47-14.79-2.88-29.59Zm4.44,8.69a22.14,22.14,0,0,0,4.3,5.37,42.55,42.55,0,0,0,4-2,10.26,10.26,0,0,0,2.88-2.2,4.09,4.09,0,0,0,1.08-2.58v-.2a3.44,3.44,0,0,0-.64-2.05,3.59,3.59,0,0,0-1.9-1.07,2.84,2.84,0,0,0-.73-.1,3.09,3.09,0,0,0-1.42.34,4.24,4.24,0,0,0-1.59,1.54,16.76,16.76,0,0,0-1.19,2.27,15.13,15.13,0,0,0-.59-1.76,3,3,0,0,0-.93-1.27,2.33,2.33,0,0,0-1.32-.39l-.53,0a1.79,1.79,0,0,0-1,.51,2.14,2.14,0,0,0-.78,1.76A4.77,4.77,0,0,0,470,639.25Zm2.59,16.61a18.11,18.11,0,0,0,3.32,4,15.22,15.22,0,0,0,5.27-3.18,3.21,3.21,0,0,0,.83-2v-.19a2.41,2.41,0,0,0-.49-1.52,3,3,0,0,0-1.46-.83,2.92,2.92,0,0,0-.54,0,2.73,2.73,0,0,0-1.12.25,3.06,3.06,0,0,0-1.2,1.17,16.9,16.9,0,0,0-.9,1.76,7.9,7.9,0,0,0-.49-1.37,2.6,2.6,0,0,0-.73-1,1.67,1.67,0,0,0-.93-.29l-.44,0a1.44,1.44,0,0,0-.78.42,1.59,1.59,0,0,0-.63,1.32A3.92,3.92,0,0,0,472.63,655.86Zm2.15,12.25a12.19,12.19,0,0,0,2.39,3,11.07,11.07,0,0,0,3.86-2.39,2.17,2.17,0,0,0,.58-1.42v-.15a1.48,1.48,0,0,0-.39-1,1.71,1.71,0,0,0-1-.69h-.34a2.27,2.27,0,0,0-.83.15,1.84,1.84,0,0,0-.93.86,12.91,12.91,0,0,0-.64,1.29,6.25,6.25,0,0,0-.34-1,1.61,1.61,0,0,0-.54-.68,1,1,0,0,0-.63-.24h-.37a.93.93,0,0,0-.61.34,1.11,1.11,0,0,0-.44.92A2.29,2.29,0,0,0,474.78,668.11Zm1.66,13.23a10.87,10.87,0,0,0,1.85,2.35,9.37,9.37,0,0,0,3-1.86,1.64,1.64,0,0,0,.49-1.12v-.15a1.42,1.42,0,0,0-.24-.83,2,2,0,0,0-.88-.44,1,1,0,0,0-.3,0,1.09,1.09,0,0,0-.58.15,1.51,1.51,0,0,0-.71.66,6.1,6.1,0,0,0-.46,1c-.13-.26-.25-.51-.35-.76a1.23,1.23,0,0,0-.39-.56.88.88,0,0,0-.48-.14h-.3a.75.75,0,0,0-.44.19,1,1,0,0,0-.34.83A2.31,2.31,0,0,0,476.44,681.34Z"/><rect class="cls-2" x="1796.9" y="45.43" width="10.29" height="68.33" transform="translate(425.67 1245.49) rotate(-42.8)"/><rect class="cls-2" x="1796.9" y="45.43" width="10.29" height="68.33" transform="translate(534.05 -1203.32) rotate(42.81)"/><rect class="cls-3" x="1476.83" y="396.61" width="125.4" height="57" rx="28.5"/><rect class="cls-2" x="1477.71" y="399.87" width="125.4" height="57" rx="28.5"/><circle class="cls-3" cx="1501.59" cy="425.12" r="25.24"/><rect class="cls-2" x="1475.71" y="165.87" width="125.4" height="57" rx="28.5"/><rect class="cls-3" x="1475.83" y="165.61" width="125.4" height="57" rx="28.5"/><circle class="cls-2" cx="1564.97" cy="194.74" r="26.87"/><rect class="cls-2" x="885" y="664.83" width="705.12" height="23.29" rx="2.43"/><circle class="cls-3" cx="1384.74" cy="676.74" r="17.79"/></g></svg>