<svg xmlns="http://www.w3.org/2000/svg" width="433" height="147.97" viewBox="0 0 433 147.97"><defs><style>.cls-1{fill:#93278f;stroke:#44210b;stroke-miterlimit:10;stroke-width:4px;}.cls-2{fill:#d65fbf;}</style></defs><g id="characters"><rect class="cls-1" x="5.57" y="24.03" width="419.9" height="94.01" rx="21.39"/><path class="cls-2" d="M54.23,45.29,49,58.87q-1,2.79-2.08,5.52c-1.78-1.66-3.52-3.18-5.24-4.56a18.81,18.81,0,0,0-4.74-2.92,7.23,7.23,0,0,0-2.31-.41,4.8,4.8,0,0,0-1.55.24,5.64,5.64,0,0,0-2.58,1.84,3.5,3.5,0,0,0-.84,2.25,3.75,3.75,0,0,0,0,.45c.12,1,.89,2,2.31,3a25.89,25.89,0,0,0,4.77,2.33c2,.76,4,1.51,6.23,2.25l3.11,1.06a30.45,30.45,0,0,1,6.78,3.17A10,10,0,0,1,57,78.59a17.93,17.93,0,0,1,.66,5,27.26,27.26,0,0,1-.35,4.17,22,22,0,0,1-3.95,9.41,17.32,17.32,0,0,1-7.57,5.62,25,25,0,0,1-8.8,1.66c-.53,0-1.07,0-1.6,0a36.23,36.23,0,0,1-9.87-2.23,76.92,76.92,0,0,1-7.69-3.38q-2.93-1.42-4.28-2.15c-.91-.47-1.64-.87-2.2-1.2q.59-3.1,1.15-6.18,1-5.31,2-10.67l1.59.32c.89.17,1.78.34,2.66.53a13.25,13.25,0,0,0-.53,2.62c0,.6,0,.92,0,.94a6.08,6.08,0,0,0,1.06,3.36,11.86,11.86,0,0,0,3.64,3.13,11.3,11.3,0,0,0,4.61,1.57h.45a5.36,5.36,0,0,0,3.28-1,5.71,5.71,0,0,0,2-3,5,5,0,0,0,.22-1.47A6.33,6.33,0,0,0,33,83.37a10.25,10.25,0,0,0-3.37-4,45.45,45.45,0,0,0-4.48-2.9q-2.31-1.35-4.64-2.93A21.47,21.47,0,0,1,16.4,70a14,14,0,0,1-3.33-9,17.39,17.39,0,0,1,1.24-6.18,26.11,26.11,0,0,1,5.1-7.53,22.7,22.7,0,0,1,6.53-4.9,10.13,10.13,0,0,1,4.12-1,7.87,7.87,0,0,1,1.38.13,23.41,23.41,0,0,1,5.1,1.72c3.6,1.52,7.48,3.15,11.62,4.86l2.53-2.57.88-.9,1.91.45C53.75,45.17,54,45.24,54.23,45.29ZM17.91,66.4a17.33,17.33,0,0,0,4,2.25,13.66,13.66,0,0,0,3.5-3.89A2.82,2.82,0,0,0,25.54,63a2.19,2.19,0,0,0-.94-1.19,2.63,2.63,0,0,0-1.19-.28h-.27a2.42,2.42,0,0,0-1.33.61,2.31,2.31,0,0,0-.69,1.25c-.1.51-.18,1-.24,1.57-.27-.32-.53-.62-.8-.9a2.26,2.26,0,0,0-.89-.57,2.35,2.35,0,0,0-.4,0,1.75,1.75,0,0,0-.62.12,1.39,1.39,0,0,0-.8.62,1.28,1.28,0,0,0-.22.69A2.33,2.33,0,0,0,17.91,66.4Zm4.34-13.54a22.5,22.5,0,0,0,5.19,3,36.22,36.22,0,0,0,2.82-2.61,9.73,9.73,0,0,0,1.84-2.54,3.69,3.69,0,0,0,.27-1.35,3.24,3.24,0,0,0-.14-.94A2.61,2.61,0,0,0,31,46.93a2.88,2.88,0,0,0-1.51-.41,2.07,2.07,0,0,0-.4,0,3,3,0,0,0-1.73.78A3.25,3.25,0,0,0,26.47,49,14.87,14.87,0,0,0,26.16,51a10.14,10.14,0,0,0-1.05-1.19,3.24,3.24,0,0,0-1.17-.74,2,2,0,0,0-.53-.08,2.05,2.05,0,0,0-.8.17,2.58,2.58,0,0,0-1.07.81,1.71,1.71,0,0,0-.26.9A3.06,3.06,0,0,0,22.25,52.86ZM29,74.13a12.75,12.75,0,0,0,2.92,1.67,10,10,0,0,0,2.58-2.86,2.07,2.07,0,0,0,.17-.78,1.46,1.46,0,0,0-.09-.49,1.53,1.53,0,0,0-1.5-1.1.84.84,0,0,0-.27,0,1.58,1.58,0,0,0-1,.41,2,2,0,0,0-.48.92,7.2,7.2,0,0,0-.18,1.16,5.37,5.37,0,0,0-.58-.67,1.79,1.79,0,0,0-.66-.43.74.74,0,0,0-.23,0,1.31,1.31,0,0,0-.53.12,1.09,1.09,0,0,0-.57.45,1,1,0,0,0-.14.49A1.78,1.78,0,0,0,29,74.13Zm10,6.71a10.32,10.32,0,0,0,2.22,1.3,7.39,7.39,0,0,0,2-2.25,1.88,1.88,0,0,0,.09-.57,2,2,0,0,0,0-.41,1,1,0,0,0-.53-.65,1.49,1.49,0,0,0-.71-.17H42a1.29,1.29,0,0,0-.76.33,1.64,1.64,0,0,0-.37.72,3.22,3.22,0,0,0-.11.88,4.66,4.66,0,0,0-.47-.51,1.25,1.25,0,0,0-.51-.31.69.69,0,0,0-.22,0,.94.94,0,0,0-.36.08.81.81,0,0,0-.44.37.56.56,0,0,0-.13.37A1.38,1.38,0,0,0,39,80.84Z"/><path class="cls-2" d="M63.82,52.82H58.63c0-.74.07-1.49.13-2.25l.09-2.21q12.51-.82,25.06-1.6,11.63-.76,23.24-1.51l1,4.58q.53,2.3,1,4.62-5.94.45-11.89.94L83.64,56.5,81.47,67.42l10-.25,10-.24-.22,13.41L91.36,79.2l-6.7-.74-.08.66q-.63,4.5-1.2,9l11.53,3q5.72,1.52,11.49,3c.26-1.07.53-2.14.8-3.23s.48-2.14.75-3.23l2.26.49,1.64.32-.75,7.57-.89,9.16L85.28,103.5c-5.41-.39-10.82-.75-16.23-1.11Q67.72,90,66.43,77.6Zm4,7.28a19.08,19.08,0,0,0,3.91,4.5c1.3-.52,2.51-1.07,3.63-1.64A9.52,9.52,0,0,0,78,61.12,3.34,3.34,0,0,0,79,59v-.16a2.73,2.73,0,0,0-.58-1.72,3.4,3.4,0,0,0-1.73-.9,3.3,3.3,0,0,0-.67-.08,3,3,0,0,0-1.28.29,3.72,3.72,0,0,0-1.44,1.28,13.56,13.56,0,0,0-1.09,1.91,12.89,12.89,0,0,0-.53-1.48A2.46,2.46,0,0,0,70.82,57a2.2,2.2,0,0,0-1.19-.33l-.49,0a1.82,1.82,0,0,0-.93.43,1.73,1.73,0,0,0-.71,1.47A3.9,3.9,0,0,0,67.85,60.1ZM70.2,74a15.46,15.46,0,0,0,3,3.4A14.1,14.1,0,0,0,78,74.74a2.62,2.62,0,0,0,.75-1.64v-.16a1.91,1.91,0,0,0-.44-1.27A2.84,2.84,0,0,0,77,71a2.49,2.49,0,0,0-.49,0,2.76,2.76,0,0,0-1,.2,2.84,2.84,0,0,0-1.09,1,15.36,15.36,0,0,0-.82,1.48,6.09,6.09,0,0,0-.44-1.15,2.3,2.3,0,0,0-.66-.82,1.63,1.63,0,0,0-.85-.24l-.4,0a1.38,1.38,0,0,0-.71.34,1.31,1.31,0,0,0-.57,1.11A3.18,3.18,0,0,0,70.2,74Zm2,10.27a10.24,10.24,0,0,0,2.17,2.54,10.18,10.18,0,0,0,3.5-2,1.71,1.71,0,0,0,.54-1.18v-.13a1.17,1.17,0,0,0-.36-.85,1.58,1.58,0,0,0-.93-.58h-.31a2.13,2.13,0,0,0-.76.13,1.65,1.65,0,0,0-.84.71A11.05,11.05,0,0,0,74.59,84a4.55,4.55,0,0,0-.31-.81,1.38,1.38,0,0,0-.48-.58,1,1,0,0,0-.58-.2h-.33a.84.84,0,0,0-.56.29.92.92,0,0,0-.4.77A1.86,1.86,0,0,0,72.16,84.27Zm1.5,11.09a9.3,9.3,0,0,0,1.69,2,8.61,8.61,0,0,0,2.7-1.55,1.34,1.34,0,0,0,.45-1V94.7a1.14,1.14,0,0,0-.22-.69,1.78,1.78,0,0,0-.8-.37.84.84,0,0,0-.27,0,1.09,1.09,0,0,0-.53.12,1.31,1.31,0,0,0-.64.55,4.12,4.12,0,0,0-.42.84c-.12-.22-.23-.43-.32-.63A1,1,0,0,0,75,94a.85.85,0,0,0-.44-.13h-.27a.71.71,0,0,0-.4.17.81.81,0,0,0-.31.69A1.86,1.86,0,0,0,73.66,95.36Z"/><path class="cls-2" d="M142.19,51.43l3.69,53-30.3.16c0-1.09.07-2.17.13-3.23s.11-2.17.14-3.23l4.17-.08,2.75-.09,5.81-44.66-15,11.16a7.2,7.2,0,0,1-.22.86c-.06.33-.12.64-.18.94l-.84.09-.93.08q2-5.69,4.12-11.33t4.13-11.37l39.25,2.7q.88,10.31,1.73,20.61l-.66-.16-1.6-.33.31-2.13ZM130.4,57.56a20.17,20.17,0,0,0,3.5,4.62c1.3-.43,2.53-.89,3.68-1.37a9.27,9.27,0,0,0,2.75-1.65,3.17,3.17,0,0,0,1-1.6c0-.41.07-.67.07-.78a2.51,2.51,0,0,0-.49-1.55,2.55,2.55,0,0,0-1.33-1,4.91,4.91,0,0,0-1.11-.19,3,3,0,0,0-1.11.21,3.78,3.78,0,0,0-1.48,1.19,12.89,12.89,0,0,0-1.18,1.79,11.39,11.39,0,0,0-.44-1.47,2.61,2.61,0,0,0-.76-1.1,2.17,2.17,0,0,0-1.28-.41,2.5,2.5,0,0,0-1.33.37,1.75,1.75,0,0,0-.8,1.55A4.23,4.23,0,0,0,130.4,57.56Zm1.33,13.75a15.59,15.59,0,0,0,2.66,3.55,14.1,14.1,0,0,0,4.92-2.33,2.33,2.33,0,0,0,.8-1.2c0-.32,0-.53,0-.64a1.93,1.93,0,0,0-.35-1.14,2.08,2.08,0,0,0-1-.72,3.47,3.47,0,0,0-.87-.14,2.82,2.82,0,0,0-.8.12,3,3,0,0,0-1.15.92,10.07,10.07,0,0,0-.89,1.37,9.14,9.14,0,0,0-.33-1.15,1.67,1.67,0,0,0-.6-.81,1.58,1.58,0,0,0-1-.33,1.82,1.82,0,0,0-1,.29,1.34,1.34,0,0,0-.58,1.18A3.55,3.55,0,0,0,131.73,71.31Zm1.15,10.22a10,10,0,0,0,2,2.58,11.46,11.46,0,0,0,3.59-1.68,2,2,0,0,0,.58-.9,3.61,3.61,0,0,0,0-.41,1.36,1.36,0,0,0-1-1.41,2.64,2.64,0,0,0-.63-.1,2.7,2.7,0,0,0-.62.08,2.14,2.14,0,0,0-.84.67,10.4,10.4,0,0,0-.67,1,6.42,6.42,0,0,0-.22-.84,1.07,1.07,0,0,0-.44-.59,1.08,1.08,0,0,0-.71-.25,1.31,1.31,0,0,0-.71.2,1,1,0,0,0-.44.9A2.36,2.36,0,0,0,132.88,81.53Zm.66,10.92a8.13,8.13,0,0,0,1.51,2,8.8,8.8,0,0,0,2.8-1.35,1.25,1.25,0,0,0,.46-.7q0-.28,0-.33a1,1,0,0,0-.23-.65,1.14,1.14,0,0,0-.55-.41,2,2,0,0,0-.47-.08,1.46,1.46,0,0,0-.48.08,1.6,1.6,0,0,0-.67.51,5.82,5.82,0,0,0-.49.76c-.06-.22-.12-.43-.2-.64a1,1,0,0,0-.33-.47,1.18,1.18,0,0,0-.58-.16,1.14,1.14,0,0,0-.57.16.71.71,0,0,0-.36.66A1.76,1.76,0,0,0,133.54,92.45Z"/><path class="cls-2" d="M191.87,51.43l3.69,53-30.3.16c0-1.09.07-2.17.13-3.23s.11-2.17.14-3.23l4.17-.08,2.75-.09,5.81-44.66-15,11.16a7.2,7.2,0,0,1-.22.86c-.06.33-.12.64-.18.94l-.84.09-.93.08q2-5.69,4.12-11.33t4.13-11.37l39.25,2.7q.88,10.31,1.73,20.61l-.66-.16-1.6-.33.31-2.13Zm-11.79,6.13a19.88,19.88,0,0,0,3.5,4.62c1.3-.43,2.53-.89,3.68-1.37A9.27,9.27,0,0,0,190,59.16a3.17,3.17,0,0,0,1-1.6c0-.41.07-.67.07-.78a2.51,2.51,0,0,0-.49-1.55,2.55,2.55,0,0,0-1.33-1,4.91,4.91,0,0,0-1.11-.19,3,3,0,0,0-1.11.21,3.78,3.78,0,0,0-1.48,1.19,12.89,12.89,0,0,0-1.18,1.79A11.39,11.39,0,0,0,184,55.8a2.61,2.61,0,0,0-.76-1.1,2.17,2.17,0,0,0-1.28-.41,2.5,2.5,0,0,0-1.33.37,1.75,1.75,0,0,0-.8,1.55A4.23,4.23,0,0,0,180.08,57.56Zm1.33,13.75a15.59,15.59,0,0,0,2.66,3.55A14.1,14.1,0,0,0,189,72.53a2.33,2.33,0,0,0,.8-1.2c0-.32,0-.53,0-.64a1.93,1.93,0,0,0-.35-1.14,2.08,2.08,0,0,0-1-.72,3.47,3.47,0,0,0-.87-.14,2.82,2.82,0,0,0-.8.12,3,3,0,0,0-1.15.92,10.07,10.07,0,0,0-.89,1.37A9.14,9.14,0,0,0,184.4,70a1.67,1.67,0,0,0-.6-.81,1.6,1.6,0,0,0-1-.33,1.82,1.82,0,0,0-1,.29,1.34,1.34,0,0,0-.58,1.18A3.55,3.55,0,0,0,181.41,71.31Zm1.15,10.22a10,10,0,0,0,1.95,2.58,11.46,11.46,0,0,0,3.59-1.68,2,2,0,0,0,.58-.9,3.61,3.61,0,0,0,0-.41,1.58,1.58,0,0,0-.26-.9,1.55,1.55,0,0,0-.76-.51,2.51,2.51,0,0,0-.62-.1,2.7,2.7,0,0,0-.62.08,2.14,2.14,0,0,0-.84.67,10.4,10.4,0,0,0-.67,1,6.42,6.42,0,0,0-.22-.84,1.07,1.07,0,0,0-.44-.59,1.08,1.08,0,0,0-.71-.25,1.31,1.31,0,0,0-.71.2,1,1,0,0,0-.44.9A2.36,2.36,0,0,0,182.56,81.53Zm.66,10.92a8.13,8.13,0,0,0,1.51,2,8.8,8.8,0,0,0,2.8-1.35,1.25,1.25,0,0,0,.46-.7q0-.28,0-.33a1,1,0,0,0-.23-.65,1.14,1.14,0,0,0-.55-.41,2,2,0,0,0-.47-.08,1.57,1.57,0,0,0-.49.08,1.64,1.64,0,0,0-.66.51,5.82,5.82,0,0,0-.49.76c-.06-.22-.12-.43-.2-.64a1,1,0,0,0-.33-.47,1.18,1.18,0,0,0-.58-.16,1.14,1.14,0,0,0-.57.16.71.71,0,0,0-.36.66A1.76,1.76,0,0,0,183.22,92.45Z"/><path class="cls-2" d="M219.55,51.92l-4-1.11c-1.51-.38-3-.77-4.48-1.18.32-.74.63-1.48.93-2.21L213,45q5.15.21,10.29.37l10.29.37q1.47,9.69,3,19.35,2.52,16.65,5,33.33c1.3,0,2.62,0,4,0l3.9.09c.06.92.11,1.84.14,2.74.06,1.2.13,2.4.22,3.6l-34.56-.13Zm2.58,7a19.44,19.44,0,0,0,3.15,4.58c1.27-.41,2.46-.82,3.59-1.24a9.24,9.24,0,0,0,2.7-1.5,3.47,3.47,0,0,0,1.16-1.92v-.41a2.54,2.54,0,0,0-.4-1.39,2.77,2.77,0,0,0-1.51-1,4,4,0,0,0-.93-.12,3.48,3.48,0,0,0-.93.12,3.71,3.71,0,0,0-1.49,1.08,12.68,12.68,0,0,0-1.18,1.66,8.11,8.11,0,0,0-.37-1.41,2.8,2.8,0,0,0-.69-1.09,1.92,1.92,0,0,0-1.2-.41h-.13a2,2,0,0,0-1.15.33,1.7,1.7,0,0,0-.85,1.6A3.59,3.59,0,0,0,222.13,59Zm.7,13.25a14.37,14.37,0,0,0,2.45,3.48,14.51,14.51,0,0,0,4.79-2.08,2.37,2.37,0,0,0,.88-1.48v-.37a2.21,2.21,0,0,0-.26-1,2.67,2.67,0,0,0-1.2-.78,3.3,3.3,0,0,0-.67-.08,2.37,2.37,0,0,0-.75.13,2.73,2.73,0,0,0-1.11.83,12.49,12.49,0,0,0-.93,1.29,5.53,5.53,0,0,0-.27-1.1,2,2,0,0,0-.53-.82,1.43,1.43,0,0,0-.93-.33h-.13a1.81,1.81,0,0,0-.85.21,1.34,1.34,0,0,0-.62,1.18A4.31,4.31,0,0,0,222.83,72.2Zm.67,9.86a11.06,11.06,0,0,0,1.82,2.5,10.08,10.08,0,0,0,3.5-1.48,1.9,1.9,0,0,0,.67-1.1v-.25a1.33,1.33,0,0,0-.22-.73,1.54,1.54,0,0,0-.85-.57,1.6,1.6,0,0,0-.53-.09,1.3,1.3,0,0,0-.49.09,1.67,1.67,0,0,0-.86.59q-.33.44-.69,1c-.06-.3-.12-.57-.18-.82a1.12,1.12,0,0,0-.39-.61,1.05,1.05,0,0,0-.67-.21l-.13,0a1.07,1.07,0,0,0-1.07,1.15A2.64,2.64,0,0,0,223.5,82.06Zm.27,10.47a8.06,8.06,0,0,0,1.37,2,8.2,8.2,0,0,0,2.71-1.15,1.63,1.63,0,0,0,.53-.9v-.2a.87.87,0,0,0-.18-.53,1.3,1.3,0,0,0-.62-.45,1.19,1.19,0,0,0-.44-.09,1.08,1.08,0,0,0-.4.09,1.42,1.42,0,0,0-.64.47,4.68,4.68,0,0,0-.51.71,2.87,2.87,0,0,0-.16-.61,1.13,1.13,0,0,0-.29-.45,1.29,1.29,0,0,0-.55-.19,1,1,0,0,0-.56.15.69.69,0,0,0-.35.65A1.65,1.65,0,0,0,223.77,92.53Z"/><path class="cls-2" d="M275.84,44.15q4.88,13.17,9.8,26.34,3.69,9.93,7.41,19.83-1.16-9.85-2.26-19.71-1.52-13.17-3-26.3l14.15,2.25L311.33,48q-.13,1.3-.27,2.58l-2.62.12c-.59,0-1.16,0-1.73,0Q305.65,64,304.63,77.28l-2,25.85-13.8,1.47c-.29-.33-.59-.64-.88-.94a4.1,4.1,0,0,1-.49-.53l1.6-.78c.56-.25,1.1-.5,1.64-.78q-5-8.34-10-16.73L267.37,62.51l2.39,13.66q2.26,12.69,4.53,25.4l.75.08.49.09,1,.08.48.08c.33,0,.66.07,1,.12h.22a1.47,1.47,0,0,0,.36,0h.09a0,0,0,0,1,0,0c0,.5-.07,1-.13,1.52l-.18,1.47L263.24,104l-10.91-.82Q253,88,253.53,72.78q.5-11.51.93-23c-.38.06-.75.12-1.11.2-.83.11-1.65.24-2.48.37-.27-.54-.53-1.07-.8-1.59l-.8-1.64Q262.53,45.61,275.84,44.15ZM255.53,61.41A20.17,20.17,0,0,0,259,66c1.3-.44,2.53-.9,3.68-1.39A9.38,9.38,0,0,0,265.46,63a3.57,3.57,0,0,0,1.11-2v-.29a2.58,2.58,0,0,0-.49-1.6,3,3,0,0,0-1.64-1,3.15,3.15,0,0,0-.84-.12,3.11,3.11,0,0,0-1.07.2A3.25,3.25,0,0,0,261,59.3a15.7,15.7,0,0,0-1.16,1.82,9.37,9.37,0,0,0-.44-1.49,2.53,2.53,0,0,0-.8-1.09,2,2,0,0,0-1.24-.41,2.46,2.46,0,0,0-1.33.37,1.77,1.77,0,0,0-.8,1.56A3.94,3.94,0,0,0,255.53,61.41Zm1.37,13.78a16.17,16.17,0,0,0,2.71,3.52,16.13,16.13,0,0,0,4.92-2.33,2.87,2.87,0,0,0,.8-1.6V74.5a1.9,1.9,0,0,0-.36-1.15,2.22,2.22,0,0,0-1.24-.78,2.44,2.44,0,0,0-.57-.08,2.74,2.74,0,0,0-.89.16,2.85,2.85,0,0,0-1.13.92c-.31.43-.62.88-.91,1.37a9,9,0,0,0-.33-1.14,1.83,1.83,0,0,0-.6-.82,1.71,1.71,0,0,0-1-.3,1.65,1.65,0,0,0-1,.26,1.38,1.38,0,0,0-.62,1.23A3.43,3.43,0,0,0,256.9,75.19Zm1.2,10.19a11.11,11.11,0,0,0,2,2.57,10,10,0,0,0,3.55-1.72,1.68,1.68,0,0,0,.62-1.14v-.25a1.14,1.14,0,0,0-.26-.77,1.6,1.6,0,0,0-.89-.58,4.6,4.6,0,0,0-.49,0,2.7,2.7,0,0,0-.62.08,2,2,0,0,0-.82.68c-.22.31-.44.65-.64,1a4.32,4.32,0,0,0-.25-.84,1.25,1.25,0,0,0-.46-.59,1.13,1.13,0,0,0-1.42,0,1,1,0,0,0-.44.86A2.41,2.41,0,0,0,258.1,85.38Zm.75,10.92a7.65,7.65,0,0,0,1.51,2,8.22,8.22,0,0,0,2.8-1.31,2,2,0,0,0,.48-.9V96a1.07,1.07,0,0,0-.93-1.11,1.36,1.36,0,0,0-.44-.08,1.29,1.29,0,0,0-.4.08,1.58,1.58,0,0,0-.62.54c-.18.24-.36.5-.53.77-.06-.21-.13-.43-.2-.63a1,1,0,0,0-.34-.47.86.86,0,0,0-.53-.16,1,1,0,0,0-.57.16.75.75,0,0,0-.36.65A1.53,1.53,0,0,0,258.85,96.3Z"/><path class="cls-2" d="M354.89,49.42c.7,0,1.15-.2,1.33-.61a2.37,2.37,0,0,0,.17-.9,6.62,6.62,0,0,0-.11-1,14.34,14.34,0,0,0-.42-1.82c.83,0,1.66,0,2.48,0s1.66,0,2.49,0q-.58,5.31-1.09,9.77t-.86,6.3c-.12.57-.25.87-.4.9h-.05a1.63,1.63,0,0,1-.75-.37,10.61,10.61,0,0,0-4-1.8A27.13,27.13,0,0,0,348,59.4c-1.1,0-2.85.1-5.26.29A20.2,20.2,0,0,0,335,62.1a10.9,10.9,0,0,0-5,6,18,18,0,0,0-1,6c0,.65,0,1.32.09,2A25.64,25.64,0,0,0,331,84a10.26,10.26,0,0,0,3.93,5.1,6.84,6.84,0,0,0,3.11.73,13.62,13.62,0,0,0,3.41-.63A34.83,34.83,0,0,0,347,86.89c-.54-.79-1.07-1.6-1.6-2.41s-1-1.63-1.55-2.42c-.68.17-1.35.34-2,.53-1.12.33-2.25.64-3.37.94l-1.78-2.78q-1.59-2.49-3.19-5l20.23-3.11q3.4,6.8,6.78,13.58l6.84,13.58c-1.54.41-3.08.83-4.62,1.27-1,.3-2.05.59-3.06.86-.65-.76-1.29-1.53-1.91-2.29s-1.3-1.51-2-2.25a46.32,46.32,0,0,1-4.19,3.48,29.63,29.63,0,0,1-6.05,3.27,37.08,37.08,0,0,1-9,2.49,22.69,22.69,0,0,1-3.86.33A22.84,22.84,0,0,1,317,100.8a29.66,29.66,0,0,1-6.74-8.72A30.59,30.59,0,0,1,307.16,82a40,40,0,0,1-.27-4.62,35.76,35.76,0,0,1,.4-5.4q1.6-9.73,6.79-15.79a26,26,0,0,1,12.59-8,40,40,0,0,1,12.07-1.88,41.59,41.59,0,0,1,4.17.21,46.81,46.81,0,0,1,7.76,1.92A14.66,14.66,0,0,0,354.89,49.42ZM312,75.15a16.58,16.58,0,0,0,3.28,3.11,14.35,14.35,0,0,0,4.44-3.07,2.53,2.53,0,0,0,.53-1.47c0-.08,0-.27,0-.57a1.64,1.64,0,0,0-.56-1,2.52,2.52,0,0,0-1.37-.57H318a2.53,2.53,0,0,0-1.2.29,2.69,2.69,0,0,0-.93,1.06,13.18,13.18,0,0,0-.66,1.51,6.21,6.21,0,0,0-.54-1.06,2.2,2.2,0,0,0-.71-.74,1.5,1.5,0,0,0-.75-.2,3.58,3.58,0,0,0-.49.06,1.41,1.41,0,0,0-.71.39,1.3,1.3,0,0,0-.44,1A2.71,2.71,0,0,0,312,75.15Zm3.81,11.17a11.81,11.81,0,0,0,2.4,2.25,10,10,0,0,0,3.24-2.25,1.93,1.93,0,0,0,.39-1.07s0-.19,0-.41a1.22,1.22,0,0,0-.42-.73,1.53,1.53,0,0,0-1-.41h-.18a2,2,0,0,0-.89.2,2.13,2.13,0,0,0-.71.8,6.43,6.43,0,0,0-.44,1.08,6.21,6.21,0,0,0-.4-.77,1.34,1.34,0,0,0-.53-.53,1.27,1.27,0,0,0-.58-.13l-.33,0a.84.84,0,0,0-.51.31,1,1,0,0,0-.31.74A2.09,2.09,0,0,0,315.76,86.32Zm.71-23.07a20.38,20.38,0,0,0,4.31,4c1.21-.63,2.34-1.27,3.39-1.93a9.11,9.11,0,0,0,2.42-2.08,3.71,3.71,0,0,0,.7-2c0-.05,0-.27,0-.65a2.16,2.16,0,0,0-.75-1.27,3.05,3.05,0,0,0-1.78-.74h-.31a3,3,0,0,0-2.86,1.76,14.21,14.21,0,0,0-.82,2,9.54,9.54,0,0,0-.71-1.39,2.74,2.74,0,0,0-1-1,2.47,2.47,0,0,0-1-.2l-.57.06a1.74,1.74,0,0,0-.93.51,1.67,1.67,0,0,0-.58,1.27A3.57,3.57,0,0,0,316.47,63.25Zm7,31.41a8.81,8.81,0,0,0,1.86,1.72,7.58,7.58,0,0,0,2.53-1.72,1.62,1.62,0,0,0,.27-.82v-.35a.82.82,0,0,0-.31-.55,1.53,1.53,0,0,0-.8-.33h-.13a1.42,1.42,0,0,0-.67.17,1.37,1.37,0,0,0-.55.59,8.17,8.17,0,0,0-.38.84c-.09-.19-.19-.38-.29-.57a.88.88,0,0,0-.42-.41.94.94,0,0,0-.44-.12,1.53,1.53,0,0,0-.27,0,.77.77,0,0,0-.4.22.69.69,0,0,0-.22.53A1.79,1.79,0,0,0,323.48,94.66Z"/><path class="cls-2" d="M410.11,45.29l-5.24,13.58q-1,2.79-2.08,5.52c-1.77-1.66-3.52-3.18-5.23-4.56a18.85,18.85,0,0,0-4.75-2.92,7.23,7.23,0,0,0-2.31-.41,4.8,4.8,0,0,0-1.55.24,5.67,5.67,0,0,0-2.57,1.84,3.5,3.5,0,0,0-.84,2.25,2.42,2.42,0,0,0,0,.45c.12,1,.89,2,2.31,3a25.89,25.89,0,0,0,4.77,2.33q2.94,1.14,6.23,2.25l3.1,1.06a30.54,30.54,0,0,1,6.79,3.17,10,10,0,0,1,4.08,5.51,17.93,17.93,0,0,1,.66,5,26.06,26.06,0,0,1-.35,4.17,21.89,21.89,0,0,1-3.95,9.41,17.35,17.35,0,0,1-7.56,5.62,25,25,0,0,1-8.81,1.66c-.53,0-1.06,0-1.59,0a36.23,36.23,0,0,1-9.87-2.23,77.21,77.21,0,0,1-7.7-3.38q-2.93-1.42-4.28-2.15t-2.19-1.2c.38-2.07.77-4.13,1.15-6.18q1-5.31,1.95-10.67l1.6.32c.89.17,1.77.34,2.66.53a12.55,12.55,0,0,0-.53,2.62c0,.6-.05.92-.05.94a6.09,6.09,0,0,0,1.07,3.36,11.81,11.81,0,0,0,3.63,3.13,11.29,11.29,0,0,0,4.62,1.57h.44A5.34,5.34,0,0,0,387,90a5.59,5.59,0,0,0,2-3,5,5,0,0,0,.23-1.47,6.14,6.14,0,0,0-.45-2.25,10.16,10.16,0,0,0-3.37-4,43.19,43.19,0,0,0-4.48-2.9q-2.31-1.35-4.63-2.93A21.23,21.23,0,0,1,372.27,70,13.94,13.94,0,0,1,369,61a17.17,17.17,0,0,1,1.24-6.18,25.71,25.71,0,0,1,5.1-7.53,22.67,22.67,0,0,1,6.52-4.9,10.17,10.17,0,0,1,4.12-1,7.69,7.69,0,0,1,1.38.13,23.23,23.23,0,0,1,5.1,1.72c3.61,1.52,7.48,3.15,11.62,4.86l2.53-2.57.89-.9,1.91.45C409.62,45.17,409.87,45.24,410.11,45.29ZM373.78,66.4a17.77,17.77,0,0,0,4,2.25,13.56,13.56,0,0,0,3.51-3.89,3.21,3.21,0,0,0,.22-1.1,2.5,2.5,0,0,0-.09-.66,2.22,2.22,0,0,0-.93-1.19,2.67,2.67,0,0,0-1.2-.28H379a2.45,2.45,0,0,0-1.34.61,2.3,2.3,0,0,0-.68,1.25,15.58,15.58,0,0,0-.25,1.57c-.26-.32-.53-.62-.8-.9a2.23,2.23,0,0,0-.88-.57,2.35,2.35,0,0,0-.4,0,1.67,1.67,0,0,0-.62.12,1.36,1.36,0,0,0-.8.62,1.2,1.2,0,0,0-.22.69A2.36,2.36,0,0,0,373.78,66.4Zm4.35-13.54a22.29,22.29,0,0,0,5.19,3,37.91,37.91,0,0,0,2.81-2.61A9.79,9.79,0,0,0,388,50.73a3.89,3.89,0,0,0,.26-1.35,3.24,3.24,0,0,0-.13-.94,2.64,2.64,0,0,0-1.24-1.51,2.93,2.93,0,0,0-1.51-.41,2,2,0,0,0-.4,0,3,3,0,0,0-1.73.78,3.19,3.19,0,0,0-.89,1.63A14.87,14.87,0,0,0,382,51a9.24,9.24,0,0,0-1-1.19,3.2,3.2,0,0,0-1.18-.74,1.89,1.89,0,0,0-.53-.08,2.13,2.13,0,0,0-.8.17,2.55,2.55,0,0,0-1.06.81,1.63,1.63,0,0,0-.27.9A3.08,3.08,0,0,0,378.13,52.86Zm6.74,21.27a13.07,13.07,0,0,0,2.93,1.67,10,10,0,0,0,2.57-2.86,1.92,1.92,0,0,0,.18-.78,1.46,1.46,0,0,0-.09-.49,1.67,1.67,0,0,0-.71-.9,1.64,1.64,0,0,0-.8-.2.84.84,0,0,0-.27,0,1.55,1.55,0,0,0-1,.41,1.91,1.91,0,0,0-.49.92A7.2,7.2,0,0,0,387,73.1a5.3,5.3,0,0,0-.57-.67,1.82,1.82,0,0,0-.67-.43.69.69,0,0,0-.22,0,1.28,1.28,0,0,0-.53.12,1.11,1.11,0,0,0-.58.45,1,1,0,0,0-.13.49A1.81,1.81,0,0,0,384.87,74.13Zm10,6.71a10.84,10.84,0,0,0,2.22,1.3,7.14,7.14,0,0,0,2-2.25,1.88,1.88,0,0,0,.09-.57,2,2,0,0,0,0-.41,1,1,0,0,0-.54-.65,1.45,1.45,0,0,0-.7-.17h-.14a1.29,1.29,0,0,0-.75.33,1.56,1.56,0,0,0-.38.72,3.66,3.66,0,0,0-.11.88,4.6,4.6,0,0,0-.46-.51,1.36,1.36,0,0,0-.52-.31.64.64,0,0,0-.22,0,.89.89,0,0,0-.35.08.8.8,0,0,0-.45.37.62.62,0,0,0-.13.37A1.44,1.44,0,0,0,394.89,80.84Z"/></g></svg>